<?xml version="1.0" encoding="utf-8"?>
<svg xmlns="http://www.w3.org/2000/svg"
     width="90.0mm" height="90.0mm"
     viewBox="0 0 90.0 90.0">
  <rect width="90.0mm" height="90.0mm" fill="white"/>
  <!-- LAYER 1: outer — zewnętrzna sylwetka cuttera -->
  <g id="outer">
    <path id="outer_contour" d="M 45.0,5.0 C 42.0,5.0 39.0,7.0 38.0,10.0 C 37.0,13.0 37.5,16.0 36.0,18.0 C 34.5,20.0 32.0,20.5 30.0,22.0 C 28.0,23.5 27.0,25.5 27.0,28.0 C 27.0,30.0 28.0,31.5 29.0,33.0 C 30.0,34.5 31.0,35.5 31.0,37.0 C 31.0,38.5 30.0,40.0 29.0,42.0 C 28.0,44.0 26.5,46.0 24.0,48.0 C 21.5,50.0 18.0,52.0 15.0,54.5 C 12.0,57.0 10.0,60.0 9.0,63.0 C 8.0,66.0 8.5,69.0 10.0,71.5 C 11.5,74.0 14.0,75.5 16.5,76.0 C 17.5,76.2 18.5,76.2 19.5,76.0 C 20.0,78.0 21.0,80.0 22.5,81.5 C 24.5,83.5 27.0,84.5 29.5,84.0 C 32.0,83.5 34.0,81.5 35.0,79.0 C 35.5,77.5 35.7,76.0 35.5,74.5 C 37.0,74.8 38.5,75.0 40.0,75.0 C 44.0,75.0 48.0,74.5 52.0,74.0 C 54.0,74.0 56.0,74.2 57.5,75.0 C 58.0,77.0 58.5,79.0 59.5,80.5 C 61.0,82.5 63.0,84.0 65.5,84.5 C 68.0,85.0 70.5,84.0 72.0,82.0 C 73.5,80.0 74.0,77.5 74.0,75.0 C 74.0,74.0 73.8,73.0 73.5,72.0 C 75.5,71.0 77.0,69.5 78.0,67.5 C 79.5,64.5 79.5,61.0 78.5,58.0 C 77.5,55.0 75.5,52.5 73.0,50.0 C 70.5,47.5 67.5,45.5 65.0,43.0 C 62.5,40.5 60.5,37.5 59.5,34.5 C 58.5,31.5 58.5,28.5 59.0,26.0 C 59.5,23.5 60.0,21.5 60.0,19.5 C 60.0,16.0 58.5,13.0 56.0,10.5 C 53.5,8.0 50.5,6.5 48.0,5.5 C 47.0,5.2 46.0,5.0 45.0,5.0 Z" fill="none" stroke="#000000" stroke-width="1.2"/>
  </g>
  <!-- LAYER 2: stamp — wewnętrzne detale embossera -->
  <g id="stamp">
    <path id="stamp_outline" d="M 37.82,55.94 L 52.18,55.94 L 52.18,46.37 L 47.05,46.37 L 47.05,37.48 L 48.42,37.48 L 48.42,32.00 L 41.58,32.00 L 41.58,37.48 L 42.95,37.48 L 42.95,46.37 L 37.82,46.37 Z" fill="none" stroke="#666666" stroke-width="0.8"/>
    <circle id="eye_l" cx="36.00" cy="37.80" r="3.60" fill="#333333"/>
    <circle id="eye_r" cx="54.00" cy="37.80" r="3.60" fill="#333333"/>
    <path id="smile" d="M 34.20,49.50 Q 45.00,55.98 55.80,49.50" fill="none" stroke="#333333" stroke-width="1.0"/>
  </g>
</svg>