<?xml version="1.0" encoding="utf-8"?>
<svg xmlns="http://www.w3.org/2000/svg"
     width="75.0mm" height="75.0mm"
     viewBox="0 0 75.0 75.0">
  <rect width="75.0mm" height="75.0mm" fill="white"/>
  <!-- LAYER 1: outer — zewnętrzna sylwetka cuttera -->
  <g id="outer">
    <path id="outer_contour" d="M 25.5,18.5 C 23.0,16.0 20.0,12.5 17.5,10.5 C 15.0,8.5 12.0,7.5 11.0,10.0 C 10.0,12.5 11.5,15.5 13.5,18.0 C 15.5,20.5 18.0,22.0 20.0,23.0 C 17.0,24.5 14.5,27.0 13.0,30.0 C 11.5,33.0 11.0,36.5 11.5,40.0 C 12.0,43.5 13.5,46.5 15.0,49.0 C 16.0,50.5 17.0,52.0 17.5,54.0 C 18.0,56.0 18.0,58.5 18.0,60.5 C 18.0,62.5 18.2,64.0 19.5,65.0 C 20.8,66.0 23.0,66.0 24.5,65.0 C 26.0,64.0 26.5,62.5 27.0,60.0 C 27.5,57.5 27.5,55.5 28.0,53.5 C 28.5,52.0 29.5,51.0 31.0,50.5 C 33.0,50.0 35.5,50.0 38.0,50.0 C 40.5,50.0 43.0,50.0 45.0,50.5 C 46.5,51.0 47.5,52.0 48.0,53.5 C 48.5,55.5 48.5,57.5 49.0,60.0 C 49.5,62.5 50.0,64.0 51.5,65.0 C 53.0,66.0 55.2,66.0 56.5,65.0 C 57.8,64.0 58.0,62.5 58.0,60.5 C 58.0,58.5 58.0,56.0 58.5,54.0 C 59.0,52.0 60.0,50.5 61.0,49.0 C 62.5,46.5 64.0,43.5 64.5,40.0 C 65.0,36.5 64.5,33.0 63.0,30.0 C 61.5,27.0 59.0,24.5 56.0,23.0 C 58.0,22.0 60.5,20.5 62.5,18.0 C 64.5,15.5 66.0,12.5 65.0,10.0 C 64.0,7.5 61.0,8.5 58.5,10.5 C 56.0,12.5 53.0,16.0 50.5,18.5 C 48.0,21.0 46.5,22.5 44.0,23.5 C 41.5,24.5 39.0,24.5 37.5,24.5 C 36.0,24.5 34.5,24.5 32.0,23.5 C 29.5,22.5 28.0,21.0 25.5,18.5 Z M 29.0,34.0 C 28.0,33.0 26.5,33.0 25.5,34.0 C 24.5,35.0 24.5,36.5 25.5,37.5 C 26.5,38.5 28.0,38.5 29.0,37.5 C 30.0,36.5 30.0,35.0 29.0,34.0 Z M 47.0,34.0 C 46.0,33.0 44.5,33.0 43.5,34.0 C 42.5,35.0 42.5,36.5 43.5,37.5 C 44.5,38.5 46.0,38.5 47.0,37.5 C 48.0,36.5 48.0,35.0 47.0,34.0 Z M 34.0,41.0 C 33.0,41.5 32.5,42.5 33.0,43.5 C 33.5,44.5 34.5,45.5 36.0,46.0 C 37.0,46.3 38.0,46.3 39.0,46.0 C 40.5,45.5 41.5,44.5 42.0,43.5 C 42.5,42.5 42.0,41.5 41.0,41.0 C 40.0,40.5 38.5,40.5 37.5,40.5 C 36.5,40.5 35.0,40.5 34.0,41.0 Z" fill="none" stroke="#000000" stroke-width="1.2"/>
  </g>
  <!-- LAYER 2: stamp — wewnętrzne detale embossera -->
  <g id="stamp">
    <path id="stamp_outline" d="M 31.52,46.62 L 43.48,46.62 L 43.48,38.64 L 39.21,38.64 L 39.21,31.23 L 40.35,31.23 L 40.35,26.67 L 34.65,26.67 L 34.65,31.23 L 35.79,31.23 L 35.79,38.64 L 31.52,38.64 Z" fill="none" stroke="#666666" stroke-width="0.8"/>
    <circle id="eye_l" cx="30.00" cy="31.50" r="3.00" fill="#333333"/>
    <circle id="eye_r" cx="45.00" cy="31.50" r="3.00" fill="#333333"/>
    <path id="smile" d="M 28.50,41.25 Q 37.50,46.65 46.50,41.25" fill="none" stroke="#333333" stroke-width="1.0"/>
  </g>
</svg>