<?xml version="1.0" encoding="utf-8"?>
<svg xmlns="http://www.w3.org/2000/svg"
     width="75.0mm" height="75.0mm"
     viewBox="0 0 75.0 75.0">
  <rect width="75.0mm" height="75.0mm" fill="white"/>
  <!-- LAYER 1: outer — zewnętrzna sylwetka cuttera -->
  <g id="outer">
    <path id="outer_contour" d="M 37.5,5 C 40,5 42,7 42,10 C 42,12 41,14 40,15 C 41,15.5 42,16 42.5,17 C 43,18 43,19 42.5,20 C 48,20 54,21 58,24 C 62,27 64,31 64,36 C 64,38 63.5,40 63,41 C 65,42 67,44 68,47 C 69,50 68,53 66,55 C 64,57 61,58 58,58 C 58,61 57,64 55,66 C 53,68 50,69 47,69 C 45,69 43,68.5 41,67.5 C 40,68 38.5,68.5 37,68.5 C 35.5,68.5 34,68 33,67.5 C 31,68.5 29,69 27,69 C 24,69 21,68 19,66 C 17,64 16,61 16,58 C 13,58 10,57 8,55 C 6,53 5,50 6,47 C 7,44 9,42 11,41 C 10.5,40 10,38 10,36 C 10,31 12,27 16,24 C 20,21 26,20 31.5,20 C 31,19 31,18 31.5,17 C 32,16 33,15.5 34,15 C 33,14 32,12 32,10 C 32,7 34,5 37.5,5 Z" fill="none" stroke="#000000" stroke-width="1.2"/>
  </g>
  <!-- LAYER 2: stamp — wewnętrzne detale embossera -->
  <g id="stamp">
    <path id="stamp_outline" d="M 31.52,46.62 L 43.48,46.62 L 43.48,38.64 L 39.21,38.64 L 39.21,31.23 L 40.35,31.23 L 40.35,26.67 L 34.65,26.67 L 34.65,31.23 L 35.79,31.23 L 35.79,38.64 L 31.52,38.64 Z" fill="none" stroke="#666666" stroke-width="0.8"/>
    <circle id="eye_l" cx="30.00" cy="31.50" r="3.00" fill="#333333"/>
    <circle id="eye_r" cx="45.00" cy="31.50" r="3.00" fill="#333333"/>
    <path id="smile" d="M 28.50,41.25 Q 37.50,46.65 46.50,41.25" fill="none" stroke="#333333" stroke-width="1.0"/>
  </g>
</svg>