<?xml version="1.0" encoding="utf-8"?>
<svg xmlns="http://www.w3.org/2000/svg"
     width="60.0mm" height="60.0mm"
     viewBox="0 0 60.0 60.0">
  <rect width="60.0mm" height="60.0mm" fill="white"/>
  <!-- LAYER 1: outer — zewnętrzna sylwetka cuttera -->
  <g id="outer">
    <path id="outer_contour" d="M 30.0,4.0 C 28.0,4.0 26.5,5.5 26.5,7.5 C 26.5,9.0 27.0,10.0 27.5,11.0 C 25.0,11.5 23.0,13.0 22.0,15.0 C 20.5,14.0 18.5,13.5 17.0,13.5 C 15.0,13.5 13.5,14.5 13.5,16.5 C 13.5,18.0 14.5,19.5 16.0,20.0 C 15.0,21.5 14.5,23.5 14.5,25.5 C 14.5,28.0 15.5,30.0 16.0,31.0 C 15.0,32.5 13.0,35.0 12.0,38.0 C 11.0,41.0 11.5,44.0 12.0,46.0 L 12.0,52.0 C 12.0,54.0 13.5,55.5 15.5,55.5 C 17.5,55.5 19.0,54.0 19.0,52.0 L 19.0,48.0 C 20.5,49.0 22.5,49.5 25.0,49.5 C 27.0,49.5 29.0,49.0 30.5,48.5 L 30.5,52.0 C 30.5,54.0 32.0,55.5 34.0,55.5 C 36.0,55.5 37.5,54.0 37.5,52.0 L 37.5,48.0 C 39.0,49.0 41.0,49.5 43.0,49.5 C 44.5,49.5 46.0,49.2 47.0,48.5 L 47.0,52.0 C 47.0,54.0 48.5,55.5 50.5,55.5 C 52.5,55.5 54.0,54.0 54.0,52.0 L 54.0,46.0 C 54.5,44.0 55.0,41.0 54.0,38.0 C 53.0,35.0 51.0,32.5 50.0,31.0 C 50.5,30.0 51.5,28.0 51.5,25.5 C 51.5,22.0 49.5,19.0 47.0,17.0 C 44.5,15.0 41.0,14.0 38.0,14.0 C 36.0,14.0 34.0,14.5 32.5,15.0 C 33.0,13.5 33.5,11.5 33.5,10.0 C 33.5,9.0 33.0,7.5 33.0,6.5 C 33.0,5.0 31.5,4.0 30.0,4.0 Z" fill="none" stroke="#000000" stroke-width="1.2"/>
  </g>
  <!-- LAYER 2: stamp — wewnętrzne detale embossera -->
  <g id="stamp">
    <path id="stamp_outline" d="M 25.21,37.30 L 34.79,37.30 L 34.79,30.91 L 31.37,30.91 L 31.37,24.98 L 32.28,24.98 L 32.28,21.34 L 27.72,21.34 L 27.72,24.98 L 28.63,24.98 L 28.63,30.91 L 25.21,30.91 Z" fill="none" stroke="#666666" stroke-width="0.8"/>
    <circle id="eye_l" cx="24.00" cy="25.20" r="2.50" fill="#333333"/>
    <circle id="eye_r" cx="36.00" cy="25.20" r="2.50" fill="#333333"/>
    <path id="smile" d="M 22.80,33.00 Q 30.00,37.32 37.20,33.00" fill="none" stroke="#333333" stroke-width="1.0"/>
  </g>
</svg>