<?xml version="1.0" encoding="utf-8"?>
<svg xmlns="http://www.w3.org/2000/svg"
     width="110.0mm" height="110.0mm"
     viewBox="0 0 110.0 110.0">
  <rect width="110.0mm" height="110.0mm" fill="white"/>
  <!-- LAYER 1: outer — zewnętrzna sylwetka cuttera -->
  <g id="outer">
    <path id="outer_contour" d="M 55.0,8.0 C 58.0,8.0 61.0,10.0 62.0,14.0 C 63.0,18.0 63.5,22.0 64.0,26.0 C 65.0,24.0 68.0,20.0 72.0,18.0 C 76.0,16.0 80.0,17.0 81.0,21.0 C 82.0,25.0 80.0,30.0 78.0,34.0 C 82.0,33.0 88.0,33.0 93.0,35.0 C 98.0,37.0 101.0,41.0 100.0,46.0 C 99.0,51.0 95.0,54.0 90.0,56.0 C 94.0,58.0 97.0,62.0 98.0,67.0 C 99.0,72.0 97.0,77.0 93.0,80.0 C 89.0,83.0 84.0,84.0 80.0,84.0 C 80.5,88.0 81.0,92.0 81.0,96.0 C 81.0,100.0 79.0,104.0 75.0,105.0 C 71.0,106.0 68.0,103.0 67.0,99.0 C 66.0,95.0 66.0,91.0 66.0,87.0 C 62.0,88.0 58.0,88.5 54.0,88.5 C 50.0,88.5 46.0,88.0 42.0,87.0 C 42.0,91.0 42.0,95.0 41.0,99.0 C 40.0,103.0 37.0,106.0 33.0,105.0 C 29.0,104.0 27.0,100.0 27.0,96.0 C 27.0,92.0 27.5,88.0 28.0,84.0 C 24.0,84.0 19.0,83.0 15.0,80.0 C 11.0,77.0 9.0,72.0 10.0,67.0 C 11.0,62.0 14.0,58.0 18.0,56.0 C 13.0,54.0 9.0,51.0 8.0,46.0 C 7.0,41.0 10.0,37.0 15.0,35.0 C 20.0,33.0 26.0,33.0 30.0,34.0 C 28.0,30.0 26.0,25.0 27.0,21.0 C 28.0,17.0 32.0,16.0 36.0,18.0 C 40.0,20.0 43.0,24.0 44.0,26.0 C 44.5,22.0 45.0,18.0 46.0,14.0 C 47.0,10.0 50.0,8.0 53.0,8.0 C 53.5,8.0 54.5,8.0 55.0,8.0 Z" fill="none" stroke="#000000" stroke-width="1.2"/>
  </g>
  <!-- LAYER 2: stamp — wewnętrzne detale embossera -->
  <g id="stamp">
    <path id="stamp_outline" d="M 46.22,68.38 L 63.78,68.38 L 63.78,56.67 L 57.51,56.67 L 57.51,45.80 L 59.18,45.80 L 59.18,39.12 L 50.82,39.12 L 50.82,45.80 L 52.49,45.80 L 52.49,56.67 L 46.22,56.67 Z" fill="none" stroke="#666666" stroke-width="0.8"/>
    <circle id="eye_l" cx="44.00" cy="46.20" r="4.40" fill="#333333"/>
    <circle id="eye_r" cx="66.00" cy="46.20" r="4.40" fill="#333333"/>
    <path id="smile" d="M 41.80,60.50 Q 55.00,68.42 68.20,60.50" fill="none" stroke="#333333" stroke-width="1.0"/>
  </g>
</svg>