<?xml version="1.0" encoding="utf-8"?>
<svg xmlns="http://www.w3.org/2000/svg"
     width="50.0mm" height="50.0mm"
     viewBox="0 0 50.0 50.0">
  <rect width="50.0mm" height="50.0mm" fill="white"/>
  <!-- LAYER 1: outer — zewnętrzna sylwetka cuttera -->
  <g id="outer">
    <path id="outer_contour" d="M 25.0,3.5 C 23.0,3.5 21.5,5.0 21.0,7.5 C 20.5,10.0 20.0,10.5 18.5,10.0 C 17.0,9.5 15.5,10.0 15.5,12.0 C 15.5,14.0 17.0,15.0 18.5,14.5 C 19.5,14.2 20.0,14.5 20.0,15.5 C 20.0,17.0 18.0,18.5 15.0,19.5 C 11.0,21.0 8.0,23.0 7.0,25.5 C 6.0,28.0 6.5,31.0 7.5,33.0 C 8.5,35.0 8.5,37.0 8.0,39.0 C 7.5,41.0 7.5,43.0 8.5,44.5 C 9.5,46.0 11.0,46.5 13.0,46.5 C 15.0,46.5 16.0,45.5 16.5,43.5 C 17.0,41.5 17.5,40.0 18.5,39.5 C 19.5,39.0 21.0,39.0 23.0,39.5 C 25.0,40.0 27.5,40.0 30.0,39.5 C 32.0,39.0 33.5,39.5 34.5,40.5 C 35.5,41.5 36.0,43.0 36.5,44.5 C 37.0,46.0 38.5,46.5 40.5,46.5 C 42.5,46.5 44.0,45.5 44.5,43.5 C 45.0,41.5 44.5,39.5 43.5,37.5 C 42.5,35.5 42.5,33.5 43.0,31.0 C 43.5,28.5 43.0,26.0 41.5,24.0 C 40.0,22.0 38.0,20.5 35.5,19.5 C 33.0,18.5 31.5,17.0 31.0,15.5 C 30.5,14.0 31.0,13.0 32.0,12.5 C 33.0,12.0 33.5,11.0 33.0,9.5 C 32.5,8.0 31.0,7.5 29.5,8.5 C 28.5,9.2 28.0,10.0 28.0,10.5 C 28.0,11.5 27.5,12.0 27.0,12.0 C 26.5,12.0 26.0,11.0 26.0,9.5 C 26.0,8.0 25.8,6.0 26.0,5.0 C 26.2,4.0 26.0,3.5 25.0,3.5 Z" fill="none" stroke="#000000" stroke-width="1.2"/>
  </g>
  <!-- LAYER 2: stamp — wewnętrzne detale embossera -->
  <g id="stamp">
    <path id="stamp_outline" d="M 21.01,31.08 L 28.99,31.08 L 28.99,25.76 L 26.14,25.76 L 26.14,20.82 L 26.90,20.82 L 26.90,17.78 L 23.10,17.78 L 23.10,20.82 L 23.86,20.82 L 23.86,25.76 L 21.01,25.76 Z" fill="none" stroke="#666666" stroke-width="0.8"/>
    <circle id="eye_l" cx="20.00" cy="21.00" r="2.50" fill="#333333"/>
    <circle id="eye_r" cx="30.00" cy="21.00" r="2.50" fill="#333333"/>
    <path id="smile" d="M 19.00,27.50 Q 25.00,31.10 31.00,27.50" fill="none" stroke="#333333" stroke-width="1.0"/>
  </g>
</svg>