<?xml version="1.0" encoding="utf-8"?>
<svg xmlns="http://www.w3.org/2000/svg"
     width="150.0mm" height="150.0mm"
     viewBox="0 0 150.0 150.0">
  <rect width="150.0mm" height="150.0mm" fill="white"/>
  <!-- LAYER 1: outer — zewnętrzna sylwetka cuttera -->
  <g id="outer">
    <path id="outer_contour" d="M 75.0,8.0 C 80.0,8.0 84.0,12.0 84.0,18.0 C 84.0,22.0 82.0,25.0 80.0,28.0 C 88.0,26.0 96.0,24.0 100.0,28.0 C 104.0,32.0 104.0,38.0 102.0,42.0 C 100.0,46.0 96.0,48.0 92.0,48.0 C 96.0,46.0 98.0,42.0 96.0,38.0 C 94.0,34.0 90.0,33.0 86.0,34.0 C 82.0,35.0 78.0,38.0 76.0,42.0 C 74.0,38.0 70.0,35.0 66.0,34.0 C 62.0,33.0 58.0,34.0 56.0,38.0 C 54.0,42.0 56.0,46.0 60.0,48.0 C 56.0,48.0 52.0,46.0 50.0,42.0 C 48.0,38.0 48.0,32.0 52.0,28.0 C 56.0,24.0 64.0,26.0 72.0,28.0 C 70.0,25.0 68.0,22.0 68.0,18.0 C 68.0,12.0 70.0,8.0 75.0,8.0 C 75.0,8.0 75.0,42.0 75.0,42.0 C 78.0,48.0 84.0,52.0 90.0,54.0 C 100.0,58.0 108.0,62.0 114.0,68.0 C 122.0,76.0 126.0,86.0 126.0,96.0 C 126.0,102.0 124.0,108.0 120.0,112.0 C 122.0,114.0 124.0,118.0 124.0,122.0 C 124.0,130.0 120.0,136.0 114.0,138.0 C 108.0,140.0 102.0,138.0 100.0,134.0 C 98.0,130.0 98.0,124.0 100.0,120.0 C 96.0,118.0 90.0,116.0 84.0,116.0 C 78.0,116.0 68.0,118.0 60.0,120.0 C 62.0,124.0 62.0,130.0 60.0,134.0 C 58.0,138.0 52.0,140.0 46.0,138.0 C 40.0,136.0 36.0,130.0 36.0,122.0 C 36.0,118.0 38.0,114.0 40.0,112.0 C 36.0,108.0 34.0,102.0 34.0,96.0 C 34.0,86.0 38.0,76.0 46.0,68.0 C 52.0,62.0 60.0,58.0 70.0,54.0 C 72.0,53.0 74.0,50.0 75.0,42.0 C 75.0,42.0 75.0,8.0 75.0,8.0 Z" fill="none" stroke="#000000" stroke-width="1.2"/>
  </g>
  <!-- LAYER 2: stamp — wewnętrzne detale embossera -->
  <g id="stamp">
    <path id="stamp_outline" d="M 63.03,93.24 L 86.97,93.24 L 86.97,77.28 L 78.42,77.28 L 78.42,62.46 L 80.70,62.46 L 80.70,53.34 L 69.30,53.34 L 69.30,62.46 L 71.58,62.46 L 71.58,77.28 L 63.03,77.28 Z" fill="none" stroke="#666666" stroke-width="0.8"/>
    <circle id="eye_l" cx="60.00" cy="63.00" r="6.00" fill="#333333"/>
    <circle id="eye_r" cx="90.00" cy="63.00" r="6.00" fill="#333333"/>
    <path id="smile" d="M 57.00,82.50 Q 75.00,93.30 93.00,82.50" fill="none" stroke="#333333" stroke-width="1.0"/>
  </g>
</svg>