<?xml version="1.0" encoding="utf-8"?>
<svg xmlns="http://www.w3.org/2000/svg"
     width="90.0mm" height="90.0mm"
     viewBox="0 0 90.0 90.0">
  <rect width="90.0mm" height="90.0mm" fill="white"/>
  <!-- LAYER 1: outer — zewnętrzna sylwetka cuttera -->
  <g id="outer">
    <path id="outer_contour" d="M 45.0,8.0 C 55.0,8.0 62.0,14.0 64.0,22.0 C 66.0,22.0 72.0,18.0 78.0,14.0 C 76.0,22.0 72.0,28.0 67.0,30.0 C 72.0,32.0 80.0,30.0 86.0,28.0 C 82.0,34.0 74.0,38.0 66.0,38.0 C 68.0,42.0 68.5,47.0 67.0,52.0 C 65.0,58.0 60.0,63.0 54.0,66.0 C 54.0,66.0 56.0,72.0 58.0,78.0 C 58.0,78.0 52.0,78.0 48.0,74.0 C 46.0,72.0 45.0,70.0 44.0,68.0 C 42.0,70.0 40.0,72.0 38.0,74.0 C 34.0,78.0 28.0,78.0 28.0,78.0 C 30.0,72.0 32.0,66.0 32.0,66.0 C 26.0,63.0 20.0,58.0 16.0,51.0 C 13.0,45.0 13.0,38.0 15.0,32.0 C 8.0,33.0 4.0,30.0 2.0,28.0 C 8.0,28.0 14.0,30.0 18.0,30.0 C 14.0,26.0 12.0,20.0 12.0,16.0 C 18.0,20.0 24.0,24.0 28.0,24.0 C 28.0,16.0 34.0,8.0 45.0,8.0 Z" fill="none" stroke="#000000" stroke-width="1.2"/>
  </g>
  <!-- LAYER 2: stamp — wewnętrzne detale embossera -->
  <g id="stamp">
    <path id="stamp_outline" d="M 37.13,45.00 C 37.13,38.84 45.00,38.84 49.72,38.84 C 52.87,38.84 52.87,42.61 52.87,42.61 L 56.29,45.00 L 52.87,47.39 C 52.87,51.16 52.87,51.16 49.72,51.16 C 45.00,51.16 37.13,51.16 37.13,45.00 Z" fill="none" stroke="#666666" stroke-width="0.8"/>
  </g>
</svg>