<?xml version="1.0" encoding="utf-8"?>
<svg xmlns="http://www.w3.org/2000/svg"
     width="75.0mm" height="75.0mm"
     viewBox="0 0 75.0 75.0">
  <rect width="75.0mm" height="75.0mm" fill="white"/>
  <!-- LAYER 1: outer — zewnętrzna sylwetka cuttera -->
  <g id="outer">
    <path id="outer_contour" d="M 37.5,5.0 C 28.0,5.0 20.0,11.0 18.0,20.0 C 16.5,26.0 14.0,28.0 8.0,30.0 C 4.0,31.5 3.0,35.0 5.0,38.0 C 7.0,41.0 10.0,41.5 14.0,40.0 C 12.0,46.0 12.5,52.0 16.0,57.0 C 19.5,62.0 25.0,65.5 31.0,67.0 C 33.5,67.5 35.0,68.5 35.0,71.0 C 35.0,72.5 36.0,73.0 37.5,73.0 C 39.0,73.0 40.0,72.5 40.0,71.0 C 40.0,68.5 41.5,67.5 44.0,67.0 C 50.0,65.5 55.5,62.0 59.0,57.0 C 62.5,52.0 63.0,46.0 61.0,40.0 C 63.0,41.0 66.0,41.5 68.0,40.0 C 71.0,38.0 72.0,34.5 70.0,31.5 C 68.5,29.5 66.0,28.5 63.0,28.5 C 60.0,28.5 58.5,27.0 57.5,24.0 C 56.0,17.0 52.0,11.5 46.0,8.0 C 43.5,6.5 40.5,5.0 37.5,5.0 Z" fill="none" stroke="#000000" stroke-width="1.2"/>
  </g>
  <!-- LAYER 2: stamp — wewnętrzne detale embossera -->
  <g id="stamp">
    <path id="stamp_outline" d="M 30.95,37.50 C 30.95,32.37 37.50,32.37 41.43,32.37 C 44.05,32.37 44.05,35.51 44.05,35.51 L 46.91,37.50 L 44.05,39.49 C 44.05,42.63 44.05,42.63 41.43,42.63 C 37.50,42.63 30.95,42.63 30.95,37.50 Z" fill="none" stroke="#666666" stroke-width="0.8"/>
  </g>
</svg>