<?xml version="1.0" encoding="utf-8"?>
<svg xmlns="http://www.w3.org/2000/svg"
     width="75.0mm" height="75.0mm"
     viewBox="0 0 75.0 75.0">
  <rect width="75.0mm" height="75.0mm" fill="white"/>
  <!-- LAYER 1: outer — zewnętrzna sylwetka cuttera -->
  <g id="outer">
    <path id="outer_contour" d="M 37.5,8.0 C 44.0,8.0 50.0,10.5 54.5,14.5 C 59.0,18.5 62.0,24.0 62.5,30.0 C 63.0,33.0 62.5,36.0 61.5,38.5 L 70.0,35.0 C 70.5,34.8 71.0,35.3 70.8,35.8 L 63.0,44.0 C 62.0,45.5 60.5,47.0 59.0,48.0 C 55.0,51.0 50.0,53.0 45.0,53.5 C 44.0,53.6 43.0,53.6 42.0,53.5 L 42.0,53.5 C 42.5,55.5 43.5,57.5 45.0,59.0 C 47.0,61.0 49.5,62.5 52.5,63.0 C 53.0,63.1 53.0,63.8 52.5,63.9 C 47.0,64.5 41.5,64.0 37.0,62.0 C 33.0,60.2 29.5,57.0 28.0,53.0 C 24.0,52.0 20.5,50.0 17.5,47.5 C 14.0,44.5 11.5,40.5 10.5,36.0 C 9.5,31.5 10.0,26.5 12.0,22.5 C 14.0,18.5 17.5,15.0 21.5,12.5 C 25.5,10.0 30.5,8.5 35.5,8.0 C 36.2,8.0 36.8,8.0 37.5,8.0 Z M 28.0,24.0 C 26.0,24.0 24.5,25.5 24.5,27.5 C 24.5,29.5 26.0,31.0 28.0,31.0 C 30.0,31.0 31.5,29.5 31.5,27.5 C 31.5,25.5 30.0,24.0 28.0,24.0 Z M 38.0,34.0 C 36.5,34.0 35.0,35.0 35.0,36.5 C 35.0,37.5 35.5,38.5 36.5,39.0 C 37.0,39.3 37.8,39.5 38.5,39.3 C 39.5,39.0 40.5,38.0 40.8,37.0 C 41.0,36.0 40.5,35.0 39.5,34.3 C 39.0,34.1 38.5,34.0 38.0,34.0 Z" fill="none" stroke="#000000" stroke-width="1.2"/>
  </g>
  <!-- LAYER 2: stamp — wewnętrzne detale embossera -->
  <g id="stamp">
    <path id="stamp_outline" d="M 30.95,37.50 C 30.95,32.37 37.50,32.37 41.43,32.37 C 44.05,32.37 44.05,35.51 44.05,35.51 L 46.91,37.50 L 44.05,39.49 C 44.05,42.63 44.05,42.63 41.43,42.63 C 37.50,42.63 30.95,42.63 30.95,37.50 Z" fill="none" stroke="#666666" stroke-width="0.8"/>
  </g>
</svg>