<?xml version="1.0" encoding="utf-8"?>
<svg xmlns="http://www.w3.org/2000/svg"
     width="60.0mm" height="60.0mm"
     viewBox="0 0 60.0 60.0">
  <rect width="60.0mm" height="60.0mm" fill="white"/>
  <!-- LAYER 1: outer — zewnętrzna sylwetka cuttera -->
  <g id="outer">
    <path id="outer_contour" d="M 30.0,6.0 C 22.0,6.0 16.0,10.0 14.0,16.0 C 12.0,22.0 8.0,22.0 4.0,20.0 C 3.0,22.0 4.0,26.0 8.0,28.0 C 5.0,30.0 3.0,34.0 4.0,38.0 C 5.0,42.0 9.0,44.0 13.0,44.0 C 13.0,48.0 16.0,52.0 21.0,54.0 C 26.0,56.0 32.0,55.0 36.0,52.0 C 38.0,54.0 42.0,55.0 46.0,53.0 C 50.0,51.0 52.0,47.0 51.0,43.0 C 55.0,40.0 57.0,36.0 56.0,32.0 C 55.0,28.0 52.0,25.0 48.0,24.0 C 50.0,20.0 49.0,15.0 46.0,12.0 C 43.0,9.0 38.0,8.0 34.0,10.0 C 33.0,7.5 31.5,6.0 30.0,6.0 Z" fill="none" stroke="#000000" stroke-width="1.2"/>
  </g>
  <!-- LAYER 2: stamp — wewnętrzne detale embossera -->
  <g id="stamp">
    <path id="stamp_outline" d="M 24.76,30.00 C 24.76,25.90 30.00,25.90 33.15,25.90 C 35.24,25.90 35.24,28.40 35.24,28.40 L 37.52,30.00 L 35.24,31.60 C 35.24,34.10 35.24,34.10 33.15,34.10 C 30.00,34.10 24.76,34.10 24.76,30.00 Z" fill="none" stroke="#666666" stroke-width="0.8"/>
  </g>
</svg>