<?xml version="1.0" encoding="utf-8"?>
<svg xmlns="http://www.w3.org/2000/svg"
     width="110.0mm" height="110.0mm"
     viewBox="0 0 110.0 110.0">
  <rect width="110.0mm" height="110.0mm" fill="white"/>
  <!-- LAYER 1: outer — zewnętrzna sylwetka cuttera -->
  <g id="outer">
    <path id="outer_contour" d="M 55.0,8.0 C 62.0,8.0 68.0,12.0 72.0,18.0 C 76.0,24.0 78.0,28.0 85.0,26.0 C 92.0,24.0 98.0,26.0 101.0,32.0 C 104.0,38.0 103.0,45.0 98.0,50.0 C 96.0,52.0 97.0,54.0 100.0,58.0 C 104.0,63.0 106.0,70.0 104.0,76.0 C 102.0,82.0 97.0,86.0 90.0,87.0 C 84.0,88.0 78.0,86.0 74.0,82.0 C 70.0,78.0 66.0,76.0 62.0,78.0 C 58.0,80.0 54.0,84.0 50.0,90.0 C 46.0,96.0 40.0,100.0 34.0,100.0 C 28.0,100.0 24.0,96.0 22.0,90.0 C 20.0,84.0 18.0,80.0 14.0,78.0 C 8.0,74.0 4.0,68.0 4.0,60.0 C 4.0,52.0 8.0,46.0 14.0,42.0 C 18.0,39.0 20.0,36.0 20.0,32.0 C 20.0,26.0 24.0,20.0 30.0,16.0 C 36.0,12.0 42.0,8.0 48.0,8.0 C 50.0,8.0 52.0,8.0 55.0,8.0 Z" fill="none" stroke="#000000" stroke-width="1.2"/>
  </g>
  <!-- LAYER 2: stamp — wewnętrzne detale embossera -->
  <g id="stamp">
    <path id="stamp_outline" d="M 45.39,55.00 C 45.39,47.48 55.00,47.48 60.77,47.48 C 64.61,47.48 64.61,52.07 64.61,52.07 L 68.79,55.00 L 64.61,57.93 C 64.61,62.52 64.61,62.52 60.77,62.52 C 55.00,62.52 45.39,62.52 45.39,55.00 Z" fill="none" stroke="#666666" stroke-width="0.8"/>
  </g>
</svg>