<?xml version="1.0" encoding="utf-8"?>
<svg xmlns="http://www.w3.org/2000/svg"
     width="50.0mm" height="50.0mm"
     viewBox="0 0 50.0 50.0">
  <rect width="50.0mm" height="50.0mm" fill="white"/>
  <!-- LAYER 1: outer — zewnętrzna sylwetka cuttera -->
  <g id="outer">
    <path id="outer_contour" d="M 25.0,5.0 C 30.0,5.0 35.0,7.0 37.5,11.0 C 40.0,15.0 42.0,14.0 45.0,12.0 C 46.0,11.5 47.0,12.5 46.0,14.0 C 44.0,17.0 41.0,19.0 38.5,19.5 C 41.0,22.0 42.5,26.0 42.5,30.0 C 42.5,34.0 40.5,37.5 37.5,40.0 C 38.5,41.0 40.0,42.5 42.0,43.0 C 43.0,43.3 42.5,44.5 41.0,44.5 C 38.0,44.5 35.0,43.0 33.0,41.5 C 30.5,43.0 27.8,43.8 25.0,43.8 C 22.2,43.8 19.5,43.0 17.0,41.5 C 15.0,43.0 12.0,44.5 9.0,44.5 C 7.5,44.5 7.0,43.3 8.0,43.0 C 10.0,42.5 11.5,41.0 12.5,40.0 C 9.5,37.5 7.5,34.0 7.5,30.0 C 7.5,26.0 9.0,22.0 11.5,19.5 C 9.0,19.0 6.0,17.0 4.0,14.0 C 3.0,12.5 4.0,11.5 5.0,12.0 C 8.0,14.0 10.0,15.0 12.5,11.0 C 15.0,7.0 20.0,5.0 25.0,5.0 Z" fill="none" stroke="#000000" stroke-width="1.2"/>
  </g>
  <!-- LAYER 2: stamp — wewnętrzne detale embossera -->
  <g id="stamp">
    <path id="stamp_outline" d="M 20.63,25.00 C 20.63,21.58 25.00,21.58 27.62,21.58 C 29.37,21.58 29.37,23.67 29.37,23.67 L 31.27,25.00 L 29.37,26.33 C 29.37,28.42 29.37,28.42 27.62,28.42 C 25.00,28.42 20.63,28.42 20.63,25.00 Z" fill="none" stroke="#666666" stroke-width="0.8"/>
  </g>
</svg>