<?xml version="1.0" encoding="utf-8"?>
<svg xmlns="http://www.w3.org/2000/svg"
     width="150.0mm" height="150.0mm"
     viewBox="0 0 150.0 150.0">
  <rect width="150.0mm" height="150.0mm" fill="white"/>
  <!-- LAYER 1: outer — zewnętrzna sylwetka cuttera -->
  <g id="outer">
    <path id="outer_contour" d="M 75.0,8.0 C 95.0,8.0 110.0,20.0 115.0,38.0 C 118.0,48.0 116.0,55.0 120.0,58.0 C 130.0,52.0 140.0,50.0 146.0,54.0 C 148.0,56.0 146.0,60.0 140.0,62.0 C 134.0,64.0 126.0,64.0 120.0,66.0 C 124.0,72.0 126.0,80.0 124.0,90.0 C 120.0,108.0 104.0,122.0 88.0,128.0 C 82.0,130.0 78.0,132.0 76.0,138.0 C 75.0,142.0 74.0,146.0 70.0,146.0 C 66.0,146.0 66.0,140.0 66.0,136.0 C 66.0,132.0 64.0,130.0 60.0,130.0 C 56.0,130.0 54.0,132.0 54.0,136.0 C 54.0,140.0 54.0,146.0 50.0,146.0 C 46.0,146.0 44.0,142.0 44.0,138.0 C 44.0,132.0 42.0,128.0 38.0,126.0 C 24.0,118.0 12.0,104.0 10.0,86.0 C 8.0,72.0 12.0,60.0 20.0,50.0 C 28.0,40.0 38.0,34.0 48.0,30.0 C 42.0,26.0 38.0,22.0 38.0,18.0 C 38.0,12.0 46.0,10.0 52.0,14.0 C 58.0,18.0 62.0,24.0 64.0,30.0 C 66.0,22.0 68.0,14.0 75.0,8.0 Z" fill="none" stroke="#000000" stroke-width="1.2"/>
  </g>
  <!-- LAYER 2: stamp — wewnętrzne detale embossera -->
  <g id="stamp">
    <path id="stamp_outline" d="M 61.89,75.00 C 61.89,64.74 75.00,64.74 82.87,64.74 C 88.11,64.74 88.11,71.01 88.11,71.01 L 93.81,75.00 L 88.11,78.99 C 88.11,85.26 88.11,85.26 82.87,85.26 C 75.00,85.26 61.89,85.26 61.89,75.00 Z" fill="none" stroke="#666666" stroke-width="0.8"/>
  </g>
</svg>