<?xml version="1.0" encoding="utf-8" ?>
<svg xmlns="http://www.w3.org/2000/svg" xmlns:ev="http://www.w3.org/2001/xml-events" xmlns:xlink="http://www.w3.org/1999/xlink" baseProfile="full" height="90.0mm" version="1.1" viewBox="0 0 90.0 90.0" width="90.0mm">
  <defs/>
  <rect fill="white" height="90.0mm" width="90.0mm" x="0" y="0"/>
  <path d="M 45.0,6.0 L 47.5,18.0 L 54.0,10.0 L 50.5,22.0 L 62.0,16.0 L 53.5,26.0 L 66.0,24.0 L 56.0,30.5 L 68.5,30.0 L 57.5,34.5 L 70.0,36.0 L 57.5,38.0 L 69.0,42.0 L 56.0,41.5 L 64.0,48.0 L 52.5,44.5 L 58.0,54.0 L 49.5,46.5 L 52.0,58.0 L 47.5,47.5 L 47.0,60.0 L 45.0,48.5 L 43.0,60.0 L 42.5,47.5 L 38.0,58.0 L 40.5,46.5 L 32.0,54.0 L 37.5,44.5 L 26.0,48.0 L 34.0,41.5 L 21.0,42.0 L 32.5,38.0 L 20.0,36.0 L 32.5,34.5 L 21.5,30.0 L 34.0,30.5 L 24.0,24.0 L 36.5,26.0 L 28.0,16.0 L 39.5,22.0 L 36.0,10.0 L 42.5,18.0 L 45.0,6.0 Z" fill="none" stroke="#1a1a1a" stroke-linecap="round" stroke-linejoin="round" stroke-width="2.5mm"/>
  <text fill="#888888" font-family="sans-serif" font-size="3px" text-anchor="middle" x="45.0mm" y="86.39999999999999mm">christmas snowflake | CUTTER | L</text>
</svg>
