<?xml version="1.0" encoding="utf-8" ?>
<svg xmlns="http://www.w3.org/2000/svg" xmlns:ev="http://www.w3.org/2001/xml-events" xmlns:xlink="http://www.w3.org/1999/xlink" baseProfile="full" height="75.0mm" version="1.1" viewBox="0 0 75.0 75.0" width="75.0mm">
  <defs/>
  <rect fill="white" height="75.0mm" width="75.0mm" x="0" y="0"/>
  <path d="M 37.5,4.5 L 39.5,15.0 L 44.0,12.0 L 40.5,18.0 L 46.5,16.5 L 41.0,20.5 L 50.0,15.0 L 43.0,22.5 L 48.0,22.0 L 43.5,25.0 L 52.0,22.0 L 44.5,27.0 L 55.0,24.0 L 45.0,29.0 L 49.0,29.5 L 44.0,31.5 L 50.5,31.0 L 43.0,33.5 L 47.0,35.0 L 42.0,36.0 L 44.5,37.5 L 42.0,38.5 L 47.0,40.0 L 43.0,41.5 L 50.5,44.0 L 44.0,43.5 L 49.0,45.5 L 45.0,46.0 L 55.0,51.0 L 44.5,48.0 L 52.0,53.0 L 43.5,50.0 L 48.0,53.0 L 43.0,52.5 L 50.0,60.0 L 41.0,54.5 L 46.5,58.5 L 40.5,57.0 L 44.0,63.0 L 39.5,60.0 L 37.5,70.5 L 35.5,60.0 L 31.0,63.0 L 34.5,57.0 L 28.5,58.5 L 34.0,54.5 L 25.0,60.0 L 32.0,52.5 L 27.0,53.0 L 31.5,50.0 L 23.0,53.0 L 30.5,48.0 L 20.0,51.0 L 30.0,46.0 L 26.0,45.5 L 31.0,43.5 L 24.5,44.0 L 32.0,41.5 L 28.0,40.0 L 33.0,38.5 L 30.5,37.5 L 33.0,36.0 L 28.0,35.0 L 32.0,33.5 L 24.5,31.0 L 31.0,31.5 L 26.0,29.5 L 30.0,29.0 L 20.0,24.0 L 30.5,27.0 L 23.0,22.0 L 31.5,25.0 L 27.0,22.0 L 32.0,22.5 L 25.0,15.0 L 34.0,20.5 L 28.5,16.5 L 34.5,18.0 L 31.0,12.0 L 35.5,15.0 Z" fill="none" stroke="#1a1a1a" stroke-linecap="round" stroke-linejoin="round" stroke-width="2.5mm"/>
  <text fill="#888888" font-family="sans-serif" font-size="3px" text-anchor="middle" x="37.5mm" y="72.0mm">christmas snowflake | CUTTER | M</text>
</svg>
