<?xml version="1.0" encoding="utf-8"?>
<svg xmlns="http://www.w3.org/2000/svg"
     width="75.0mm" height="75.0mm"
     viewBox="0 0 75.0 75.0">
  <rect width="75.0mm" height="75.0mm" fill="white"/>
  <!-- LAYER 1: outer — zewnętrzna sylwetka cuttera -->
  <g id="outer">
    <path id="outer_contour" d="M 37.5,7.0 C 38.8,7.0 40.0,7.8 40.2,9.2 L 40.2,14.5 L 44.8,11.8 C 46.0,11.1 47.5,11.5 48.1,12.8 C 48.7,14.1 48.2,15.6 46.9,16.3 L 42.3,19.0 L 40.2,20.2 L 40.2,31.5 L 50.0,25.8 L 50.0,23.5 L 50.0,17.8 C 50.0,16.3 51.2,15.2 52.5,15.2 C 53.8,15.2 55.0,16.3 55.0,17.8 L 55.0,21.2 L 58.2,19.3 C 59.4,18.6 60.9,19.0 61.5,20.3 C 62.1,21.6 61.6,23.1 60.3,23.8 L 57.1,25.7 L 60.2,27.5 C 61.4,28.2 61.9,29.7 61.3,31.0 C 60.7,32.3 59.2,32.7 57.9,32.0 L 52.5,28.9 L 50.0,30.3 L 40.2,36.0 L 40.2,39.0 L 50.0,44.7 L 52.5,46.1 L 57.9,43.0 C 59.2,42.3 60.7,42.7 61.3,44.0 C 61.9,45.3 61.4,46.8 60.2,47.5 L 57.1,49.3 L 60.3,51.2 C 61.6,51.9 62.1,53.4 61.5,54.7 C 60.9,56.0 59.4,56.4 58.2,55.7 L 55.0,53.8 L 55.0,57.2 C 55.0,58.7 53.8,59.8 52.5,59.8 C 51.2,59.8 50.0,58.7 50.0,57.2 L 50.0,51.5 L 50.0,49.2 L 40.2,43.5 L 40.2,54.8 L 42.3,56.0 L 46.9,58.7 C 48.2,59.4 48.7,60.9 48.1,62.2 C 47.5,63.5 46.0,63.9 44.8,63.2 L 40.2,60.5 L 40.2,65.8 C 40.0,67.2 38.8,68.0 37.5,68.0 C 36.2,68.0 35.0,67.2 34.8,65.8 L 34.8,60.5 L 30.2,63.2 C 29.0,63.9 27.5,63.5 26.9,62.2 C 26.3,60.9 26.8,59.4 28.1,58.7 L 32.7,56.0 L 34.8,54.8 L 34.8,43.5 L 25.0,49.2 L 25.0,51.5 L 25.0,57.2 C 25.0,58.7 23.8,59.8 22.5,59.8 C 21.2,59.8 20.0,58.7 20.0,57.2 L 20.0,53.8 L 16.8,55.7 C 15.6,56.4 14.1,56.0 13.5,54.7 C 12.9,53.4 13.4,51.9 14.7,51.2 L 17.9,49.3 L 14.8,47.5 C 13.6,46.8 13.1,45.3 13.7,44.0 C 14.3,42.7 15.8,42.3 17.1,43.0 L 22.5,46.1 L 25.0,44.7 L 34.8,39.0 L 34.8,36.0 L 25.0,30.3 L 22.5,28.9 L 17.1,32.0 C 15.8,32.7 14.3,32.3 13.7,31.0 C 13.1,29.7 13.6,28.2 14.8,27.5 L 17.9,25.7 L 14.7,23.8 C 13.4,23.1 12.9,21.6 13.5,20.3 C 14.1,19.0 15.6,18.6 16.8,19.3 L 20.0,21.2 L 20.0,17.8 C 20.0,16.3 21.2,15.2 22.5,15.2 C 23.8,15.2 25.0,16.3 25.0,17.8 L 25.0,23.5 L 25.0,25.8 L 34.8,31.5 L 34.8,20.2 L 32.7,19.0 L 28.1,16.3 C 26.8,15.6 26.3,14.1 26.9,12.8 C 27.5,11.5 29.0,11.1 30.2,11.8 L 34.8,14.5 L 34.8,9.2 C 35.0,7.8 36.2,7.0 37.5,7.0 Z" fill="none" stroke="#000000" stroke-width="1.2"/>
  </g>
  <!-- LAYER 2: stamp — wewnętrzne detale embossera -->
  <g id="stamp">
    <path id="stamp_outline" d="M 34.08,50.04 L 34.08,44.91 L 25.25,44.91 L 28.66,37.89 L 32.09,37.89 L 37.50,24.96 L 42.91,37.89 L 46.34,37.89 L 49.75,44.91 L 40.92,44.91 L 40.92,50.04 Z" fill="none" stroke="#666666" stroke-width="0.8"/>
  </g>
</svg>