<?xml version="1.0" encoding="utf-8" ?>
<svg xmlns="http://www.w3.org/2000/svg" xmlns:ev="http://www.w3.org/2001/xml-events" xmlns:xlink="http://www.w3.org/1999/xlink" baseProfile="full" height="60.0mm" version="1.1" viewBox="0 0 60.0 60.0" width="60.0mm">
  <defs/>
  <rect fill="white" height="60.0mm" width="60.0mm" x="0" y="0"/>
  <path d="M 30.0,4.0 L 31.5,12.0 L 35.0,8.0 L 33.0,14.0 L 38.0,11.0 L 35.0,16.0 L 40.0,14.0 L 36.0,18.0 L 42.0,16.5 L 37.0,20.0 L 44.0,19.0 L 38.0,22.0 L 45.0,21.5 L 38.5,24.0 L 48.0,23.0 L 40.0,26.0 L 46.0,27.0 L 40.0,28.0 L 56.0,30.0 L 40.0,32.0 L 46.0,33.0 L 40.0,34.0 L 48.0,37.0 L 38.5,36.0 L 45.0,38.5 L 38.0,38.0 L 44.0,41.0 L 37.0,40.0 L 42.0,43.5 L 36.0,42.0 L 40.0,46.0 L 35.0,44.0 L 38.0,49.0 L 33.0,46.0 L 35.0,52.0 L 31.5,48.0 L 30.0,56.0 L 28.5,48.0 L 25.0,52.0 L 27.0,46.0 L 22.0,49.0 L 25.0,44.0 L 20.0,46.0 L 24.0,42.0 L 18.0,43.5 L 23.0,40.0 L 16.0,41.0 L 22.0,38.0 L 15.0,38.5 L 21.5,36.0 L 12.0,37.0 L 20.0,34.0 L 14.0,33.0 L 20.0,32.0 L 4.0,30.0 L 20.0,28.0 L 14.0,27.0 L 20.0,26.0 L 12.0,23.0 L 21.5,24.0 L 15.0,21.5 L 22.0,22.0 L 16.0,19.0 L 23.0,20.0 L 18.0,16.5 L 24.0,18.0 L 20.0,14.0 L 25.0,16.0 L 22.0,11.0 L 27.0,14.0 L 25.0,8.0 L 28.5,12.0 Z" fill="none" stroke="#1a1a1a" stroke-linecap="round" stroke-linejoin="round" stroke-width="2.5mm"/>
  <text fill="#888888" font-family="sans-serif" font-size="3px" text-anchor="middle" x="30.0mm" y="57.599999999999994mm">christmas snowflake | CUTTER | S</text>
</svg>
