<?xml version="1.0" encoding="utf-8"?>
<svg xmlns="http://www.w3.org/2000/svg"
     width="110.0mm" height="110.0mm"
     viewBox="0 0 110.0 110.0">
  <rect width="110.0mm" height="110.0mm" fill="white"/>
  <!-- LAYER 1: outer — zewnętrzna sylwetka cuttera -->
  <g id="outer">
    <path id="outer_contour" d="M 55.0,6.5 C 58.5,6.5 61.0,9.0 61.0,12.5 L 61.0,28.0 C 65.0,25.0 69.0,22.5 72.0,20.5 C 75.5,18.5 80.0,19.5 82.0,23.0 C 84.0,26.5 83.0,30.5 79.5,32.5 L 66.0,40.0 L 79.0,40.0 C 85.0,36.0 89.5,33.5 93.0,31.5 C 96.5,29.5 101.0,30.5 103.0,34.0 C 105.0,37.5 103.5,41.5 100.0,43.5 L 93.0,47.5 C 96.0,48.0 99.0,49.5 100.5,52.0 C 102.5,55.5 101.5,59.5 98.0,61.5 L 91.0,65.5 C 93.5,66.5 95.5,68.5 96.5,71.0 C 98.0,74.5 96.5,78.5 93.0,80.0 L 80.0,85.5 C 82.0,88.0 82.5,91.5 81.0,94.5 C 79.0,98.0 75.0,99.5 71.5,98.0 L 61.0,93.0 L 61.0,98.0 C 61.0,101.5 58.5,104.0 55.0,104.0 C 51.5,104.0 49.0,101.5 49.0,98.0 L 49.0,93.0 L 38.5,98.0 C 35.0,99.5 31.0,98.0 29.0,94.5 C 27.5,91.5 28.0,88.0 30.0,85.5 L 17.0,80.0 C 13.5,78.5 12.0,74.5 13.5,71.0 C 14.5,68.5 16.5,66.5 19.0,65.5 L 12.0,61.5 C 8.5,59.5 7.5,55.5 9.5,52.0 C 11.0,49.5 14.0,48.0 17.0,47.5 L 10.0,43.5 C 6.5,41.5 5.0,37.5 7.0,34.0 C 9.0,30.5 13.5,29.5 17.0,31.5 L 21.0,33.5 C 24.5,35.5 28.0,37.5 31.0,40.0 L 44.0,40.0 L 30.5,32.5 C 27.0,30.5 26.0,26.5 28.0,23.0 C 30.0,19.5 34.5,18.5 38.0,20.5 C 41.0,22.5 45.0,25.0 49.0,28.0 L 49.0,12.5 C 49.0,9.0 51.5,6.5 55.0,6.5 Z" fill="none" stroke="#000000" stroke-width="1.2"/>
  </g>
  <!-- LAYER 2: stamp — wewnętrzne detale embossera -->
  <g id="stamp">
    <path id="stamp_outline" d="M 49.98,73.39 L 49.98,65.87 L 37.03,65.87 L 42.04,55.57 L 47.06,55.57 L 55.00,36.61 L 62.94,55.57 L 67.96,55.57 L 72.97,65.87 L 60.02,65.87 L 60.02,73.39 Z" fill="none" stroke="#666666" stroke-width="0.8"/>
  </g>
</svg>