<?xml version="1.0" encoding="utf-8"?>
<svg xmlns="http://www.w3.org/2000/svg"
     width="50.0mm" height="50.0mm"
     viewBox="0 0 50.0 50.0">
  <rect width="50.0mm" height="50.0mm" fill="white"/>
  <!-- LAYER 1: outer — zewnętrzna sylwetka cuttera -->
  <g id="outer">
    <path id="outer_contour" d="M 25.0,3.5 C 26.8,3.5 27.5,5.0 27.5,7.0 C 27.5,9.0 28.5,10.5 29.5,11.5 C 30.5,12.0 32.0,12.0 34.0,11.0 C 36.0,10.0 37.5,9.5 39.0,10.5 C 40.5,11.5 40.5,13.5 39.5,15.0 C 38.5,16.5 38.0,18.0 38.5,19.5 C 39.0,20.5 40.5,21.0 42.5,21.0 C 44.5,21.0 46.5,21.5 47.0,23.5 C 47.5,25.5 46.0,26.8 44.0,27.2 C 42.0,27.6 40.5,28.5 39.5,29.8 C 38.8,31.0 39.0,32.5 39.8,34.2 C 40.8,36.0 41.0,38.0 39.5,39.2 C 38.0,40.4 36.0,39.8 34.5,38.5 C 33.0,37.2 31.5,36.5 29.8,36.8 C 28.5,37.2 27.8,38.5 27.5,40.5 C 27.2,42.5 26.8,44.5 25.0,45.0 C 23.2,45.5 22.5,43.5 22.2,41.5 C 21.9,39.5 21.2,37.8 19.8,37.0 C 18.5,36.5 17.0,37.0 15.5,38.2 C 14.0,39.5 12.0,40.2 10.5,39.0 C 9.0,37.8 9.2,35.8 10.2,34.0 C 11.2,32.2 11.2,30.8 10.5,29.5 C 9.8,28.5 8.2,27.8 6.2,27.5 C 4.2,27.2 2.5,26.0 2.8,24.0 C 3.1,22.0 5.0,21.2 7.0,21.2 C 9.0,21.2 10.8,20.5 11.5,19.2 C 12.2,18.0 11.8,16.5 10.8,15.0 C 9.8,13.5 9.5,11.5 11.0,10.5 C 12.5,9.5 14.2,10.2 16.0,11.2 C 17.8,12.2 19.5,12.2 20.8,11.5 C 21.8,10.5 22.2,9.0 22.3,7.0 C 22.4,5.0 23.0,3.5 25.0,3.5 Z" fill="none" stroke="#000000" stroke-width="1.2"/>
  </g>
  <!-- LAYER 2: stamp — wewnętrzne detale embossera -->
  <g id="stamp">
    <path id="stamp_outline" d="M 22.72,33.36 L 22.72,29.94 L 16.83,29.94 L 19.11,25.26 L 21.39,25.26 L 25.00,16.64 L 28.61,25.26 L 30.89,25.26 L 33.17,29.94 L 27.28,29.94 L 27.28,33.36 Z" fill="none" stroke="#666666" stroke-width="0.8"/>
  </g>
</svg>