<?xml version="1.0" encoding="utf-8"?>
<svg xmlns="http://www.w3.org/2000/svg"
     width="150.0mm" height="150.0mm"
     viewBox="0 0 150.0 150.0">
  <rect width="150.0mm" height="150.0mm" fill="white"/>
  <!-- LAYER 1: outer — zewnętrzna sylwetka cuttera -->
  <g id="outer">
    <path id="outer_contour" d="M 75.0,8.0 C 78.0,8.0 82.0,18.0 82.0,28.0 C 92.0,22.0 98.0,18.0 102.0,20.0 C 106.0,22.0 104.0,30.0 98.0,38.0 C 108.0,36.0 118.0,34.0 120.0,38.0 C 122.0,42.0 114.0,48.0 104.0,52.0 C 114.0,56.0 126.0,60.0 126.0,64.0 C 126.0,68.0 116.0,68.0 106.0,66.0 C 114.0,74.0 122.0,82.0 120.0,86.0 C 118.0,90.0 108.0,86.0 100.0,80.0 C 104.0,90.0 108.0,100.0 104.0,102.0 C 100.0,104.0 94.0,96.0 88.0,86.0 C 88.0,96.0 90.0,108.0 86.0,110.0 C 82.0,112.0 78.0,102.0 76.0,92.0 C 74.0,102.0 70.0,114.0 66.0,112.0 C 62.0,110.0 62.0,98.0 64.0,88.0 C 58.0,98.0 52.0,106.0 48.0,104.0 C 44.0,102.0 48.0,92.0 52.0,82.0 C 44.0,88.0 34.0,94.0 32.0,90.0 C 30.0,86.0 38.0,78.0 46.0,70.0 C 36.0,72.0 24.0,72.0 24.0,68.0 C 24.0,64.0 34.0,60.0 44.0,56.0 C 34.0,52.0 26.0,46.0 28.0,42.0 C 30.0,38.0 40.0,40.0 50.0,42.0 C 44.0,34.0 38.0,24.0 42.0,22.0 C 46.0,20.0 54.0,26.0 62.0,34.0 C 60.0,24.0 58.0,14.0 62.0,10.0 C 66.0,6.0 72.0,8.0 75.0,8.0 Z" fill="none" stroke="#000000" stroke-width="1.2"/>
  </g>
  <!-- LAYER 2: stamp — wewnętrzne detale embossera -->
  <g id="stamp">
    <path id="stamp_outline" d="M 68.16,100.08 L 68.16,89.82 L 50.49,89.82 L 57.33,75.78 L 64.17,75.78 L 75.00,49.92 L 85.83,75.78 L 92.67,75.78 L 99.51,89.82 L 81.84,89.82 L 81.84,100.08 Z" fill="none" stroke="#666666" stroke-width="0.8"/>
  </g>
</svg>