<?xml version="1.0" encoding="utf-8" ?>
<svg xmlns="http://www.w3.org/2000/svg" xmlns:ev="http://www.w3.org/2001/xml-events" xmlns:xlink="http://www.w3.org/1999/xlink" baseProfile="full" height="90.0mm" version="1.1" viewBox="0 0 90.0 90.0" width="90.0mm">
  <defs/>
  <rect fill="white" height="90.0mm" width="90.0mm" x="0" y="0"/>
  <path d="M 45.0,8.0 C 42.0,8.0 39.0,9.5 38.0,12.0 C 36.0,10.0 32.0,9.0 29.0,10.5 C 26.0,12.0 25.0,16.0 26.0,19.0 C 18.0,18.0 10.0,22.0 6.0,30.0 C 2.0,38.0 4.0,48.0 10.0,55.0 C 14.0,60.0 19.0,63.0 24.0,64.0 C 22.0,68.0 21.0,73.0 23.0,77.0 C 25.0,81.0 30.0,83.0 34.0,82.0 C 36.0,84.0 39.0,85.0 42.0,85.0 C 44.0,85.0 46.0,85.0 48.0,85.0 C 51.0,85.0 54.0,84.0 56.0,82.0 C 60.0,83.0 65.0,81.0 67.0,77.0 C 69.0,73.0 68.0,68.0 66.0,64.0 C 71.0,63.0 76.0,60.0 80.0,55.0 C 86.0,48.0 88.0,38.0 84.0,30.0 C 80.0,22.0 72.0,18.0 64.0,19.0 C 65.0,16.0 64.0,12.0 61.0,10.5 C 58.0,9.0 54.0,10.0 52.0,12.0 C 51.0,9.5 48.0,8.0 45.0,8.0 Z" fill="none" stroke="#1a1a1a" stroke-linecap="round" stroke-linejoin="round" stroke-width="2.5mm"/>
  <text fill="#888888" font-family="sans-serif" font-size="3px" text-anchor="middle" x="45.0mm" y="86.39999999999999mm">halloween pumpkin | CUTTER | L</text>
</svg>
