<?xml version="1.0" encoding="utf-8" ?>
<svg xmlns="http://www.w3.org/2000/svg" xmlns:ev="http://www.w3.org/2001/xml-events" xmlns:xlink="http://www.w3.org/1999/xlink" baseProfile="full" height="75.0mm" version="1.1" viewBox="0 0 75.0 75.0" width="75.0mm">
  <defs/>
  <rect fill="white" height="75.0mm" width="75.0mm" x="0" y="0"/>
  <path d="M 37.5,5.0 C 34.0,5.0 31.0,7.0 30.0,10.0 C 25.0,6.5 18.0,7.0 12.0,12.0 C 6.0,17.0 3.0,25.0 4.0,33.0 C 5.0,41.0 9.0,48.0 14.0,53.0 C 19.0,58.0 24.0,61.0 29.0,62.0 C 31.0,65.0 34.0,67.0 37.5,67.5 C 41.0,67.0 44.0,65.0 46.0,62.0 C 51.0,61.0 56.0,58.0 61.0,53.0 C 66.0,48.0 70.0,41.0 71.0,33.0 C 72.0,25.0 69.0,17.0 63.0,12.0 C 57.0,7.0 50.0,6.5 45.0,10.0 C 44.0,7.0 41.0,5.0 37.5,5.0 L 37.5,10.0 C 33.0,10.5 28.0,13.0 24.0,18.0 C 18.0,25.0 15.0,34.0 16.0,42.0 C 17.0,48.0 20.0,53.0 24.0,56.0 C 27.0,58.5 30.5,60.0 34.0,60.0 C 35.5,60.0 36.5,59.0 37.5,58.0 C 38.5,59.0 39.5,60.0 41.0,60.0 C 44.5,60.0 48.0,58.5 51.0,56.0 C 55.0,53.0 58.0,48.0 59.0,42.0 C 60.0,34.0 57.0,25.0 51.0,18.0 C 47.0,13.0 42.0,10.5 37.5,10.0 L 37.5,5.0 Z" fill="none" stroke="#1a1a1a" stroke-linecap="round" stroke-linejoin="round" stroke-width="2.5mm"/>
  <text fill="#888888" font-family="sans-serif" font-size="3px" text-anchor="middle" x="37.5mm" y="72.0mm">halloween pumpkin | CUTTER | M</text>
</svg>
