<?xml version="1.0" encoding="utf-8"?>
<svg xmlns="http://www.w3.org/2000/svg"
     width="75.0mm" height="75.0mm"
     viewBox="0 0 75.0 75.0">
  <rect width="75.0mm" height="75.0mm" fill="white"/>
  <!-- LAYER 1: outer — zewnętrzna sylwetka cuttera -->
  <g id="outer">
    <path id="outer_contour" d="M 37.5,8.5 C 35.0,8.5 34.0,11.0 34.5,13.5 C 34.8,15.0 35.5,16.5 36.0,17.5 C 28.0,16.0 18.0,18.5 12.5,25.0 C 7.0,31.5 5.5,40.0 8.0,48.0 C 10.5,56.0 17.0,62.0 25.0,65.0 C 29.5,66.5 33.5,67.0 37.5,67.0 C 41.5,67.0 45.5,66.5 50.0,65.0 C 58.0,62.0 64.5,56.0 67.0,48.0 C 69.5,40.0 68.0,31.5 62.5,25.0 C 57.0,18.5 47.0,16.0 39.0,17.5 C 39.5,16.5 40.2,15.0 40.5,13.5 C 41.0,11.0 40.0,8.5 37.5,8.5 Z M 37.5,20.0 C 35.0,20.0 32.5,20.5 30.5,22.0 C 28.0,24.0 27.0,27.5 27.5,31.0 C 28.0,38.0 28.5,45.0 29.0,52.0 C 29.5,56.0 31.5,60.0 34.5,62.5 C 35.5,63.2 36.5,63.5 37.5,63.5 C 38.5,63.5 39.5,63.2 40.5,62.5 C 43.5,60.0 45.5,56.0 46.0,52.0 C 46.5,45.0 47.0,38.0 47.5,31.0 C 48.0,27.5 47.0,24.0 44.5,22.0 C 42.5,20.5 40.0,20.0 37.5,20.0 Z M 22.0,22.0 C 17.5,23.0 13.5,26.5 11.0,31.5 C 8.5,36.5 8.0,42.5 10.0,48.0 C 12.0,53.5 15.5,57.5 20.5,60.0 C 23.0,61.2 25.5,62.0 28.0,62.0 C 27.0,59.0 26.5,55.5 26.5,52.0 C 26.0,45.0 25.5,38.0 25.0,31.0 C 24.8,27.5 23.0,24.5 22.0,22.0 Z M 53.0,22.0 C 52.0,24.5 50.2,27.5 50.0,31.0 C 49.5,38.0 49.0,45.0 48.5,52.0 C 48.5,55.5 48.0,59.0 47.0,62.0 C 49.5,62.0 52.0,61.2 54.5,60.0 C 59.5,57.5 63.0,53.5 65.0,48.0 C 67.0,42.5 66.5,36.5 64.0,31.5 C 61.5,26.5 57.5,23.0 53.0,22.0 Z M 41.0,13.0 C 42.0,12.0 44.0,10.5 47.0,10.0 C 50.0,9.5 52.5,10.5 54.0,12.0 C 55.5,13.5 55.5,15.0 54.5,15.5 C 53.5,16.0 52.0,15.5 50.5,14.5 C 49.0,13.5 47.0,12.5 45.0,12.5 C 43.0,12.5 42.0,13.0 41.0,13.0 Z M 26.0,32.0 L 29.0,32.0 L 31.5,32.0 L 33.5,32.0 L 31.5,38.0 L 29.0,38.0 L 26.0,38.0 L 28.0,35.0 Z M 41.5,32.0 L 44.0,32.0 L 46.5,32.0 L 49.0,32.0 L 47.0,35.0 L 49.0,38.0 L 46.5,38.0 L 44.0,38.0 L 41.5,38.0 L 43.5,35.0 Z M 30.0,44.0 L 32.5,44.0 L 34.5,47.0 L 36.0,44.0 L 37.5,44.0 L 39.0,44.0 L 40.5,47.0 L 42.5,44.0 L 45.0,44.0 L 42.0,49.0 L 39.5,46.5 L 37.5,49.5 L 35.5,46.5 L 33.0,49.0 Z" fill="none" stroke="#000000" stroke-width="1.2"/>
  </g>
  <!-- LAYER 2: stamp — wewnętrzne detale embossera -->
  <g id="stamp">
    <path id="stamp_outline" d="M 34.65,26.67 L 34.65,20.40 L 40.35,20.40 L 40.35,26.67 C 43.77,26.67 50.04,28.84 50.04,37.50 C 50.04,46.16 43.77,48.33 40.35,48.33 L 34.65,48.33 C 31.23,48.33 24.96,46.16 24.96,37.50 C 24.96,28.84 31.23,26.67 34.65,26.67 Z" fill="none" stroke="#666666" stroke-width="0.8"/>
  </g>
</svg>