<?xml version="1.0" encoding="utf-8" ?>
<svg xmlns="http://www.w3.org/2000/svg" xmlns:ev="http://www.w3.org/2001/xml-events" xmlns:xlink="http://www.w3.org/1999/xlink" baseProfile="full" height="60.0mm" version="1.1" viewBox="0 0 60.0 60.0" width="60.0mm">
  <defs/>
  <rect fill="white" height="60.0mm" width="60.0mm" x="0" y="0"/>
  <path d="M 30.0,4.0 C 28.0,4.0 27.0,8.0 27.5,11.0 C 22.0,6.5 10.0,8.0 6.0,18.0 C 2.0,28.0 8.0,42.0 16.0,48.0 C 20.0,51.0 24.0,53.0 27.0,53.5 C 28.0,55.5 29.0,57.0 30.0,57.0 C 31.0,57.0 32.0,55.5 33.0,53.5 C 36.0,53.0 40.0,51.0 44.0,48.0 C 52.0,42.0 58.0,28.0 54.0,18.0 C 50.0,8.0 38.0,6.5 32.5,11.0 C 33.0,8.0 32.0,4.0 30.0,4.0 Z" fill="none" stroke="#1a1a1a" stroke-linecap="round" stroke-linejoin="round" stroke-width="2.5mm"/>
  <text fill="#888888" font-family="sans-serif" font-size="3px" text-anchor="middle" x="30.0mm" y="57.599999999999994mm">halloween pumpkin | CUTTER | S</text>
</svg>
