<?xml version="1.0" encoding="utf-8"?>
<svg xmlns="http://www.w3.org/2000/svg"
     width="110.0mm" height="110.0mm"
     viewBox="0 0 110.0 110.0">
  <rect width="110.0mm" height="110.0mm" fill="white"/>
  <!-- LAYER 1: outer — zewnętrzna sylwetka cuttera -->
  <g id="outer">
    <path id="outer_contour" d="M 55.0,8.0 C 58.0,8.0 61.0,9.5 62.0,12.0 C 63.0,14.5 62.5,17.0 61.0,19.0 C 68.0,16.0 76.0,14.5 83.0,16.0 C 90.0,17.5 96.0,22.0 99.0,28.0 C 102.0,34.0 103.5,41.0 103.0,48.0 C 102.5,55.0 100.0,62.0 96.0,68.0 C 92.0,74.0 86.0,79.0 79.0,82.0 C 76.0,83.5 72.5,84.5 69.0,85.0 C 72.0,88.0 74.0,92.0 74.5,96.0 C 75.0,100.0 73.0,104.0 69.0,105.0 C 65.0,106.0 61.0,104.0 58.0,101.0 C 56.5,99.5 55.5,97.5 55.0,95.5 C 54.5,97.5 53.5,99.5 52.0,101.0 C 49.0,104.0 45.0,106.0 41.0,105.0 C 37.0,104.0 35.0,100.0 35.5,96.0 C 36.0,92.0 38.0,88.0 41.0,85.0 C 37.5,84.5 34.0,83.5 31.0,82.0 C 24.0,79.0 18.0,74.0 14.0,68.0 C 10.0,62.0 7.5,55.0 7.0,48.0 C 6.5,41.0 8.0,34.0 11.0,28.0 C 14.0,22.0 20.0,17.5 27.0,16.0 C 34.0,14.5 42.0,16.0 49.0,19.0 C 47.5,17.0 47.0,14.5 48.0,12.0 C 49.0,9.5 52.0,8.0 55.0,8.0 Z" fill="none" stroke="#000000" stroke-width="1.2"/>
  </g>
  <!-- LAYER 2: stamp — wewnętrzne detale embossera -->
  <g id="stamp">
    <path id="stamp_outline" d="M 50.82,39.12 L 50.82,29.92 L 59.18,29.92 L 59.18,39.12 C 64.20,39.12 73.39,42.29 73.39,55.00 C 73.39,67.71 64.20,70.88 59.18,70.88 L 50.82,70.88 C 45.80,70.88 36.61,67.71 36.61,55.00 C 36.61,42.29 45.80,39.12 50.82,39.12 Z" fill="none" stroke="#666666" stroke-width="0.8"/>
  </g>
</svg>