<?xml version="1.0" encoding="utf-8"?>
<svg xmlns="http://www.w3.org/2000/svg"
     width="50.0mm" height="50.0mm"
     viewBox="0 0 50.0 50.0">
  <rect width="50.0mm" height="50.0mm" fill="white"/>
  <!-- LAYER 1: outer — zewnętrzna sylwetka cuttera -->
  <g id="outer">
    <path id="outer_contour" d="M 25.0,4.5 C 22.0,4.5 20.0,6.0 19.5,8.0 C 15.0,5.5 8.0,6.5 5.0,13.0 C 2.0,19.5 3.5,28.0 8.0,34.0 C 11.0,38.0 15.0,41.0 19.0,42.5 C 20.5,44.5 22.5,46.0 25.0,46.0 C 27.5,46.0 29.5,44.5 31.0,42.5 C 35.0,41.0 39.0,38.0 42.0,34.0 C 46.5,28.0 48.0,19.5 45.0,13.0 C 42.0,6.5 35.0,5.5 30.5,8.0 C 30.0,6.0 28.0,4.5 25.0,4.5 Z" fill="none" stroke="#000000" stroke-width="1.2"/>
  </g>
  <!-- LAYER 2: stamp — wewnętrzne detale embossera -->
  <g id="stamp">
    <path id="stamp_outline" d="M 23.10,17.78 L 23.10,13.60 L 26.90,13.60 L 26.90,17.78 C 29.18,17.78 33.36,19.22 33.36,25.00 C 33.36,30.78 29.18,32.22 26.90,32.22 L 23.10,32.22 C 20.82,32.22 16.64,30.78 16.64,25.00 C 16.64,19.22 20.82,17.78 23.10,17.78 Z" fill="none" stroke="#666666" stroke-width="0.8"/>
  </g>
</svg>