<?xml version="1.0" encoding="utf-8"?>
<svg xmlns="http://www.w3.org/2000/svg"
     width="150.0mm" height="150.0mm"
     viewBox="0 0 150.0 150.0">
  <rect width="150.0mm" height="150.0mm" fill="white"/>
  <!-- LAYER 1: outer — zewnętrzna sylwetka cuttera -->
  <g id="outer">
    <path id="outer_contour" d="M 75.0,8.0 C 68.0,8.0 62.0,12.0 58.0,18.0 C 54.0,14.0 46.0,10.0 40.0,14.0 C 34.0,18.0 32.0,26.0 33.0,34.0 C 28.0,30.0 18.0,28.0 12.0,34.0 C 6.0,40.0 6.0,52.0 10.0,64.0 C 4.0,72.0 2.0,84.0 6.0,96.0 C 10.0,108.0 20.0,116.0 30.0,120.0 C 32.0,128.0 38.0,136.0 48.0,140.0 C 58.0,144.0 68.0,142.0 75.0,138.0 C 82.0,142.0 92.0,144.0 102.0,140.0 C 112.0,136.0 118.0,128.0 120.0,120.0 C 130.0,116.0 140.0,108.0 144.0,96.0 C 148.0,84.0 146.0,72.0 140.0,64.0 C 144.0,52.0 144.0,40.0 138.0,34.0 C 132.0,28.0 122.0,30.0 117.0,34.0 C 118.0,26.0 116.0,18.0 110.0,14.0 C 104.0,10.0 96.0,14.0 92.0,18.0 C 88.0,12.0 82.0,8.0 75.0,8.0 Z" fill="none" stroke="#000000" stroke-width="1.2"/>
  </g>
  <!-- LAYER 2: stamp — wewnętrzne detale embossera -->
  <g id="stamp">
    <path id="stamp_outline" d="M 69.30,53.34 L 69.30,40.80 L 80.70,40.80 L 80.70,53.34 C 87.54,53.34 100.08,57.67 100.08,75.00 C 100.08,92.33 87.54,96.66 80.70,96.66 L 69.30,96.66 C 62.46,96.66 49.92,92.33 49.92,75.00 C 49.92,57.67 62.46,53.34 69.30,53.34 Z" fill="none" stroke="#666666" stroke-width="0.8"/>
  </g>
</svg>