<?xml version="1.0" encoding="utf-8" ?>
<svg xmlns="http://www.w3.org/2000/svg" xmlns:ev="http://www.w3.org/2001/xml-events" xmlns:xlink="http://www.w3.org/1999/xlink" baseProfile="full" height="90.0mm" version="1.1" viewBox="0 0 90.0 90.0" width="90.0mm">
  <defs/>
  <rect fill="white" height="90.0mm" width="90.0mm" x="0" y="0"/>
  <path d="M 45.0,2.5 C 42.0,2.5 39.5,5.0 39.0,9.0 C 38.5,13.0 37.5,22.0 36.0,26.0 C 34.5,30.0 32.0,31.0 30.0,29.0 C 28.0,27.0 27.5,22.0 27.0,17.0 C 26.5,12.0 26.0,6.0 23.5,4.0 C 21.0,2.0 18.0,2.5 16.5,5.5 C 15.0,8.5 15.0,14.0 16.0,20.0 C 17.0,26.0 19.0,32.0 22.0,36.0 C 19.0,35.5 15.0,36.5 11.5,39.0 C 8.0,41.5 5.0,45.5 4.0,49.5 C 3.0,53.5 4.0,57.5 7.0,60.5 C 10.0,63.5 14.0,65.0 18.0,65.5 C 16.5,67.5 15.5,70.0 16.0,72.5 C 16.5,75.0 18.5,77.5 21.5,79.0 C 24.5,80.5 28.5,81.0 33.0,80.0 C 37.5,79.0 41.0,76.5 43.0,74.0 C 44.0,75.0 45.0,75.5 46.0,75.5 C 47.0,75.5 48.0,75.0 49.0,74.0 C 51.0,76.5 54.5,79.0 59.0,80.0 C 63.5,81.0 67.5,80.5 70.5,79.0 C 73.5,77.5 75.5,75.0 76.0,72.5 C 76.5,70.0 75.5,67.5 74.0,65.5 C 78.0,65.0 82.0,63.5 85.0,60.5 C 88.0,57.5 89.0,53.5 88.0,49.5 C 87.0,45.5 84.0,41.5 80.5,39.0 C 77.0,36.5 73.0,35.5 70.0,36.0 C 73.0,32.0 75.0,26.0 76.0,20.0 C 77.0,14.0 77.0,8.5 75.5,5.5 C 74.0,2.5 71.0,2.0 68.5,4.0 C 66.0,6.0 65.5,12.0 65.0,17.0 C 64.5,22.0 64.0,27.0 62.0,29.0 C 60.0,31.0 57.5,30.0 56.0,26.0 C 54.5,22.0 53.5,13.0 53.0,9.0 C 52.5,5.0 50.0,2.5 47.0,2.5 L 45.0,2.5 Z" fill="none" stroke="#1a1a1a" stroke-linecap="round" stroke-linejoin="round" stroke-width="2.5mm"/>
  <text fill="#888888" font-family="sans-serif" font-size="3px" text-anchor="middle" x="45.0mm" y="86.39999999999999mm">easter bunny | CUTTER | L</text>
</svg>
