<?xml version="1.0" encoding="utf-8" ?>
<svg xmlns="http://www.w3.org/2000/svg" xmlns:ev="http://www.w3.org/2001/xml-events" xmlns:xlink="http://www.w3.org/1999/xlink" baseProfile="full" height="75.0mm" version="1.1" viewBox="0 0 75.0 75.0" width="75.0mm">
  <defs/>
  <rect fill="white" height="75.0mm" width="75.0mm" x="0" y="0"/>
  <path d="M 37.5,2.5 C 34.0,2.5 31.5,4.0 30.5,7.0 C 29.5,10.0 29.0,15.0 29.5,20.0 C 30.0,24.0 30.5,27.0 31.0,29.0 C 28.0,28.0 24.5,28.5 22.0,30.5 C 19.0,33.0 18.0,36.5 19.5,40.0 C 20.5,42.5 22.5,44.0 25.0,45.0 C 22.0,46.5 20.0,49.0 19.5,52.0 C 18.8,56.0 20.5,59.5 24.0,62.0 C 27.0,64.0 30.5,65.0 34.0,65.5 L 33.0,67.5 C 32.0,69.5 32.5,71.0 34.5,72.0 C 36.0,72.8 38.0,73.0 40.0,72.0 C 42.0,71.0 42.5,69.5 41.5,67.5 L 40.5,65.5 C 44.0,65.0 47.5,64.0 50.5,62.0 C 54.0,59.5 55.7,56.0 55.0,52.0 C 54.5,49.0 52.5,46.5 49.5,45.0 C 52.0,44.0 54.0,42.5 55.0,40.0 C 56.5,36.5 55.5,33.0 52.5,30.5 C 50.0,28.5 46.5,28.0 43.5,29.0 C 44.0,27.0 44.5,24.0 45.0,20.0 C 45.5,15.0 45.0,10.0 44.0,7.0 C 43.0,4.0 40.5,2.5 37.5,2.5 Z" fill="none" stroke="#1a1a1a" stroke-linecap="round" stroke-linejoin="round" stroke-width="2.5mm"/>
  <text fill="#888888" font-family="sans-serif" font-size="3px" text-anchor="middle" x="37.5mm" y="72.0mm">easter bunny | CUTTER | M</text>
</svg>
