<?xml version="1.0" encoding="utf-8"?>
<svg xmlns="http://www.w3.org/2000/svg"
     width="75.0mm" height="75.0mm"
     viewBox="0 0 75.0 75.0">
  <rect width="75.0mm" height="75.0mm" fill="white"/>
  <!-- LAYER 1: outer — zewnętrzna sylwetka cuttera -->
  <g id="outer">
    <path id="outer_contour" d="M 27.5,25.0 C 24.0,25.0 20.5,22.0 19.0,17.0 C 17.5,12.0 18.5,6.0 21.5,4.5 C 24.5,3.0 27.5,4.0 29.5,7.0 C 31.5,10.0 33.0,15.0 33.5,20.0 C 34.0,25.0 32.0,25.0 27.5,25.0 Z M 47.5,25.0 C 43.0,25.0 41.0,25.0 41.5,20.0 C 42.0,15.0 43.5,10.0 45.5,7.0 C 47.5,4.0 50.5,3.0 53.5,4.5 C 56.5,6.0 57.5,12.0 56.0,17.0 C 54.5,22.0 51.0,25.0 47.5,25.0 Z M 37.5,22.0 C 44.0,22.0 50.0,24.5 54.5,28.5 C 59.0,32.5 62.0,38.0 62.0,44.0 C 62.0,50.0 59.0,55.5 54.5,59.5 C 50.0,63.5 44.0,66.0 37.5,66.0 C 31.0,66.0 25.0,63.5 20.5,59.5 C 16.0,55.5 13.0,50.0 13.0,44.0 C 13.0,38.0 16.0,32.5 20.5,28.5 C 25.0,24.5 31.0,22.0 37.5,22.0 Z M 33.0,42.0 C 33.0,40.5 34.0,39.0 35.5,38.5 C 37.0,38.0 38.0,38.0 39.5,38.5 C 41.0,39.0 42.0,40.5 42.0,42.0 C 42.0,43.5 41.0,44.5 39.5,45.0 C 38.0,45.5 37.0,45.5 35.5,45.0 C 34.0,44.5 33.0,43.5 33.0,42.0 Z M 26.0,37.0 C 25.0,37.0 24.0,36.5 23.5,35.5 C 23.0,34.5 23.0,33.5 23.5,32.5 C 24.0,31.5 25.0,31.0 26.0,31.0 C 27.0,31.0 28.0,31.5 28.5,32.5 C 29.0,33.5 29.0,34.5 28.5,35.5 C 28.0,36.5 27.0,37.0 26.0,37.0 Z M 49.0,37.0 C 48.0,37.0 47.0,36.5 46.5,35.5 C 46.0,34.5 46.0,33.5 46.5,32.5 C 47.0,31.5 48.0,31.0 49.0,31.0 C 50.0,31.0 51.0,31.5 51.5,32.5 C 52.0,33.5 52.0,34.5 51.5,35.5 C 51.0,36.5 50.0,37.0 49.0,37.0 Z M 30.0,47.0 C 28.0,47.0 25.5,47.5 23.0,48.5 C 20.5,49.5 18.5,50.5 17.5,51.0 C 16.5,51.5 16.0,51.0 16.5,50.0 C 17.0,49.0 18.5,47.5 20.5,46.5 C 22.5,45.5 25.0,45.0 27.5,45.0 C 30.0,45.0 30.5,45.5 30.5,46.0 C 30.5,46.5 30.5,47.0 30.0,47.0 Z M 45.0,47.0 C 44.5,47.0 44.5,46.5 44.5,46.0 C 44.5,45.5 45.0,45.0 47.5,45.0 C 50.0,45.0 52.5,45.5 54.5,46.5 C 56.5,47.5 58.0,49.0 58.5,50.0 C 59.0,51.0 58.5,51.5 57.5,51.0 C 56.5,50.5 54.5,49.5 52.0,48.5 C 49.5,47.5 47.0,47.0 45.0,47.0 Z" fill="none" stroke="#000000" stroke-width="1.2"/>
  </g>
  <!-- LAYER 2: stamp — wewnętrzne detale embossera -->
  <g id="stamp">
    <path id="stamp_outline" d="M 37.50,46.05 C 42.20,46.05 46.05,42.20 46.05,37.50 C 46.05,32.80 42.20,28.95 43.20,28.95 C 43.20,25.53 43.20,17.55 40.92,17.55 C 38.64,17.55 38.64,25.53 38.64,28.95 L 36.36,28.95 C 36.36,25.53 36.36,17.55 34.08,17.55 C 31.80,17.55 31.80,25.53 31.80,28.95 C 32.80,28.95 28.95,32.80 28.95,37.50 C 28.95,42.20 32.80,46.05 37.50,46.05 Z" fill="none" stroke="#666666" stroke-width="0.8"/>
    <circle id="eye_l" cx="30.00" cy="31.50" r="3.00" fill="#333333"/>
    <circle id="eye_r" cx="45.00" cy="31.50" r="3.00" fill="#333333"/>
    <path id="smile" d="M 28.50,41.25 Q 37.50,46.65 46.50,41.25" fill="none" stroke="#333333" stroke-width="1.0"/>
  </g>
</svg>