<?xml version="1.0" encoding="utf-8" ?>
<svg xmlns="http://www.w3.org/2000/svg" xmlns:ev="http://www.w3.org/2001/xml-events" xmlns:xlink="http://www.w3.org/1999/xlink" baseProfile="full" height="60.0mm" version="1.1" viewBox="0 0 60.0 60.0" width="60.0mm">
  <defs/>
  <rect fill="white" height="60.0mm" width="60.0mm" x="0" y="0"/>
  <path d="M 30.0,4.0 C 28.0,4.0 26.5,5.5 26.0,8.0 C 25.5,10.5 25.0,14.0 24.5,17.0 C 24.0,19.0 23.0,20.5 21.5,21.5 C 19.5,22.8 17.5,23.0 16.0,24.0 C 13.5,25.5 12.0,28.0 12.0,31.0 C 12.0,33.5 13.0,35.5 15.0,37.0 C 16.5,38.2 18.5,38.8 20.0,39.5 C 19.0,40.5 18.0,42.0 17.5,43.5 C 16.8,45.5 17.0,47.5 18.0,49.0 C 19.0,50.5 20.5,51.5 22.5,51.5 C 23.5,51.5 24.5,51.2 25.5,50.5 L 25.5,51.0 C 25.5,53.0 26.5,54.5 28.0,55.5 C 29.0,56.0 30.0,56.0 30.0,56.0 C 30.0,56.0 31.0,56.0 32.0,55.5 C 33.5,54.5 34.5,53.0 34.5,51.0 L 34.5,50.5 C 35.5,51.2 36.5,51.5 37.5,51.5 C 39.5,51.5 41.0,50.5 42.0,49.0 C 43.0,47.5 43.2,45.5 42.5,43.5 C 42.0,42.0 41.0,40.5 40.0,39.5 C 41.5,38.8 43.5,38.2 45.0,37.0 C 47.0,35.5 48.0,33.5 48.0,31.0 C 48.0,28.0 46.5,25.5 44.0,24.0 C 42.5,23.0 40.5,22.8 38.5,21.5 C 37.0,20.5 36.0,19.0 35.5,17.0 C 35.0,14.0 34.5,10.5 34.0,8.0 C 33.5,5.5 32.0,4.0 30.0,4.0 Z" fill="none" stroke="#1a1a1a" stroke-linecap="round" stroke-linejoin="round" stroke-width="2.5mm"/>
  <text fill="#888888" font-family="sans-serif" font-size="3px" text-anchor="middle" x="30.0mm" y="57.599999999999994mm">easter bunny | CUTTER | S</text>
</svg>
