<?xml version="1.0" encoding="utf-8"?>
<svg xmlns="http://www.w3.org/2000/svg"
     width="110.0mm" height="110.0mm"
     viewBox="0 0 110.0 110.0">
  <rect width="110.0mm" height="110.0mm" fill="white"/>
  <!-- LAYER 1: outer — zewnętrzna sylwetka cuttera -->
  <g id="outer">
    <path id="outer_contour" d="M 55.0,108.0 C 44.0,108.0 36.0,102.0 32.0,94.0 C 28.0,86.0 26.0,80.0 22.0,76.0 C 16.0,70.0 8.0,64.0 6.0,54.0 C 4.0,44.0 10.0,36.0 20.0,34.0 C 26.0,32.8 30.0,34.0 34.0,36.0 C 34.5,30.0 33.0,22.0 34.0,14.0 C 35.0,6.0 40.0,2.0 45.0,2.0 C 50.0,2.0 53.0,6.0 53.0,12.0 C 53.0,18.0 51.5,26.0 50.5,32.0 C 52.0,31.0 53.5,30.5 55.0,30.5 C 56.5,30.5 58.0,31.0 59.5,32.0 C 58.5,26.0 57.0,18.0 57.0,12.0 C 57.0,6.0 60.0,2.0 65.0,2.0 C 70.0,2.0 75.0,6.0 76.0,14.0 C 77.0,22.0 75.5,30.0 76.0,36.0 C 80.0,34.0 84.0,32.8 90.0,34.0 C 100.0,36.0 106.0,44.0 104.0,54.0 C 102.0,64.0 94.0,70.0 88.0,76.0 C 84.0,80.0 82.0,86.0 78.0,94.0 C 74.0,102.0 66.0,108.0 55.0,108.0 Z" fill="none" stroke="#000000" stroke-width="1.2"/>
  </g>
  <!-- LAYER 2: stamp — wewnętrzne detale embossera -->
  <g id="stamp">
    <path id="stamp_outline" d="M 55.00,67.54 C 61.90,67.54 67.54,61.90 67.54,55.00 C 67.54,48.10 61.90,42.46 63.36,42.46 C 63.36,37.44 63.36,25.74 60.02,25.74 C 56.67,25.74 56.67,37.44 56.67,42.46 L 53.33,42.46 C 53.33,37.44 53.33,25.74 49.98,25.74 C 46.64,25.74 46.64,37.44 46.64,42.46 C 48.10,42.46 42.46,48.10 42.46,55.00 C 42.46,61.90 48.10,67.54 55.00,67.54 Z" fill="none" stroke="#666666" stroke-width="0.8"/>
    <circle id="eye_l" cx="44.00" cy="46.20" r="4.40" fill="#333333"/>
    <circle id="eye_r" cx="66.00" cy="46.20" r="4.40" fill="#333333"/>
    <path id="smile" d="M 41.80,60.50 Q 55.00,68.42 68.20,60.50" fill="none" stroke="#333333" stroke-width="1.0"/>
  </g>
</svg>