<?xml version="1.0" encoding="utf-8"?>
<svg xmlns="http://www.w3.org/2000/svg"
     width="50.0mm" height="50.0mm"
     viewBox="0 0 50.0 50.0">
  <rect width="50.0mm" height="50.0mm" fill="white"/>
  <!-- LAYER 1: outer — zewnętrzna sylwetka cuttera -->
  <g id="outer">
    <path id="outer_contour" d="M 25.0,2.5 C 23.0,2.5 21.0,3.5 20.5,6.0 C 19.8,9.0 20.0,13.0 20.5,16.0 C 19.0,15.0 17.5,14.5 16.0,14.8 C 14.0,15.2 13.0,17.0 13.5,19.0 C 14.0,20.5 15.5,21.5 17.0,22.0 C 14.0,22.5 10.0,24.0 7.0,26.5 C 4.0,29.0 3.0,32.0 4.0,35.0 C 5.0,38.0 8.0,40.0 12.0,41.0 C 14.5,41.5 16.5,41.5 18.5,41.0 C 17.5,42.5 17.0,44.0 17.5,45.5 C 18.0,47.0 19.5,48.0 21.5,47.5 C 23.0,47.0 24.0,45.5 24.5,44.0 C 25.0,45.5 26.0,47.0 27.5,47.5 C 29.5,48.0 31.0,47.0 31.5,45.5 C 32.0,44.0 31.5,42.5 30.5,41.0 C 32.5,41.5 34.5,41.5 37.0,41.0 C 41.0,40.0 44.0,38.0 45.0,35.0 C 46.0,32.0 45.0,29.0 42.0,26.5 C 39.0,24.0 35.0,22.5 32.0,22.0 C 33.5,21.5 35.0,20.5 35.5,19.0 C 36.0,17.0 35.0,15.2 33.0,14.8 C 31.5,14.5 30.0,15.0 28.5,16.0 C 29.0,13.0 29.2,9.0 28.5,6.0 C 28.0,3.5 26.0,2.5 25.0,2.5 Z" fill="none" stroke="#000000" stroke-width="1.2"/>
  </g>
  <!-- LAYER 2: stamp — wewnętrzne detale embossera -->
  <g id="stamp">
    <path id="stamp_outline" d="M 25.00,30.70 C 28.14,30.70 30.70,28.14 30.70,25.00 C 30.70,21.86 28.14,19.30 28.80,19.30 C 28.80,17.02 28.80,11.70 27.28,11.70 C 25.76,11.70 25.76,17.02 25.76,19.30 L 24.24,19.30 C 24.24,17.02 24.24,11.70 22.72,11.70 C 21.20,11.70 21.20,17.02 21.20,19.30 C 21.86,19.30 19.30,21.86 19.30,25.00 C 19.30,28.14 21.86,30.70 25.00,30.70 Z" fill="none" stroke="#666666" stroke-width="0.8"/>
    <circle id="eye_l" cx="20.00" cy="21.00" r="2.50" fill="#333333"/>
    <circle id="eye_r" cx="30.00" cy="21.00" r="2.50" fill="#333333"/>
    <path id="smile" d="M 19.00,27.50 Q 25.00,31.10 31.00,27.50" fill="none" stroke="#333333" stroke-width="1.0"/>
  </g>
</svg>