<?xml version="1.0" encoding="utf-8"?>
<svg xmlns="http://www.w3.org/2000/svg"
     width="150.0mm" height="150.0mm"
     viewBox="0 0 150.0 150.0">
  <rect width="150.0mm" height="150.0mm" fill="white"/>
  <!-- LAYER 1: outer — zewnętrzna sylwetka cuttera -->
  <g id="outer">
    <path id="outer_contour" d="M 75.0,148.0 C 60.0,148.0 50.0,140.0 45.0,130.0 C 40.0,120.0 30.0,118.0 20.0,110.0 C 10.0,102.0 8.0,88.0 15.0,78.0 C 22.0,68.0 25.0,62.0 25.0,55.0 C 25.0,48.0 28.0,40.0 35.0,35.0 C 38.0,32.5 40.0,28.0 41.0,22.0 C 42.0,14.0 48.0,4.0 55.0,2.5 C 62.0,1.0 68.0,8.0 68.0,18.0 C 68.0,26.0 66.0,34.0 63.0,40.0 C 60.5,44.5 62.0,48.0 67.0,48.0 C 70.0,48.0 72.0,46.0 75.0,46.0 C 78.0,46.0 80.0,48.0 83.0,48.0 C 88.0,48.0 89.5,44.5 87.0,40.0 C 84.0,34.0 82.0,26.0 82.0,18.0 C 82.0,8.0 88.0,1.0 95.0,2.5 C 102.0,4.0 108.0,14.0 109.0,22.0 C 110.0,28.0 112.0,32.5 115.0,35.0 C 122.0,40.0 125.0,48.0 125.0,55.0 C 125.0,62.0 128.0,68.0 135.0,78.0 C 142.0,88.0 140.0,102.0 130.0,110.0 C 120.0,118.0 110.0,120.0 105.0,130.0 C 100.0,140.0 90.0,148.0 75.0,148.0 Z" fill="none" stroke="#000000" stroke-width="1.2"/>
  </g>
  <!-- LAYER 2: stamp — wewnętrzne detale embossera -->
  <g id="stamp">
    <path id="stamp_outline" d="M 75.00,92.10 C 84.41,92.10 92.10,84.41 92.10,75.00 C 92.10,65.59 84.41,57.90 86.40,57.90 C 86.40,51.06 86.40,35.10 81.84,35.10 C 77.28,35.10 77.28,51.06 77.28,57.90 L 72.72,57.90 C 72.72,51.06 72.72,35.10 68.16,35.10 C 63.60,35.10 63.60,51.06 63.60,57.90 C 65.59,57.90 57.90,65.59 57.90,75.00 C 57.90,84.41 65.59,92.10 75.00,92.10 Z" fill="none" stroke="#666666" stroke-width="0.8"/>
    <circle id="eye_l" cx="60.00" cy="63.00" r="6.00" fill="#333333"/>
    <circle id="eye_r" cx="90.00" cy="63.00" r="6.00" fill="#333333"/>
    <path id="smile" d="M 57.00,82.50 Q 75.00,93.30 93.00,82.50" fill="none" stroke="#333333" stroke-width="1.0"/>
  </g>
</svg>