<?xml version="1.0" encoding="utf-8"?>
<svg xmlns="http://www.w3.org/2000/svg"
     width="90.0mm" height="90.0mm"
     viewBox="0 0 90.0 90.0">
  <rect width="90.0mm" height="90.0mm" fill="white"/>
  <!-- LAYER 1: outer — zewnętrzna sylwetka cuttera -->
  <g id="outer">
    <path id="outer_contour" d="M 45.0,5.0 C 38.0,5.0 33.0,10.0 33.0,18.0 C 33.0,24.0 34.0,30.0 34.0,34.0 C 34.0,36.0 32.0,37.0 30.0,37.0 C 26.0,37.0 20.0,35.0 16.0,33.0 C 12.0,31.0 8.0,30.0 6.0,34.0 C 4.0,38.0 6.0,42.0 10.0,44.0 C 14.0,46.0 20.0,47.0 26.0,48.0 C 30.0,48.5 33.0,49.0 33.0,52.0 C 33.0,54.0 33.0,56.0 33.0,58.0 L 33.0,62.0 C 33.0,64.0 34.0,66.0 34.0,68.0 C 34.0,70.0 34.5,72.0 36.0,73.0 C 37.0,73.5 38.0,74.0 38.0,76.0 C 38.0,78.0 37.0,80.0 36.0,82.0 C 35.0,84.0 36.0,86.0 40.0,86.0 L 50.0,86.0 C 54.0,86.0 55.0,84.0 54.0,82.0 C 53.0,80.0 52.0,78.0 52.0,76.0 C 52.0,74.0 53.0,73.5 54.0,73.0 C 55.5,72.0 56.0,70.0 56.0,68.0 C 56.0,64.0 57.0,60.0 57.0,56.0 C 57.0,53.0 57.5,50.0 60.0,49.0 C 64.0,47.5 68.0,47.0 72.0,45.0 C 76.0,43.0 80.0,42.0 82.0,38.0 C 84.0,34.0 82.0,30.0 78.0,30.0 C 75.0,30.0 72.0,31.0 69.0,33.0 C 66.0,35.0 62.0,37.0 59.0,37.0 C 57.0,37.0 56.0,36.0 56.0,34.0 C 56.0,28.0 57.0,22.0 57.0,18.0 C 57.0,10.0 52.0,5.0 45.0,5.0 Z" fill="none" stroke="#000000" stroke-width="1.2"/>
  </g>
  <!-- LAYER 2: stamp — wewnętrzne detale embossera -->
  <g id="stamp">
    <path id="stamp_outline" d="M 38.84,60.05 L 51.16,60.05 L 51.16,50.47 L 58.00,50.47 L 58.00,45.00 L 51.16,45.00 L 51.16,45.96 L 51.16,29.95 L 38.84,29.95 L 38.84,40.49 L 32.00,40.49 L 32.00,45.96 L 38.84,45.96 L 38.84,60.05 Z" fill="none" stroke="#666666" stroke-width="0.8"/>
  </g>
</svg>