<?xml version="1.0" encoding="utf-8"?>
<svg xmlns="http://www.w3.org/2000/svg"
     width="75.0mm" height="75.0mm"
     viewBox="0 0 75.0 75.0">
  <rect width="75.0mm" height="75.0mm" fill="white"/>
  <!-- LAYER 1: outer — zewnętrzna sylwetka cuttera -->
  <g id="outer">
    <path id="outer_contour" d="M 37.5,3.5 C 40.5,3.5 43.0,5.5 43.5,9.0 C 44.0,12.5 44.2,18.0 44.5,22.0 C 44.7,24.0 45.5,25.0 47.5,25.5 C 50.0,26.0 53.0,25.0 56.0,24.0 C 59.0,23.0 62.0,22.5 64.5,24.5 C 67.0,26.5 67.5,30.0 66.5,33.0 C 65.5,36.0 63.0,38.5 60.0,39.5 C 57.0,40.5 54.0,40.0 51.5,40.5 C 49.0,41.0 47.5,42.0 46.5,44.0 C 45.5,46.0 45.0,48.5 44.8,51.0 C 44.6,53.5 44.8,55.0 45.5,56.5 C 46.2,58.0 47.5,59.0 47.5,59.0 C 47.5,59.0 48.0,60.0 47.5,61.0 C 47.0,62.0 46.0,62.5 45.0,63.0 C 44.0,63.5 43.0,64.0 43.0,65.0 C 43.0,66.5 44.0,67.5 44.0,69.0 C 44.0,70.5 43.0,71.5 41.0,72.0 C 39.0,72.5 36.0,72.5 34.0,72.0 C 32.0,71.5 31.0,70.5 31.0,69.0 C 31.0,67.5 32.0,66.5 32.0,65.0 C 32.0,64.0 31.0,63.5 30.0,63.0 C 29.0,62.5 28.0,62.0 27.5,61.0 C 27.0,60.0 27.5,59.0 27.5,59.0 C 27.5,59.0 28.8,58.0 29.5,56.5 C 30.2,55.0 30.4,53.5 30.2,51.0 C 30.0,48.5 29.5,46.0 28.5,44.0 C 27.5,42.0 26.0,41.0 23.5,40.5 C 21.0,40.0 18.0,40.5 15.0,39.5 C 12.0,38.5 9.5,36.0 8.5,33.0 C 7.5,30.0 8.0,26.5 10.5,24.5 C 13.0,22.5 16.0,23.0 19.0,24.0 C 22.0,25.0 25.0,26.0 27.5,25.5 C 29.5,25.0 30.3,24.0 30.5,22.0 C 30.8,18.0 31.0,12.5 31.5,9.0 C 32.0,5.5 34.5,3.5 37.5,3.5 Z" fill="none" stroke="#000000" stroke-width="1.2"/>
  </g>
  <!-- LAYER 2: stamp — wewnętrzne detale embossera -->
  <g id="stamp">
    <path id="stamp_outline" d="M 32.37,50.04 L 42.63,50.04 L 42.63,42.06 L 48.33,42.06 L 48.33,37.50 L 42.63,37.50 L 42.63,38.30 L 42.63,24.96 L 32.37,24.96 L 32.37,33.74 L 26.67,33.74 L 26.67,38.30 L 32.37,38.30 L 32.37,50.04 Z" fill="none" stroke="#666666" stroke-width="0.8"/>
  </g>
</svg>