<?xml version="1.0" encoding="utf-8"?>
<svg xmlns="http://www.w3.org/2000/svg"
     width="75.0mm" height="75.0mm"
     viewBox="0 0 75.0 75.0">
  <rect width="75.0mm" height="75.0mm" fill="white"/>
  <!-- LAYER 1: outer — zewnętrzna sylwetka cuttera -->
  <g id="outer">
    <path id="outer_contour" d="M 37.5,5.5 C 40.5,5.5 43.5,6.8 45.5,9.0 C 47.5,11.2 48.5,14.5 48.5,18.0 C 48.5,21.0 48.0,24.0 48.0,27.0 C 48.0,28.5 48.5,29.5 50.0,30.0 C 52.5,30.8 55.5,31.5 58.0,33.5 C 60.5,35.5 62.0,38.5 62.0,41.5 C 62.0,44.5 60.5,47.0 58.0,48.5 C 55.5,50.0 52.5,50.0 50.0,49.5 C 48.5,49.2 47.5,48.5 47.0,47.5 C 46.5,46.5 46.5,45.0 46.8,43.5 C 47.0,42.0 47.0,40.5 46.0,39.5 C 45.0,38.5 43.5,38.5 42.5,39.0 C 41.5,39.5 41.0,40.5 41.0,42.0 C 41.0,44.0 41.0,46.0 41.0,48.0 C 41.0,52.0 41.0,56.0 40.5,59.0 C 40.0,61.0 39.0,62.5 37.5,63.0 C 36.0,62.5 35.0,61.0 34.5,59.0 C 34.0,56.0 34.0,52.0 34.0,48.0 C 34.0,46.0 34.0,44.0 34.0,42.0 C 34.0,40.5 33.5,39.5 32.5,39.0 C 31.5,38.5 30.0,38.5 29.0,39.5 C 28.0,40.5 28.0,42.0 28.2,43.5 C 28.5,45.0 28.5,46.5 28.0,47.5 C 27.5,48.5 26.5,49.2 25.0,49.5 C 22.5,50.0 19.5,50.0 17.0,48.5 C 14.5,47.0 13.0,44.5 13.0,41.5 C 13.0,38.5 14.5,35.5 17.0,33.5 C 19.5,31.5 22.5,30.8 25.0,30.0 C 26.5,29.5 27.0,28.5 27.0,27.0 C 27.0,24.0 26.5,21.0 26.5,18.0 C 26.5,14.5 27.5,11.2 29.5,9.0 C 31.5,6.8 34.5,5.5 37.5,5.5 Z M 37.5,63.0 C 36.0,63.5 34.0,64.5 32.0,65.5 C 30.0,66.5 28.5,67.5 27.5,68.0 C 29.0,69.0 32.0,70.0 35.0,70.5 C 37.0,70.8 38.0,70.8 40.0,70.5 C 43.0,70.0 46.0,69.0 47.5,68.0 C 46.5,67.5 45.0,66.5 43.0,65.5 C 41.0,64.5 39.0,63.5 37.5,63.0 Z" fill="none" stroke="#000000" stroke-width="1.2"/>
  </g>
  <!-- LAYER 2: stamp — wewnętrzne detale embossera -->
  <g id="stamp">
    <path id="stamp_outline" d="M 32.37,50.04 L 42.63,50.04 L 42.63,42.06 L 48.33,42.06 L 48.33,37.50 L 42.63,37.50 L 42.63,38.30 L 42.63,24.96 L 32.37,24.96 L 32.37,33.74 L 26.67,33.74 L 26.67,38.30 L 32.37,38.30 L 32.37,50.04 Z" fill="none" stroke="#666666" stroke-width="0.8"/>
  </g>
</svg>