<?xml version="1.0" encoding="utf-8"?>
<svg xmlns="http://www.w3.org/2000/svg"
     width="60.0mm" height="60.0mm"
     viewBox="0 0 60.0 60.0">
  <rect width="60.0mm" height="60.0mm" fill="white"/>
  <!-- LAYER 1: outer — zewnętrzna sylwetka cuttera -->
  <g id="outer">
    <path id="outer_contour" d="M 30.0,4.0 C 24.0,4.0 20.0,8.0 20.0,14.0 C 20.0,18.0 20.5,22.0 21.0,25.0 C 20.0,24.0 18.0,22.0 15.0,20.0 C 12.0,18.0 8.0,18.5 6.0,21.0 C 4.0,23.5 4.5,27.0 7.0,29.0 C 9.5,31.0 13.0,32.0 16.0,32.5 C 18.0,33.0 20.0,33.2 21.0,33.5 C 20.5,36.0 20.2,39.0 20.0,42.0 C 20.0,42.5 20.5,42.0 20.5,41.5 C 20.5,41.5 20.0,44.0 20.0,47.0 C 20.0,52.0 24.0,56.0 30.0,56.0 C 36.0,56.0 40.0,52.0 40.0,47.0 C 40.0,44.0 39.5,41.5 39.5,41.5 C 39.5,42.0 40.0,42.5 40.0,42.0 C 39.8,39.0 39.5,36.0 39.0,33.5 C 40.0,33.2 42.0,33.0 44.0,32.5 C 47.0,32.0 50.5,31.0 53.0,29.0 C 55.5,27.0 56.0,23.5 54.0,21.0 C 52.0,18.5 48.0,18.0 45.0,20.0 C 42.0,22.0 40.0,24.0 39.0,25.0 C 39.5,22.0 40.0,18.0 40.0,14.0 C 40.0,8.0 36.0,4.0 30.0,4.0 Z" fill="none" stroke="#000000" stroke-width="1.2"/>
  </g>
  <!-- LAYER 2: stamp — wewnętrzne detale embossera -->
  <g id="stamp">
    <path id="stamp_outline" d="M 25.90,40.03 L 34.10,40.03 L 34.10,33.65 L 38.66,33.65 L 38.66,30.00 L 34.10,30.00 L 34.10,30.64 L 34.10,19.97 L 25.90,19.97 L 25.90,26.99 L 21.34,26.99 L 21.34,30.64 L 25.90,30.64 L 25.90,40.03 Z" fill="none" stroke="#666666" stroke-width="0.8"/>
  </g>
</svg>