<?xml version="1.0" encoding="utf-8"?>
<svg xmlns="http://www.w3.org/2000/svg"
     width="110.0mm" height="110.0mm"
     viewBox="0 0 110.0 110.0">
  <rect width="110.0mm" height="110.0mm" fill="white"/>
  <!-- LAYER 1: outer — zewnętrzna sylwetka cuttera -->
  <g id="outer">
    <path id="outer_contour" d="M 55.0,7.0 C 62.0,7.0 68.0,12.0 70.0,20.0 C 72.0,28.0 71.0,35.0 71.0,42.0 C 74.0,40.0 78.0,37.0 83.0,36.0 C 88.0,35.0 94.0,36.0 97.0,40.0 C 100.0,44.0 100.0,50.0 98.0,55.0 C 96.0,60.0 92.0,63.0 87.0,64.0 C 82.0,65.0 77.0,64.0 73.0,62.0 C 72.5,66.0 72.0,70.0 72.0,74.0 C 72.0,76.0 72.5,78.0 74.0,79.0 C 76.0,80.0 78.0,79.0 80.0,79.5 C 82.0,80.0 83.0,82.0 83.0,84.0 C 83.0,86.0 82.0,88.0 80.0,89.0 C 78.0,90.0 75.0,90.0 73.0,89.0 C 71.0,88.0 70.0,86.0 69.5,84.0 C 69.0,86.0 69.0,88.0 69.0,90.0 C 69.0,94.0 69.5,98.0 67.0,101.0 C 64.5,104.0 60.0,105.0 55.0,105.0 C 50.0,105.0 45.5,104.0 43.0,101.0 C 40.5,98.0 41.0,94.0 41.0,90.0 C 41.0,88.0 41.0,86.0 40.5,84.0 C 40.0,86.0 39.0,88.0 37.0,89.0 C 35.0,90.0 32.0,90.0 30.0,89.0 C 28.0,88.0 27.0,86.0 27.0,84.0 C 27.0,82.0 28.0,80.0 30.0,79.5 C 32.0,79.0 34.0,80.0 36.0,79.0 C 37.5,78.0 38.0,76.0 38.0,74.0 C 38.0,70.0 37.5,66.0 37.0,62.0 C 33.0,64.0 28.0,65.0 23.0,64.0 C 18.0,63.0 14.0,60.0 12.0,55.0 C 10.0,50.0 10.0,44.0 13.0,40.0 C 16.0,36.0 22.0,35.0 27.0,36.0 C 32.0,37.0 36.0,40.0 39.0,42.0 C 39.0,35.0 38.0,28.0 40.0,20.0 C 42.0,12.0 48.0,7.0 55.0,7.0 Z" fill="none" stroke="#000000" stroke-width="1.2"/>
  </g>
  <!-- LAYER 2: stamp — wewnętrzne detale embossera -->
  <g id="stamp">
    <path id="stamp_outline" d="M 47.48,73.39 L 62.52,73.39 L 62.52,61.69 L 70.88,61.69 L 70.88,55.00 L 62.52,55.00 L 62.52,56.17 L 62.52,36.61 L 47.48,36.61 L 47.48,49.48 L 39.12,49.48 L 39.12,56.17 L 47.48,56.17 L 47.48,73.39 Z" fill="none" stroke="#666666" stroke-width="0.8"/>
  </g>
</svg>