<?xml version="1.0" encoding="utf-8"?>
<svg xmlns="http://www.w3.org/2000/svg"
     width="50.0mm" height="50.0mm"
     viewBox="0 0 50.0 50.0">
  <rect width="50.0mm" height="50.0mm" fill="white"/>
  <!-- LAYER 1: outer — zewnętrzna sylwetka cuttera -->
  <g id="outer">
    <path id="outer_contour" d="M 25.0,2.5 C 28.5,2.5 31.5,4.5 32.5,8.0 C 33.5,11.5 33.0,15.0 33.0,18.0 C 33.5,18.0 35.0,17.5 37.5,17.0 C 40.0,16.5 43.0,17.0 44.5,19.5 C 46.0,22.0 45.5,25.0 44.0,27.0 C 42.5,29.0 40.0,30.0 37.5,30.0 C 35.0,30.0 33.5,29.5 33.0,29.0 C 33.0,32.0 33.0,35.0 33.0,37.0 C 33.0,37.5 32.5,37.5 32.5,38.0 C 32.5,38.0 34.0,38.5 35.5,40.0 C 37.0,41.5 37.5,43.5 36.5,45.0 C 35.5,46.5 33.5,47.5 31.0,47.5 C 28.5,47.5 25.0,47.5 25.0,47.5 C 25.0,47.5 21.5,47.5 19.0,47.5 C 16.5,47.5 14.5,46.5 13.5,45.0 C 12.5,43.5 13.0,41.5 14.5,40.0 C 16.0,38.5 17.5,38.0 17.5,38.0 C 17.5,37.5 17.0,37.5 17.0,37.0 C 17.0,35.0 17.0,32.0 17.0,29.0 C 16.5,29.5 15.0,30.0 12.5,30.0 C 10.0,30.0 7.5,29.0 6.0,27.0 C 4.5,25.0 4.0,22.0 5.5,19.5 C 7.0,17.0 10.0,16.5 12.5,17.0 C 15.0,17.5 16.5,18.0 17.0,18.0 C 17.0,15.0 16.5,11.5 17.5,8.0 C 18.5,4.5 21.5,2.5 25.0,2.5 Z" fill="none" stroke="#000000" stroke-width="1.2"/>
  </g>
  <!-- LAYER 2: stamp — wewnętrzne detale embossera -->
  <g id="stamp">
    <path id="stamp_outline" d="M 21.58,33.36 L 28.42,33.36 L 28.42,28.04 L 32.22,28.04 L 32.22,25.00 L 28.42,25.00 L 28.42,25.53 L 28.42,16.64 L 21.58,16.64 L 21.58,22.49 L 17.78,22.49 L 17.78,25.53 L 21.58,25.53 L 21.58,33.36 Z" fill="none" stroke="#666666" stroke-width="0.8"/>
  </g>
</svg>