<?xml version="1.0" encoding="utf-8"?>
<svg xmlns="http://www.w3.org/2000/svg"
     width="150.0mm" height="150.0mm"
     viewBox="0 0 150.0 150.0">
  <rect width="150.0mm" height="150.0mm" fill="white"/>
  <!-- LAYER 1: outer — zewnętrzna sylwetka cuttera -->
  <g id="outer">
    <path id="outer_contour" d="M 75.0,8.0 C 82.0,8.0 88.0,12.0 92.0,18.0 C 96.0,24.0 98.0,32.0 98.0,42.0 C 98.0,46.0 97.5,50.0 97.0,54.0 C 100.0,48.0 104.0,43.0 109.0,40.0 C 114.0,37.0 120.0,36.0 125.0,38.0 C 130.0,40.0 133.0,45.0 134.0,51.0 C 135.0,57.0 134.0,64.0 130.0,70.0 C 126.0,76.0 120.0,80.0 114.0,82.0 C 108.0,84.0 102.0,84.0 98.0,83.0 C 98.5,90.0 98.0,98.0 97.0,105.0 C 96.0,112.0 94.0,118.0 91.0,122.0 C 91.0,122.0 92.0,124.0 92.0,127.0 C 92.0,130.0 91.0,134.0 88.0,137.0 C 85.0,140.0 80.0,142.0 75.0,142.0 C 70.0,142.0 65.0,140.0 62.0,137.0 C 59.0,134.0 58.0,130.0 58.0,127.0 C 58.0,124.0 59.0,122.0 59.0,122.0 C 56.0,118.0 54.0,112.0 53.0,105.0 C 52.0,98.0 51.5,90.0 52.0,83.0 C 48.0,84.0 42.0,84.0 36.0,82.0 C 30.0,80.0 24.0,76.0 20.0,70.0 C 16.0,64.0 15.0,57.0 16.0,51.0 C 17.0,45.0 20.0,40.0 25.0,38.0 C 30.0,36.0 36.0,37.0 41.0,40.0 C 46.0,43.0 50.0,48.0 53.0,54.0 C 52.5,50.0 52.0,46.0 52.0,42.0 C 52.0,32.0 54.0,24.0 58.0,18.0 C 62.0,12.0 68.0,8.0 75.0,8.0 Z" fill="none" stroke="#000000" stroke-width="1.2"/>
  </g>
  <!-- LAYER 2: stamp — wewnętrzne detale embossera -->
  <g id="stamp">
    <path id="stamp_outline" d="M 64.74,100.08 L 85.26,100.08 L 85.26,84.12 L 96.66,84.12 L 96.66,75.00 L 85.26,75.00 L 85.26,76.60 L 85.26,49.92 L 64.74,49.92 L 64.74,67.48 L 53.34,67.48 L 53.34,76.60 L 64.74,76.60 L 64.74,100.08 Z" fill="none" stroke="#666666" stroke-width="0.8"/>
  </g>
</svg>