<?xml version="1.0" encoding="utf-8"?>
<svg xmlns="http://www.w3.org/2000/svg"
     width="90.0mm" height="90.0mm"
     viewBox="0 0 90.0 90.0">
  <rect width="90.0mm" height="90.0mm" fill="white"/>
  <!-- LAYER 1: outer — zewnętrzna sylwetka cuttera -->
  <g id="outer">
    <path id="outer_contour" d="M 45.0,5.0 C 48.0,5.0 50.0,7.0 51.0,10.0 C 52.0,13.0 53.0,14.0 55.0,14.0 C 57.0,14.0 58.5,12.5 60.0,12.0 C 62.0,11.3 64.0,12.0 65.0,14.0 C 66.0,16.0 66.0,18.0 65.5,20.0 C 65.0,22.0 66.0,23.0 67.0,24.0 L 72.0,28.0 C 74.0,29.5 76.0,31.0 78.0,34.0 C 80.0,37.0 82.0,40.0 83.0,44.0 C 84.0,48.0 85.0,52.0 84.0,56.0 C 83.0,60.0 81.0,63.0 78.0,66.0 C 75.0,69.0 73.0,71.0 72.0,74.0 C 71.0,77.0 70.0,80.0 68.0,82.0 C 66.0,84.0 63.0,85.0 60.0,85.0 C 57.0,85.0 54.0,84.0 52.0,82.0 C 50.0,80.0 48.0,79.0 45.0,79.0 C 42.0,79.0 40.0,80.0 38.0,82.0 C 36.0,84.0 33.0,85.0 30.0,85.0 C 27.0,85.0 24.0,84.0 22.0,82.0 C 20.0,80.0 19.0,77.0 18.0,74.0 C 17.0,71.0 15.0,69.0 12.0,66.0 C 9.0,63.0 7.0,60.0 6.0,56.0 C 5.0,52.0 6.0,48.0 7.0,44.0 C 8.0,40.0 10.0,37.0 12.0,34.0 C 14.0,31.0 16.0,29.5 18.0,28.0 L 23.0,24.0 C 24.0,23.0 25.0,22.0 24.5,20.0 C 24.0,18.0 24.0,16.0 25.0,14.0 C 26.0,12.0 28.0,11.3 30.0,12.0 C 31.5,12.5 33.0,14.0 35.0,14.0 C 37.0,14.0 38.0,13.0 39.0,10.0 C 40.0,7.0 42.0,5.0 45.0,5.0 Z" fill="none" stroke="#000000" stroke-width="1.2"/>
  </g>
  <!-- LAYER 2: stamp — wewnętrzne detale embossera -->
  <g id="stamp">
    <path id="stamp_outline" d="M 29.27,60.05 L 30.53,60.05 L 38.08,37.48 L 46.57,60.05 L 60.73,60.05 L 45.00,29.95 Z" fill="none" stroke="#666666" stroke-width="0.8"/>
  </g>
</svg>