<?xml version="1.0" encoding="utf-8"?>
<svg xmlns="http://www.w3.org/2000/svg"
     width="75.0mm" height="75.0mm"
     viewBox="0 0 75.0 75.0">
  <rect width="75.0mm" height="75.0mm" fill="white"/>
  <!-- LAYER 1: outer — zewnętrzna sylwetka cuttera -->
  <g id="outer">
    <path id="outer_contour" d="M 37.5,5.0 C 40.0,5.0 42.0,7.0 42.0,9.5 C 42.0,11.0 41.2,12.3 40.0,13.0 C 40.5,13.5 41.0,14.5 41.0,16.0 C 41.0,16.5 40.8,17.0 40.5,17.5 L 43.0,17.5 C 44.0,17.5 45.0,18.0 45.5,19.0 L 48.0,24.0 L 52.0,20.0 C 53.0,19.0 54.5,19.0 55.5,20.0 L 60.0,25.0 L 65.0,35.0 C 66.0,37.0 67.0,40.0 67.0,43.0 L 68.0,45.0 C 70.0,49.0 71.0,53.0 70.0,57.0 C 69.0,61.0 66.0,64.0 62.0,66.0 C 58.0,68.0 53.0,69.0 47.0,69.5 C 43.0,69.8 39.5,70.0 37.5,70.0 C 35.5,70.0 32.0,69.8 28.0,69.5 C 22.0,69.0 17.0,68.0 13.0,66.0 C 9.0,64.0 6.0,61.0 5.0,57.0 C 4.0,53.0 5.0,49.0 7.0,45.0 L 8.0,43.0 C 8.0,40.0 9.0,37.0 10.0,35.0 L 15.0,25.0 L 19.5,20.0 C 20.5,19.0 22.0,19.0 23.0,20.0 L 27.0,24.0 L 29.5,19.0 C 30.0,18.0 31.0,17.5 32.0,17.5 L 34.5,17.5 C 34.2,17.0 34.0,16.5 34.0,16.0 C 34.0,14.5 34.5,13.5 35.0,13.0 C 33.8,12.3 33.0,11.0 33.0,9.5 C 33.0,7.0 35.0,5.0 37.5,5.0 Z" fill="none" stroke="#000000" stroke-width="1.2"/>
  </g>
  <!-- LAYER 2: stamp — wewnętrzne detale embossera -->
  <g id="stamp">
    <path id="stamp_outline" d="M 24.39,50.04 L 25.44,50.04 L 31.73,31.23 L 38.81,50.04 L 50.61,50.04 L 37.50,24.96 Z" fill="none" stroke="#666666" stroke-width="0.8"/>
  </g>
</svg>