<?xml version="1.0" encoding="utf-8"?>
<svg xmlns="http://www.w3.org/2000/svg"
     width="75.0mm" height="75.0mm"
     viewBox="0 0 75.0 75.0">
  <rect width="75.0mm" height="75.0mm" fill="white"/>
  <!-- LAYER 1: outer — zewnętrzna sylwetka cuttera -->
  <g id="outer">
    <path id="outer_contour" d="M 10.0,58.0 C 10.0,56.0 13.0,54.0 16.0,55.0 C 17.5,55.5 19.0,53.0 21.0,54.0 C 23.0,55.0 22.5,52.0 24.0,51.0 C 25.5,50.0 26.0,52.0 28.0,51.5 C 29.0,51.2 29.5,49.0 30.0,47.0 C 30.5,45.0 29.0,43.0 28.5,41.0 C 28.0,39.0 27.0,37.5 26.5,35.5 C 26.0,33.5 25.0,32.0 24.5,30.0 C 24.0,28.5 23.0,27.5 23.5,26.0 C 24.0,24.5 25.5,25.0 26.5,24.0 C 27.5,23.0 27.0,21.5 27.5,20.5 C 28.0,19.5 29.5,20.0 30.0,19.0 C 30.5,18.0 30.0,16.5 30.5,15.5 Q 31.0,14.5 32.0,14.0 C 33.0,13.5 34.0,14.5 35.0,13.5 C 36.0,12.5 36.0,10.0 37.5,8.5 C 39.0,7.0 40.5,9.0 41.5,10.5 C 42.5,12.0 42.0,14.0 43.0,15.5 C 44.0,17.0 45.5,17.0 46.5,18.5 C 47.5,20.0 47.0,22.0 48.0,23.5 C 49.0,25.0 50.5,25.0 51.5,26.5 C 52.5,28.0 52.0,30.0 53.0,32.0 C 54.0,34.0 55.5,35.0 56.5,37.0 C 57.5,39.0 57.0,41.0 58.0,43.0 C 59.0,45.0 60.5,46.0 61.0,48.0 C 61.5,50.0 61.0,51.5 62.0,52.5 C 63.0,53.5 64.5,52.5 65.5,53.5 C 66.5,54.5 66.0,56.5 66.0,58.0 C 66.0,59.5 66.5,61.0 65.5,62.0 C 64.5,63.0 62.0,62.5 59.0,62.5 C 53.0,62.5 45.0,63.0 37.5,63.0 C 30.0,63.0 22.0,62.5 16.0,62.5 C 13.0,62.5 11.0,63.0 10.0,62.0 C 9.0,61.0 10.0,59.5 10.0,58.0 Z M 34.0,28.0 C 34.5,26.5 36.0,26.0 37.5,26.0 C 39.0,26.0 40.5,26.5 41.0,28.0 C 41.5,29.5 41.5,31.5 40.5,33.0 C 39.5,34.5 38.5,35.5 37.5,35.5 C 36.5,35.5 35.5,34.5 34.5,33.0 C 33.5,31.5 33.5,29.5 34.0,28.0 Z" fill="none" stroke="#000000" stroke-width="1.2"/>
  </g>
  <!-- LAYER 2: stamp — wewnętrzne detale embossera -->
  <g id="stamp">
    <path id="stamp_outline" d="M 24.39,50.04 L 25.44,50.04 L 31.73,31.23 L 38.81,50.04 L 50.61,50.04 L 37.50,24.96 Z" fill="none" stroke="#666666" stroke-width="0.8"/>
  </g>
</svg>