<?xml version="1.0" encoding="utf-8"?>
<svg xmlns="http://www.w3.org/2000/svg"
     width="60.0mm" height="60.0mm"
     viewBox="0 0 60.0 60.0">
  <rect width="60.0mm" height="60.0mm" fill="white"/>
  <!-- LAYER 1: outer — zewnętrzna sylwetka cuttera -->
  <g id="outer">
    <path id="outer_contour" d="M 30.0,4.0 C 33.5,4.0 36.0,6.0 37.0,9.0 C 38.0,12.0 36.5,14.0 36.5,14.0 L 39.0,14.0 C 40.0,14.0 41.0,14.5 41.5,15.5 L 44.0,20.0 C 44.5,21.0 44.0,22.0 43.0,22.0 L 42.0,22.0 L 46.0,28.0 C 47.0,29.5 47.5,30.5 48.0,32.0 L 52.0,32.0 C 54.0,32.0 56.0,33.5 56.5,35.5 C 57.0,37.5 56.0,39.0 54.5,40.0 L 54.0,40.5 L 56.0,46.0 C 57.0,48.5 55.5,51.0 53.0,52.0 C 51.0,52.8 49.0,52.5 47.5,51.0 L 44.0,47.0 L 42.0,52.0 C 41.0,54.5 38.5,56.0 36.0,55.5 C 33.5,55.0 32.0,53.0 32.0,50.5 L 32.0,46.0 C 31.5,46.5 30.8,47.0 30.0,47.0 C 29.2,47.0 28.5,46.5 28.0,46.0 L 28.0,50.5 C 28.0,53.0 26.5,55.0 24.0,55.5 C 21.5,56.0 19.0,54.5 18.0,52.0 L 16.0,47.0 L 12.5,51.0 C 11.0,52.5 9.0,52.8 7.0,52.0 C 4.5,51.0 3.0,48.5 4.0,46.0 L 6.0,40.5 L 5.5,40.0 C 4.0,39.0 3.0,37.5 3.5,35.5 C 4.0,33.5 6.0,32.0 8.0,32.0 L 12.0,32.0 C 12.5,30.5 13.0,29.5 14.0,28.0 L 18.0,22.0 L 17.0,22.0 C 16.0,22.0 15.5,21.0 16.0,20.0 L 18.5,15.5 C 19.0,14.5 20.0,14.0 21.0,14.0 L 23.5,14.0 C 23.5,14.0 22.0,12.0 23.0,9.0 C 24.0,6.0 26.5,4.0 30.0,4.0 Z" fill="none" stroke="#000000" stroke-width="1.2"/>
  </g>
  <!-- LAYER 2: stamp — wewnętrzne detale embossera -->
  <g id="stamp">
    <path id="stamp_outline" d="M 19.51,40.03 L 20.35,40.03 L 25.39,24.98 L 31.05,40.03 L 40.49,40.03 L 30.00,19.97 Z" fill="none" stroke="#666666" stroke-width="0.8"/>
  </g>
</svg>