<?xml version="1.0" encoding="utf-8"?>
<svg xmlns="http://www.w3.org/2000/svg"
     width="110.0mm" height="110.0mm"
     viewBox="0 0 110.0 110.0">
  <rect width="110.0mm" height="110.0mm" fill="white"/>
  <!-- LAYER 1: outer — zewnętrzna sylwetka cuttera -->
  <g id="outer">
    <path id="outer_contour" d="M 55.0,8.0 C 60.0,8.0 63.0,12.0 65.0,16.0 L 72.0,30.0 C 74.0,34.0 78.0,33.0 82.0,28.0 C 86.0,23.0 90.0,20.0 94.0,24.0 C 98.0,28.0 100.0,34.0 102.0,42.0 C 104.0,50.0 105.0,58.0 104.0,65.0 C 103.0,72.0 100.0,76.0 96.0,78.0 L 96.0,82.0 C 96.0,86.0 94.0,88.0 92.0,88.0 C 90.0,88.0 89.0,87.0 89.0,85.0 L 89.0,80.0 C 86.0,80.5 83.0,80.0 80.0,78.0 L 78.0,88.0 C 77.5,90.0 76.0,91.0 74.0,91.0 L 68.0,91.0 C 66.0,91.0 65.0,90.0 65.0,88.0 L 66.0,78.0 C 63.0,80.0 59.0,82.0 55.0,82.0 C 51.0,82.0 47.0,80.0 44.0,78.0 L 45.0,88.0 C 45.0,90.0 44.0,91.0 42.0,91.0 L 36.0,91.0 C 34.0,91.0 32.5,90.0 32.0,88.0 L 30.0,78.0 C 27.0,80.0 24.0,80.5 21.0,80.0 L 21.0,85.0 C 21.0,87.0 20.0,88.0 18.0,88.0 C 16.0,88.0 14.0,86.0 14.0,82.0 L 14.0,78.0 C 10.0,76.0 7.0,72.0 6.0,65.0 C 5.0,58.0 6.0,50.0 8.0,42.0 C 10.0,34.0 12.0,28.0 16.0,24.0 C 20.0,20.0 24.0,23.0 28.0,28.0 C 32.0,33.0 36.0,34.0 38.0,30.0 L 45.0,16.0 C 47.0,12.0 50.0,8.0 55.0,8.0 Z" fill="none" stroke="#000000" stroke-width="1.2"/>
  </g>
  <!-- LAYER 2: stamp — wewnętrzne detale embossera -->
  <g id="stamp">
    <path id="stamp_outline" d="M 35.77,73.39 L 37.31,73.39 L 46.54,45.80 L 56.92,73.39 L 74.23,73.39 L 55.00,36.61 Z" fill="none" stroke="#666666" stroke-width="0.8"/>
  </g>
</svg>