<?xml version="1.0" encoding="utf-8"?>
<svg xmlns="http://www.w3.org/2000/svg"
     width="50.0mm" height="50.0mm"
     viewBox="0 0 50.0 50.0">
  <rect width="50.0mm" height="50.0mm" fill="white"/>
  <!-- LAYER 1: outer — zewnętrzna sylwetka cuttera -->
  <g id="outer">
    <path id="outer_contour" d="M 25.0,4.0 C 27.0,4.0 28.5,5.5 28.5,7.5 C 28.5,9.5 27.0,11.0 25.0,11.0 C 23.0,11.0 21.5,9.5 21.5,7.5 C 21.5,5.5 23.0,4.0 25.0,4.0 L 25.0,11.0 C 25.5,11.0 27.0,11.5 27.5,12.5 C 28.0,13.5 28.5,15.0 29.0,16.0 L 33.0,14.0 C 34.0,13.5 35.0,14.5 34.5,15.5 L 30.0,19.0 C 30.5,20.5 31.0,22.0 31.0,23.0 L 35.0,23.0 C 35.5,23.0 36.0,23.5 36.0,24.0 L 36.0,24.5 C 36.0,25.0 35.5,25.5 35.0,25.5 L 30.5,25.5 L 30.0,28.0 L 34.0,34.0 C 35.0,35.5 36.5,37.5 38.0,39.0 L 44.0,39.0 C 45.0,39.0 46.0,39.5 46.0,41.0 L 46.0,44.0 C 46.0,45.5 45.0,46.0 44.0,46.0 L 34.0,46.0 C 33.0,46.0 32.0,45.5 31.5,44.5 L 25.0,34.0 L 18.5,44.5 C 18.0,45.5 17.0,46.0 16.0,46.0 L 6.0,46.0 C 5.0,46.0 4.0,45.5 4.0,44.0 L 4.0,41.0 C 4.0,39.5 5.0,39.0 6.0,39.0 L 12.0,39.0 C 13.5,37.5 15.0,35.5 16.0,34.0 L 20.0,28.0 L 19.5,25.5 L 15.0,25.5 C 14.5,25.5 14.0,25.0 14.0,24.5 L 14.0,24.0 C 14.0,23.5 14.5,23.0 15.0,23.0 L 19.0,23.0 C 19.0,22.0 19.5,20.5 20.0,19.0 L 15.5,15.5 C 15.0,14.5 16.0,13.5 17.0,14.0 L 21.0,16.0 C 21.5,15.0 22.0,13.5 22.5,12.5 C 23.0,11.5 24.5,11.0 25.0,11.0 Z" fill="none" stroke="#000000" stroke-width="1.2"/>
  </g>
  <!-- LAYER 2: stamp — wewnętrzne detale embossera -->
  <g id="stamp">
    <path id="stamp_outline" d="M 16.26,33.36 L 16.96,33.36 L 21.15,20.82 L 25.87,33.36 L 33.74,33.36 L 25.00,16.64 Z" fill="none" stroke="#666666" stroke-width="0.8"/>
  </g>
</svg>