<?xml version="1.0" encoding="utf-8"?>
<svg xmlns="http://www.w3.org/2000/svg"
     width="150.0mm" height="150.0mm"
     viewBox="0 0 150.0 150.0">
  <rect width="150.0mm" height="150.0mm" fill="white"/>
  <!-- LAYER 1: outer — zewnętrzna sylwetka cuttera -->
  <g id="outer">
    <path id="outer_contour" d="M 75.0,8.0 C 80.0,8.0 85.0,12.0 88.0,18.0 C 91.0,24.0 92.0,28.0 90.0,32.0 C 95.0,28.0 102.0,26.0 108.0,30.0 C 114.0,34.0 116.0,40.0 114.0,46.0 C 118.0,42.0 124.0,40.0 130.0,44.0 C 136.0,48.0 140.0,56.0 142.0,66.0 C 144.0,76.0 143.0,86.0 138.0,94.0 C 133.0,102.0 126.0,108.0 120.0,112.0 L 125.0,118.0 C 128.0,122.0 130.0,126.0 130.0,130.0 C 130.0,134.0 128.0,138.0 124.0,140.0 C 120.0,142.0 116.0,142.0 112.0,140.0 C 108.0,138.0 106.0,134.0 106.0,130.0 L 105.0,126.0 L 98.0,120.0 C 94.0,124.0 88.0,128.0 82.0,130.0 C 82.0,134.0 80.0,138.0 76.0,140.0 C 72.0,142.0 68.0,142.0 64.0,140.0 C 60.0,138.0 58.0,134.0 58.0,130.0 C 58.0,128.0 59.0,126.0 60.0,124.0 L 52.0,118.0 C 48.0,122.0 44.0,124.0 40.0,126.0 C 36.0,128.0 32.0,128.0 28.0,126.0 C 24.0,124.0 22.0,120.0 22.0,116.0 C 22.0,112.0 24.0,108.0 28.0,104.0 L 22.0,96.0 C 16.0,88.0 12.0,78.0 12.0,68.0 C 12.0,58.0 16.0,48.0 22.0,42.0 C 28.0,36.0 36.0,32.0 44.0,34.0 C 42.0,28.0 44.0,22.0 50.0,18.0 C 56.0,14.0 62.0,12.0 66.0,14.0 C 68.0,10.0 71.0,8.0 75.0,8.0 Z" fill="none" stroke="#000000" stroke-width="1.2"/>
  </g>
  <!-- LAYER 2: stamp — wewnętrzne detale embossera -->
  <g id="stamp">
    <path id="stamp_outline" d="M 48.78,100.08 L 50.88,100.08 L 63.46,62.46 L 77.62,100.08 L 101.22,100.08 L 75.00,49.92 Z" fill="none" stroke="#666666" stroke-width="0.8"/>
  </g>
</svg>