<?xml version="1.0" encoding="utf-8"?>
<svg xmlns="http://www.w3.org/2000/svg"
     width="90.0mm" height="90.0mm"
     viewBox="0 0 90.0 90.0">
  <rect width="90.0mm" height="90.0mm" fill="white"/>
  <!-- LAYER 1: outer — zewnętrzna sylwetka cuttera -->
  <g id="outer">
    <path id="outer_contour" d="M 45.0,8.0 C 38.0,8.0 33.0,12.0 32.0,18.0 C 31.0,21.0 32.0,24.0 34.0,26.0 C 28.0,26.5 23.0,30.0 21.0,35.0 C 20.0,33.0 18.0,31.5 15.5,31.0 C 11.0,30.0 6.5,32.0 5.0,36.5 C 3.5,41.0 5.5,45.5 10.0,47.0 C 13.0,48.0 16.0,47.5 18.5,46.0 C 18.0,48.0 18.0,50.0 18.5,52.0 C 20.0,58.0 24.0,62.5 29.0,65.0 C 27.0,68.0 25.5,72.0 25.5,76.0 C 25.5,80.0 27.5,83.5 31.0,85.0 C 34.5,86.5 38.0,85.5 40.0,83.0 C 41.5,81.0 42.5,78.5 43.0,76.0 C 44.0,76.2 45.0,76.3 46.0,76.3 C 47.0,76.3 48.0,76.2 49.0,76.0 C 49.5,78.5 50.5,81.0 52.0,83.0 C 54.0,85.5 57.5,86.5 61.0,85.0 C 64.5,83.5 66.5,80.0 66.5,76.0 C 66.5,72.0 65.0,68.0 63.0,65.0 C 68.0,62.5 72.0,58.0 73.5,52.0 C 74.0,50.0 74.0,48.0 73.5,46.0 C 76.0,47.5 79.0,48.0 82.0,47.0 C 86.5,45.5 88.5,41.0 87.0,36.5 C 85.5,32.0 81.0,30.0 76.5,31.0 C 74.0,31.5 72.0,33.0 71.0,35.0 C 69.0,30.0 64.0,26.5 58.0,26.0 C 60.0,24.0 61.0,21.0 60.0,18.0 C 59.0,12.0 54.0,8.0 48.0,8.0 C 47.0,8.0 46.0,8.0 45.0,8.0 Z" fill="none" stroke="#000000" stroke-width="1.2"/>
  </g>
  <!-- LAYER 2: stamp — wewnętrzne detale embossera -->
  <g id="stamp">
    <path id="stamp_outline" d="M 45.00,58.00 C 52.15,58.00 58.00,52.15 58.00,45.00 C 58.00,37.85 52.15,32.00 55.91,33.95 C 55.91,31.88 54.22,30.19 52.15,30.19 C 50.08,30.19 48.39,31.88 48.39,33.95 L 41.61,33.95 C 41.61,31.88 39.92,30.19 37.85,30.19 C 35.78,30.19 34.09,31.88 34.09,33.95 C 37.85,32.00 32.00,37.85 32.00,45.00 C 32.00,52.15 37.85,58.00 45.00,58.00 Z" fill="none" stroke="#666666" stroke-width="0.8"/>
    <circle id="eye_l" cx="36.00" cy="37.80" r="3.60" fill="#333333"/>
    <circle id="eye_r" cx="54.00" cy="37.80" r="3.60" fill="#333333"/>
    <path id="smile" d="M 34.20,49.50 Q 45.00,55.98 55.80,49.50" fill="none" stroke="#333333" stroke-width="1.0"/>
  </g>
</svg>