<?xml version="1.0" encoding="utf-8"?>
<svg xmlns="http://www.w3.org/2000/svg"
     width="75.0mm" height="75.0mm"
     viewBox="0 0 75.0 75.0">
  <rect width="75.0mm" height="75.0mm" fill="white"/>
  <!-- LAYER 1: outer — zewnętrzna sylwetka cuttera -->
  <g id="outer">
    <path id="outer_contour" d="M 37.5,2.5 C 33.0,2.5 29.5,5.5 28.5,9.5 C 27.5,5.0 23.5,2.5 19.5,3.0 C 14.5,3.5 11.0,8.0 12.0,13.0 C 12.5,15.5 14.0,17.5 16.0,18.8 C 9.0,23.0 4.5,30.0 4.5,37.0 C 4.5,40.5 5.5,43.8 7.5,46.5 C 5.0,49.0 3.5,52.5 3.5,56.0 C 3.5,63.0 9.0,68.5 16.0,68.5 C 19.0,68.5 21.8,67.5 24.0,65.5 C 24.5,67.0 25.5,68.5 27.0,69.5 C 29.0,71.0 31.5,72.0 34.0,72.5 C 35.8,72.8 37.5,72.5 37.5,72.5 C 37.5,72.5 39.2,72.8 41.0,72.5 C 43.5,72.0 46.0,71.0 48.0,69.5 C 49.5,68.5 50.5,67.0 51.0,65.5 C 53.2,67.5 56.0,68.5 59.0,68.5 C 66.0,68.5 71.5,63.0 71.5,56.0 C 71.5,52.5 70.0,49.0 67.5,46.5 C 69.5,43.8 70.5,40.5 70.5,37.0 C 70.5,30.0 66.0,23.0 59.0,18.8 C 61.0,17.5 62.5,15.5 63.0,13.0 C 64.0,8.0 60.5,3.5 55.5,3.0 C 51.5,2.5 47.5,5.0 46.5,9.5 C 45.5,5.5 42.0,2.5 37.5,2.5 Z" fill="none" stroke="#000000" stroke-width="1.2"/>
  </g>
  <!-- LAYER 2: stamp — wewnętrzne detale embossera -->
  <g id="stamp">
    <path id="stamp_outline" d="M 37.50,48.33 C 43.46,48.33 48.33,43.46 48.33,37.50 C 48.33,31.54 43.46,26.67 46.59,28.29 C 46.59,26.57 45.18,25.16 43.46,25.16 C 41.73,25.16 40.32,26.57 40.32,28.29 L 34.68,28.29 C 34.68,26.57 33.27,25.16 31.54,25.16 C 29.82,25.16 28.41,26.57 28.41,28.29 C 31.54,26.67 26.67,31.54 26.67,37.50 C 26.67,43.46 31.54,48.33 37.50,48.33 Z" fill="none" stroke="#666666" stroke-width="0.8"/>
    <circle id="eye_l" cx="30.00" cy="31.50" r="3.00" fill="#333333"/>
    <circle id="eye_r" cx="45.00" cy="31.50" r="3.00" fill="#333333"/>
    <path id="smile" d="M 28.50,41.25 Q 37.50,46.65 46.50,41.25" fill="none" stroke="#333333" stroke-width="1.0"/>
  </g>
</svg>