<?xml version="1.0" encoding="utf-8"?>
<svg xmlns="http://www.w3.org/2000/svg"
     width="75.0mm" height="75.0mm"
     viewBox="0 0 75.0 75.0">
  <rect width="75.0mm" height="75.0mm" fill="white"/>
  <!-- LAYER 1: outer — zewnętrzna sylwetka cuttera -->
  <g id="outer">
    <path id="outer_contour" d="M 22.5,18.5 C 16.0,14.0 8.0,16.0 9.5,23.0 C 11.0,30.0 16.5,30.5 19.0,29.5 C 17.0,32.0 15.5,35.0 15.5,38.5 C 15.5,42.0 16.8,45.2 19.0,47.5 C 17.5,48.5 14.0,50.5 12.0,54.0 C 9.5,58.5 11.0,64.0 16.0,67.0 C 21.0,70.0 27.0,68.5 29.5,65.0 C 31.5,62.0 32.0,59.0 32.5,57.0 C 34.0,57.5 36.0,57.8 37.5,57.8 C 39.0,57.8 41.0,57.5 42.5,57.0 C 43.0,59.0 43.5,62.0 45.5,65.0 C 48.0,68.5 54.0,70.0 59.0,67.0 C 64.0,64.0 65.5,58.5 63.0,54.0 C 61.0,50.5 57.5,48.5 56.0,47.5 C 58.2,45.2 59.5,42.0 59.5,38.5 C 59.5,35.0 58.0,32.0 56.0,29.5 C 58.5,30.5 64.0,30.0 65.5,23.0 C 67.0,16.0 59.0,14.0 52.5,18.5 C 49.0,21.0 48.0,24.0 47.5,26.0 C 44.5,24.5 41.2,23.5 37.5,23.5 C 33.8,23.5 30.5,24.5 27.5,26.0 C 27.0,24.0 26.0,21.0 22.5,18.5 Z M 29.0,36.0 C 28.0,34.0 26.5,33.0 25.0,33.0 C 23.5,33.0 22.0,34.0 22.0,36.0 C 22.0,38.0 23.5,39.5 25.0,39.5 C 26.5,39.5 28.0,38.5 29.0,36.0 Z M 46.0,36.0 C 47.0,34.0 48.5,33.0 50.0,33.0 C 51.5,33.0 53.0,34.0 53.0,36.0 C 53.0,38.0 51.5,39.5 50.0,39.5 C 48.5,39.5 47.0,38.5 46.0,36.0 Z M 34.0,42.5 C 34.0,41.5 35.5,40.5 37.5,40.5 C 39.5,40.5 41.0,41.5 41.0,42.5 C 41.0,43.5 39.5,44.5 37.5,44.5 C 35.5,44.5 34.0,43.5 34.0,42.5 Z M 33.0,47.0 C 34.0,48.5 35.5,49.5 37.5,49.5 C 39.5,49.5 41.0,48.5 42.0,47.0 C 41.0,47.5 39.3,48.0 37.5,48.0 C 35.7,48.0 34.0,47.5 33.0,47.0 Z" fill="none" stroke="#000000" stroke-width="1.2"/>
  </g>
  <!-- LAYER 2: stamp — wewnętrzne detale embossera -->
  <g id="stamp">
    <path id="stamp_outline" d="M 37.50,48.33 C 43.46,48.33 48.33,43.46 48.33,37.50 C 48.33,31.54 43.46,26.67 46.59,28.29 C 46.59,26.57 45.18,25.16 43.46,25.16 C 41.73,25.16 40.32,26.57 40.32,28.29 L 34.68,28.29 C 34.68,26.57 33.27,25.16 31.54,25.16 C 29.82,25.16 28.41,26.57 28.41,28.29 C 31.54,26.67 26.67,31.54 26.67,37.50 C 26.67,43.46 31.54,48.33 37.50,48.33 Z" fill="none" stroke="#666666" stroke-width="0.8"/>
    <circle id="eye_l" cx="30.00" cy="31.50" r="3.00" fill="#333333"/>
    <circle id="eye_r" cx="45.00" cy="31.50" r="3.00" fill="#333333"/>
    <path id="smile" d="M 28.50,41.25 Q 37.50,46.65 46.50,41.25" fill="none" stroke="#333333" stroke-width="1.0"/>
  </g>
</svg>