<?xml version="1.0" encoding="utf-8"?>
<svg xmlns="http://www.w3.org/2000/svg"
     width="60.0mm" height="60.0mm"
     viewBox="0 0 60.0 60.0">
  <rect width="60.0mm" height="60.0mm" fill="white"/>
  <!-- LAYER 1: outer — zewnętrzna sylwetka cuttera -->
  <g id="outer">
    <path id="outer_contour" d="M 30.0,4.0 C 25.0,4.0 21.0,7.5 21.0,11.5 C 21.0,13.5 21.8,15.3 23.2,16.5 C 18.5,17.8 14.5,21.0 12.5,25.5 C 11.0,24.0 9.0,23.0 6.8,23.0 C 4.0,23.0 2.0,25.5 2.0,28.5 C 2.0,31.5 4.0,34.0 6.8,34.0 C 8.5,34.0 10.0,33.2 11.2,32.0 C 11.0,33.0 10.9,34.0 10.9,35.0 C 10.9,38.5 12.2,41.7 14.3,44.0 C 13.0,45.5 12.0,47.5 12.0,50.0 C 12.0,54.0 15.0,57.0 19.0,57.0 C 22.5,57.0 25.0,55.0 26.0,52.5 C 27.2,53.0 28.5,53.2 30.0,53.2 C 31.5,53.2 32.8,53.0 34.0,52.5 C 35.0,55.0 37.5,57.0 41.0,57.0 C 45.0,57.0 48.0,54.0 48.0,50.0 C 48.0,47.5 47.0,45.5 45.7,44.0 C 47.8,41.7 49.1,38.5 49.1,35.0 C 49.1,34.0 49.0,33.0 48.8,32.0 C 50.0,33.2 51.5,34.0 53.2,34.0 C 56.0,34.0 58.0,31.5 58.0,28.5 C 58.0,25.5 56.0,23.0 53.2,23.0 C 51.0,23.0 49.0,24.0 47.5,25.5 C 45.5,21.0 41.5,17.8 36.8,16.5 C 38.2,15.3 39.0,13.5 39.0,11.5 C 39.0,7.5 35.0,4.0 30.0,4.0 Z" fill="none" stroke="#000000" stroke-width="1.2"/>
  </g>
  <!-- LAYER 2: stamp — wewnętrzne detale embossera -->
  <g id="stamp">
    <path id="stamp_outline" d="M 30.00,38.66 C 34.77,38.66 38.66,34.77 38.66,30.00 C 38.66,25.23 34.77,21.34 37.27,22.64 C 37.27,21.26 36.14,20.13 34.77,20.13 C 33.39,20.13 32.26,21.26 32.26,22.64 L 27.74,22.64 C 27.74,21.26 26.61,20.13 25.23,20.13 C 23.86,20.13 22.73,21.26 22.73,22.64 C 25.23,21.34 21.34,25.23 21.34,30.00 C 21.34,34.77 25.23,38.66 30.00,38.66 Z" fill="none" stroke="#666666" stroke-width="0.8"/>
    <circle id="eye_l" cx="24.00" cy="25.20" r="2.50" fill="#333333"/>
    <circle id="eye_r" cx="36.00" cy="25.20" r="2.50" fill="#333333"/>
    <path id="smile" d="M 22.80,33.00 Q 30.00,37.32 37.20,33.00" fill="none" stroke="#333333" stroke-width="1.0"/>
  </g>
</svg>