<?xml version="1.0" encoding="utf-8"?>
<svg xmlns="http://www.w3.org/2000/svg"
     width="110.0mm" height="110.0mm"
     viewBox="0 0 110.0 110.0">
  <rect width="110.0mm" height="110.0mm" fill="white"/>
  <!-- LAYER 1: outer — zewnętrzna sylwetka cuttera -->
  <g id="outer">
    <path id="outer_contour" d="M 55.0,7.0 C 62.0,7.0 68.0,11.0 70.0,17.0 C 72.0,11.0 78.0,7.0 85.0,7.0 C 93.0,7.0 99.0,13.0 99.0,21.0 C 99.0,28.0 94.0,33.0 88.0,35.0 C 96.0,38.0 102.0,46.0 102.0,55.0 C 102.0,60.0 100.0,64.5 97.0,68.0 C 101.0,72.0 104.0,78.0 104.0,85.0 C 104.0,95.0 97.0,103.0 88.0,105.0 C 84.0,106.0 80.0,105.0 77.0,103.0 C 72.0,107.0 64.0,109.0 55.0,109.0 C 46.0,109.0 38.0,107.0 33.0,103.0 C 30.0,105.0 26.0,106.0 22.0,105.0 C 13.0,103.0 6.0,95.0 6.0,85.0 C 6.0,78.0 9.0,72.0 13.0,68.0 C 10.0,64.5 8.0,60.0 8.0,55.0 C 8.0,46.0 14.0,38.0 22.0,35.0 C 16.0,33.0 11.0,28.0 11.0,21.0 C 11.0,13.0 17.0,7.0 25.0,7.0 C 32.0,7.0 38.0,11.0 40.0,17.0 C 42.0,11.0 48.0,7.0 55.0,7.0 Z" fill="none" stroke="#000000" stroke-width="1.2"/>
  </g>
  <!-- LAYER 2: stamp — wewnętrzne detale embossera -->
  <g id="stamp">
    <path id="stamp_outline" d="M 55.00,70.88 C 63.74,70.88 70.88,63.74 70.88,55.00 C 70.88,46.26 63.74,39.12 68.33,41.50 C 68.33,38.97 66.27,36.90 63.74,36.90 C 61.21,36.90 59.14,38.97 59.14,41.50 L 50.86,41.50 C 50.86,38.97 48.79,36.90 46.26,36.90 C 43.73,36.90 41.67,38.97 41.67,41.50 C 46.26,39.12 39.12,46.26 39.12,55.00 C 39.12,63.74 46.26,70.88 55.00,70.88 Z" fill="none" stroke="#666666" stroke-width="0.8"/>
    <circle id="eye_l" cx="44.00" cy="46.20" r="4.40" fill="#333333"/>
    <circle id="eye_r" cx="66.00" cy="46.20" r="4.40" fill="#333333"/>
    <path id="smile" d="M 41.80,60.50 Q 55.00,68.42 68.20,60.50" fill="none" stroke="#333333" stroke-width="1.0"/>
  </g>
</svg>