<?xml version="1.0" encoding="utf-8"?>
<svg xmlns="http://www.w3.org/2000/svg"
     width="50.0mm" height="50.0mm"
     viewBox="0 0 50.0 50.0">
  <rect width="50.0mm" height="50.0mm" fill="white"/>
  <!-- LAYER 1: outer — zewnętrzna sylwetka cuttera -->
  <g id="outer">
    <path id="outer_contour" d="M 25.0,3.5 C 21.0,3.5 18.0,6.0 18.0,9.0 C 18.0,11.0 19.0,12.5 20.5,13.5 C 15.0,14.5 10.5,17.0 8.5,19.0 C 6.0,16.5 3.0,16.0 3.5,19.5 C 4.0,22.5 6.5,23.5 8.0,23.0 C 7.0,25.0 6.5,27.5 7.0,30.0 C 5.0,30.5 3.5,32.0 3.5,34.0 C 3.5,36.5 5.5,38.5 8.0,38.5 C 9.5,38.5 10.5,38.0 11.5,37.0 C 12.5,39.5 14.5,41.5 17.0,43.0 C 17.5,45.0 19.0,47.0 21.5,47.0 C 23.5,47.0 25.0,45.5 25.0,44.0 C 25.0,45.5 26.5,47.0 28.5,47.0 C 31.0,47.0 32.5,45.0 33.0,43.0 C 35.5,41.5 37.5,39.5 38.5,37.0 C 39.5,38.0 40.5,38.5 42.0,38.5 C 44.5,38.5 46.5,36.5 46.5,34.0 C 46.5,32.0 45.0,30.5 43.0,30.0 C 43.5,27.5 43.0,25.0 42.0,23.0 C 43.5,23.5 46.0,22.5 46.5,19.5 C 47.0,16.0 44.0,16.5 41.5,19.0 C 39.5,17.0 35.0,14.5 29.5,13.5 C 31.0,12.5 32.0,11.0 32.0,9.0 C 32.0,6.0 29.0,3.5 25.0,3.5 Z" fill="none" stroke="#000000" stroke-width="1.2"/>
  </g>
  <!-- LAYER 2: stamp — wewnętrzne detale embossera -->
  <g id="stamp">
    <path id="stamp_outline" d="M 25.00,32.22 C 28.97,32.22 32.22,28.97 32.22,25.00 C 32.22,21.03 28.97,17.78 31.06,18.86 C 31.06,17.71 30.12,16.77 28.97,16.77 C 27.82,16.77 26.88,17.71 26.88,18.86 L 23.12,18.86 C 23.12,17.71 22.18,16.77 21.03,16.77 C 19.88,16.77 18.94,17.71 18.94,18.86 C 21.03,17.78 17.78,21.03 17.78,25.00 C 17.78,28.97 21.03,32.22 25.00,32.22 Z" fill="none" stroke="#666666" stroke-width="0.8"/>
    <circle id="eye_l" cx="20.00" cy="21.00" r="2.50" fill="#333333"/>
    <circle id="eye_r" cx="30.00" cy="21.00" r="2.50" fill="#333333"/>
    <path id="smile" d="M 19.00,27.50 Q 25.00,31.10 31.00,27.50" fill="none" stroke="#333333" stroke-width="1.0"/>
  </g>
</svg>