<?xml version="1.0" encoding="utf-8"?>
<svg xmlns="http://www.w3.org/2000/svg"
     width="150.0mm" height="150.0mm"
     viewBox="0 0 150.0 150.0">
  <rect width="150.0mm" height="150.0mm" fill="white"/>
  <!-- LAYER 1: outer — zewnętrzna sylwetka cuttera -->
  <g id="outer">
    <path id="outer_contour" d="M 75.0,8.0 C 65.0,8.0 56.0,14.0 53.0,23.0 C 50.0,14.0 41.0,8.0 31.0,8.0 C 18.0,8.0 8.0,18.0 8.0,31.0 C 8.0,44.0 18.0,54.0 31.0,54.0 C 35.0,54.0 38.0,53.0 41.0,51.0 C 32.0,58.0 26.0,69.0 26.0,81.0 C 26.0,85.0 26.5,89.0 28.0,93.0 C 24.0,96.0 18.0,102.0 16.0,110.0 C 14.0,118.0 18.0,126.0 24.0,131.0 C 30.0,136.0 38.0,138.0 44.0,135.0 C 47.0,133.5 49.0,131.0 51.0,128.0 C 56.0,136.0 65.0,142.0 75.0,142.0 C 85.0,142.0 94.0,136.0 99.0,128.0 C 101.0,131.0 103.0,133.5 106.0,135.0 C 112.0,138.0 120.0,136.0 126.0,131.0 C 132.0,126.0 136.0,118.0 134.0,110.0 C 132.0,102.0 126.0,96.0 122.0,93.0 C 123.5,89.0 124.0,85.0 124.0,81.0 C 124.0,69.0 118.0,58.0 109.0,51.0 C 112.0,53.0 115.0,54.0 119.0,54.0 C 132.0,54.0 142.0,44.0 142.0,31.0 C 142.0,18.0 132.0,8.0 119.0,8.0 C 109.0,8.0 100.0,14.0 97.0,23.0 C 94.0,14.0 85.0,8.0 75.0,8.0 Z" fill="none" stroke="#000000" stroke-width="1.2"/>
  </g>
  <!-- LAYER 2: stamp — wewnętrzne detale embossera -->
  <g id="stamp">
    <path id="stamp_outline" d="M 75.00,96.66 C 86.91,96.66 96.66,86.91 96.66,75.00 C 96.66,63.09 86.91,53.34 93.18,56.59 C 93.18,53.14 90.36,50.32 86.91,50.32 C 83.46,50.32 80.64,53.14 80.64,56.59 L 69.36,56.59 C 69.36,53.14 66.54,50.32 63.09,50.32 C 59.64,50.32 56.82,53.14 56.82,56.59 C 63.09,53.34 53.34,63.09 53.34,75.00 C 53.34,86.91 63.09,96.66 75.00,96.66 Z" fill="none" stroke="#666666" stroke-width="0.8"/>
    <circle id="eye_l" cx="60.00" cy="63.00" r="6.00" fill="#333333"/>
    <circle id="eye_r" cx="90.00" cy="63.00" r="6.00" fill="#333333"/>
    <path id="smile" d="M 57.00,82.50 Q 75.00,93.30 93.00,82.50" fill="none" stroke="#333333" stroke-width="1.0"/>
  </g>
</svg>