<?xml version="1.0" encoding="utf-8" ?>
<svg xmlns="http://www.w3.org/2000/svg" xmlns:ev="http://www.w3.org/2001/xml-events" xmlns:xlink="http://www.w3.org/1999/xlink" baseProfile="full" height="75.0mm" version="1.1" viewBox="0 0 75.0 75.0" width="75.0mm">
  <defs/>
  <rect fill="white" height="75.0mm" width="75.0mm" x="0" y="0"/>
  <path d="M 37.5,5.0 C 45.0,5.0 52.5,8.5 58.0,14.5 C 63.5,20.5 67.5,28.5 69.0,37.0 C 70.5,45.5 69.0,54.0 64.5,60.0 C 60.0,66.0 53.0,70.0 45.5,72.0 C 41.5,73.0 37.5,73.0 33.5,72.5 C 29.0,71.5 24.5,69.5 20.5,66.0 C 16.0,62.0 12.0,56.5 9.5,50.0 C 7.0,43.5 6.0,36.5 7.0,30.0 C 8.0,23.5 11.0,17.5 15.5,13.0 C 20.0,8.5 26.0,5.5 32.0,5.0 C 33.8,4.9 35.7,5.0 37.5,5.0 Z" fill="none" stroke="#1a1a1a" stroke-linecap="round" stroke-linejoin="round" stroke-width="2.5mm"/>
  <text fill="#888888" font-family="sans-serif" font-size="3px" text-anchor="middle" x="37.5mm" y="72.0mm">easter egg | CUTTER | M</text>
</svg>
