<?xml version="1.0" encoding="utf-8"?>
<svg xmlns="http://www.w3.org/2000/svg"
     width="75.0mm" height="75.0mm"
     viewBox="0 0 75.0 75.0">
  <rect width="75.0mm" height="75.0mm" fill="white"/>
  <!-- LAYER 1: outer — zewnętrzna sylwetka cuttera -->
  <g id="outer">
    <path id="outer_contour" d="M 37.5,6.5 C 24.0,6.5 13.0,16.0 9.5,28.0 C 7.0,36.5 7.5,45.0 12.0,53.0 C 16.5,61.0 24.5,66.5 33.0,69.0 C 35.5,69.7 39.5,69.7 42.0,69.0 C 50.5,66.5 58.5,61.0 63.0,53.0 C 67.5,45.0 68.0,36.5 65.5,28.0 C 62.0,16.0 51.0,6.5 37.5,6.5 Z M 12.5,36.0 L 16.5,32.0 L 20.5,36.0 L 24.5,32.0 L 28.5,36.0 L 32.5,32.0 L 37.5,36.0 L 42.5,32.0 L 46.5,36.0 L 50.5,32.0 L 54.5,36.0 L 58.5,32.0 L 62.5,36.0 L 62.5,40.0 L 58.5,44.0 L 54.5,40.0 L 50.5,44.0 L 46.5,40.0 L 42.5,44.0 L 37.5,40.0 L 32.5,44.0 L 28.5,40.0 L 24.5,44.0 L 20.5,40.0 L 16.5,44.0 L 12.5,40.0 Z M 24.0,21.0 C 21.5,21.0 19.5,23.0 19.5,25.5 C 19.5,28.0 21.5,30.0 24.0,30.0 C 26.5,30.0 28.5,28.0 28.5,25.5 C 28.5,23.0 26.5,21.0 24.0,21.0 Z M 37.5,17.0 C 35.0,17.0 33.0,19.0 33.0,21.5 C 33.0,24.0 35.0,26.0 37.5,26.0 C 40.0,26.0 42.0,24.0 42.0,21.5 C 42.0,19.0 40.0,17.0 37.5,17.0 Z M 51.0,21.0 C 48.5,21.0 46.5,23.0 46.5,25.5 C 46.5,28.0 48.5,30.0 51.0,30.0 C 53.5,30.0 55.5,28.0 55.5,25.5 C 55.5,23.0 53.5,21.0 51.0,21.0 Z M 24.0,47.0 C 21.5,47.0 19.5,49.0 19.5,51.5 C 19.5,54.0 21.5,56.0 24.0,56.0 C 26.5,56.0 28.5,54.0 28.5,51.5 C 28.5,49.0 26.5,47.0 24.0,47.0 Z M 37.5,51.0 C 35.0,51.0 33.0,53.0 33.0,55.5 C 33.0,58.0 35.0,60.0 37.5,60.0 C 40.0,60.0 42.0,58.0 42.0,55.5 C 42.0,53.0 40.0,51.0 37.5,51.0 Z M 51.0,47.0 C 48.5,47.0 46.5,49.0 46.5,51.5 C 46.5,54.0 48.5,56.0 51.0,56.0 C 53.5,56.0 55.5,54.0 55.5,51.5 C 55.5,49.0 53.5,47.0 51.0,47.0 Z" fill="none" stroke="#000000" stroke-width="1.2"/>
  </g>
  <!-- LAYER 2: stamp — wewnętrzne detale embossera -->
  <g id="stamp">
    <path id="stamp_outline" d="M 37.50,25.53 C 42.20,25.53 46.05,30.92 46.05,37.50 C 46.05,44.08 42.20,49.47 37.50,49.47 C 32.80,49.47 28.95,44.08 28.95,37.50 C 28.95,30.92 32.80,25.53 37.50,25.53 Z" fill="none" stroke="#666666" stroke-width="0.8"/>
  </g>
</svg>