<?xml version="1.0" encoding="utf-8"?>
<svg xmlns="http://www.w3.org/2000/svg"
     width="50.0mm" height="50.0mm"
     viewBox="0 0 50.0 50.0">
  <rect width="50.0mm" height="50.0mm" fill="white"/>
  <!-- LAYER 1: outer — zewnętrzna sylwetka cuttera -->
  <g id="outer">
    <path id="outer_contour" d="M 25.0,3.5 C 31.5,3.5 37.5,7.0 41.5,13.0 C 45.5,19.0 47.5,26.5 46.0,33.0 C 44.5,39.5 40.5,44.0 35.0,46.5 C 30.5,48.5 26.0,48.5 21.5,47.5 C 16.0,46.0 11.0,42.5 7.5,37.0 C 4.0,31.5 3.0,25.5 4.5,19.5 C 6.0,13.5 9.5,9.0 14.0,6.0 C 17.5,4.0 21.0,3.5 25.0,3.5 Z" fill="none" stroke="#000000" stroke-width="1.2"/>
  </g>
  <!-- LAYER 2: stamp — wewnętrzne detale embossera -->
  <g id="stamp">
    <path id="stamp_outline" d="M 25.00,17.02 C 28.14,17.02 30.70,20.61 30.70,25.00 C 30.70,29.39 28.14,32.98 25.00,32.98 C 21.86,32.98 19.30,29.39 19.30,25.00 C 19.30,20.61 21.86,17.02 25.00,17.02 Z" fill="none" stroke="#666666" stroke-width="0.8"/>
  </g>
</svg>