<?xml version="1.0" encoding="utf-8"?>
<svg xmlns="http://www.w3.org/2000/svg"
     width="150.0mm" height="150.0mm"
     viewBox="0 0 150.0 150.0">
  <rect width="150.0mm" height="150.0mm" fill="white"/>
  <!-- LAYER 1: outer — zewnętrzna sylwetka cuttera -->
  <g id="outer">
    <path id="outer_contour" d="M 75.0,8.0 C 95.0,8.0 115.0,18.0 128.0,35.0 C 138.0,48.0 143.0,63.0 143.0,78.0 C 143.0,93.0 138.0,107.0 128.0,118.0 C 118.0,129.0 104.0,137.0 90.0,140.0 C 82.0,142.0 68.0,142.0 60.0,140.0 C 46.0,137.0 32.0,129.0 22.0,118.0 C 12.0,107.0 7.0,93.0 7.0,78.0 C 7.0,63.0 12.0,48.0 22.0,35.0 C 35.0,18.0 55.0,8.0 75.0,8.0 Z" fill="none" stroke="#000000" stroke-width="1.2"/>
  </g>
  <!-- LAYER 2: stamp — wewnętrzne detale embossera -->
  <g id="stamp">
    <path id="stamp_outline" d="M 75.00,51.06 C 84.41,51.06 92.10,61.83 92.10,75.00 C 92.10,88.17 84.41,98.94 75.00,98.94 C 65.59,98.94 57.90,88.17 57.90,75.00 C 57.90,61.83 65.59,51.06 75.00,51.06 Z" fill="none" stroke="#666666" stroke-width="0.8"/>
  </g>
</svg>