<?xml version="1.0" encoding="utf-8"?>
<svg xmlns="http://www.w3.org/2000/svg"
     width="90.0mm" height="90.0mm"
     viewBox="0 0 90.0 90.0">
  <rect width="90.0mm" height="90.0mm" fill="white"/>
  <!-- LAYER 1: outer — zewnętrzna sylwetka cuttera -->
  <g id="outer">
    <path id="outer_contour" d="M 45.0,5.0 C 38.0,5.0 33.0,9.0 30.0,14.0 C 27.0,9.0 18.0,3.0 12.0,10.0 C 6.0,17.0 10.0,26.0 16.0,30.0 C 12.0,32.0 8.0,36.0 7.0,42.0 C 5.5,50.0 10.0,56.0 16.0,58.0 C 15.0,62.0 16.0,68.0 20.0,72.0 C 22.0,74.0 24.0,75.5 26.0,76.0 C 26.5,80.0 29.0,84.0 34.0,86.0 C 37.0,87.0 40.0,87.0 42.0,86.5 C 43.0,87.5 44.0,88.0 46.0,88.0 C 48.0,88.0 49.0,87.5 50.0,86.5 C 52.0,87.0 55.0,87.0 58.0,86.0 C 63.0,84.0 65.5,80.0 66.0,76.0 C 68.0,75.5 70.0,74.0 72.0,72.0 C 76.0,68.0 77.0,62.0 76.0,58.0 C 82.0,56.0 86.5,50.0 85.0,42.0 C 84.0,36.0 80.0,32.0 76.0,30.0 C 82.0,26.0 86.0,17.0 80.0,10.0 C 74.0,3.0 65.0,9.0 62.0,14.0 C 59.0,9.0 54.0,5.0 45.0,5.0 Z" fill="none" stroke="#000000" stroke-width="1.2"/>
  </g>
  <!-- LAYER 2: stamp — wewnętrzne detale embossera -->
  <g id="stamp">
    <path id="stamp_outline" d="M 45.00,33.71 C 51.21,33.71 56.29,38.79 56.29,45.00 L 61.76,45.00 C 61.76,53.21 56.29,58.68 52.90,58.68 C 48.39,58.68 48.39,51.21 48.39,56.29 C 48.39,56.29 41.61,56.29 41.61,56.29 C 41.61,51.21 41.61,58.68 37.10,58.68 C 33.71,58.68 28.24,53.21 28.24,45.00 L 33.71,45.00 C 33.71,38.79 38.79,33.71 45.00,33.71 Z" fill="none" stroke="#666666" stroke-width="0.8"/>
    <circle id="eye_l" cx="36.00" cy="37.80" r="3.60" fill="#333333"/>
    <circle id="eye_r" cx="54.00" cy="37.80" r="3.60" fill="#333333"/>
    <path id="smile" d="M 34.20,49.50 Q 45.00,55.98 55.80,49.50" fill="none" stroke="#333333" stroke-width="1.0"/>
  </g>
</svg>