<?xml version="1.0" encoding="utf-8"?>
<svg xmlns="http://www.w3.org/2000/svg"
     width="75.0mm" height="75.0mm"
     viewBox="0 0 75.0 75.0">
  <rect width="75.0mm" height="75.0mm" fill="white"/>
  <!-- LAYER 1: outer — zewnętrzna sylwetka cuttera -->
  <g id="outer">
    <path id="outer_contour" d="M 37.5,5 C 32,5 28,8 27,12 C 26,8 22,5 17,7 C 12,9 11,15 13,19 C 8,20 4,25 4,32 C 4,39 8,43 13,45 C 12,48 12,52 14,55 C 16,58 19,60 22,60 C 24,64 28,68 33,70 C 36,71 39,71 42,70 C 47,68 51,64 53,60 C 56,60 59,58 61,55 C 63,52 63,48 62,45 C 67,43 71,39 71,32 C 71,25 67,20 62,19 C 64,15 63,9 58,7 C 53,5 49,8 48,12 C 47,8 43,5 37.5,5 Z" fill="none" stroke="#000000" stroke-width="1.2"/>
  </g>
  <!-- LAYER 2: stamp — wewnętrzne detale embossera -->
  <g id="stamp">
    <path id="stamp_outline" d="M 37.50,28.09 C 42.67,28.09 46.91,32.33 46.91,37.50 L 51.47,37.50 C 51.47,44.34 46.91,48.90 44.08,48.90 C 40.32,48.90 40.32,42.67 40.32,46.91 C 40.32,46.91 34.68,46.91 34.68,46.91 C 34.68,42.67 34.68,48.90 30.92,48.90 C 28.09,48.90 23.53,44.34 23.53,37.50 L 28.09,37.50 C 28.09,32.33 32.33,28.09 37.50,28.09 Z" fill="none" stroke="#666666" stroke-width="0.8"/>
    <circle id="eye_l" cx="30.00" cy="31.50" r="3.00" fill="#333333"/>
    <circle id="eye_r" cx="45.00" cy="31.50" r="3.00" fill="#333333"/>
    <path id="smile" d="M 28.50,41.25 Q 37.50,46.65 46.50,41.25" fill="none" stroke="#333333" stroke-width="1.0"/>
  </g>
</svg>