<?xml version="1.0" encoding="utf-8"?>
<svg xmlns="http://www.w3.org/2000/svg"
     width="75.0mm" height="75.0mm"
     viewBox="0 0 75.0 75.0">
  <rect width="75.0mm" height="75.0mm" fill="white"/>
  <!-- LAYER 1: outer — zewnętrzna sylwetka cuttera -->
  <g id="outer">
    <path id="outer_contour" d="M 37.5,8.0 C 32.0,8.0 27.0,10.0 24.0,14.0 C 21.0,18.0 20.0,22.0 18.0,24.0 C 14.0,22.0 9.0,20.0 6.0,24.0 C 3.0,28.0 5.0,34.0 9.0,37.0 C 7.0,40.0 6.0,44.0 8.0,48.0 C 10.0,52.0 14.0,54.0 17.0,55.0 C 18.0,58.0 20.0,62.0 24.0,65.0 C 28.0,68.0 33.0,69.0 37.5,69.0 C 42.0,69.0 47.0,68.0 51.0,65.0 C 55.0,62.0 57.0,58.0 58.0,55.0 C 61.0,54.0 65.0,52.0 67.0,48.0 C 69.0,44.0 68.0,40.0 66.0,37.0 C 70.0,34.0 72.0,28.0 69.0,24.0 C 66.0,20.0 61.0,22.0 57.0,24.0 C 55.0,22.0 54.0,18.0 51.0,14.0 C 48.0,10.0 43.0,8.0 37.5,8.0 Z M 15.0,18.0 C 13.0,18.0 10.0,19.0 8.0,22.0 C 6.0,25.0 7.0,29.0 10.0,31.0 C 13.0,33.0 17.0,33.0 20.0,30.0 C 22.0,27.0 21.0,23.0 19.0,20.0 C 17.5,18.5 16.0,18.0 15.0,18.0 Z M 60.0,18.0 C 59.0,18.0 57.5,18.5 56.0,20.0 C 54.0,23.0 53.0,27.0 55.0,30.0 C 58.0,33.0 62.0,33.0 65.0,31.0 C 68.0,29.0 69.0,25.0 67.0,22.0 C 65.0,19.0 62.0,18.0 60.0,18.0 Z M 30.0,38.0 C 28.0,38.0 26.5,39.5 26.5,41.5 C 26.5,43.5 28.0,45.0 30.0,45.0 C 32.0,45.0 33.5,43.5 33.5,41.5 C 33.5,39.5 32.0,38.0 30.0,38.0 Z M 45.0,38.0 C 43.0,38.0 41.5,39.5 41.5,41.5 C 41.5,43.5 43.0,45.0 45.0,45.0 C 47.0,45.0 48.5,43.5 48.5,41.5 C 48.5,39.5 47.0,38.0 45.0,38.0 Z M 37.5,46.0 C 35.0,46.0 33.0,47.5 32.0,49.0 C 31.0,50.5 31.5,52.0 33.0,53.0 C 34.5,54.0 36.0,54.5 37.5,54.5 C 39.0,54.5 40.5,54.0 42.0,53.0 C 43.5,52.0 44.0,50.5 43.0,49.0 C 42.0,47.5 40.0,46.0 37.5,46.0 Z" fill="none" stroke="#000000" stroke-width="1.2"/>
  </g>
  <!-- LAYER 2: stamp — wewnętrzne detale embossera -->
  <g id="stamp">
    <path id="stamp_outline" d="M 37.50,28.09 C 42.67,28.09 46.91,32.33 46.91,37.50 L 51.47,37.50 C 51.47,44.34 46.91,48.90 44.08,48.90 C 40.32,48.90 40.32,42.67 40.32,46.91 C 40.32,46.91 34.68,46.91 34.68,46.91 C 34.68,42.67 34.68,48.90 30.92,48.90 C 28.09,48.90 23.53,44.34 23.53,37.50 L 28.09,37.50 C 28.09,32.33 32.33,28.09 37.50,28.09 Z" fill="none" stroke="#666666" stroke-width="0.8"/>
    <circle id="eye_l" cx="30.00" cy="31.50" r="3.00" fill="#333333"/>
    <circle id="eye_r" cx="45.00" cy="31.50" r="3.00" fill="#333333"/>
    <path id="smile" d="M 28.50,41.25 Q 37.50,46.65 46.50,41.25" fill="none" stroke="#333333" stroke-width="1.0"/>
  </g>
</svg>