<?xml version="1.0" encoding="utf-8"?>
<svg xmlns="http://www.w3.org/2000/svg"
     width="60.0mm" height="60.0mm"
     viewBox="0 0 60.0 60.0">
  <rect width="60.0mm" height="60.0mm" fill="white"/>
  <!-- LAYER 1: outer — zewnętrzna sylwetka cuttera -->
  <g id="outer">
    <path id="outer_contour" d="M 30.0,4.5 C 26.0,4.5 23.0,7.0 21.5,10.0 C 20.0,8.0 17.0,5.5 13.0,6.5 C 8.0,7.8 6.0,13.0 7.5,18.0 C 8.5,21.0 10.0,22.5 10.5,23.5 C 8.0,26.0 5.5,30.0 5.0,34.0 C 4.2,40.0 7.0,45.0 12.0,48.0 C 13.5,48.9 15.0,49.5 16.5,49.8 C 17.0,52.0 18.5,54.0 21.0,55.0 C 22.5,55.5 24.0,55.5 25.5,55.0 C 26.5,54.6 27.5,53.8 28.0,53.0 C 29.0,53.2 30.0,53.3 31.0,53.3 C 32.5,53.3 34.0,53.1 35.5,52.8 C 36.2,53.8 37.2,54.6 38.5,55.0 C 40.0,55.5 41.5,55.3 43.0,54.5 C 45.0,53.2 46.0,51.0 46.0,49.0 C 49.0,48.0 51.5,46.0 53.5,43.0 C 56.0,39.0 56.5,34.5 55.5,30.5 C 54.8,27.5 53.0,25.0 51.0,23.0 C 51.5,22.0 53.0,20.0 54.0,17.0 C 55.5,12.0 53.0,7.5 48.0,6.5 C 44.0,5.8 41.0,8.0 39.5,10.0 C 38.0,7.0 35.0,4.5 30.0,4.5 Z" fill="none" stroke="#000000" stroke-width="1.2"/>
  </g>
  <!-- LAYER 2: stamp — wewnętrzne detale embossera -->
  <g id="stamp">
    <path id="stamp_outline" d="M 30.00,22.48 C 34.14,22.48 37.52,25.86 37.52,30.00 L 41.17,30.00 C 41.17,35.47 37.52,39.12 35.27,39.12 C 32.26,39.12 32.26,34.14 32.26,37.52 C 32.26,37.52 27.74,37.52 27.74,37.52 C 27.74,34.14 27.74,39.12 24.73,39.12 C 22.48,39.12 18.83,35.47 18.83,30.00 L 22.48,30.00 C 22.48,25.86 25.86,22.48 30.00,22.48 Z" fill="none" stroke="#666666" stroke-width="0.8"/>
    <circle id="eye_l" cx="24.00" cy="25.20" r="2.50" fill="#333333"/>
    <circle id="eye_r" cx="36.00" cy="25.20" r="2.50" fill="#333333"/>
    <path id="smile" d="M 22.80,33.00 Q 30.00,37.32 37.20,33.00" fill="none" stroke="#333333" stroke-width="1.0"/>
  </g>
</svg>