<?xml version="1.0" encoding="utf-8"?>
<svg xmlns="http://www.w3.org/2000/svg"
     width="110.0mm" height="110.0mm"
     viewBox="0 0 110.0 110.0">
  <rect width="110.0mm" height="110.0mm" fill="white"/>
  <!-- LAYER 1: outer — zewnętrzna sylwetka cuttera -->
  <g id="outer">
    <path id="outer_contour" d="M 55.0,8.0 C 62.0,8.0 68.0,12.0 72.0,18.0 C 76.0,14.0 82.0,10.0 90.0,12.0 C 98.0,14.0 102.0,22.0 100.0,30.0 C 98.5,36.0 95.0,38.0 90.0,40.0 C 96.0,46.0 100.0,54.0 100.0,62.0 C 100.0,68.0 98.0,73.0 94.0,77.0 C 96.0,80.0 98.0,86.0 97.0,92.0 C 96.0,98.0 92.0,102.0 88.0,102.0 C 84.0,102.0 80.0,100.0 78.0,96.0 C 72.0,99.0 64.0,100.0 55.0,100.0 C 46.0,100.0 38.0,99.0 32.0,96.0 C 30.0,100.0 26.0,102.0 22.0,102.0 C 18.0,102.0 14.0,98.0 13.0,92.0 C 12.0,86.0 14.0,80.0 16.0,77.0 C 12.0,73.0 10.0,68.0 10.0,62.0 C 10.0,54.0 14.0,46.0 20.0,40.0 C 15.0,38.0 11.5,36.0 10.0,30.0 C 8.0,22.0 12.0,14.0 20.0,12.0 C 28.0,10.0 34.0,14.0 38.0,18.0 C 42.0,12.0 48.0,8.0 55.0,8.0 Z" fill="none" stroke="#000000" stroke-width="1.2"/>
  </g>
  <!-- LAYER 2: stamp — wewnętrzne detale embossera -->
  <g id="stamp">
    <path id="stamp_outline" d="M 55.00,41.21 C 62.59,41.21 68.79,47.41 68.79,55.00 L 75.48,55.00 C 75.48,65.03 68.79,71.72 64.66,71.72 C 59.14,71.72 59.14,62.59 59.14,68.79 C 59.14,68.79 50.86,68.79 50.86,68.79 C 50.86,62.59 50.86,71.72 45.34,71.72 C 41.21,71.72 34.52,65.03 34.52,55.00 L 41.21,55.00 C 41.21,47.41 47.41,41.21 55.00,41.21 Z" fill="none" stroke="#666666" stroke-width="0.8"/>
    <circle id="eye_l" cx="44.00" cy="46.20" r="4.40" fill="#333333"/>
    <circle id="eye_r" cx="66.00" cy="46.20" r="4.40" fill="#333333"/>
    <path id="smile" d="M 41.80,60.50 Q 55.00,68.42 68.20,60.50" fill="none" stroke="#333333" stroke-width="1.0"/>
  </g>
</svg>