<?xml version="1.0" encoding="utf-8"?>
<svg xmlns="http://www.w3.org/2000/svg"
     width="50.0mm" height="50.0mm"
     viewBox="0 0 50.0 50.0">
  <rect width="50.0mm" height="50.0mm" fill="white"/>
  <!-- LAYER 1: outer — zewnętrzna sylwetka cuttera -->
  <g id="outer">
    <path id="outer_contour" d="M 25.0,4.0 C 21.0,4.0 18.0,6.0 16.5,9.0 C 14.0,5.5 8.0,5.0 5.5,9.5 C 3.0,14.0 5.0,18.0 9.0,20.0 C 4.0,22.0 2.5,28.0 5.0,33.0 C 7.0,37.0 11.0,39.0 14.0,39.0 C 14.0,41.0 13.5,44.0 12.0,46.0 C 14.0,47.0 17.0,47.5 19.0,46.0 C 20.0,44.5 20.5,42.0 20.5,40.0 C 22.0,40.8 24.0,41.2 25.0,41.2 C 26.0,41.2 28.0,40.8 29.5,40.0 C 29.5,42.0 30.0,44.5 31.0,46.0 C 33.0,47.5 36.0,47.0 38.0,46.0 C 36.5,44.0 36.0,41.0 36.0,39.0 C 39.0,39.0 43.0,37.0 45.0,33.0 C 47.5,28.0 46.0,22.0 41.0,20.0 C 45.0,18.0 47.0,14.0 44.5,9.5 C 42.0,5.0 36.0,5.5 33.5,9.0 C 32.0,6.0 29.0,4.0 25.0,4.0 Z" fill="none" stroke="#000000" stroke-width="1.2"/>
  </g>
  <!-- LAYER 2: stamp — wewnętrzne detale embossera -->
  <g id="stamp">
    <path id="stamp_outline" d="M 25.00,18.73 C 28.45,18.73 31.27,21.55 31.27,25.00 L 34.31,25.00 C 34.31,29.56 31.27,32.60 29.39,32.60 C 26.88,32.60 26.88,28.45 26.88,31.27 C 26.88,31.27 23.12,31.27 23.12,31.27 C 23.12,28.45 23.12,32.60 20.61,32.60 C 18.73,32.60 15.69,29.56 15.69,25.00 L 18.73,25.00 C 18.73,21.55 21.55,18.73 25.00,18.73 Z" fill="none" stroke="#666666" stroke-width="0.8"/>
    <circle id="eye_l" cx="20.00" cy="21.00" r="2.50" fill="#333333"/>
    <circle id="eye_r" cx="30.00" cy="21.00" r="2.50" fill="#333333"/>
    <path id="smile" d="M 19.00,27.50 Q 25.00,31.10 31.00,27.50" fill="none" stroke="#333333" stroke-width="1.0"/>
  </g>
</svg>