<?xml version="1.0" encoding="utf-8"?>
<svg xmlns="http://www.w3.org/2000/svg"
     width="150.0mm" height="150.0mm"
     viewBox="0 0 150.0 150.0">
  <rect width="150.0mm" height="150.0mm" fill="white"/>
  <!-- LAYER 1: outer — zewnętrzna sylwetka cuttera -->
  <g id="outer">
    <path id="outer_contour" d="M 75.0,8.0 C 65.0,8.0 55.0,14.0 50.0,24.0 C 47.0,18.0 40.0,12.0 32.0,14.0 C 22.0,16.0 18.0,28.0 20.0,40.0 C 22.0,50.0 28.0,56.0 35.0,58.0 C 28.0,62.0 18.0,70.0 14.0,82.0 C 10.0,94.0 12.0,106.0 20.0,114.0 C 22.0,116.0 22.0,120.0 20.0,128.0 C 18.0,136.0 22.0,142.0 30.0,144.0 C 38.0,146.0 44.0,142.0 46.0,136.0 C 48.0,130.0 48.0,126.0 48.0,122.0 C 56.0,126.0 66.0,128.0 75.0,128.0 C 84.0,128.0 94.0,126.0 102.0,122.0 C 102.0,126.0 102.0,130.0 104.0,136.0 C 106.0,142.0 112.0,146.0 120.0,144.0 C 128.0,142.0 132.0,136.0 130.0,128.0 C 128.0,120.0 128.0,116.0 130.0,114.0 C 138.0,106.0 140.0,94.0 136.0,82.0 C 132.0,70.0 122.0,62.0 115.0,58.0 C 122.0,56.0 128.0,50.0 130.0,40.0 C 132.0,28.0 128.0,16.0 118.0,14.0 C 110.0,12.0 103.0,18.0 100.0,24.0 C 95.0,14.0 85.0,8.0 75.0,8.0 Z" fill="none" stroke="#000000" stroke-width="1.2"/>
  </g>
  <!-- LAYER 2: stamp — wewnętrzne detale embossera -->
  <g id="stamp">
    <path id="stamp_outline" d="M 75.00,56.19 C 85.35,56.19 93.81,64.65 93.81,75.00 L 102.93,75.00 C 102.93,88.68 93.81,97.80 88.17,97.80 C 80.64,97.80 80.64,85.35 80.64,93.81 C 80.64,93.81 69.36,93.81 69.36,93.81 C 69.36,85.35 69.36,97.80 61.83,97.80 C 56.19,97.80 47.07,88.68 47.07,75.00 L 56.19,75.00 C 56.19,64.65 64.65,56.19 75.00,56.19 Z" fill="none" stroke="#666666" stroke-width="0.8"/>
    <circle id="eye_l" cx="60.00" cy="63.00" r="6.00" fill="#333333"/>
    <circle id="eye_r" cx="90.00" cy="63.00" r="6.00" fill="#333333"/>
    <path id="smile" d="M 57.00,82.50 Q 75.00,93.30 93.00,82.50" fill="none" stroke="#333333" stroke-width="1.0"/>
  </g>
</svg>