<?xml version="1.0" encoding="utf-8"?>
<svg xmlns="http://www.w3.org/2000/svg"
     width="90.0mm" height="90.0mm"
     viewBox="0 0 90.0 90.0">
  <rect width="90.0mm" height="90.0mm" fill="white"/>
  <!-- LAYER 1: outer — zewnętrzna sylwetka cuttera -->
  <g id="outer">
    <path id="outer_contour" d="M 45.0,10.0 C 52.0,10.0 58.0,13.0 62.0,18.0 C 66.0,23.0 68.0,28.0 70.0,33.0 C 73.0,32.0 77.0,31.0 80.0,33.0 C 84.0,35.5 86.0,40.0 86.0,45.0 C 86.0,50.0 84.0,54.5 80.0,57.0 C 77.0,59.0 73.0,58.0 70.0,57.0 C 68.0,62.0 66.0,67.0 62.0,72.0 C 58.0,77.0 52.0,80.0 45.0,80.0 C 38.0,80.0 32.0,77.0 28.0,72.0 C 24.0,67.0 22.0,62.0 20.0,57.0 C 17.0,58.0 14.0,59.0 11.0,58.0 C 7.0,56.5 4.0,52.0 3.0,47.0 L 2.0,45.0 C 2.0,42.0 5.0,36.0 10.0,30.0 C 13.0,26.0 15.0,25.0 17.0,26.0 C 18.5,27.0 19.5,29.0 20.0,33.0 C 22.0,28.0 24.0,23.0 28.0,18.0 C 32.0,13.0 38.0,10.0 45.0,10.0 Z" fill="none" stroke="#000000" stroke-width="1.2"/>
  </g>
  <!-- LAYER 2: stamp — wewnętrzne detale embossera -->
  <g id="stamp">
    <path id="stamp_outline" d="M 47.05,37.48 C 53.07,37.48 58.00,40.86 58.00,45.00 C 58.00,49.14 53.07,52.52 47.05,52.52 C 41.03,52.52 36.11,49.14 36.11,50.81 L 29.95,45.00 L 36.11,39.19 C 36.11,40.86 41.03,37.48 47.05,37.48 Z" fill="none" stroke="#666666" stroke-width="0.8"/>
  </g>
</svg>