<?xml version="1.0" encoding="utf-8"?>
<svg xmlns="http://www.w3.org/2000/svg"
     width="75.0mm" height="75.0mm"
     viewBox="0 0 75.0 75.0">
  <rect width="75.0mm" height="75.0mm" fill="white"/>
  <!-- LAYER 1: outer — zewnętrzna sylwetka cuttera -->
  <g id="outer">
    <path id="outer_contour" d="M 37.5,5.0 C 32.0,5.0 28.0,8.0 25.0,12.0 C 22.0,16.0 20.0,20.0 16.0,23.0 C 12.0,26.0 6.0,27.0 3.0,31.0 C 2.0,33.0 2.0,36.0 3.5,38.5 C 5.0,41.0 8.0,42.0 10.0,44.0 C 8.0,46.0 5.0,47.5 3.5,50.0 C 2.0,52.5 2.0,55.5 3.5,57.5 C 6.0,61.0 12.0,60.5 16.0,63.0 C 20.0,65.5 22.0,70.0 26.0,72.0 C 28.5,73.0 31.5,72.5 34.0,71.0 C 36.5,69.5 38.0,67.0 40.0,65.0 C 42.0,67.0 44.5,69.0 47.5,69.5 C 50.5,70.0 54.0,68.5 55.5,66.0 C 57.0,63.5 56.0,60.5 56.5,57.5 C 57.0,54.5 59.0,52.0 62.0,49.5 C 65.0,47.0 69.0,45.0 71.5,42.0 C 73.0,40.0 73.0,37.5 71.5,35.5 C 69.0,32.5 65.0,31.0 62.0,28.5 C 59.0,26.0 57.0,23.0 56.5,20.0 C 56.0,17.0 57.0,13.5 55.5,11.0 C 54.0,8.5 50.5,7.5 47.5,8.0 C 44.5,8.5 42.0,10.5 40.0,12.5 C 38.5,10.0 38.0,7.0 37.5,5.0 Z" fill="none" stroke="#000000" stroke-width="1.2"/>
  </g>
  <!-- LAYER 2: stamp — wewnętrzne detale embossera -->
  <g id="stamp">
    <path id="stamp_outline" d="M 39.21,31.23 C 44.23,31.23 48.33,34.05 48.33,37.50 C 48.33,40.95 44.23,43.77 39.21,43.77 C 34.19,43.77 30.09,40.95 30.09,42.34 L 24.96,37.50 L 30.09,32.66 C 30.09,34.05 34.19,31.23 39.21,31.23 Z" fill="none" stroke="#666666" stroke-width="0.8"/>
  </g>
</svg>