<?xml version="1.0" encoding="utf-8"?>
<svg xmlns="http://www.w3.org/2000/svg"
     width="75.0mm" height="75.0mm"
     viewBox="0 0 75.0 75.0">
  <rect width="75.0mm" height="75.0mm" fill="white"/>
  <!-- LAYER 1: outer — zewnętrzna sylwetka cuttera -->
  <g id="outer">
    <path id="outer_contour" d="M 10.5,37.5 C 10.5,32.0 13.0,26.5 17.5,22.5 C 22.0,18.5 28.0,16.5 34.0,16.5 C 38.0,16.5 41.5,17.5 44.5,19.5 C 47.5,21.5 49.5,24.5 50.5,28.0 C 52.0,25.0 54.5,22.5 57.5,21.0 C 60.5,19.5 63.0,20.5 64.5,23.0 C 66.0,25.5 66.5,29.0 65.0,33.0 C 63.5,37.0 60.5,40.5 57.5,43.0 C 60.0,44.5 63.0,47.0 64.5,50.0 C 66.0,53.0 65.5,56.0 63.5,57.5 C 61.5,59.0 58.5,59.0 55.5,57.5 C 52.5,56.0 50.0,53.5 48.5,50.5 C 47.0,53.5 44.5,56.0 41.5,57.5 C 38.5,59.0 35.0,59.5 31.0,59.0 C 25.0,58.0 19.5,55.0 15.5,50.5 C 11.5,46.0 10.5,41.0 10.5,37.5 Z M 27.0,32.0 C 25.0,32.0 23.5,33.5 23.5,35.5 C 23.5,37.5 25.0,39.0 27.0,39.0 C 29.0,39.0 30.5,37.5 30.5,35.5 C 30.5,33.5 29.0,32.0 27.0,32.0 Z M 33.0,43.0 C 32.0,43.0 31.0,43.5 31.0,44.5 C 31.0,45.5 32.5,47.0 35.0,47.5 C 37.5,47.0 39.0,45.5 39.0,44.5 C 39.0,43.5 38.0,43.0 37.0,43.0 C 36.0,43.0 35.5,43.5 35.0,43.5 C 34.5,43.5 34.0,43.0 33.0,43.0 Z" fill="none" stroke="#000000" stroke-width="1.2"/>
  </g>
  <!-- LAYER 2: stamp — wewnętrzne detale embossera -->
  <g id="stamp">
    <path id="stamp_outline" d="M 39.21,31.23 C 44.23,31.23 48.33,34.05 48.33,37.50 C 48.33,40.95 44.23,43.77 39.21,43.77 C 34.19,43.77 30.09,40.95 30.09,42.34 L 24.96,37.50 L 30.09,32.66 C 30.09,34.05 34.19,31.23 39.21,31.23 Z" fill="none" stroke="#666666" stroke-width="0.8"/>
  </g>
</svg>