<?xml version="1.0" encoding="utf-8"?>
<svg xmlns="http://www.w3.org/2000/svg"
     width="60.0mm" height="60.0mm"
     viewBox="0 0 60.0 60.0">
  <rect width="60.0mm" height="60.0mm" fill="white"/>
  <!-- LAYER 1: outer — zewnętrzna sylwetka cuttera -->
  <g id="outer">
    <path id="outer_contour" d="M 30.0,5.0 C 35.0,5.0 42.0,8.0 47.0,13.0 C 50.0,16.0 53.0,20.0 55.0,25.0 C 57.0,30.0 57.5,33.0 56.0,36.0 C 54.5,39.0 51.0,41.0 47.0,42.0 C 43.0,43.0 40.0,43.5 38.0,46.0 C 36.0,48.5 35.5,53.0 34.0,55.0 C 32.5,57.0 30.0,57.0 28.0,55.0 C 26.0,53.0 25.0,49.0 24.0,46.0 C 23.0,43.0 22.0,42.0 19.0,41.5 C 16.0,41.0 12.0,41.0 9.0,39.0 C 6.0,37.0 4.0,33.0 4.0,29.0 C 4.0,25.0 6.0,21.0 9.0,18.0 C 12.0,15.0 15.0,14.0 16.0,11.5 C 17.0,9.0 16.5,5.5 18.0,4.0 C 19.5,2.5 22.0,3.0 24.0,4.5 C 26.0,6.0 27.0,8.0 28.0,8.5 C 29.0,9.0 29.5,7.0 30.0,5.0 Z" fill="none" stroke="#000000" stroke-width="1.2"/>
  </g>
  <!-- LAYER 2: stamp — wewnętrzne detale embossera -->
  <g id="stamp">
    <path id="stamp_outline" d="M 31.37,24.98 C 35.38,24.98 38.66,27.24 38.66,30.00 C 38.66,32.76 35.38,35.02 31.37,35.02 C 27.36,35.02 24.07,32.76 24.07,33.88 L 19.97,30.00 L 24.07,26.12 C 24.07,27.24 27.36,24.98 31.37,24.98 Z" fill="none" stroke="#666666" stroke-width="0.8"/>
  </g>
</svg>