<?xml version="1.0" encoding="utf-8"?>
<svg xmlns="http://www.w3.org/2000/svg"
     width="110.0mm" height="110.0mm"
     viewBox="0 0 110.0 110.0">
  <rect width="110.0mm" height="110.0mm" fill="white"/>
  <!-- LAYER 1: outer — zewnętrzna sylwetka cuttera -->
  <g id="outer">
    <path id="outer_contour" d="M 55.0,10.0 C 62.0,10.0 70.0,14.0 76.0,20.0 C 82.0,26.0 86.0,34.0 88.0,42.0 C 90.0,38.0 94.0,32.0 100.0,28.0 C 106.0,24.0 108.0,28.0 106.0,34.0 C 104.0,40.0 98.0,48.0 92.0,54.0 C 98.0,60.0 104.0,68.0 106.0,74.0 C 108.0,80.0 106.0,84.0 100.0,80.0 C 94.0,76.0 90.0,70.0 88.0,66.0 C 86.0,74.0 82.0,82.0 76.0,88.0 C 70.0,94.0 62.0,98.0 55.0,98.0 C 48.0,98.0 40.0,94.0 34.0,88.0 C 28.0,82.0 24.0,74.0 22.0,66.0 C 20.0,70.0 16.0,76.0 10.0,80.0 C 4.0,84.0 2.0,80.0 4.0,74.0 C 6.0,68.0 12.0,60.0 18.0,54.0 C 12.0,48.0 6.0,40.0 4.0,34.0 C 2.0,28.0 4.0,24.0 10.0,28.0 C 16.0,32.0 20.0,38.0 22.0,42.0 C 24.0,34.0 28.0,26.0 34.0,20.0 C 40.0,14.0 48.0,10.0 55.0,10.0 Z" fill="none" stroke="#000000" stroke-width="1.2"/>
  </g>
  <!-- LAYER 2: stamp — wewnętrzne detale embossera -->
  <g id="stamp">
    <path id="stamp_outline" d="M 57.51,45.80 C 64.86,45.80 70.88,49.94 70.88,55.00 C 70.88,60.06 64.86,64.20 57.51,64.20 C 50.15,64.20 44.13,60.06 44.13,62.11 L 36.61,55.00 L 44.13,47.89 C 44.13,49.94 50.15,45.80 57.51,45.80 Z" fill="none" stroke="#666666" stroke-width="0.8"/>
  </g>
</svg>