<?xml version="1.0" encoding="utf-8"?>
<svg xmlns="http://www.w3.org/2000/svg"
     width="50.0mm" height="50.0mm"
     viewBox="0 0 50.0 50.0">
  <rect width="50.0mm" height="50.0mm" fill="white"/>
  <!-- LAYER 1: outer — zewnętrzna sylwetka cuttera -->
  <g id="outer">
    <path id="outer_contour" d="M 25.0,5.0 C 30.0,5.0 38.0,8.0 42.0,14.0 C 45.0,18.5 46.0,23.0 45.0,27.0 C 44.0,31.0 41.0,34.0 37.0,36.0 C 33.0,38.0 29.0,38.5 25.0,38.0 C 25.0,38.0 30.0,43.0 32.0,46.0 C 29.0,45.0 24.0,42.0 22.0,39.5 C 22.0,39.5 26.0,46.0 27.0,48.0 C 23.0,46.0 19.0,41.5 18.0,39.0 C 14.0,37.5 10.0,35.0 7.5,31.0 C 5.0,27.0 4.0,22.0 5.5,17.5 C 7.0,13.0 10.5,9.5 15.0,7.0 C 19.0,5.0 22.0,5.0 25.0,5.0 Z" fill="none" stroke="#000000" stroke-width="1.2"/>
  </g>
  <!-- LAYER 2: stamp — wewnętrzne detale embossera -->
  <g id="stamp">
    <path id="stamp_outline" d="M 26.14,20.82 C 29.48,20.82 32.22,22.70 32.22,25.00 C 32.22,27.30 29.48,29.18 26.14,29.18 C 22.80,29.18 20.06,27.30 20.06,28.23 L 16.64,25.00 L 20.06,21.77 C 20.06,22.70 22.80,20.82 26.14,20.82 Z" fill="none" stroke="#666666" stroke-width="0.8"/>
  </g>
</svg>