<?xml version="1.0" encoding="utf-8"?>
<svg xmlns="http://www.w3.org/2000/svg"
     width="150.0mm" height="150.0mm"
     viewBox="0 0 150.0 150.0">
  <rect width="150.0mm" height="150.0mm" fill="white"/>
  <!-- LAYER 1: outer — zewnętrzna sylwetka cuttera -->
  <g id="outer">
    <path id="outer_contour" d="M 75.0,12.0 C 85.0,12.0 95.0,16.0 103.0,22.0 C 108.0,18.0 115.0,16.0 122.0,18.0 C 129.0,20.0 133.0,27.0 132.0,34.0 C 131.0,38.0 128.0,42.0 124.0,44.0 C 132.0,52.0 137.0,63.0 138.0,75.0 C 139.0,82.0 138.0,89.0 135.0,95.0 C 140.0,100.0 143.0,107.0 142.0,114.0 C 141.0,121.0 136.0,126.0 129.0,127.0 C 124.0,128.0 119.0,126.0 116.0,122.0 C 108.0,130.0 97.0,135.0 85.0,136.0 C 78.0,137.0 71.0,136.0 65.0,133.0 C 58.0,136.0 50.0,138.0 42.0,136.0 C 34.0,134.0 28.0,128.0 26.0,120.0 C 25.0,115.0 26.0,110.0 28.0,106.0 C 18.0,96.0 12.0,83.0 12.0,69.0 C 12.0,58.0 16.0,48.0 22.0,40.0 C 20.0,35.0 19.0,29.0 22.0,23.0 C 25.0,17.0 31.0,14.0 38.0,14.0 C 44.0,14.0 50.0,16.0 54.0,20.0 C 60.0,15.0 67.0,12.0 75.0,12.0 Z" fill="none" stroke="#000000" stroke-width="1.2"/>
  </g>
  <!-- LAYER 2: stamp — wewnętrzne detale embossera -->
  <g id="stamp">
    <path id="stamp_outline" d="M 78.42,62.46 C 88.45,62.46 96.66,68.10 96.66,75.00 C 96.66,81.90 88.45,87.54 78.42,87.54 C 68.39,87.54 60.18,81.90 60.18,84.69 L 49.92,75.00 L 60.18,65.31 C 60.18,68.10 68.39,62.46 78.42,62.46 Z" fill="none" stroke="#666666" stroke-width="0.8"/>
  </g>
</svg>