<?xml version="1.0" encoding="utf-8"?>
<svg xmlns="http://www.w3.org/2000/svg"
     width="90.0mm" height="90.0mm"
     viewBox="0 0 90.0 90.0">
  <rect width="90.0mm" height="90.0mm" fill="white"/>
  <!-- LAYER 1: outer — zewnętrzna sylwetka cuttera -->
  <g id="outer">
    <path id="outer_contour" d="M 45.0,6.0 C 35.0,6.0 26.0,10.0 20.0,17.0 C 14.0,24.0 11.0,33.0 12.0,42.0 C 13.0,51.0 17.0,59.0 24.0,65.0 C 31.0,71.0 40.0,74.0 49.0,73.0 C 44.0,70.0 40.0,65.0 38.0,59.0 C 36.0,53.0 36.0,46.0 38.0,40.0 C 40.0,34.0 44.0,29.0 49.0,26.0 C 54.0,23.0 60.0,22.0 66.0,23.0 C 63.0,15.0 56.0,9.0 48.0,7.0 C 47.0,6.5 46.0,6.0 45.0,6.0 L 72.0,28.0 L 74.5,22.0 L 77.0,28.0 L 83.0,28.0 L 78.5,32.0 L 80.0,38.0 L 74.5,34.5 L 69.0,38.0 L 70.5,32.0 L 66.0,28.0 L 72.0,28.0 L 66.0,23.0 C 60.0,22.0 54.0,23.0 49.0,26.0 C 44.0,29.0 40.0,34.0 38.0,40.0 C 36.0,46.0 36.0,53.0 38.0,59.0 C 40.0,65.0 44.0,70.0 49.0,73.0 C 50.0,73.5 51.0,74.0 52.0,74.0 L 55.0,68.0 L 57.0,63.0 L 59.0,68.0 L 64.0,68.0 L 60.0,71.5 L 61.5,76.5 L 57.0,73.5 L 52.5,76.5 L 54.0,71.5 L 50.0,68.0 L 55.0,68.0 L 52.0,74.0 C 53.0,74.2 54.0,74.3 55.0,74.2 C 58.0,84.0 45.0,86.0 38.0,82.0 C 28.0,82.0 19.0,78.0 13.0,71.0 C 7.0,64.0 3.0,55.0 3.0,45.0 C 3.0,35.0 7.0,26.0 13.0,19.0 C 19.0,12.0 28.0,8.0 38.0,6.0 C 40.0,5.8 42.5,5.8 45.0,6.0 Z" fill="none" stroke="#000000" stroke-width="1.2"/>
  </g>
  <!-- LAYER 2: stamp — wewnętrzne detale embossera -->
  <g id="stamp">
    <path id="stamp_outline" d="M 45.00,27.90 L 49.22,39.19 L 61.26,39.72 L 51.83,47.22 L 55.05,58.83 L 45.00,52.18 L 34.95,58.83 L 38.17,47.22 L 28.74,39.72 L 40.78,39.19 Z" fill="none" stroke="#666666" stroke-width="0.8"/>
  </g>
</svg>