<?xml version="1.0" encoding="utf-8"?>
<svg xmlns="http://www.w3.org/2000/svg"
     width="75.0mm" height="75.0mm"
     viewBox="0 0 75.0 75.0">
  <rect width="75.0mm" height="75.0mm" fill="white"/>
  <!-- LAYER 1: outer — zewnętrzna sylwetka cuttera -->
  <g id="outer">
    <path id="outer_contour" d="M 44.0,10.0 C 38.0,10.0 30.0,16.0 28.0,24.0 C 26.0,32.0 28.0,42.0 34.0,50.0 C 38.0,55.0 44.0,60.0 50.0,62.0 C 54.0,63.5 58.0,63.0 60.0,60.0 C 62.0,57.0 60.0,52.0 56.0,46.0 C 50.0,37.0 46.0,28.0 46.0,20.0 C 46.0,15.0 48.0,10.5 44.0,10.0 Z M 50.0,62.0 C 46.0,58.0 40.0,54.0 36.0,48.0 C 32.0,42.0 30.0,34.0 31.5,26.0 C 33.0,20.0 36.5,15.0 41.0,12.5 C 37.0,13.0 32.0,17.0 29.0,22.0 C 25.5,28.0 24.0,36.0 26.0,43.0 C 28.0,50.0 33.0,56.0 39.0,60.0 C 43.0,62.5 47.5,63.5 50.0,62.0 Z M 16.0,18.0 L 17.8,22.5 L 13.0,25.5 L 18.2,25.8 L 19.0,31.0 L 21.2,26.2 L 26.0,27.5 L 22.5,23.5 L 24.5,18.5 L 19.8,21.0 Z M 10.0,40.0 L 12.2,44.8 L 7.0,47.2 L 12.5,47.8 L 13.5,53.2 L 16.0,48.0 L 21.0,49.5 L 17.2,45.2 L 19.5,40.0 L 14.5,42.8 Z M 22.0,58.0 L 24.0,62.5 L 19.2,65.0 L 24.5,65.2 L 25.2,70.5 L 27.8,65.5 L 32.8,67.0 L 29.2,63.0 L 31.5,58.0 L 26.5,60.5 Z" fill="none" stroke="#000000" stroke-width="1.2"/>
  </g>
  <!-- LAYER 2: stamp — wewnętrzne detale embossera -->
  <g id="stamp">
    <path id="stamp_outline" d="M 37.50,23.25 L 41.02,32.66 L 51.05,33.10 L 43.19,39.35 L 45.88,49.03 L 37.50,43.48 L 29.12,49.03 L 31.81,39.35 L 23.95,33.10 L 33.98,32.66 Z" fill="none" stroke="#666666" stroke-width="0.8"/>
  </g>
</svg>