<?xml version="1.0" encoding="utf-8"?>
<svg xmlns="http://www.w3.org/2000/svg"
     width="75.0mm" height="75.0mm"
     viewBox="0 0 75.0 75.0">
  <rect width="75.0mm" height="75.0mm" fill="white"/>
  <!-- LAYER 1: outer — zewnętrzna sylwetka cuttera -->
  <g id="outer">
    <path id="outer_contour" d="M 37.5,5.0 C 28.0,5.0 19.5,9.0 13.5,16.0 C 7.5,23.0 4.5,32.0 5.5,41.0 C 6.5,50.0 11.0,58.0 18.0,63.5 C 25.0,69.0 34.0,71.5 43.0,70.0 C 38.0,66.0 34.5,60.0 33.5,53.5 C 32.5,47.0 34.0,40.0 37.5,34.5 C 41.0,29.0 46.5,25.0 53.0,23.0 C 59.5,21.0 66.5,21.5 72.5,24.0 C 71.0,17.0 67.0,11.0 61.0,7.5 C 55.0,4.0 48.0,3.0 41.5,4.5 L 41.0,4.6 C 40.0,4.8 38.5,5.0 37.5,5.0 C 37.5,5.0 40.0,11.0 39.5,11.5 L 41.5,8.5 L 43.5,11.5 L 39.5,11.5 C 40.0,11.0 37.5,5.0 37.5,5.0 C 37.5,5.0 55.0,30.0 54.5,30.5 L 56.5,27.5 L 58.5,30.5 L 54.5,30.5 C 55.0,30.0 55.0,30.0 55.0,30.0 C 55.0,30.0 62.0,42.0 61.5,42.5 L 64.0,39.0 L 66.5,42.5 L 61.5,42.5 C 62.0,42.0 62.0,42.0 62.0,42.0 C 62.0,42.0 72.5,24.0 72.5,24.0 Z" fill="none" stroke="#000000" stroke-width="1.2"/>
  </g>
  <!-- LAYER 2: stamp — wewnętrzne detale embossera -->
  <g id="stamp">
    <path id="stamp_outline" d="M 37.50,23.25 L 41.02,32.66 L 51.05,33.10 L 43.19,39.35 L 45.88,49.03 L 37.50,43.48 L 29.12,49.03 L 31.81,39.35 L 23.95,33.10 L 33.98,32.66 Z" fill="none" stroke="#666666" stroke-width="0.8"/>
  </g>
</svg>