<?xml version="1.0" encoding="utf-8"?>
<svg xmlns="http://www.w3.org/2000/svg"
     width="60.0mm" height="60.0mm"
     viewBox="0 0 60.0 60.0">
  <rect width="60.0mm" height="60.0mm" fill="white"/>
  <!-- LAYER 1: outer — zewnętrzna sylwetka cuttera -->
  <g id="outer">
    <path id="outer_contour" d="M 30.0,4.0 C 24.0,4.0 18.5,6.5 14.5,10.5 C 10.5,14.5 8.0,20.0 8.0,26.0 C 8.0,32.0 10.5,37.5 14.5,41.5 C 18.5,45.5 24.0,48.0 30.0,48.0 C 28.0,46.0 26.5,43.5 25.8,40.5 C 25.0,37.5 25.0,34.0 26.0,31.0 C 27.0,28.0 28.8,25.5 31.0,23.5 C 33.2,21.5 36.0,20.0 39.0,19.5 C 37.5,16.0 35.0,13.0 31.8,10.8 C 28.5,8.5 24.5,7.0 20.5,7.5 C 24.0,5.5 27.0,4.5 30.0,4.0 L 44.0,10.0 L 45.5,8.0 L 47.0,10.5 L 49.5,9.5 L 48.5,12.0 L 50.5,13.5 L 48.0,14.0 L 48.0,16.5 L 46.0,15.2 L 44.5,17.0 L 44.0,14.5 L 41.5,14.0 L 43.5,12.2 L 44.0,10.0 L 52.0,20.0 L 53.5,18.0 L 54.5,20.5 L 56.5,19.8 L 55.8,22.0 L 57.5,23.5 L 55.2,24.0 L 55.0,26.2 L 53.2,25.0 L 51.8,26.8 L 51.2,24.5 L 49.0,24.0 L 50.8,22.5 L 52.0,20.0 L 48.0,36.0 L 49.5,34.0 L 51.0,36.5 L 53.0,35.5 L 52.0,38.0 L 54.0,39.5 L 51.5,40.0 L 51.5,42.5 L 49.5,41.2 L 48.0,43.0 L 47.5,40.5 L 45.2,40.0 L 47.0,38.5 L 48.0,36.0 C 46.0,42.0 42.0,46.5 37.0,49.0 C 34.0,50.5 31.5,49.5 30.0,48.0 C 36.0,48.0 41.5,45.5 45.5,41.5 C 49.5,37.5 52.0,32.0 52.0,26.0 C 52.0,20.0 49.5,14.5 45.5,10.5 C 41.5,6.5 36.0,4.0 30.0,4.0 Z" fill="none" stroke="#000000" stroke-width="1.2"/>
  </g>
  <!-- LAYER 2: stamp — wewnętrzne detale embossera -->
  <g id="stamp">
    <path id="stamp_outline" d="M 30.00,18.60 L 32.81,26.13 L 40.84,26.48 L 34.55,31.48 L 36.70,39.22 L 30.00,34.79 L 23.30,39.22 L 25.45,31.48 L 19.16,26.48 L 27.19,26.13 Z" fill="none" stroke="#666666" stroke-width="0.8"/>
  </g>
</svg>