<?xml version="1.0" encoding="utf-8"?>
<svg xmlns="http://www.w3.org/2000/svg"
     width="110.0mm" height="110.0mm"
     viewBox="0 0 110.0 110.0">
  <rect width="110.0mm" height="110.0mm" fill="white"/>
  <!-- LAYER 1: outer — zewnętrzna sylwetka cuttera -->
  <g id="outer">
    <path id="outer_contour" d="M 55.0,8.0 C 38.0,8.0 23.0,18.0 16.0,33.0 C 9.0,48.0 12.0,66.0 23.0,78.0 C 34.0,90.0 51.0,96.0 66.0,93.0 C 60.0,88.0 56.0,80.0 55.0,71.0 C 54.0,62.0 56.0,53.0 61.0,46.0 C 66.0,39.0 73.0,34.0 81.0,32.0 C 76.0,18.0 66.0,8.0 55.0,8.0 L 88.0,18.0 L 91.0,12.0 L 93.0,19.0 L 100.0,18.0 L 95.0,23.0 L 99.0,29.0 L 92.0,27.0 L 89.0,33.0 L 88.0,26.0 L 82.0,24.0 L 88.0,18.0 L 72.0,10.0 L 74.0,5.0 L 76.0,11.0 L 82.0,9.0 L 78.0,14.0 L 80.0,19.0 L 75.0,16.0 L 72.0,21.0 L 72.0,15.0 L 68.0,12.0 L 72.0,10.0 L 96.0,52.0 L 99.0,46.0 L 100.0,53.0 L 107.0,53.0 L 102.0,57.0 L 105.0,63.0 L 99.0,61.0 L 96.0,67.0 L 95.0,60.0 L 89.0,58.0 L 96.0,52.0 C 92.0,67.0 82.0,80.0 69.0,88.0 C 68.5,89.0 67.5,90.5 66.0,93.0 C 78.0,98.0 92.0,95.0 100.0,85.0 C 108.0,75.0 108.5,60.0 101.0,49.0 C 98.0,44.0 96.0,52.0 96.0,52.0 Z" fill="none" stroke="#000000" stroke-width="1.2"/>
  </g>
  <!-- LAYER 2: stamp — wewnętrzne detale embossera -->
  <g id="stamp">
    <path id="stamp_outline" d="M 55.00,34.10 L 60.16,47.90 L 74.88,48.54 L 63.35,57.71 L 67.28,71.91 L 55.00,63.78 L 42.72,71.91 L 46.65,57.71 L 35.12,48.54 L 49.84,47.90 Z" fill="none" stroke="#666666" stroke-width="0.8"/>
  </g>
</svg>