<?xml version="1.0" encoding="utf-8"?>
<svg xmlns="http://www.w3.org/2000/svg"
     width="50.0mm" height="50.0mm"
     viewBox="0 0 50.0 50.0">
  <rect width="50.0mm" height="50.0mm" fill="white"/>
  <!-- LAYER 1: outer — zewnętrzna sylwetka cuttera -->
  <g id="outer">
    <path id="outer_contour" d="M 25.0,3.0 C 20.0,3.0 15.0,5.5 12.0,10.0 C 9.0,14.5 8.5,20.0 10.5,25.0 C 12.5,30.0 16.5,34.0 21.0,36.0 C 18.0,33.0 16.5,28.5 17.0,24.0 C 17.5,19.5 20.0,15.5 23.5,13.0 C 27.0,10.5 31.5,10.0 35.5,11.5 C 33.0,8.0 29.5,5.0 25.0,3.5 L 25.0,3.0 L 38.0,14.0 L 39.5,12.0 L 40.5,15.5 L 43.5,14.5 L 41.5,17.5 L 44.5,19.0 L 41.0,20.0 L 42.5,23.0 L 39.0,22.5 L 39.0,25.5 L 36.5,24.0 C 38.0,28.0 37.5,32.5 35.5,36.0 C 33.5,39.5 30.0,42.0 26.0,43.0 C 30.5,44.0 35.5,43.5 39.5,41.0 C 43.5,38.5 46.0,34.5 47.0,30.0 C 48.0,25.5 47.0,20.5 44.5,16.5 C 42.0,12.5 38.0,9.5 33.5,8.5 L 38.0,14.0 L 25.0,3.0 L 10.0,40.0 L 8.0,37.5 L 7.5,40.5 L 4.5,39.5 L 5.5,42.5 L 3.0,43.0 L 5.5,45.0 L 4.0,47.0 L 7.0,46.5 L 7.5,48.0 L 9.5,46.0 L 11.5,47.5 L 11.5,44.5 L 14.0,44.5 L 12.5,42.0 L 10.0,40.0 Z" fill="none" stroke="#000000" stroke-width="1.2"/>
  </g>
  <!-- LAYER 2: stamp — wewnętrzne detale embossera -->
  <g id="stamp">
    <path id="stamp_outline" d="M 25.00,15.50 L 27.35,21.77 L 34.04,22.06 L 28.79,26.23 L 30.58,32.69 L 25.00,28.99 L 19.42,32.69 L 21.21,26.23 L 15.96,22.06 L 22.65,21.77 Z" fill="none" stroke="#666666" stroke-width="0.8"/>
  </g>
</svg>