<?xml version="1.0" encoding="utf-8"?>
<svg xmlns="http://www.w3.org/2000/svg"
     width="150.0mm" height="150.0mm"
     viewBox="0 0 150.0 150.0">
  <rect width="150.0mm" height="150.0mm" fill="white"/>
  <!-- LAYER 1: outer — zewnętrzna sylwetka cuttera -->
  <g id="outer">
    <path id="outer_contour" d="M 75.0,8.0 C 58.0,8.0 42.0,14.0 30.0,25.0 C 18.0,36.0 10.0,52.0 10.0,70.0 C 10.0,88.0 18.0,104.0 30.0,115.0 C 42.0,126.0 58.0,132.0 75.0,132.0 C 78.0,132.0 81.0,131.8 84.0,131.4 C 72.0,126.0 63.0,116.0 58.0,104.0 C 53.0,92.0 52.0,78.0 56.0,65.0 C 60.0,52.0 68.0,41.0 79.0,34.0 C 90.0,27.0 103.0,24.0 115.0,26.0 C 109.0,17.0 100.0,11.0 89.0,8.8 C 84.5,8.3 79.8,8.0 75.0,8.0 C 75.0,8.0 75.0,8.0 75.0,8.0 L 119.0,30.0 C 121.0,28.0 125.0,22.0 127.0,20.0 C 129.5,17.5 132.0,18.0 132.0,21.0 C 132.0,24.0 130.0,27.0 129.0,29.0 L 134.0,27.0 C 137.0,26.0 139.0,28.0 138.0,31.0 C 137.0,34.0 133.0,37.0 130.0,38.0 L 125.0,39.5 C 128.0,40.0 132.0,41.0 134.0,42.5 C 136.5,44.5 135.5,47.0 133.0,47.0 C 130.0,47.0 126.0,45.5 123.0,44.0 L 120.0,42.5 C 120.0,42.5 120.5,46.0 120.5,49.0 C 120.5,52.0 118.5,53.5 116.5,52.0 C 114.5,50.5 113.5,47.0 113.5,44.0 L 113.0,40.0 C 111.0,43.0 108.0,47.0 106.0,49.0 C 103.5,51.5 101.0,51.0 101.5,48.5 C 102.0,46.0 104.5,42.0 107.0,39.0 L 110.0,36.0 C 107.0,37.0 103.0,38.5 100.0,38.5 C 97.0,38.5 96.0,36.5 98.0,34.5 C 100.0,32.5 104.0,30.5 107.5,30.0 L 112.0,29.5 C 110.0,28.0 107.0,25.5 106.0,23.5 C 104.5,21.0 105.5,19.0 108.0,19.5 C 110.5,20.0 113.5,22.5 115.5,25.0 L 119.0,30.0 C 119.0,30.0 115.0,26.0 115.0,26.0 Z" fill="none" stroke="#000000" stroke-width="1.2"/>
  </g>
  <!-- LAYER 2: stamp — wewnętrzne detale embossera -->
  <g id="stamp">
    <path id="stamp_outline" d="M 75.00,46.50 L 82.04,65.32 L 102.11,66.19 L 86.38,78.70 L 91.75,98.06 L 75.00,86.97 L 58.25,98.06 L 63.62,78.70 L 47.89,66.19 L 67.96,65.32 Z" fill="none" stroke="#666666" stroke-width="0.8"/>
  </g>
</svg>