<?xml version="1.0" encoding="utf-8" ?>
<svg xmlns="http://www.w3.org/2000/svg" xmlns:ev="http://www.w3.org/2001/xml-events" xmlns:xlink="http://www.w3.org/1999/xlink" baseProfile="full" height="90.0mm" version="1.1" viewBox="0 0 90.0 90.0" width="90.0mm">
  <defs/>
  <rect fill="white" height="90.0mm" width="90.0mm" x="0" y="0"/>
  <path d="M 45.0,6.0 C 28.0,6.0 14.0,20.0 14.0,38.0 C 14.0,48.0 14.5,58.0 15.0,68.0 C 15.2,72.0 18.0,76.0 22.0,72.0 C 25.0,69.0 27.0,66.0 30.0,69.0 C 33.0,72.0 34.0,78.0 38.0,78.0 C 41.0,78.0 41.5,73.0 45.0,70.0 C 48.5,73.0 49.0,78.0 52.0,78.0 C 56.0,78.0 57.0,72.0 60.0,69.0 C 63.0,66.0 65.0,69.0 68.0,72.0 C 72.0,76.0 74.8,72.0 75.0,68.0 C 75.5,58.0 76.0,48.0 76.0,38.0 C 76.0,20.0 62.0,6.0 45.0,6.0 Z" fill="none" stroke="#1a1a1a" stroke-linecap="round" stroke-linejoin="round" stroke-width="2.5mm"/>
  <text fill="#888888" font-family="sans-serif" font-size="3px" text-anchor="middle" x="45.0mm" y="86.39999999999999mm">halloween ghost | CUTTER | L</text>
</svg>
