<?xml version="1.0" encoding="utf-8" ?>
<svg xmlns="http://www.w3.org/2000/svg" xmlns:ev="http://www.w3.org/2001/xml-events" xmlns:xlink="http://www.w3.org/1999/xlink" baseProfile="full" height="75.0mm" version="1.1" viewBox="0 0 75.0 75.0" width="75.0mm">
  <defs/>
  <rect fill="white" height="75.0mm" width="75.0mm" x="0" y="0"/>
  <path d="M 37.5,5.0 C 24.0,5.0 12.0,15.0 10.0,28.0 C 8.0,41.0 10.0,50.0 12.0,58.0 C 13.0,62.0 16.0,65.0 18.0,60.0 C 20.0,55.0 22.0,58.0 24.0,63.0 C 26.0,68.0 28.0,65.0 29.0,60.0 C 30.0,55.0 32.0,58.0 34.0,63.0 C 36.0,68.0 39.0,68.0 41.0,63.0 C 43.0,58.0 45.0,55.0 46.0,60.0 C 47.0,65.0 49.0,68.0 51.0,63.0 C 53.0,58.0 55.0,55.0 57.0,60.0 C 59.0,65.0 62.0,62.0 63.0,58.0 C 65.0,50.0 67.0,41.0 65.0,28.0 C 63.0,15.0 51.0,5.0 37.5,5.0 Z" fill="none" stroke="#1a1a1a" stroke-linecap="round" stroke-linejoin="round" stroke-width="2.5mm"/>
  <text fill="#888888" font-family="sans-serif" font-size="3px" text-anchor="middle" x="37.5mm" y="72.0mm">halloween ghost | CUTTER | M</text>
</svg>
