<?xml version="1.0" encoding="utf-8"?>
<svg xmlns="http://www.w3.org/2000/svg"
     width="75.0mm" height="75.0mm"
     viewBox="0 0 75.0 75.0">
  <rect width="75.0mm" height="75.0mm" fill="white"/>
  <!-- LAYER 1: outer — zewnętrzna sylwetka cuttera -->
  <g id="outer">
    <path id="outer_contour" d="M 37.5,8.0 C 50.0,8.0 62.0,14.0 66.5,26.0 C 71.0,38.0 69.0,48.0 67.0,55.0 C 65.5,60.0 62.0,67.0 56.0,64.0 C 52.0,62.0 50.0,58.0 46.5,60.0 C 43.0,62.0 42.0,68.0 37.5,68.0 C 33.0,68.0 32.0,62.0 28.5,60.0 C 25.0,58.0 23.0,62.0 19.0,64.0 C 13.0,67.0 9.5,60.0 8.0,55.0 C 6.0,48.0 4.0,38.0 8.5,26.0 C 13.0,14.0 25.0,8.0 37.5,8.0 Z M 28.0,30.0 C 25.0,30.0 23.0,32.5 23.0,36.0 C 23.0,39.5 25.0,42.0 28.0,42.0 C 31.0,42.0 33.0,39.5 33.0,36.0 C 33.0,32.5 31.0,30.0 28.0,30.0 Z M 47.0,30.0 C 44.0,30.0 42.0,32.5 42.0,36.0 C 42.0,39.5 44.0,42.0 47.0,42.0 C 50.0,42.0 52.0,39.5 52.0,36.0 C 52.0,32.5 50.0,30.0 47.0,30.0 Z M 37.5,46.0 C 35.0,46.0 33.5,47.5 33.5,49.5 C 33.5,51.5 35.0,53.0 37.5,53.0 C 40.0,53.0 41.5,51.5 41.5,49.5 C 41.5,47.5 40.0,46.0 37.5,46.0 Z" fill="none" stroke="#000000" stroke-width="1.2"/>
  </g>
  <!-- LAYER 2: stamp — wewnętrzne detale embossera -->
  <g id="stamp">
    <path id="stamp_outline" d="M 34.65,26.67 L 34.65,20.40 L 40.35,20.40 L 40.35,26.67 C 43.77,26.67 50.04,28.84 50.04,37.50 C 50.04,46.16 43.77,48.33 40.35,48.33 L 34.65,48.33 C 31.23,48.33 24.96,46.16 24.96,37.50 C 24.96,28.84 31.23,26.67 34.65,26.67 Z" fill="none" stroke="#666666" stroke-width="0.8"/>
  </g>
</svg>