<?xml version="1.0" encoding="utf-8" ?>
<svg xmlns="http://www.w3.org/2000/svg" xmlns:ev="http://www.w3.org/2001/xml-events" xmlns:xlink="http://www.w3.org/1999/xlink" baseProfile="full" height="60.0mm" version="1.1" viewBox="0 0 60.0 60.0" width="60.0mm">
  <defs/>
  <rect fill="white" height="60.0mm" width="60.0mm" x="0" y="0"/>
  <path d="M 30.0,4.0 C 18.0,4.0 8.0,14.0 8.0,26.0 C 8.0,32.0 9.0,38.0 9.0,44.0 C 9.0,48.0 12.0,50.0 14.0,47.0 C 16.0,44.0 18.0,48.0 20.0,51.0 C 22.0,54.0 25.0,52.0 26.0,49.0 C 27.0,46.0 29.0,50.0 30.0,53.0 C 31.0,56.0 34.0,54.0 35.0,51.0 C 36.0,48.0 38.0,44.0 40.0,47.0 C 42.0,50.0 45.0,52.0 47.0,49.0 C 49.0,46.0 51.0,44.0 52.0,47.0 C 53.0,50.0 56.0,48.0 55.0,44.0 C 54.0,38.0 52.0,32.0 52.0,26.0 C 52.0,14.0 42.0,4.0 30.0,4.0 Z" fill="none" stroke="#1a1a1a" stroke-linecap="round" stroke-linejoin="round" stroke-width="2.5mm"/>
  <text fill="#888888" font-family="sans-serif" font-size="3px" text-anchor="middle" x="30.0mm" y="57.599999999999994mm">halloween ghost | CUTTER | S</text>
</svg>
