<?xml version="1.0" encoding="utf-8"?>
<svg xmlns="http://www.w3.org/2000/svg"
     width="110.0mm" height="110.0mm"
     viewBox="0 0 110.0 110.0">
  <rect width="110.0mm" height="110.0mm" fill="white"/>
  <!-- LAYER 1: outer — zewnętrzna sylwetka cuttera -->
  <g id="outer">
    <path id="outer_contour" d="M 55.0,6.0 C 32.0,6.0 12.0,24.0 12.0,48.0 C 12.0,62.0 16.0,74.0 18.0,82.0 C 19.5,88.0 20.0,94.0 16.0,100.0 C 14.0,103.0 18.0,106.0 22.0,104.0 C 26.0,102.0 30.0,96.0 34.0,98.0 C 38.0,100.0 38.0,106.0 42.0,107.0 C 46.0,108.0 47.0,102.0 50.0,100.0 C 53.0,98.0 55.0,104.0 58.0,106.0 C 61.0,108.0 63.0,102.0 66.0,100.0 C 69.0,98.0 72.0,104.0 76.0,106.0 C 80.0,108.0 82.0,102.0 84.0,100.0 C 86.0,98.0 90.0,103.0 94.0,104.0 C 98.0,105.0 100.0,101.0 98.0,98.0 C 94.0,92.0 94.0,86.0 95.0,80.0 C 96.5,72.0 98.0,62.0 98.0,48.0 C 98.0,24.0 78.0,6.0 55.0,6.0 Z" fill="none" stroke="#000000" stroke-width="1.2"/>
  </g>
  <!-- LAYER 2: stamp — wewnętrzne detale embossera -->
  <g id="stamp">
    <path id="stamp_outline" d="M 50.82,39.12 L 50.82,29.92 L 59.18,29.92 L 59.18,39.12 C 64.20,39.12 73.39,42.29 73.39,55.00 C 73.39,67.71 64.20,70.88 59.18,70.88 L 50.82,70.88 C 45.80,70.88 36.61,67.71 36.61,55.00 C 36.61,42.29 45.80,39.12 50.82,39.12 Z" fill="none" stroke="#666666" stroke-width="0.8"/>
  </g>
</svg>