<?xml version="1.0" encoding="utf-8"?>
<svg xmlns="http://www.w3.org/2000/svg"
     width="50.0mm" height="50.0mm"
     viewBox="0 0 50.0 50.0">
  <rect width="50.0mm" height="50.0mm" fill="white"/>
  <!-- LAYER 1: outer — zewnętrzna sylwetka cuttera -->
  <g id="outer">
    <path id="outer_contour" d="M 25.0,3.5 C 15.0,3.5 7.0,11.0 7.0,21.0 C 7.0,28.0 7.5,34.0 8.0,39.0 C 8.3,41.5 10.5,42.0 12.0,40.0 C 13.5,38.0 14.5,37.5 15.5,39.5 C 16.5,41.5 18.0,42.5 19.5,40.5 C 21.0,38.5 22.0,38.0 23.5,40.0 C 24.5,41.5 25.5,41.5 26.5,40.0 C 28.0,38.0 29.0,38.5 30.5,40.5 C 32.0,42.5 33.5,41.5 34.5,39.5 C 35.5,37.5 36.5,38.0 38.0,40.0 C 39.5,42.0 41.7,41.5 42.0,39.0 C 42.5,34.0 43.0,28.0 43.0,21.0 C 43.0,11.0 35.0,3.5 25.0,3.5 Z" fill="none" stroke="#000000" stroke-width="1.2"/>
  </g>
  <!-- LAYER 2: stamp — wewnętrzne detale embossera -->
  <g id="stamp">
    <path id="stamp_outline" d="M 23.10,17.78 L 23.10,13.60 L 26.90,13.60 L 26.90,17.78 C 29.18,17.78 33.36,19.22 33.36,25.00 C 33.36,30.78 29.18,32.22 26.90,32.22 L 23.10,32.22 C 20.82,32.22 16.64,30.78 16.64,25.00 C 16.64,19.22 20.82,17.78 23.10,17.78 Z" fill="none" stroke="#666666" stroke-width="0.8"/>
  </g>
</svg>