<?xml version="1.0" encoding="utf-8"?>
<svg xmlns="http://www.w3.org/2000/svg"
     width="150.0mm" height="150.0mm"
     viewBox="0 0 150.0 150.0">
  <rect width="150.0mm" height="150.0mm" fill="white"/>
  <!-- LAYER 1: outer — zewnętrzna sylwetka cuttera -->
  <g id="outer">
    <path id="outer_contour" d="M 75.0,8.0 C 48.0,8.0 18.0,28.0 18.0,65.0 C 18.0,85.0 25.0,100.0 28.0,115.0 C 29.5,122.0 26.0,132.0 32.0,138.0 C 38.0,144.0 44.0,130.0 50.0,128.0 C 54.0,126.5 56.0,140.0 62.0,140.0 C 68.0,140.0 68.0,126.0 75.0,126.0 C 82.0,126.0 82.0,142.0 88.0,142.0 C 94.0,142.0 96.0,127.0 100.0,128.0 C 106.0,129.5 108.0,144.0 114.0,138.0 C 120.0,132.0 118.0,122.0 120.0,115.0 C 123.0,100.0 132.0,85.0 132.0,65.0 C 132.0,28.0 102.0,8.0 75.0,8.0 Z" fill="none" stroke="#000000" stroke-width="1.2"/>
  </g>
  <!-- LAYER 2: stamp — wewnętrzne detale embossera -->
  <g id="stamp">
    <path id="stamp_outline" d="M 69.30,53.34 L 69.30,40.80 L 80.70,40.80 L 80.70,53.34 C 87.54,53.34 100.08,57.67 100.08,75.00 C 100.08,92.33 87.54,96.66 80.70,96.66 L 69.30,96.66 C 62.46,96.66 49.92,92.33 49.92,75.00 C 49.92,57.67 62.46,53.34 69.30,53.34 Z" fill="none" stroke="#666666" stroke-width="0.8"/>
  </g>
</svg>