<?xml version="1.0" encoding="utf-8"?>
<svg xmlns="http://www.w3.org/2000/svg"
     width="90.0mm" height="90.0mm"
     viewBox="0 0 90.0 90.0">
  <rect width="90.0mm" height="90.0mm" fill="white"/>
  <!-- LAYER 1: outer — zewnętrzna sylwetka cuttera -->
  <g id="outer">
    <path id="outer_contour" d="M 45.0,82.0 C 21.0,68.0 3.0,52.0 8.0,35.0 C 10.5,27.0 17.0,22.0 25.0,22.0 C 32.0,22.0 38.0,25.5 42.0,31.0 C 43.5,33.5 44.2,36.0 45.0,38.0 C 45.8,36.0 46.5,33.5 48.0,31.0 C 52.0,25.5 58.0,22.0 65.0,22.0 C 73.0,22.0 79.5,27.0 82.0,35.0 C 87.0,52.0 69.0,68.0 45.0,82.0 Z" fill="none" stroke="#000000" stroke-width="1.2"/>
  </g>
  <!-- LAYER 2: stamp — wewnętrzne detale embossera -->
  <g id="stamp">
    <path id="stamp_outline" d="M 45.00,44.38 C 48.94,28.07 74.55,28.07 61.42,36.38 C 79.47,46.54 64.70,55.77 45.00,61.01 C 25.30,55.77 10.53,46.54 28.58,36.38 C 15.45,28.07 41.06,28.07 45.00,44.38 Z" fill="none" stroke="#666666" stroke-width="0.8"/>
    <circle cx="34.20" cy="45.00" r="2.25" fill="#999999"/>
    <circle cx="45.00" cy="45.00" r="2.25" fill="#999999"/>
    <circle cx="55.80" cy="45.00" r="2.25" fill="#999999"/>
  </g>
</svg>