<?xml version="1.0" encoding="utf-8"?>
<svg xmlns="http://www.w3.org/2000/svg"
     width="75.0mm" height="75.0mm"
     viewBox="0 0 75.0 75.0">
  <rect width="75.0mm" height="75.0mm" fill="white"/>
  <!-- LAYER 1: outer — zewnętrzna sylwetka cuttera -->
  <g id="outer">
    <path id="outer_contour" d="M 37.5,8.0 C 28.0,8.0 18.0,14.0 18.0,26.0 C 18.0,32.0 20.5,36.5 24.0,40.0 C 22.0,39.5 18.5,40.0 16.0,42.5 C 12.0,46.5 12.0,53.0 16.0,57.0 C 18.5,59.5 22.0,60.0 25.0,59.0 C 27.0,62.0 30.5,65.0 37.5,68.0 C 44.5,65.0 48.0,62.0 50.0,59.0 C 53.0,60.0 56.5,59.5 59.0,57.0 C 63.0,53.0 63.0,46.5 59.0,42.5 C 56.5,40.0 53.0,39.5 51.0,40.0 C 54.5,36.5 57.0,32.0 57.0,26.0 C 57.0,14.0 47.0,8.0 37.5,8.0 Z" fill="none" stroke="#000000" stroke-width="1.2"/>
  </g>
  <!-- LAYER 2: stamp — wewnętrzne detale embossera -->
  <g id="stamp">
    <path id="stamp_outline" d="M 37.50,36.99 C 40.78,23.39 62.12,23.39 51.18,30.32 C 66.23,38.78 53.92,46.48 37.50,50.84 C 21.08,46.48 8.77,38.78 23.82,30.32 C 12.88,23.39 34.22,23.39 37.50,36.99 Z" fill="none" stroke="#666666" stroke-width="0.8"/>
    <circle cx="28.50" cy="37.50" r="1.88" fill="#999999"/>
    <circle cx="37.50" cy="37.50" r="1.88" fill="#999999"/>
    <circle cx="46.50" cy="37.50" r="1.88" fill="#999999"/>
  </g>
</svg>