<?xml version="1.0" encoding="utf-8"?>
<svg xmlns="http://www.w3.org/2000/svg"
     width="75.0mm" height="75.0mm"
     viewBox="0 0 75.0 75.0">
  <rect width="75.0mm" height="75.0mm" fill="white"/>
  <!-- LAYER 1: outer — zewnętrzna sylwetka cuttera -->
  <g id="outer">
    <path id="outer_contour" d="M 37.5,65.0 C 28.0,58.5 18.0,51.5 11.5,43.0 C 5.0,34.5 3.5,25.5 9.0,19.0 C 14.5,12.5 22.0,11.0 28.5,13.5 C 33.0,15.2 36.0,19.0 37.5,23.5 C 39.0,19.0 42.0,15.2 46.5,13.5 C 53.0,11.0 60.5,12.5 66.0,19.0 C 71.5,25.5 70.0,34.5 63.5,43.0 C 57.0,51.5 47.0,58.5 37.5,65.0 Z" fill="none" stroke="#000000" stroke-width="1.2"/>
  </g>
  <!-- LAYER 2: stamp — wewnętrzne detale embossera -->
  <g id="stamp">
    <path id="stamp_outline" d="M 37.50,36.99 C 40.78,23.39 62.12,23.39 51.18,30.32 C 66.23,38.78 53.92,46.48 37.50,50.84 C 21.08,46.48 8.77,38.78 23.82,30.32 C 12.88,23.39 34.22,23.39 37.50,36.99 Z" fill="none" stroke="#666666" stroke-width="0.8"/>
    <circle cx="28.50" cy="37.50" r="1.88" fill="#999999"/>
    <circle cx="37.50" cy="37.50" r="1.88" fill="#999999"/>
    <circle cx="46.50" cy="37.50" r="1.88" fill="#999999"/>
  </g>
</svg>