<?xml version="1.0" encoding="utf-8"?>
<svg xmlns="http://www.w3.org/2000/svg"
     width="60.0mm" height="60.0mm"
     viewBox="0 0 60.0 60.0">
  <rect width="60.0mm" height="60.0mm" fill="white"/>
  <!-- LAYER 1: outer — zewnętrzna sylwetka cuttera -->
  <g id="outer">
    <path id="outer_contour" d="M 30.0,52.0 C 22.0,48.0 4.0,38.0 4.0,22.0 C 4.0,14.0 10.0,6.0 18.5,6.0 C 23.5,6.0 27.5,9.0 30.0,13.0 C 32.5,9.0 36.5,6.0 41.5,6.0 C 50.0,6.0 56.0,14.0 56.0,22.0 C 56.0,38.0 38.0,48.0 30.0,52.0 Z" fill="none" stroke="#000000" stroke-width="1.2"/>
  </g>
  <!-- LAYER 2: stamp — wewnętrzne detale embossera -->
  <g id="stamp">
    <path id="stamp_outline" d="M 30.00,29.59 C 32.63,18.71 49.70,18.71 40.94,24.25 C 52.98,31.03 43.13,37.18 30.00,40.67 C 16.87,37.18 7.02,31.03 19.06,24.25 C 10.30,18.71 27.37,18.71 30.00,29.59 Z" fill="none" stroke="#666666" stroke-width="0.8"/>
    <circle cx="22.80" cy="30.00" r="1.50" fill="#999999"/>
    <circle cx="30.00" cy="30.00" r="1.50" fill="#999999"/>
    <circle cx="37.20" cy="30.00" r="1.50" fill="#999999"/>
  </g>
</svg>