<?xml version="1.0" encoding="utf-8"?>
<svg xmlns="http://www.w3.org/2000/svg"
     width="110.0mm" height="110.0mm"
     viewBox="0 0 110.0 110.0">
  <rect width="110.0mm" height="110.0mm" fill="white"/>
  <!-- LAYER 1: outer — zewnętrzna sylwetka cuttera -->
  <g id="outer">
    <path id="outer_contour" d="M 55.0,98.0 C 40.0,90.0 8.0,72.0 5.0,45.0 C 3.0,28.0 15.0,12.0 30.0,12.0 C 39.0,12.0 48.0,18.0 55.0,30.0 C 62.0,18.0 71.0,12.0 80.0,12.0 C 95.0,12.0 107.0,28.0 105.0,45.0 C 102.0,72.0 70.0,90.0 55.0,98.0 Z" fill="none" stroke="#000000" stroke-width="1.2"/>
  </g>
  <!-- LAYER 2: stamp — wewnętrzne detale embossera -->
  <g id="stamp">
    <path id="stamp_outline" d="M 55.00,54.25 C 59.82,34.31 91.12,34.31 75.06,44.47 C 97.13,56.88 79.08,68.17 55.00,74.56 C 30.92,68.17 12.87,56.88 34.94,44.47 C 18.88,34.31 50.18,34.31 55.00,54.25 Z" fill="none" stroke="#666666" stroke-width="0.8"/>
    <circle cx="41.80" cy="55.00" r="2.75" fill="#999999"/>
    <circle cx="55.00" cy="55.00" r="2.75" fill="#999999"/>
    <circle cx="68.20" cy="55.00" r="2.75" fill="#999999"/>
  </g>
</svg>