<?xml version="1.0" encoding="utf-8"?>
<svg xmlns="http://www.w3.org/2000/svg"
     width="150.0mm" height="150.0mm"
     viewBox="0 0 150.0 150.0">
  <rect width="150.0mm" height="150.0mm" fill="white"/>
  <!-- LAYER 1: outer — zewnętrzna sylwetka cuttera -->
  <g id="outer">
    <path id="outer_contour" d="M 75.0,68.0 C 80.0,45.0 85.0,30.0 105.0,25.0 C 125.0,20.0 142.0,35.0 140.0,55.0 C 138.0,75.0 120.0,90.0 108.0,100.0 C 100.0,106.0 88.0,118.0 75.0,135.0 C 62.0,118.0 50.0,106.0 42.0,100.0 C 30.0,90.0 12.0,75.0 10.0,55.0 C 8.0,35.0 25.0,20.0 45.0,25.0 C 65.0,30.0 70.0,45.0 75.0,68.0 Z" fill="none" stroke="#000000" stroke-width="1.2"/>
  </g>
  <!-- LAYER 2: stamp — wewnętrzne detale embossera -->
  <g id="stamp">
    <path id="stamp_outline" d="M 75.00,73.97 C 81.57,46.78 124.25,46.78 102.36,60.64 C 132.46,77.56 107.83,92.95 75.00,101.68 C 42.17,92.95 17.54,77.56 47.64,60.64 C 25.75,46.78 68.43,46.78 75.00,73.97 Z" fill="none" stroke="#666666" stroke-width="0.8"/>
    <circle cx="57.00" cy="75.00" r="3.75" fill="#999999"/>
    <circle cx="75.00" cy="75.00" r="3.75" fill="#999999"/>
    <circle cx="93.00" cy="75.00" r="3.75" fill="#999999"/>
  </g>
</svg>