<?xml version="1.0" encoding="utf-8"?>
<svg xmlns="http://www.w3.org/2000/svg"
     width="75.0mm" height="75.0mm"
     viewBox="0 0 75.0 75.0">
  <rect width="75.0mm" height="75.0mm" fill="white"/>
  <!-- LAYER 1: outer — zewnętrzna sylwetka cuttera -->
  <g id="outer">
    <path id="outer_contour" d="M 10.0,45.0 C 10.0,43.0 10.5,41.0 11.0,40.0 L 11.0,40.0 C 11.0,38.0 11.5,36.0 13.0,34.0 L 37.5,8.0 C 38.5,7.0 39.0,7.0 37.5,8.0 L 62.0,34.0 C 63.5,36.0 64.0,38.0 64.0,40.0 L 64.0,40.0 C 64.5,41.0 65.0,43.0 65.0,45.0 L 65.0,62.0 C 65.0,65.0 63.0,67.0 60.0,67.0 L 15.0,67.0 C 12.0,67.0 10.0,65.0 10.0,62.0 Z M 34.0,8.5 C 35.0,7.0 36.5,6.0 37.5,6.0 C 38.5,6.0 40.0,7.0 41.0,8.5 L 64.5,33.0 C 65.5,34.2 66.0,35.5 66.5,37.0 C 67.0,38.5 67.0,40.0 67.0,41.5 L 67.0,62.0 C 67.0,64.5 66.2,66.5 64.5,68.2 C 62.8,69.8 60.5,70.5 58.0,70.5 L 17.0,70.5 C 14.5,70.5 12.2,69.8 10.5,68.2 C 8.8,66.5 8.0,64.5 8.0,62.0 L 8.0,41.5 C 8.0,40.0 8.0,38.5 8.5,37.0 C 9.0,35.5 9.5,34.2 10.5,33.0 Z M 30.0,50.0 C 30.0,48.5 30.5,47.5 31.5,47.5 L 43.5,47.5 C 44.5,47.5 45.0,48.5 45.0,50.0 L 45.0,67.0 L 30.0,67.0 Z M 16.0,38.0 C 16.0,36.5 17.0,35.5 18.5,35.5 L 26.5,35.5 C 28.0,35.5 29.0,36.5 29.0,38.0 L 29.0,44.0 C 29.0,45.5 28.0,46.5 26.5,46.5 L 18.5,46.5 C 17.0,46.5 16.0,45.5 16.0,44.0 Z M 46.0,38.0 C 46.0,36.5 47.0,35.5 48.5,35.5 L 56.5,35.5 C 58.0,35.5 59.0,36.5 59.0,38.0 L 59.0,44.0 C 59.0,45.5 58.0,46.5 56.5,46.5 L 48.5,46.5 C 47.0,46.5 46.0,45.5 46.0,44.0 Z" fill="none" stroke="#000000" stroke-width="1.2"/>
  </g>
  <!-- LAYER 2: stamp — wewnętrzne detale embossera -->
  <g id="stamp">
    <path id="stamp_outline" d="M 37.50,21.54 C 41.09,23.08 42.63,25.13 42.63,26.67 C 42.63,30.26 40.06,31.80 42.06,31.80 L 47.76,33.40 L 47.76,36.25 L 42.06,35.39 L 42.06,39.78 L 41.49,39.78 L 41.49,47.76 L 33.51,47.76 L 33.51,39.78 L 32.94,39.78 L 32.94,35.39 L 27.24,36.25 L 27.24,33.40 L 32.94,31.80 C 34.94,31.80 32.37,30.26 32.37,26.67 C 32.37,25.13 33.91,23.08 37.50,21.54 Z" fill="none" stroke="#666666" stroke-width="0.8"/>
    <circle id="eye_l" cx="30.00" cy="31.50" r="3.00" fill="#333333"/>
    <circle id="eye_r" cx="45.00" cy="31.50" r="3.00" fill="#333333"/>
    <path id="smile" d="M 28.50,41.25 Q 37.50,46.65 46.50,41.25" fill="none" stroke="#333333" stroke-width="1.0"/>
  </g>
</svg>