<?xml version="1.0" encoding="utf-8"?>
<svg xmlns="http://www.w3.org/2000/svg"
     width="110.0mm" height="110.0mm"
     viewBox="0 0 110.0 110.0">
  <rect width="110.0mm" height="110.0mm" fill="white"/>
  <!-- LAYER 1: outer — zewnętrzna sylwetka cuttera -->
  <g id="outer">
    <path id="outer_contour" d="M 55.0,7.0 C 58.0,7.0 62.0,8.0 65.0,10.0 L 95.0,30.0 C 98.0,32.0 100.0,35.0 101.0,38.0 L 103.0,45.0 C 104.0,48.0 104.0,50.0 104.0,52.0 L 104.0,92.0 C 104.0,96.0 102.0,100.0 98.0,102.0 C 96.0,103.0 94.0,103.0 92.0,103.0 L 18.0,103.0 C 14.0,103.0 10.0,101.0 8.0,97.0 C 7.0,95.0 6.0,93.0 6.0,91.0 L 6.0,52.0 C 6.0,50.0 6.0,48.0 7.0,45.0 L 9.0,38.0 C 10.0,35.0 12.0,32.0 15.0,30.0 L 45.0,10.0 C 48.0,8.0 52.0,7.0 55.0,7.0 Z" fill="none" stroke="#000000" stroke-width="1.2"/>
  </g>
  <!-- LAYER 2: stamp — wewnętrzne detale embossera -->
  <g id="stamp">
    <path id="stamp_outline" d="M 55.00,31.59 C 60.27,33.85 62.52,36.86 62.52,39.12 C 62.52,44.38 58.76,46.64 61.69,46.64 L 70.05,48.98 L 70.05,53.16 L 61.69,51.91 L 61.69,58.34 L 60.85,58.34 L 60.85,70.05 L 49.15,70.05 L 49.15,58.34 L 48.31,58.34 L 48.31,51.91 L 39.95,53.16 L 39.95,48.98 L 48.31,46.64 C 51.24,46.64 47.48,44.38 47.48,39.12 C 47.48,36.86 49.73,33.85 55.00,31.59 Z" fill="none" stroke="#666666" stroke-width="0.8"/>
    <circle id="eye_l" cx="44.00" cy="46.20" r="4.40" fill="#333333"/>
    <circle id="eye_r" cx="66.00" cy="46.20" r="4.40" fill="#333333"/>
    <path id="smile" d="M 41.80,60.50 Q 55.00,68.42 68.20,60.50" fill="none" stroke="#333333" stroke-width="1.0"/>
  </g>
</svg>