<?xml version="1.0" encoding="utf-8"?>
<svg xmlns="http://www.w3.org/2000/svg"
     width="50.0mm" height="50.0mm"
     viewBox="0 0 50.0 50.0">
  <rect width="50.0mm" height="50.0mm" fill="white"/>
  <!-- LAYER 1: outer — zewnętrzna sylwetka cuttera -->
  <g id="outer">
    <path id="outer_contour" d="M 25.0,3.0 C 26.5,3.0 27.0,3.5 28.0,4.5 L 44.0,18.0 C 45.5,19.3 46.0,20.5 46.0,22.0 C 46.0,23.0 45.5,23.5 44.5,23.5 L 44.5,42.0 C 44.5,44.5 43.0,46.0 40.5,46.0 L 9.5,46.0 C 7.0,46.0 5.5,44.5 5.5,42.0 L 5.5,23.5 C 4.5,23.5 4.0,23.0 4.0,22.0 C 4.0,20.5 4.5,19.3 6.0,18.0 L 22.0,4.5 C 23.0,3.5 23.5,3.0 25.0,3.0 Z" fill="none" stroke="#000000" stroke-width="1.2"/>
  </g>
  <!-- LAYER 2: stamp — wewnętrzne detale embossera -->
  <g id="stamp">
    <path id="stamp_outline" d="M 25.00,14.36 C 27.39,15.39 28.42,16.75 28.42,17.78 C 28.42,20.17 26.71,21.20 28.04,21.20 L 31.84,22.26 L 31.84,24.16 L 28.04,23.59 L 28.04,26.52 L 27.66,26.52 L 27.66,31.84 L 22.34,31.84 L 22.34,26.52 L 21.96,26.52 L 21.96,23.59 L 18.16,24.16 L 18.16,22.26 L 21.96,21.20 C 23.29,21.20 21.58,20.17 21.58,17.78 C 21.58,16.75 22.61,15.39 25.00,14.36 Z" fill="none" stroke="#666666" stroke-width="0.8"/>
    <circle id="eye_l" cx="20.00" cy="21.00" r="2.50" fill="#333333"/>
    <circle id="eye_r" cx="30.00" cy="21.00" r="2.50" fill="#333333"/>
    <path id="smile" d="M 19.00,27.50 Q 25.00,31.10 31.00,27.50" fill="none" stroke="#333333" stroke-width="1.0"/>
  </g>
</svg>