<?xml version="1.0" encoding="utf-8"?>
<svg xmlns="http://www.w3.org/2000/svg"
     width="150.0mm" height="150.0mm"
     viewBox="0 0 150.0 150.0">
  <rect width="150.0mm" height="150.0mm" fill="white"/>
  <!-- LAYER 1: outer — zewnętrzna sylwetka cuttera -->
  <g id="outer">
    <path id="outer_contour" d="M 75.0,8.0 C 80.0,8.0 85.0,10.0 90.0,12.0 L 130.0,45.0 C 133.0,47.5 136.0,50.0 136.0,54.0 L 136.0,56.0 C 136.0,58.0 135.0,59.0 133.0,59.0 L 130.0,59.0 L 130.0,120.0 C 130.0,126.0 128.0,130.0 124.0,133.0 C 120.0,136.0 116.0,138.0 110.0,138.0 L 40.0,138.0 C 34.0,138.0 30.0,136.0 26.0,133.0 C 22.0,130.0 20.0,126.0 20.0,120.0 L 20.0,59.0 L 17.0,59.0 C 15.0,59.0 14.0,58.0 14.0,56.0 L 14.0,54.0 C 14.0,50.0 17.0,47.5 20.0,45.0 L 60.0,12.0 C 65.0,10.0 70.0,8.0 75.0,8.0 Z" fill="none" stroke="#000000" stroke-width="1.2"/>
  </g>
  <!-- LAYER 2: stamp — wewnętrzne detale embossera -->
  <g id="stamp">
    <path id="stamp_outline" d="M 75.00,43.08 C 82.18,46.16 85.26,50.26 85.26,53.34 C 85.26,60.52 80.13,63.60 84.12,63.60 L 95.52,66.79 L 95.52,72.49 L 84.12,70.78 L 84.12,79.56 L 82.98,79.56 L 82.98,95.52 L 67.02,95.52 L 67.02,79.56 L 65.88,79.56 L 65.88,70.78 L 54.48,72.49 L 54.48,66.79 L 65.88,63.60 C 69.87,63.60 64.74,60.52 64.74,53.34 C 64.74,50.26 67.82,46.16 75.00,43.08 Z" fill="none" stroke="#666666" stroke-width="0.8"/>
    <circle id="eye_l" cx="60.00" cy="63.00" r="6.00" fill="#333333"/>
    <circle id="eye_r" cx="90.00" cy="63.00" r="6.00" fill="#333333"/>
    <path id="smile" d="M 57.00,82.50 Q 75.00,93.30 93.00,82.50" fill="none" stroke="#333333" stroke-width="1.0"/>
  </g>
</svg>