<?xml version="1.0" encoding="utf-8"?>
<svg xmlns="http://www.w3.org/2000/svg"
     width="90.0mm" height="90.0mm"
     viewBox="0 0 90.0 90.0">
  <rect width="90.0mm" height="90.0mm" fill="white"/>
  <!-- LAYER 1: outer — zewnętrzna sylwetka cuttera -->
  <g id="outer">
    <path id="outer_contour" d="M 45.0,6.0 C 55.0,6.0 63.0,10.0 68.0,16.0 C 73.0,16.0 79.0,18.0 83.0,23.0 C 87.0,28.0 88.0,34.0 86.0,40.0 C 88.0,46.0 88.0,53.0 84.0,58.0 C 80.0,63.0 75.0,65.0 69.0,65.0 C 65.0,71.0 58.0,76.0 50.0,78.0 C 48.0,78.5 46.0,79.0 45.0,84.0 C 44.0,79.0 42.0,78.5 40.0,78.0 C 32.0,76.0 25.0,71.0 21.0,65.0 C 15.0,65.0 10.0,63.0 6.0,58.0 C 2.0,53.0 2.0,46.0 4.0,40.0 C 2.0,34.0 3.0,28.0 7.0,23.0 C 11.0,18.0 17.0,16.0 22.0,16.0 C 27.0,10.0 35.0,6.0 45.0,6.0 Z" fill="none" stroke="#000000" stroke-width="1.2"/>
  </g>
  <!-- LAYER 2: stamp — wewnętrzne detale embossera -->
  <g id="stamp">
    <path id="stamp_outline" d="M 59.22,53.21 L 45.00,61.42 L 30.78,53.21 L 30.78,36.79 L 45.00,28.58 L 59.22,36.79 Z" fill="none" stroke="#666666" stroke-width="0.8"/>
  </g>
</svg>