<?xml version="1.0" encoding="utf-8"?>
<svg xmlns="http://www.w3.org/2000/svg"
     width="75.0mm" height="75.0mm"
     viewBox="0 0 75.0 75.0">
  <rect width="75.0mm" height="75.0mm" fill="white"/>
  <!-- LAYER 1: outer — zewnętrzna sylwetka cuttera -->
  <g id="outer">
    <path id="outer_contour" d="M 37.5,5.5 C 39.5,5.5 43.2,11.8 45.8,14.2 C 48.4,16.6 55.8,14.0 57.8,15.2 C 59.8,16.4 58.2,23.8 59.0,26.8 C 59.8,29.8 66.0,34.0 66.0,36.2 C 66.0,38.4 59.8,42.0 59.0,45.0 C 58.2,48.0 59.8,55.4 57.8,56.6 C 55.8,57.8 48.4,55.2 45.8,57.6 C 43.2,60.0 39.5,66.3 37.5,66.3 C 35.5,66.3 31.8,60.0 29.2,57.6 C 26.6,55.2 19.2,57.8 17.2,56.6 C 15.2,55.4 16.8,48.0 16.0,45.0 C 15.2,42.0 9.0,38.4 9.0,36.2 C 9.0,34.0 15.2,29.8 16.0,26.8 C 16.8,23.8 15.2,16.4 17.2,15.2 C 19.2,14.0 26.6,16.6 29.2,14.2 C 31.8,11.8 35.5,5.5 37.5,5.5 Z M 37.5,19.0 C 36.2,19.0 27.0,36.2 27.0,37.5 C 27.0,38.2 28.5,38.8 29.5,38.8 L 45.5,38.8 C 46.5,38.8 48.0,38.2 48.0,37.5 C 48.0,36.2 38.8,19.0 37.5,19.0 Z M 37.5,56.0 C 38.8,56.0 48.0,38.8 48.0,37.5 C 48.0,36.8 46.5,36.2 45.5,36.2 L 29.5,36.2 C 28.5,36.2 27.0,36.8 27.0,37.5 C 27.0,38.8 36.2,56.0 37.5,56.0 Z M 24.5,25.0 L 22.0,29.5 C 21.2,30.9 20.0,33.5 20.0,35.0 C 20.0,36.0 20.8,36.8 21.8,36.8 L 26.8,36.8 C 27.8,36.8 28.5,36.0 28.0,35.0 L 24.5,25.0 Z M 50.5,25.0 L 47.0,35.0 C 46.5,36.0 47.2,36.8 48.2,36.8 L 53.2,36.8 C 54.2,36.8 55.0,36.0 55.0,35.0 C 55.0,33.5 53.8,30.9 53.0,29.5 L 50.5,25.0 Z M 24.5,50.0 L 26.8,38.2 C 27.2,37.2 26.5,36.5 25.5,36.8 L 21.8,38.2 C 20.8,38.5 20.0,39.5 20.0,40.5 C 20.0,42.0 21.5,46.0 22.5,47.8 L 24.5,50.0 Z M 50.5,50.0 L 52.5,47.8 C 53.5,46.0 55.0,42.0 55.0,40.5 C 55.0,39.5 54.2,38.5 53.2,38.2 L 49.5,36.8 C 48.5,36.5 47.8,37.2 48.2,38.2 L 50.5,50.0 Z" fill="none" stroke="#000000" stroke-width="1.2"/>
  </g>
  <!-- LAYER 2: stamp — wewnętrzne detale embossera -->
  <g id="stamp">
    <path id="stamp_outline" d="M 49.35,44.34 L 37.50,51.18 L 25.65,44.34 L 25.65,30.66 L 37.50,23.82 L 49.35,30.66 Z" fill="none" stroke="#666666" stroke-width="0.8"/>
  </g>
</svg>