<?xml version="1.0" encoding="utf-8"?>
<svg xmlns="http://www.w3.org/2000/svg"
     width="75.0mm" height="75.0mm"
     viewBox="0 0 75.0 75.0">
  <rect width="75.0mm" height="75.0mm" fill="white"/>
  <!-- LAYER 1: outer — zewnętrzna sylwetka cuttera -->
  <g id="outer">
    <path id="outer_contour" d="M 37.5,5.0 C 45.0,5.0 52.0,8.0 57.5,13.0 C 63.0,18.0 66.5,25.0 67.5,32.0 C 68.5,39.0 68.0,44.0 65.5,49.5 C 63.0,55.0 59.0,59.5 54.0,62.5 C 49.0,65.5 44.5,68.0 37.5,68.0 C 30.5,68.0 26.0,65.5 21.0,62.5 C 16.0,59.5 12.0,55.0 9.5,49.5 C 7.0,44.0 6.5,39.0 7.5,32.0 C 8.5,25.0 12.0,18.0 17.5,13.0 C 23.0,8.0 30.0,5.0 37.5,5.0 Z" fill="none" stroke="#000000" stroke-width="1.2"/>
  </g>
  <!-- LAYER 2: stamp — wewnętrzne detale embossera -->
  <g id="stamp">
    <path id="stamp_outline" d="M 49.35,44.34 L 37.50,51.18 L 25.65,44.34 L 25.65,30.66 L 37.50,23.82 L 49.35,30.66 Z" fill="none" stroke="#666666" stroke-width="0.8"/>
  </g>
</svg>