<?xml version="1.0" encoding="utf-8"?>
<svg xmlns="http://www.w3.org/2000/svg"
     width="60.0mm" height="60.0mm"
     viewBox="0 0 60.0 60.0">
  <rect width="60.0mm" height="60.0mm" fill="white"/>
  <!-- LAYER 1: outer — zewnętrzna sylwetka cuttera -->
  <g id="outer">
    <path id="outer_contour" d="M 30.0,4.0 C 38.0,4.0 45.0,6.5 50.0,11.0 C 55.0,15.5 57.5,22.0 57.5,28.0 C 57.5,34.0 56.0,38.5 52.5,43.0 C 49.0,47.5 44.0,51.0 38.5,53.5 C 35.5,54.8 32.5,55.5 30.0,55.5 C 27.5,55.5 24.5,54.8 21.5,53.5 C 16.0,51.0 11.0,47.5 7.5,43.0 C 4.0,38.5 2.5,34.0 2.5,28.0 C 2.5,22.0 5.0,15.5 10.0,11.0 C 15.0,6.5 22.0,4.0 30.0,4.0 Z" fill="none" stroke="#000000" stroke-width="1.2"/>
  </g>
  <!-- LAYER 2: stamp — wewnętrzne detale embossera -->
  <g id="stamp">
    <path id="stamp_outline" d="M 39.48,35.47 L 30.00,40.94 L 20.52,35.47 L 20.52,24.53 L 30.00,19.06 L 39.48,24.53 Z" fill="none" stroke="#666666" stroke-width="0.8"/>
  </g>
</svg>