<?xml version="1.0" encoding="utf-8"?>
<svg xmlns="http://www.w3.org/2000/svg"
     width="110.0mm" height="110.0mm"
     viewBox="0 0 110.0 110.0">
  <rect width="110.0mm" height="110.0mm" fill="white"/>
  <!-- LAYER 1: outer — zewnętrzna sylwetka cuttera -->
  <g id="outer">
    <path id="outer_contour" d="M 55.0,7.0 C 62.0,7.0 68.0,10.0 72.0,15.0 L 78.0,10.0 C 82.0,7.5 88.0,8.0 91.0,12.0 C 94.0,16.0 93.0,22.0 89.0,25.0 L 84.0,28.5 C 92.0,34.0 98.0,42.0 100.5,51.0 C 103.5,62.0 106.0,68.0 104.0,78.0 C 102.0,88.0 95.0,96.0 85.0,100.0 C 75.0,104.0 65.0,103.5 55.0,103.0 C 45.0,103.5 35.0,104.0 25.0,100.0 C 15.0,96.0 8.0,88.0 6.0,78.0 C 4.0,68.0 6.5,62.0 9.5,51.0 C 12.0,42.0 18.0,34.0 26.0,28.5 L 21.0,25.0 C 17.0,22.0 16.0,16.0 19.0,12.0 C 22.0,8.0 28.0,7.5 32.0,10.0 L 38.0,15.0 C 42.0,10.0 48.0,7.0 55.0,7.0 Z" fill="none" stroke="#000000" stroke-width="1.2"/>
  </g>
  <!-- LAYER 2: stamp — wewnętrzne detale embossera -->
  <g id="stamp">
    <path id="stamp_outline" d="M 72.38,65.03 L 55.00,75.06 L 37.62,65.03 L 37.62,44.97 L 55.00,34.94 L 72.38,44.97 Z" fill="none" stroke="#666666" stroke-width="0.8"/>
  </g>
</svg>