<?xml version="1.0" encoding="utf-8"?>
<svg xmlns="http://www.w3.org/2000/svg"
     width="50.0mm" height="50.0mm"
     viewBox="0 0 50.0 50.0">
  <rect width="50.0mm" height="50.0mm" fill="white"/>
  <!-- LAYER 1: outer — zewnętrzna sylwetka cuttera -->
  <g id="outer">
    <path id="outer_contour" d="M 25.0,3.5 C 30.2,3.5 35.0,5.8 38.5,9.5 C 42.0,13.2 44.5,17.8 45.5,22.0 C 46.5,26.2 46.8,31.0 44.5,35.5 C 42.2,40.0 38.5,43.5 34.0,45.5 C 29.5,47.5 26.0,47.0 25.0,46.5 C 24.0,47.0 20.5,47.5 16.0,45.5 C 11.5,43.5 7.8,40.0 5.5,35.5 C 3.2,31.0 3.5,26.2 4.5,22.0 C 5.5,17.8 8.0,13.2 11.5,9.5 C 15.0,5.8 19.8,3.5 25.0,3.5 Z" fill="none" stroke="#000000" stroke-width="1.2"/>
  </g>
  <!-- LAYER 2: stamp — wewnętrzne detale embossera -->
  <g id="stamp">
    <path id="stamp_outline" d="M 32.90,29.56 L 25.00,34.12 L 17.10,29.56 L 17.10,20.44 L 25.00,15.88 L 32.90,20.44 Z" fill="none" stroke="#666666" stroke-width="0.8"/>
  </g>
</svg>