<?xml version="1.0" encoding="utf-8"?>
<svg xmlns="http://www.w3.org/2000/svg"
     width="90.0mm" height="90.0mm"
     viewBox="0 0 90.0 90.0">
  <rect width="90.0mm" height="90.0mm" fill="white"/>
  <!-- LAYER 1: outer — zewnętrzna sylwetka cuttera -->
  <g id="outer">
    <path id="outer_contour" d="M 45.0,5.0 C 38.0,5.0 28.0,8.0 22.0,14.0 C 16.0,20.0 12.0,26.0 8.0,32.0 C 4.0,38.0 3.0,42.0 5.0,48.0 C 7.0,54.0 10.0,58.0 14.0,62.0 C 12.0,64.0 10.0,67.0 10.0,70.0 C 10.0,74.0 13.0,76.0 16.0,76.0 C 18.0,76.0 20.0,75.0 22.0,73.0 C 26.0,78.0 32.0,82.0 38.0,84.0 C 41.0,85.0 43.0,86.0 45.0,86.0 C 47.0,86.0 49.0,85.0 52.0,84.0 C 58.0,82.0 64.0,78.0 68.0,73.0 C 70.0,75.0 72.0,76.0 74.0,76.0 C 77.0,76.0 80.0,74.0 80.0,70.0 C 80.0,67.0 78.0,64.0 76.0,62.0 C 80.0,58.0 83.0,54.0 85.0,48.0 C 87.0,42.0 86.0,38.0 82.0,32.0 C 78.0,26.0 74.0,20.0 68.0,14.0 C 62.0,8.0 52.0,5.0 45.0,5.0 Z" fill="none" stroke="#000000" stroke-width="1.2"/>
  </g>
  <!-- LAYER 2: stamp — wewnętrzne detale embossera -->
  <g id="stamp">
    <path id="stamp_outline" d="M 45.00,60.05 C 51.40,60.05 56.63,53.28 56.63,45.00 C 56.63,36.72 51.40,29.95 51.84,29.95 L 48.42,23.80 L 45.00,29.95 L 41.58,23.80 L 38.16,29.95 C 38.60,29.95 33.37,36.72 33.37,45.00 C 33.37,53.28 38.60,60.05 45.00,60.05 Z" fill="none" stroke="#666666" stroke-width="0.8"/>
    <circle id="eye_l" cx="36.00" cy="37.80" r="3.60" fill="#333333"/>
    <circle id="eye_r" cx="54.00" cy="37.80" r="3.60" fill="#333333"/>
    <path id="smile" d="M 34.20,49.50 Q 45.00,55.98 55.80,49.50" fill="none" stroke="#333333" stroke-width="1.0"/>
  </g>
</svg>