<?xml version="1.0" encoding="utf-8"?>
<svg xmlns="http://www.w3.org/2000/svg"
     width="75.0mm" height="75.0mm"
     viewBox="0 0 75.0 75.0">
  <rect width="75.0mm" height="75.0mm" fill="white"/>
  <!-- LAYER 1: outer — zewnętrzna sylwetka cuttera -->
  <g id="outer">
    <path id="outer_contour" d="M 37.5,5.5 C 28.0,5.5 22.0,8.0 18.0,12.0 C 14.0,16.0 10.0,14.0 7.0,10.0 C 5.0,12.0 6.0,18.0 10.0,22.0 C 12.0,24.0 12.5,27.0 12.0,30.0 C 10.0,35.0 8.0,42.0 10.0,50.0 C 12.0,58.0 20.0,65.0 28.0,68.0 C 32.0,69.5 35.0,70.0 37.5,70.0 C 40.0,70.0 43.0,69.5 47.0,68.0 C 55.0,65.0 63.0,58.0 65.0,50.0 C 67.0,42.0 65.0,35.0 63.0,30.0 C 62.5,27.0 63.0,24.0 65.0,22.0 C 69.0,18.0 70.0,12.0 68.0,10.0 C 65.0,14.0 61.0,16.0 57.0,12.0 C 53.0,8.0 47.0,5.5 37.5,5.5 Z M 20.0,32.0 C 22.0,26.0 27.0,24.0 31.0,25.0 C 35.0,26.0 37.0,30.0 36.0,34.0 C 35.0,38.0 31.0,41.0 27.0,41.0 C 23.0,41.0 19.0,38.0 18.5,34.0 C 18.3,33.3 18.8,32.5 20.0,32.0 Z M 55.0,32.0 C 53.0,26.0 48.0,24.0 44.0,25.0 C 40.0,26.0 38.0,30.0 39.0,34.0 C 40.0,38.0 44.0,41.0 48.0,41.0 C 52.0,41.0 56.0,38.0 56.5,34.0 C 56.7,33.3 56.2,32.5 55.0,32.0 Z M 34.0,44.0 C 35.0,43.0 36.5,42.5 37.5,42.5 C 38.5,42.5 40.0,43.0 41.0,44.0 C 42.0,45.5 41.0,47.5 39.5,48.0 C 38.5,48.5 37.5,49.0 37.5,49.0 C 37.5,49.0 36.5,48.5 35.5,48.0 C 34.0,47.5 33.0,45.5 34.0,44.0 Z M 25.0,52.0 C 28.0,50.0 33.0,54.0 37.5,56.0 C 42.0,54.0 47.0,50.0 50.0,52.0 C 52.0,53.5 50.0,57.0 46.0,60.0 C 43.0,62.0 40.0,63.0 37.5,63.0 C 35.0,63.0 32.0,62.0 29.0,60.0 C 25.0,57.0 23.0,53.5 25.0,52.0 Z" fill="none" stroke="#000000" stroke-width="1.2"/>
  </g>
  <!-- LAYER 2: stamp — wewnętrzne detale embossera -->
  <g id="stamp">
    <path id="stamp_outline" d="M 37.50,50.04 C 42.83,50.04 47.19,44.40 47.19,37.50 C 47.19,30.60 42.83,24.96 43.20,24.96 L 40.35,19.83 L 37.50,24.96 L 34.65,19.83 L 31.80,24.96 C 32.17,24.96 27.81,30.60 27.81,37.50 C 27.81,44.40 32.17,50.04 37.50,50.04 Z" fill="none" stroke="#666666" stroke-width="0.8"/>
    <circle id="eye_l" cx="30.00" cy="31.50" r="3.00" fill="#333333"/>
    <circle id="eye_r" cx="45.00" cy="31.50" r="3.00" fill="#333333"/>
    <path id="smile" d="M 28.50,41.25 Q 37.50,46.65 46.50,41.25" fill="none" stroke="#333333" stroke-width="1.0"/>
  </g>
</svg>