<?xml version="1.0" encoding="utf-8"?>
<svg xmlns="http://www.w3.org/2000/svg"
     width="60.0mm" height="60.0mm"
     viewBox="0 0 60.0 60.0">
  <rect width="60.0mm" height="60.0mm" fill="white"/>
  <!-- LAYER 1: outer — zewnętrzna sylwetka cuttera -->
  <g id="outer">
    <path id="outer_contour" d="M 30.0,4.0 C 24.0,4.0 18.0,6.0 14.0,10.0 C 10.0,10.0 4.0,14.0 4.0,20.0 C 4.0,24.0 6.0,27.0 9.0,29.0 C 7.0,32.0 6.0,36.0 6.0,40.0 C 6.0,50.0 16.0,56.0 30.0,56.0 C 44.0,56.0 54.0,50.0 54.0,40.0 C 54.0,36.0 53.0,32.0 51.0,29.0 C 54.0,27.0 56.0,24.0 56.0,20.0 C 56.0,14.0 50.0,10.0 46.0,10.0 C 42.0,6.0 36.0,4.0 30.0,4.0 Z" fill="none" stroke="#000000" stroke-width="1.2"/>
  </g>
  <!-- LAYER 2: stamp — wewnętrzne detale embossera -->
  <g id="stamp">
    <path id="stamp_outline" d="M 30.00,40.03 C 34.26,40.03 37.75,35.52 37.75,30.00 C 37.75,24.48 34.26,19.97 34.56,19.97 L 32.28,15.86 L 30.00,19.97 L 27.72,15.86 L 25.44,19.97 C 25.74,19.97 22.25,24.48 22.25,30.00 C 22.25,35.52 25.74,40.03 30.00,40.03 Z" fill="none" stroke="#666666" stroke-width="0.8"/>
    <circle id="eye_l" cx="24.00" cy="25.20" r="2.50" fill="#333333"/>
    <circle id="eye_r" cx="36.00" cy="25.20" r="2.50" fill="#333333"/>
    <path id="smile" d="M 22.80,33.00 Q 30.00,37.32 37.20,33.00" fill="none" stroke="#333333" stroke-width="1.0"/>
  </g>
</svg>