<?xml version="1.0" encoding="utf-8"?>
<svg xmlns="http://www.w3.org/2000/svg"
     width="110.0mm" height="110.0mm"
     viewBox="0 0 110.0 110.0">
  <rect width="110.0mm" height="110.0mm" fill="white"/>
  <!-- LAYER 1: outer — zewnętrzna sylwetka cuttera -->
  <g id="outer">
    <path id="outer_contour" d="M 55.0,6.0 C 40.0,6.0 28.0,12.0 20.0,22.0 C 14.0,29.0 8.0,38.0 8.0,50.0 C 8.0,62.0 12.0,72.0 20.0,80.0 C 28.0,88.0 38.0,95.0 42.0,100.0 C 44.0,102.0 46.0,104.0 48.0,104.0 C 50.0,104.0 52.0,102.0 52.0,100.0 L 52.0,96.0 C 53.0,96.5 54.0,96.5 55.0,96.5 C 56.0,96.5 57.0,96.5 58.0,96.0 L 58.0,100.0 C 58.0,102.0 60.0,104.0 62.0,104.0 C 64.0,104.0 66.0,102.0 68.0,100.0 C 72.0,95.0 82.0,88.0 90.0,80.0 C 98.0,72.0 102.0,62.0 102.0,50.0 C 102.0,38.0 96.0,29.0 90.0,22.0 C 82.0,12.0 70.0,6.0 55.0,6.0 Z" fill="none" stroke="#000000" stroke-width="1.2"/>
  </g>
  <!-- LAYER 2: stamp — wewnętrzne detale embossera -->
  <g id="stamp">
    <path id="stamp_outline" d="M 55.00,73.39 C 62.82,73.39 69.21,65.12 69.21,55.00 C 69.21,44.88 62.82,36.61 63.36,36.61 L 59.18,29.08 L 55.00,36.61 L 50.82,29.08 L 46.64,36.61 C 47.18,36.61 40.79,44.88 40.79,55.00 C 40.79,65.12 47.18,73.39 55.00,73.39 Z" fill="none" stroke="#666666" stroke-width="0.8"/>
    <circle id="eye_l" cx="44.00" cy="46.20" r="4.40" fill="#333333"/>
    <circle id="eye_r" cx="66.00" cy="46.20" r="4.40" fill="#333333"/>
    <path id="smile" d="M 41.80,60.50 Q 55.00,68.42 68.20,60.50" fill="none" stroke="#333333" stroke-width="1.0"/>
  </g>
</svg>