<?xml version="1.0" encoding="utf-8"?>
<svg xmlns="http://www.w3.org/2000/svg"
     width="50.0mm" height="50.0mm"
     viewBox="0 0 50.0 50.0">
  <rect width="50.0mm" height="50.0mm" fill="white"/>
  <!-- LAYER 1: outer — zewnętrzna sylwetka cuttera -->
  <g id="outer">
    <path id="outer_contour" d="M 25.0,2.5 C 20.0,2.5 15.0,4.0 11.0,7.0 C 7.0,10.0 4.0,14.0 3.0,19.0 C 2.0,24.0 2.5,29.0 5.0,33.0 C 7.5,37.0 11.0,40.0 15.0,42.0 C 16.5,42.8 17.5,44.0 19.0,45.5 C 20.5,47.0 22.0,48.0 25.0,48.0 C 28.0,48.0 29.5,47.0 31.0,45.5 C 32.5,44.0 33.5,42.8 35.0,42.0 C 39.0,40.0 42.5,37.0 45.0,33.0 C 47.5,29.0 48.0,24.0 47.0,19.0 C 46.0,14.0 43.0,10.0 39.0,7.0 C 35.0,4.0 30.0,2.5 25.0,2.5 L 25.0,2.5 C 22.0,2.5 18.0,3.5 15.5,5.5 C 12.0,8.5 8.0,6.0 5.5,9.5 C 3.5,12.5 3.0,14.0 3.5,17.0 L 7.0,13.0 C 8.0,11.5 9.5,10.0 11.5,9.5 C 13.5,9.0 15.5,10.0 17.0,12.0 C 18.5,14.0 18.0,17.0 16.5,19.5 C 15.0,22.0 12.5,23.0 10.0,22.5 C 8.0,22.0 6.5,20.5 6.0,18.5 C 5.5,21.0 6.5,24.0 9.0,26.0 C 11.5,28.0 14.5,28.5 17.0,27.5 C 19.0,26.7 20.5,25.0 21.5,23.0 C 22.5,25.0 24.0,26.5 25.0,27.0 C 26.0,26.5 27.5,25.0 28.5,23.0 C 29.5,25.0 31.0,26.7 33.0,27.5 C 35.5,28.5 38.5,28.0 41.0,26.0 C 43.5,24.0 44.5,21.0 44.0,18.5 C 43.5,20.5 42.0,22.0 40.0,22.5 C 37.5,23.0 35.0,22.0 33.5,19.5 C 32.0,17.0 31.5,14.0 33.0,12.0 C 34.5,10.0 36.5,9.0 38.5,9.5 C 40.5,10.0 42.0,11.5 43.0,13.0 L 46.5,17.0 C 47.0,14.0 46.5,12.5 44.5,9.5 C 42.0,6.0 38.0,8.5 34.5,5.5 C 32.0,3.5 28.0,2.5 25.0,2.5 Z" fill="none" stroke="#000000" stroke-width="1.2"/>
  </g>
  <!-- LAYER 2: stamp — wewnętrzne detale embossera -->
  <g id="stamp">
    <path id="stamp_outline" d="M 25.00,33.36 C 28.55,33.36 31.46,29.60 31.46,25.00 C 31.46,20.40 28.55,16.64 28.80,16.64 L 26.90,13.22 L 25.00,16.64 L 23.10,13.22 L 21.20,16.64 C 21.45,16.64 18.54,20.40 18.54,25.00 C 18.54,29.60 21.45,33.36 25.00,33.36 Z" fill="none" stroke="#666666" stroke-width="0.8"/>
    <circle id="eye_l" cx="20.00" cy="21.00" r="2.50" fill="#333333"/>
    <circle id="eye_r" cx="30.00" cy="21.00" r="2.50" fill="#333333"/>
    <path id="smile" d="M 19.00,27.50 Q 25.00,31.10 31.00,27.50" fill="none" stroke="#333333" stroke-width="1.0"/>
  </g>
</svg>