<?xml version="1.0" encoding="utf-8"?>
<svg xmlns="http://www.w3.org/2000/svg"
     width="150.0mm" height="150.0mm"
     viewBox="0 0 150.0 150.0">
  <rect width="150.0mm" height="150.0mm" fill="white"/>
  <!-- LAYER 1: outer — zewnętrzna sylwetka cuttera -->
  <g id="outer">
    <path id="outer_contour" d="M 75.0,8.0 C 85.0,8.0 95.0,12.0 102.0,18.0 C 106.0,14.0 112.0,10.0 120.0,10.0 C 132.0,10.0 140.0,20.0 142.0,32.0 C 144.0,44.0 138.0,52.0 130.0,56.0 C 140.0,64.0 146.0,78.0 144.0,92.0 C 142.0,106.0 134.0,116.0 124.0,122.0 C 120.0,130.0 112.0,136.0 102.0,140.0 C 96.0,142.0 88.0,144.0 82.0,144.0 L 68.0,144.0 C 62.0,144.0 54.0,142.0 48.0,140.0 C 38.0,136.0 30.0,130.0 26.0,122.0 C 16.0,116.0 8.0,106.0 6.0,92.0 C 4.0,78.0 10.0,64.0 20.0,56.0 C 12.0,52.0 6.0,44.0 8.0,32.0 C 10.0,20.0 18.0,10.0 30.0,10.0 C 38.0,10.0 44.0,14.0 48.0,18.0 C 55.0,12.0 65.0,8.0 75.0,8.0 Z" fill="none" stroke="#000000" stroke-width="1.2"/>
  </g>
  <!-- LAYER 2: stamp — wewnętrzne detale embossera -->
  <g id="stamp">
    <path id="stamp_outline" d="M 75.00,100.08 C 85.66,100.08 94.38,88.79 94.38,75.00 C 94.38,61.21 85.66,49.92 86.40,49.92 L 80.70,39.66 L 75.00,49.92 L 69.30,39.66 L 63.60,49.92 C 64.34,49.92 55.62,61.21 55.62,75.00 C 55.62,88.79 64.34,100.08 75.00,100.08 Z" fill="none" stroke="#666666" stroke-width="0.8"/>
    <circle id="eye_l" cx="60.00" cy="63.00" r="6.00" fill="#333333"/>
    <circle id="eye_r" cx="90.00" cy="63.00" r="6.00" fill="#333333"/>
    <path id="smile" d="M 57.00,82.50 Q 75.00,93.30 93.00,82.50" fill="none" stroke="#333333" stroke-width="1.0"/>
  </g>
</svg>