<?xml version="1.0" encoding="utf-8"?>
<svg xmlns="http://www.w3.org/2000/svg"
     width="90.0mm" height="90.0mm"
     viewBox="0 0 90.0 90.0">
  <rect width="90.0mm" height="90.0mm" fill="white"/>
  <!-- LAYER 1: outer — zewnętrzna sylwetka cuttera -->
  <g id="outer">
    <path id="outer_contour" d="M 45.0,5.0 C 40.0,5.0 35.0,7.0 32.0,10.0 C 29.0,7.5 25.0,6.0 22.0,8.0 C 19.0,10.0 19.5,14.0 21.0,17.0 C 15.0,16.0 10.0,17.0 8.0,20.0 C 6.0,23.0 8.0,27.0 11.0,30.0 C 6.0,32.0 3.0,36.0 3.0,40.0 C 3.0,44.0 5.0,48.0 9.0,52.0 C 13.0,56.0 18.0,60.0 23.0,64.0 C 28.0,68.0 33.0,72.0 37.0,76.0 C 40.0,79.0 42.5,82.0 45.0,85.0 C 47.5,82.0 50.0,79.0 53.0,76.0 C 57.0,72.0 62.0,68.0 67.0,64.0 C 72.0,60.0 77.0,56.0 81.0,52.0 C 85.0,48.0 87.0,44.0 87.0,40.0 C 87.0,36.0 84.0,32.0 79.0,30.0 C 82.0,27.0 84.0,23.0 82.0,20.0 C 80.0,17.0 75.0,16.0 69.0,17.0 C 70.5,14.0 71.0,10.0 68.0,8.0 C 65.0,6.0 61.0,7.5 58.0,10.0 C 55.0,7.0 50.0,5.0 45.0,5.0 Z" fill="none" stroke="#000000" stroke-width="1.2"/>
  </g>
  <!-- LAYER 2: stamp — wewnętrzne detale embossera -->
  <g id="stamp">
    <path id="stamp_outline" d="M 45.00,53.21 C 52.52,46.64 60.05,43.36 57.04,36.79 C 58.54,35.15 51.02,34.33 45.00,36.79 C 38.98,34.33 31.46,35.15 32.96,36.79 C 29.95,43.36 37.48,46.64 45.00,53.21 Z" fill="none" stroke="#666666" stroke-width="0.8"/>
    <circle cx="34.20" cy="45.00" r="2.25" fill="#999999"/>
    <circle cx="45.00" cy="45.00" r="2.25" fill="#999999"/>
    <circle cx="55.80" cy="45.00" r="2.25" fill="#999999"/>
  </g>
</svg>