<?xml version="1.0" encoding="utf-8"?>
<svg xmlns="http://www.w3.org/2000/svg"
     width="75.0mm" height="75.0mm"
     viewBox="0 0 75.0 75.0">
  <rect width="75.0mm" height="75.0mm" fill="white"/>
  <!-- LAYER 1: outer — zewnętrzna sylwetka cuttera -->
  <g id="outer">
    <path id="outer_contour" d="M 37.5,3 C 40.5,3 43,4.5 45,6.5 C 47,4.5 50,3.5 53,5 C 56,6.5 56.5,10 55,13 C 53.5,10.5 50.5,9 48,10 C 50,12 51,14.5 51.5,17 C 55,18 58.5,20 61.5,23 C 66,27.5 69,33 70,39 C 71,45 70,51 66.5,55.5 C 63,60 58,63.5 52,65.5 C 46,67.5 40,68 37.5,68 C 35,68 29,67.5 23,65.5 C 17,63.5 12,60 8.5,55.5 C 5,51 4,45 5,39 C 6,33 9,27.5 13.5,23 C 16.5,20 20,18 23.5,17 C 24,14.5 25,12 27,10 C 24.5,9 21.5,10.5 20,13 C 18.5,10 19,6.5 22,5 C 25,3.5 28,4.5 30,6.5 C 32,4.5 34.5,3 37.5,3 Z" fill="none" stroke="#000000" stroke-width="1.2"/>
  </g>
  <!-- LAYER 2: stamp — wewnętrzne detale embossera -->
  <g id="stamp">
    <path id="stamp_outline" d="M 37.50,44.34 C 43.77,38.87 50.04,36.13 47.53,30.66 C 48.79,29.29 42.52,28.61 37.50,30.66 C 32.48,28.61 26.21,29.29 27.47,30.66 C 24.96,36.13 31.23,38.87 37.50,44.34 Z" fill="none" stroke="#666666" stroke-width="0.8"/>
    <circle cx="28.50" cy="37.50" r="1.88" fill="#999999"/>
    <circle cx="37.50" cy="37.50" r="1.88" fill="#999999"/>
    <circle cx="46.50" cy="37.50" r="1.88" fill="#999999"/>
  </g>
</svg>