<?xml version="1.0" encoding="utf-8"?>
<svg xmlns="http://www.w3.org/2000/svg"
     width="75.0mm" height="75.0mm"
     viewBox="0 0 75.0 75.0">
  <rect width="75.0mm" height="75.0mm" fill="white"/>
  <!-- LAYER 1: outer — zewnętrzna sylwetka cuttera -->
  <g id="outer">
    <path id="outer_contour" d="M 37.5,5.5 C 44.0,5.5 50.0,7.0 55.0,10.0 C 60.0,13.0 64.0,17.5 66.5,23.0 C 69.0,28.5 70.0,34.5 69.5,40.0 C 69.0,45.5 67.0,50.5 63.5,55.0 C 60.0,59.5 55.0,63.0 49.5,65.5 C 44.0,68.0 40.5,68.5 37.5,68.5 C 34.5,68.5 31.0,68.0 25.5,65.5 C 20.0,63.0 15.0,59.5 11.5,55.0 C 8.0,50.5 6.0,45.5 5.5,40.0 C 5.0,34.5 6.0,28.5 8.5,23.0 C 11.0,17.5 15.0,13.0 20.0,10.0 C 25.0,7.0 31.0,5.5 37.5,5.5 Z M 27.0,4.0 C 25.0,4.0 23.5,4.5 22.5,5.5 C 21.5,6.5 21.5,8.0 22.5,9.5 C 23.5,11.0 25.5,12.5 28.0,13.0 C 30.5,13.5 33.0,13.0 35.0,12.0 C 37.0,11.0 37.5,9.5 37.5,8.5 C 37.5,9.5 38.0,11.0 40.0,12.0 C 42.0,13.0 44.5,13.5 47.0,13.0 C 49.5,12.5 51.5,11.0 52.5,9.5 C 53.5,8.0 53.5,6.5 52.5,5.5 C 51.5,4.5 50.0,4.0 48.0,4.0 C 46.0,4.0 43.5,4.5 41.0,5.5 C 38.5,6.5 37.5,7.5 37.5,7.5 C 37.5,7.5 36.5,6.5 34.0,5.5 C 31.5,4.5 29.0,4.0 27.0,4.0 Z M 30.0,28.0 C 31.5,28.0 32.5,29.0 32.5,30.5 C 32.5,32.0 31.5,33.0 30.0,33.0 C 28.5,33.0 27.5,32.0 27.5,30.5 C 27.5,29.0 28.5,28.0 30.0,28.0 Z M 45.0,28.0 C 46.5,28.0 47.5,29.0 47.5,30.5 C 47.5,32.0 46.5,33.0 45.0,33.0 C 43.5,33.0 42.5,32.0 42.5,30.5 C 42.5,29.0 43.5,28.0 45.0,28.0 Z M 37.5,38.0 C 39.5,38.0 41.5,39.0 42.5,40.5 C 43.5,42.0 43.0,43.5 41.5,44.5 C 40.0,45.5 38.0,45.5 37.5,45.5 C 37.0,45.5 35.0,45.5 33.5,44.5 C 32.0,43.5 31.5,42.0 32.5,40.5 C 33.5,39.0 35.5,38.0 37.5,38.0 Z M 22.0,42.0 C 23.5,42.0 24.5,43.0 24.5,44.5 C 24.5,46.0 23.5,47.0 22.0,47.0 C 20.5,47.0 19.5,46.0 19.5,44.5 C 19.5,43.0 20.5,42.0 22.0,42.0 Z M 53.0,42.0 C 54.5,42.0 55.5,43.0 55.5,44.5 C 55.5,46.0 54.5,47.0 53.0,47.0 C 51.5,47.0 50.5,46.0 50.5,44.5 C 50.5,43.0 51.5,42.0 53.0,42.0 Z M 37.5,52.0 C 39.0,52.0 40.0,53.0 40.0,54.5 C 40.0,56.0 39.0,57.0 37.5,57.0 C 36.0,57.0 35.0,56.0 35.0,54.5 C 35.0,53.0 36.0,52.0 37.5,52.0 Z" fill="none" stroke="#000000" stroke-width="1.2"/>
  </g>
  <!-- LAYER 2: stamp — wewnętrzne detale embossera -->
  <g id="stamp">
    <path id="stamp_outline" d="M 37.50,44.34 C 43.77,38.87 50.04,36.13 47.53,30.66 C 48.79,29.29 42.52,28.61 37.50,30.66 C 32.48,28.61 26.21,29.29 27.47,30.66 C 24.96,36.13 31.23,38.87 37.50,44.34 Z" fill="none" stroke="#666666" stroke-width="0.8"/>
    <circle cx="28.50" cy="37.50" r="1.88" fill="#999999"/>
    <circle cx="37.50" cy="37.50" r="1.88" fill="#999999"/>
    <circle cx="46.50" cy="37.50" r="1.88" fill="#999999"/>
  </g>
</svg>