<?xml version="1.0" encoding="utf-8"?>
<svg xmlns="http://www.w3.org/2000/svg"
     width="60.0mm" height="60.0mm"
     viewBox="0 0 60.0 60.0">
  <rect width="60.0mm" height="60.0mm" fill="white"/>
  <!-- LAYER 1: outer — zewnętrzna sylwetka cuttera -->
  <g id="outer">
    <path id="outer_contour" d="M 30.0,4.0 C 26.0,4.0 22.0,3.5 19.0,6.0 C 16.0,8.5 18.0,10.0 20.0,10.5 C 17.0,10.0 13.0,8.0 12.0,10.0 C 11.0,12.0 14.0,13.0 17.0,13.0 C 14.0,12.5 10.0,12.0 10.0,14.0 C 10.0,16.0 14.0,15.5 17.5,15.0 C 15.0,16.0 12.0,17.0 13.0,18.5 C 14.0,20.0 17.0,18.0 19.0,16.5 C 16.5,19.5 13.0,22.0 10.0,26.0 C 6.0,31.0 3.0,37.0 4.5,42.0 C 6.0,47.0 9.0,50.5 13.5,53.0 C 18.0,55.5 23.5,57.0 30.0,57.0 C 36.5,57.0 42.0,55.5 46.5,53.0 C 51.0,50.5 54.0,47.0 55.5,42.0 C 57.0,37.0 54.0,31.0 50.0,26.0 C 47.0,22.0 43.5,19.5 41.0,16.5 C 43.0,18.0 46.0,20.0 47.0,18.5 C 48.0,17.0 45.0,16.0 42.5,15.0 C 46.0,15.5 50.0,16.0 50.0,14.0 C 50.0,12.0 46.0,12.5 43.0,13.0 C 46.0,13.0 49.0,12.0 48.0,10.0 C 47.0,8.0 43.0,10.0 40.0,10.5 C 42.0,10.0 44.0,8.5 41.0,6.0 C 38.0,3.5 34.0,4.0 30.0,4.0 Z" fill="none" stroke="#000000" stroke-width="1.2"/>
  </g>
  <!-- LAYER 2: stamp — wewnętrzne detale embossera -->
  <g id="stamp">
    <path id="stamp_outline" d="M 30.00,35.47 C 35.02,31.09 40.03,28.91 38.03,24.53 C 39.03,23.43 34.01,22.89 30.00,24.53 C 25.99,22.89 20.97,23.43 21.97,24.53 C 19.97,28.91 24.98,31.09 30.00,35.47 Z" fill="none" stroke="#666666" stroke-width="0.8"/>
    <circle cx="22.80" cy="30.00" r="1.50" fill="#999999"/>
    <circle cx="30.00" cy="30.00" r="1.50" fill="#999999"/>
    <circle cx="37.20" cy="30.00" r="1.50" fill="#999999"/>
  </g>
</svg>