<?xml version="1.0" encoding="utf-8"?>
<svg xmlns="http://www.w3.org/2000/svg"
     width="110.0mm" height="110.0mm"
     viewBox="0 0 110.0 110.0">
  <rect width="110.0mm" height="110.0mm" fill="white"/>
  <!-- LAYER 1: outer — zewnętrzna sylwetka cuttera -->
  <g id="outer">
    <path id="outer_contour" d="M 55.0,5.0 C 50.0,5.0 45.0,3.5 42.0,8.0 C 39.0,12.5 44.0,14.0 46.0,12.0 C 48.0,10.0 50.0,11.0 51.0,14.0 C 52.0,17.0 49.0,18.0 48.0,17.0 C 46.0,15.5 43.0,16.0 44.0,19.0 C 45.0,22.0 50.0,20.0 53.0,19.0 C 54.0,18.6 55.0,19.0 55.0,19.0 C 55.0,19.0 56.0,18.6 57.0,19.0 C 60.0,20.0 65.0,22.0 66.0,19.0 C 67.0,16.0 64.0,15.5 62.0,17.0 C 61.0,18.0 58.0,17.0 59.0,14.0 C 60.0,11.0 62.0,10.0 64.0,12.0 C 66.0,14.0 71.0,12.5 68.0,8.0 C 65.0,3.5 60.0,5.0 55.0,5.0 L 55.0,19.0 C 58.0,20.0 68.0,22.0 78.0,28.0 C 88.0,34.0 98.0,43.0 102.0,55.0 C 106.0,67.0 104.0,76.0 98.0,84.0 C 92.0,92.0 83.0,98.0 73.0,101.5 C 63.0,105.0 55.0,105.0 55.0,105.0 C 55.0,105.0 47.0,105.0 37.0,101.5 C 27.0,98.0 18.0,92.0 12.0,84.0 C 6.0,76.0 4.0,67.0 8.0,55.0 C 12.0,43.0 22.0,34.0 32.0,28.0 C 42.0,22.0 52.0,20.0 55.0,19.0 Z" fill="none" stroke="#000000" stroke-width="1.2"/>
  </g>
  <!-- LAYER 2: stamp — wewnętrzne detale embossera -->
  <g id="stamp">
    <path id="stamp_outline" d="M 55.00,65.03 C 64.20,57.01 73.39,52.99 69.71,44.97 C 71.55,42.96 62.36,41.96 55.00,44.97 C 47.64,41.96 38.45,42.96 40.29,44.97 C 36.61,52.99 45.80,57.01 55.00,65.03 Z" fill="none" stroke="#666666" stroke-width="0.8"/>
    <circle cx="41.80" cy="55.00" r="2.75" fill="#999999"/>
    <circle cx="55.00" cy="55.00" r="2.75" fill="#999999"/>
    <circle cx="68.20" cy="55.00" r="2.75" fill="#999999"/>
  </g>
</svg>