<?xml version="1.0" encoding="utf-8"?>
<svg xmlns="http://www.w3.org/2000/svg"
     width="50.0mm" height="50.0mm"
     viewBox="0 0 50.0 50.0">
  <rect width="50.0mm" height="50.0mm" fill="white"/>
  <!-- LAYER 1: outer — zewnętrzna sylwetka cuttera -->
  <g id="outer">
    <path id="outer_contour" d="M 25.0,2.5 C 28.0,2.5 30.5,3.0 32.0,4.5 C 33.5,3.5 35.5,3.0 37.0,4.0 C 38.5,5.0 38.0,7.0 36.5,8.5 C 34.0,7.5 31.0,7.0 28.5,7.5 C 27.0,6.5 25.5,6.0 25.0,6.0 C 24.5,6.0 23.0,6.5 21.5,7.5 C 19.0,7.0 16.0,7.5 13.5,8.5 C 12.0,7.0 11.5,5.0 13.0,4.0 C 14.5,3.0 16.5,3.5 18.0,4.5 C 19.5,3.0 22.0,2.5 25.0,2.5 C 25.0,6.0 25.0,6.0 25.0,7.0 C 22.0,8.0 17.0,10.5 12.5,15.0 C 8.0,19.5 5.0,25.0 4.0,30.0 C 3.0,35.0 3.5,39.0 6.0,42.0 C 8.5,45.0 12.5,47.0 17.0,47.5 C 21.5,48.0 23.5,47.5 25.0,47.0 C 26.5,47.5 28.5,48.0 33.0,47.5 C 37.5,47.0 41.5,45.0 44.0,42.0 C 46.5,39.0 47.0,35.0 46.0,30.0 C 45.0,25.0 42.0,19.5 37.5,15.0 C 33.0,10.5 28.0,8.0 25.0,7.0 Z" fill="none" stroke="#000000" stroke-width="1.2"/>
  </g>
  <!-- LAYER 2: stamp — wewnętrzne detale embossera -->
  <g id="stamp">
    <path id="stamp_outline" d="M 25.00,29.56 C 29.18,25.91 33.36,24.09 31.69,20.44 C 32.52,19.53 28.34,19.07 25.00,20.44 C 21.66,19.07 17.48,19.53 18.31,20.44 C 16.64,24.09 20.82,25.91 25.00,29.56 Z" fill="none" stroke="#666666" stroke-width="0.8"/>
    <circle cx="19.00" cy="25.00" r="1.50" fill="#999999"/>
    <circle cx="25.00" cy="25.00" r="1.50" fill="#999999"/>
    <circle cx="31.00" cy="25.00" r="1.50" fill="#999999"/>
  </g>
</svg>