<?xml version="1.0" encoding="utf-8"?>
<svg xmlns="http://www.w3.org/2000/svg"
     width="150.0mm" height="150.0mm"
     viewBox="0 0 150.0 150.0">
  <rect width="150.0mm" height="150.0mm" fill="white"/>
  <!-- LAYER 1: outer — zewnętrzna sylwetka cuttera -->
  <g id="outer">
    <path id="outer_contour" d="M 75.0,5.0 C 68.0,5.0 60.0,7.0 55.0,12.0 C 50.0,10.0 43.0,10.0 38.0,14.0 C 33.0,18.0 32.0,24.0 33.0,28.0 C 28.0,26.0 22.0,27.0 18.0,32.0 C 14.0,37.0 14.0,43.0 16.0,48.0 C 10.0,50.0 5.0,56.0 4.0,63.0 C 3.0,70.0 6.0,77.0 11.0,81.0 C 7.0,86.0 5.0,93.0 7.0,100.0 C 9.0,107.0 15.0,112.0 21.0,114.0 C 19.0,120.0 20.0,127.0 25.0,132.0 C 30.0,137.0 37.0,139.0 43.0,138.0 C 44.0,143.0 49.0,147.0 56.0,148.0 C 63.0,149.0 70.0,146.0 74.0,141.0 C 78.0,146.0 85.0,149.0 92.0,148.0 C 99.0,147.0 104.0,143.0 106.0,138.0 C 112.0,139.0 119.0,137.0 124.0,132.0 C 129.0,127.0 130.0,120.0 128.0,114.0 C 134.0,112.0 140.0,107.0 142.0,100.0 C 144.0,93.0 142.0,86.0 138.0,81.0 C 143.0,77.0 146.0,70.0 145.0,63.0 C 144.0,56.0 139.0,50.0 133.0,48.0 C 135.0,43.0 135.0,37.0 131.0,32.0 C 127.0,27.0 121.0,26.0 116.0,28.0 C 117.0,24.0 116.0,18.0 111.0,14.0 C 106.0,10.0 99.0,10.0 94.0,12.0 C 89.0,7.0 82.0,5.0 75.0,5.0 Z" fill="none" stroke="#000000" stroke-width="1.2"/>
  </g>
  <!-- LAYER 2: stamp — wewnętrzne detale embossera -->
  <g id="stamp">
    <path id="stamp_outline" d="M 75.00,88.68 C 87.54,77.74 100.08,72.26 95.06,61.32 C 97.57,58.58 85.03,57.22 75.00,61.32 C 64.97,57.22 52.43,58.58 54.94,61.32 C 49.92,72.26 62.46,77.74 75.00,88.68 Z" fill="none" stroke="#666666" stroke-width="0.8"/>
    <circle cx="57.00" cy="75.00" r="3.75" fill="#999999"/>
    <circle cx="75.00" cy="75.00" r="3.75" fill="#999999"/>
    <circle cx="93.00" cy="75.00" r="3.75" fill="#999999"/>
  </g>
</svg>