<?xml version="1.0" encoding="utf-8"?>
<svg xmlns="http://www.w3.org/2000/svg"
     width="90.0mm" height="90.0mm"
     viewBox="0 0 90.0 90.0">
  <rect width="90.0mm" height="90.0mm" fill="white"/>
  <!-- LAYER 1: outer — zewnętrzna sylwetka cuttera -->
  <g id="outer">
    <path id="outer_contour" d="M 45.0,8.0 C 43.0,8.0 41.0,10.0 40.0,13.0 C 38.0,11.0 35.0,10.0 33.0,11.0 C 30.0,12.5 31.0,16.0 33.0,18.0 C 24.0,15.0 12.0,18.0 6.0,28.0 C 2.0,35.0 3.0,45.0 8.0,54.0 C 13.0,63.0 22.0,72.0 33.0,78.0 C 38.0,81.0 42.0,83.0 45.0,84.0 C 48.0,83.0 52.0,81.0 57.0,78.0 C 68.0,72.0 77.0,63.0 82.0,54.0 C 87.0,45.0 88.0,35.0 84.0,28.0 C 78.0,18.0 66.0,15.0 57.0,18.0 C 59.0,16.0 60.0,12.5 57.0,11.0 C 55.0,10.0 52.0,11.0 50.0,13.0 C 49.0,10.0 47.0,8.0 45.0,8.0 Z" fill="none" stroke="#000000" stroke-width="1.2"/>
  </g>
  <!-- LAYER 2: stamp — wewnętrzne detale embossera -->
  <g id="stamp">
    <path id="stamp_outline" d="M 45.00,58.00 C 52.15,58.00 58.00,52.15 58.00,45.00 C 58.00,37.85 52.15,32.00 47.74,32.00 C 47.74,28.58 42.26,28.58 42.26,32.00 C 37.85,32.00 32.00,37.85 32.00,45.00 C 32.00,52.15 37.85,58.00 45.00,58.00 Z" fill="none" stroke="#666666" stroke-width="0.8"/>
    <circle cx="34.20" cy="45.00" r="2.25" fill="#999999"/>
    <circle cx="45.00" cy="45.00" r="2.25" fill="#999999"/>
    <circle cx="55.80" cy="45.00" r="2.25" fill="#999999"/>
  </g>
</svg>