<?xml version="1.0" encoding="utf-8"?>
<svg xmlns="http://www.w3.org/2000/svg"
     width="75.0mm" height="75.0mm"
     viewBox="0 0 75.0 75.0">
  <rect width="75.0mm" height="75.0mm" fill="white"/>
  <!-- LAYER 1: outer — zewnętrzna sylwetka cuttera -->
  <g id="outer">
    <path id="outer_contour" d="M 37.5,8.5 C 33.0,8.5 30.0,11.0 28.5,13.5 C 27.0,16.0 27.5,18.0 29.0,18.5 C 30.5,19.0 32.0,18.0 33.0,17.0 C 34.0,16.0 35.5,15.5 37.5,16.0 C 39.5,15.5 41.0,16.0 42.0,17.0 C 43.0,18.0 44.5,19.0 46.0,18.5 C 47.5,18.0 48.0,16.0 46.5,13.5 C 45.0,11.0 42.0,8.5 37.5,8.5 Z M 37.5,17.0 C 28.0,17.0 19.5,19.5 14.0,25.0 C 8.5,30.5 5.5,38.0 7.0,45.0 C 8.5,52.0 13.5,57.5 20.0,61.0 C 26.5,64.5 32.5,65.5 37.5,65.5 C 42.5,65.5 48.5,64.5 55.0,61.0 C 61.5,57.5 66.5,52.0 68.0,45.0 C 69.5,38.0 66.5,30.5 61.0,25.0 C 55.5,19.5 47.0,17.0 37.5,17.0 Z M 37.5,20.0 C 46.0,20.0 53.5,22.5 58.0,27.0 C 62.5,31.5 65.0,37.5 64.0,43.5 C 63.0,49.5 59.0,54.5 53.5,57.5 C 48.0,60.5 43.0,62.0 37.5,62.0 C 32.0,62.0 27.0,60.5 21.5,57.5 C 16.0,54.5 12.0,49.5 11.0,43.5 C 10.0,37.5 12.5,31.5 17.0,27.0 C 21.5,22.5 29.0,20.0 37.5,20.0 Z M 36.0,10.0 C 35.5,10.0 35.0,10.5 35.0,11.5 C 35.0,13.0 35.5,15.0 36.5,16.5 C 37.0,17.0 37.5,17.2 38.0,17.2 C 38.5,17.2 39.0,17.0 39.5,16.5 C 40.5,15.0 41.0,13.0 41.0,11.5 C 41.0,10.5 40.5,10.0 40.0,10.0 C 39.0,10.0 38.5,11.0 38.0,12.0 C 37.5,11.0 37.0,10.0 36.0,10.0 Z M 42.0,11.0 C 42.0,10.5 42.5,10.0 43.5,9.5 C 45.0,8.8 47.0,8.5 49.0,9.0 C 50.5,9.5 51.0,10.5 50.5,11.5 C 50.0,12.5 48.5,13.5 47.0,14.0 C 45.5,14.5 44.0,14.5 43.0,14.0 C 42.2,13.5 42.0,12.5 42.0,11.0 Z" fill="none" stroke="#000000" stroke-width="1.2"/>
  </g>
  <!-- LAYER 2: stamp — wewnętrzne detale embossera -->
  <g id="stamp">
    <path id="stamp_outline" d="M 37.50,48.33 C 43.46,48.33 48.33,43.46 48.33,37.50 C 48.33,31.54 43.46,26.67 39.78,26.67 C 39.78,23.82 35.22,23.82 35.22,26.67 C 31.54,26.67 26.67,31.54 26.67,37.50 C 26.67,43.46 31.54,48.33 37.50,48.33 Z" fill="none" stroke="#666666" stroke-width="0.8"/>
    <circle cx="28.50" cy="37.50" r="1.88" fill="#999999"/>
    <circle cx="37.50" cy="37.50" r="1.88" fill="#999999"/>
    <circle cx="46.50" cy="37.50" r="1.88" fill="#999999"/>
  </g>
</svg>