<?xml version="1.0" encoding="utf-8"?>
<svg xmlns="http://www.w3.org/2000/svg"
     width="75.0mm" height="75.0mm"
     viewBox="0 0 75.0 75.0">
  <rect width="75.0mm" height="75.0mm" fill="white"/>
  <!-- LAYER 1: outer — zewnętrzna sylwetka cuttera -->
  <g id="outer">
    <path id="outer_contour" d="M 37.5,5.0 C 40.0,5.0 42.0,8.0 42.0,12.0 C 48.0,6.0 58.0,4.0 66.0,10.0 C 73.0,16.0 73.0,28.0 70.0,38.0 C 67.0,48.0 58.0,58.0 50.0,64.0 C 44.0,68.5 40.0,70.0 37.5,70.0 C 35.0,70.0 31.0,68.5 25.0,64.0 C 17.0,58.0 8.0,48.0 5.0,38.0 C 2.0,28.0 2.0,16.0 9.0,10.0 C 17.0,4.0 27.0,6.0 33.0,12.0 C 33.0,8.0 35.0,5.0 37.5,5.0 Z" fill="none" stroke="#000000" stroke-width="1.2"/>
  </g>
  <!-- LAYER 2: stamp — wewnętrzne detale embossera -->
  <g id="stamp">
    <path id="stamp_outline" d="M 37.50,48.33 C 43.46,48.33 48.33,43.46 48.33,37.50 C 48.33,31.54 43.46,26.67 39.78,26.67 C 39.78,23.82 35.22,23.82 35.22,26.67 C 31.54,26.67 26.67,31.54 26.67,37.50 C 26.67,43.46 31.54,48.33 37.50,48.33 Z" fill="none" stroke="#666666" stroke-width="0.8"/>
    <circle cx="28.50" cy="37.50" r="1.88" fill="#999999"/>
    <circle cx="37.50" cy="37.50" r="1.88" fill="#999999"/>
    <circle cx="46.50" cy="37.50" r="1.88" fill="#999999"/>
  </g>
</svg>