<?xml version="1.0" encoding="utf-8"?>
<svg xmlns="http://www.w3.org/2000/svg"
     width="60.0mm" height="60.0mm"
     viewBox="0 0 60.0 60.0">
  <rect width="60.0mm" height="60.0mm" fill="white"/>
  <!-- LAYER 1: outer — zewnętrzna sylwetka cuttera -->
  <g id="outer">
    <path id="outer_contour" d="M 30.0,4.5 C 27.0,4.5 26.0,8.0 26.5,11.0 C 20.0,7.5 10.0,8.0 6.0,16.0 C 2.0,24.0 5.0,34.0 10.0,40.0 C 15.0,46.0 22.0,52.0 27.0,55.0 C 28.5,56.0 29.5,56.5 30.0,56.5 C 30.5,56.5 31.5,56.0 33.0,55.0 C 38.0,52.0 45.0,46.0 50.0,40.0 C 55.0,34.0 58.0,24.0 54.0,16.0 C 50.0,8.0 40.0,7.5 33.5,11.0 C 34.0,8.0 33.0,4.5 30.0,4.5 Z" fill="none" stroke="#000000" stroke-width="1.2"/>
  </g>
  <!-- LAYER 2: stamp — wewnętrzne detale embossera -->
  <g id="stamp">
    <path id="stamp_outline" d="M 30.00,38.66 C 34.77,38.66 38.66,34.77 38.66,30.00 C 38.66,25.23 34.77,21.34 31.82,21.34 C 31.82,19.06 28.18,19.06 28.18,21.34 C 25.23,21.34 21.34,25.23 21.34,30.00 C 21.34,34.77 25.23,38.66 30.00,38.66 Z" fill="none" stroke="#666666" stroke-width="0.8"/>
    <circle cx="22.80" cy="30.00" r="1.50" fill="#999999"/>
    <circle cx="30.00" cy="30.00" r="1.50" fill="#999999"/>
    <circle cx="37.20" cy="30.00" r="1.50" fill="#999999"/>
  </g>
</svg>