<?xml version="1.0" encoding="utf-8"?>
<svg xmlns="http://www.w3.org/2000/svg"
     width="110.0mm" height="110.0mm"
     viewBox="0 0 110.0 110.0">
  <rect width="110.0mm" height="110.0mm" fill="white"/>
  <!-- LAYER 1: outer — zewnętrzna sylwetka cuttera -->
  <g id="outer">
    <path id="outer_contour" d="M 55.0,8.0 C 58.0,8.0 60.0,5.0 62.0,4.0 C 65.0,3.0 67.0,5.0 66.0,8.0 C 65.0,11.0 62.0,14.0 60.0,17.0 C 68.0,14.0 78.0,12.0 88.0,16.0 C 98.0,20.0 105.0,30.0 107.0,42.0 C 109.0,54.0 106.0,65.0 100.0,75.0 C 94.0,85.0 85.0,93.0 75.0,98.0 C 68.0,101.5 61.0,103.0 55.0,103.0 C 49.0,103.0 42.0,101.5 35.0,98.0 C 25.0,93.0 16.0,85.0 10.0,75.0 C 4.0,65.0 2.0,54.0 3.0,42.0 C 5.0,30.0 12.0,20.0 22.0,16.0 C 32.0,12.0 42.0,14.0 50.0,17.0 C 48.0,14.0 45.0,11.0 44.0,8.0 C 43.0,5.0 45.0,3.0 48.0,4.0 C 50.0,5.0 52.0,8.0 55.0,8.0 Z" fill="none" stroke="#000000" stroke-width="1.2"/>
  </g>
  <!-- LAYER 2: stamp — wewnętrzne detale embossera -->
  <g id="stamp">
    <path id="stamp_outline" d="M 55.00,70.88 C 63.74,70.88 70.88,63.74 70.88,55.00 C 70.88,46.26 63.74,39.12 58.34,39.12 C 58.34,34.94 51.66,34.94 51.66,39.12 C 46.26,39.12 39.12,46.26 39.12,55.00 C 39.12,63.74 46.26,70.88 55.00,70.88 Z" fill="none" stroke="#666666" stroke-width="0.8"/>
    <circle cx="41.80" cy="55.00" r="2.75" fill="#999999"/>
    <circle cx="55.00" cy="55.00" r="2.75" fill="#999999"/>
    <circle cx="68.20" cy="55.00" r="2.75" fill="#999999"/>
  </g>
</svg>