<?xml version="1.0" encoding="utf-8"?>
<svg xmlns="http://www.w3.org/2000/svg"
     width="150.0mm" height="150.0mm"
     viewBox="0 0 150.0 150.0">
  <rect width="150.0mm" height="150.0mm" fill="white"/>
  <!-- LAYER 1: outer — zewnętrzna sylwetka cuttera -->
  <g id="outer">
    <path id="outer_contour" d="M 75.0,8.0 C 80.0,8.0 85.0,14.0 85.0,22.0 C 88.0,18.0 92.0,16.0 95.0,18.0 C 98.0,20.0 97.0,25.0 94.0,30.0 C 110.0,22.0 130.0,20.0 141.0,35.0 C 148.0,45.0 148.0,58.0 144.0,70.0 C 140.0,82.0 132.0,93.0 122.0,102.0 C 112.0,111.0 100.0,118.0 88.0,124.0 C 82.0,127.0 78.0,132.0 76.0,140.0 C 75.5,142.0 74.5,142.0 74.0,140.0 C 72.0,132.0 68.0,127.0 62.0,124.0 C 50.0,118.0 38.0,111.0 28.0,102.0 C 18.0,93.0 10.0,82.0 6.0,70.0 C 2.0,58.0 2.0,45.0 9.0,35.0 C 20.0,20.0 40.0,22.0 56.0,30.0 C 53.0,25.0 52.0,20.0 55.0,18.0 C 58.0,16.0 62.0,18.0 65.0,22.0 C 65.0,14.0 70.0,8.0 75.0,8.0 Z" fill="none" stroke="#000000" stroke-width="1.2"/>
  </g>
  <!-- LAYER 2: stamp — wewnętrzne detale embossera -->
  <g id="stamp">
    <path id="stamp_outline" d="M 75.00,96.66 C 86.91,96.66 96.66,86.91 96.66,75.00 C 96.66,63.09 86.91,53.34 79.56,53.34 C 79.56,47.64 70.44,47.64 70.44,53.34 C 63.09,53.34 53.34,63.09 53.34,75.00 C 53.34,86.91 63.09,96.66 75.00,96.66 Z" fill="none" stroke="#666666" stroke-width="0.8"/>
    <circle cx="57.00" cy="75.00" r="3.75" fill="#999999"/>
    <circle cx="75.00" cy="75.00" r="3.75" fill="#999999"/>
    <circle cx="93.00" cy="75.00" r="3.75" fill="#999999"/>
  </g>
</svg>