<?xml version="1.0" encoding="utf-8"?>
<svg xmlns="http://www.w3.org/2000/svg"
     width="50.0mm" height="50.0mm"
     viewBox="0 0 50.0 50.0">
  <rect width="50.0mm" height="50.0mm" fill="white"/>
  <!-- DALL-E 3 + potrace | topic: floral wreath | size: XS -->
  <g id="outer"
     transform="translate(3.00,47.00) scale(0.004889,-0.004889)">
    <path id="outer_contour"
          d="M 11.953 39.028 c -0.122 -0.186 -0.078 -0.631 0.112 -1.080 0.156 -0.372 0.484 -0.856 0.557 -0.812 0.098 0.064 -0.024 1.198 -0.181 1.633 -0.142 0.396 -0.332 0.499 -0.489 0.259 z M 25.696 39.018 c -0.020 -0.029 -0.020 -0.054 0.005 -0.054 0.020 0.000 0.000 -0.024 -0.049 -0.054 -0.142 -0.083 0.010 -0.680 0.171 -0.680 0.034 0.000 0.020 -0.029 -0.024 -0.059 -0.078 -0.059 -0.068 -0.083 0.088 -0.323 0.098 -0.142 0.259 -0.318 0.362 -0.391 0.103 -0.073 0.176 -0.156 0.166 -0.186 -0.020 -0.059 0.064 -0.122 0.484 -0.352 0.156 -0.088 0.288 -0.137 0.308 -0.108 0.044 0.068 -0.108 0.274 -0.279 0.386 -0.098 0.059 -0.156 0.142 -0.166 0.225 -0.015 0.137 -0.015 0.137 0.059 0.029 0.059 -0.078 0.093 -0.093 0.137 -0.059 0.049 0.039 0.083 0.005 0.152 -0.137 0.098 -0.220 0.293 -0.425 0.332 -0.357 0.122 0.191 -0.631 1.672 -0.816 1.608 -0.029 -0.010 -0.088 0.039 -0.132 0.112 -0.142 0.225 -0.724 0.518 -0.797 0.396 z m 0.841 -1.105 c 0.039 0.000 0.088 -0.049 0.112 -0.103 0.029 -0.093 0.005 -0.083 -0.230 0.068 -0.147 0.093 -0.264 0.186 -0.264 0.205 0.000 0.103 0.088 0.088 0.191 -0.034 0.064 -0.073 0.152 -0.137 0.191 -0.137 z M 21.677 38.793 c -0.474 -0.504 -0.528 -1.833 -0.112 -2.792 0.054 -0.132 0.117 -0.328 0.137 -0.435 0.039 -0.235 0.196 -0.279 0.254 -0.073 0.020 0.068 0.034 0.088 0.039 0.044 0.010 -0.127 0.137 -0.215 0.220 -0.147 0.044 0.039 0.059 0.127 0.039 0.298 -0.020 0.196 -0.010 0.244 0.044 0.235 0.044 -0.010 0.073 0.034 0.078 0.108 0.005 0.068 0.068 0.474 0.132 0.904 0.147 0.914 0.152 1.139 0.054 1.481 -0.166 0.562 -0.552 0.728 -0.885 0.376 z M 13.997 38.759 c -0.342 -0.362 -0.533 -1.403 -0.313 -1.682 0.073 -0.093 0.088 -0.147 0.054 -0.191 -0.034 -0.044 -0.034 -0.103 0.000 -0.196 0.083 -0.215 0.147 -0.088 0.181 0.357 0.015 0.220 0.049 0.386 0.068 0.372 0.024 -0.015 0.029 -0.108 0.015 -0.210 -0.020 -0.108 -0.010 -0.200 0.020 -0.220 0.029 -0.015 0.039 -0.073 0.024 -0.122 -0.015 -0.049 0.000 -0.103 0.024 -0.122 0.156 -0.098 0.440 0.890 0.298 1.032 -0.039 0.039 -0.039 0.064 0.000 0.083 0.098 0.064 0.064 0.528 -0.054 0.763 -0.137 0.259 -0.186 0.279 -0.318 0.137 z M 17.712 38.774 c -0.142 -0.088 -0.406 -0.416 -0.406 -0.504 0.000 -0.024 -0.044 -0.132 -0.093 -0.249 -0.235 -0.523 -0.323 -1.222 -0.186 -1.491 0.059 -0.122 0.064 -0.161 0.010 -0.205 -0.064 -0.054 -0.044 -0.474 0.024 -0.557 0.059 -0.064 0.249 0.386 0.210 0.494 -0.029 0.078 -0.024 0.078 0.049 0.024 0.044 -0.039 0.108 -0.049 0.142 -0.029 0.034 0.024 0.005 -0.034 -0.068 -0.122 -0.156 -0.181 -0.161 -0.215 -0.068 -0.293 0.078 -0.068 0.391 0.313 0.347 0.425 -0.015 0.034 0.039 0.147 0.117 0.244 0.416 0.523 0.518 1.853 0.181 2.244 l -0.103 0.112 -0.156 -0.093 z M 20.172 38.383 c -0.235 -0.259 -0.137 -0.601 0.328 -1.134 0.171 -0.200 0.420 -0.528 0.548 -0.724 0.313 -0.484 0.352 -0.406 0.176 0.342 -0.196 0.816 -0.313 1.115 -0.548 1.384 -0.215 0.244 -0.367 0.284 -0.504 0.132 z M 16.045 38.280 c -0.117 -0.152 -0.279 -0.753 -0.225 -0.836 0.015 -0.024 0.005 -0.078 -0.024 -0.108 -0.068 -0.083 0.015 -0.640 0.112 -0.792 0.044 -0.064 0.064 -0.152 0.049 -0.191 -0.059 -0.147 0.513 -0.948 0.626 -0.880 0.049 0.034 0.020 0.279 -0.088 0.704 -0.078 0.303 -0.088 0.435 -0.029 0.367 0.024 -0.029 0.068 -0.200 0.103 -0.386 0.068 -0.376 0.181 -0.636 0.254 -0.587 0.034 0.020 0.039 0.112 0.020 0.240 -0.015 0.127 -0.010 0.225 0.020 0.244 0.059 0.034 0.024 0.724 -0.044 0.880 -0.024 0.054 -0.064 0.235 -0.093 0.406 -0.054 0.347 -0.249 0.807 -0.406 0.973 -0.132 0.142 -0.147 0.142 -0.274 -0.034 z M 23.124 38.275 c -0.313 -0.318 -0.435 -0.689 -0.587 -1.838 -0.122 -0.895 -0.117 -1.115 0.024 -1.115 0.078 0.000 0.122 0.078 0.225 0.391 0.176 0.548 0.548 1.315 0.777 1.618 0.264 0.352 0.269 0.728 0.000 0.997 -0.137 0.137 -0.259 0.122 -0.440 -0.054 z M 29.270 38.241 c -0.279 -0.288 -0.528 -0.831 -0.548 -1.168 -0.005 -0.142 -0.034 -0.288 -0.068 -0.323 -0.044 -0.059 -0.039 -0.156 0.024 -0.455 0.093 -0.460 0.112 -0.499 0.196 -0.391 0.034 0.049 0.083 0.073 0.108 0.059 0.024 -0.015 0.137 0.073 0.254 0.191 0.117 0.122 0.196 0.220 0.176 0.220 -0.024 0.000 -0.010 0.039 0.034 0.088 0.112 0.122 0.240 0.450 0.210 0.528 -0.015 0.034 0.010 0.166 0.049 0.288 0.044 0.122 0.064 0.259 0.044 0.308 -0.020 0.044 -0.039 0.186 -0.044 0.308 -0.005 0.230 -0.132 0.484 -0.240 0.484 -0.034 0.000 -0.122 -0.059 -0.196 -0.137 z M 24.469 38.026 c -0.508 -0.264 -1.124 -1.090 -1.472 -1.965 -0.249 -0.621 -0.254 -0.704 -0.049 -0.929 l 0.166 -0.191 0.474 0.381 c 0.846 0.689 1.462 1.628 1.525 2.322 0.024 0.259 0.020 0.284 -0.108 0.381 -0.166 0.132 -0.288 0.132 -0.538 0.000 z M 19.140 37.571 c -0.313 -0.313 0.054 -0.988 0.895 -1.628 0.210 -0.166 0.367 -0.176 0.244 -0.020 -0.034 0.044 0.147 -0.108 0.401 -0.347 0.479 -0.440 0.528 -0.464 0.626 -0.367 0.044 0.044 0.039 0.078 -0.024 0.147 -0.044 0.049 -0.068 0.103 -0.049 0.117 0.015 0.015 0.049 -0.020 0.083 -0.073 0.054 -0.108 0.171 -0.137 0.220 -0.059 0.039 0.073 -0.264 0.675 -0.552 1.090 -0.670 0.963 -1.506 1.481 -1.843 1.139 z M 10.330 37.351 c -0.147 -0.059 -0.142 -0.078 0.059 -0.411 0.093 -0.156 0.171 -0.303 0.171 -0.323 0.000 -0.083 0.464 -0.489 0.523 -0.464 0.039 0.010 0.059 0.005 0.044 -0.020 -0.054 -0.083 0.362 -0.347 0.548 -0.347 0.054 0.000 0.122 -0.034 0.156 -0.073 0.044 -0.054 0.161 -0.073 0.435 -0.068 0.787 0.005 0.963 0.117 0.508 0.337 -0.220 0.108 -0.416 0.284 -0.240 0.215 0.039 -0.015 0.083 -0.005 0.098 0.024 0.034 0.054 -0.988 0.841 -1.071 0.826 -0.024 -0.005 -0.147 0.039 -0.259 0.103 -0.117 0.059 -0.249 0.098 -0.288 0.083 -0.039 -0.015 -0.156 0.015 -0.259 0.068 -0.210 0.108 -0.264 0.112 -0.425 0.049 z m 0.958 -0.538 l 0.205 -0.244 -0.166 0.083 c -0.093 0.049 -0.161 0.103 -0.152 0.117 0.010 0.020 -0.015 0.059 -0.054 0.093 -0.064 0.054 -0.103 0.196 -0.059 0.196 0.010 0.000 0.112 -0.112 0.225 -0.244 z m 0.650 -0.362 l 0.161 -0.064 -0.181 0.000 c -0.171 0.005 -0.220 0.044 -0.264 0.205 -0.005 0.029 -0.024 0.093 -0.044 0.147 -0.020 0.054 0.010 0.024 0.068 -0.059 0.054 -0.088 0.171 -0.191 0.259 -0.230 z M 25.139 36.950 c -0.176 -0.196 -0.640 -0.963 -0.592 -0.997 0.024 -0.015 0.269 0.049 0.538 0.137 0.533 0.171 0.616 0.240 0.665 0.548 0.059 0.352 -0.367 0.567 -0.611 0.313 z M 12.784 36.764 c -0.049 -0.078 0.220 -0.508 0.279 -0.450 0.029 0.029 0.010 0.117 -0.054 0.244 -0.112 0.220 -0.176 0.279 -0.225 0.205 z M 18.368 36.334 c -0.342 -0.376 0.508 -1.041 1.960 -1.525 0.587 -0.196 0.694 -0.181 0.469 0.054 -0.073 0.078 -0.122 0.142 -0.103 0.142 0.015 0.000 0.073 -0.049 0.132 -0.108 0.073 -0.078 0.112 -0.093 0.152 -0.054 0.088 0.088 0.024 0.181 -0.352 0.504 -0.919 0.792 -2.009 1.266 -2.259 0.988 z M 27.754 36.246 c -0.015 -0.020 0.000 -0.093 0.039 -0.166 0.039 -0.078 0.117 -0.259 0.171 -0.406 0.103 -0.269 0.215 -0.416 0.259 -0.342 0.029 0.049 -0.288 0.792 -0.376 0.885 -0.034 0.034 -0.073 0.049 -0.093 0.029 z M 30.683 36.124 c -0.484 -0.381 -0.552 -1.535 -0.181 -2.875 0.215 -0.758 0.264 -0.865 0.367 -0.728 0.044 0.064 0.078 0.068 0.117 0.029 0.029 -0.029 0.088 -0.034 0.142 -0.010 0.049 0.020 0.132 0.039 0.181 0.039 0.059 0.005 0.098 0.044 0.108 0.103 0.005 0.054 0.044 0.269 0.088 0.479 0.367 1.804 -0.108 3.525 -0.821 2.963 z M 25.471 36.080 c -0.572 -0.098 -1.369 -0.469 -1.789 -0.836 -0.127 -0.108 -0.279 -0.230 -0.342 -0.274 -0.132 -0.083 -0.152 -0.200 -0.049 -0.240 0.039 -0.015 0.059 -0.059 0.044 -0.098 -0.059 -0.156 0.083 -0.225 0.396 -0.191 1.667 0.181 3.060 0.719 3.188 1.227 0.093 0.362 -0.596 0.557 -1.447 0.411 z M 27.158 36.031 c -0.024 -0.039 0.166 -0.186 0.450 -0.332 0.191 -0.103 0.176 0.029 -0.020 0.152 -0.318 0.200 -0.396 0.235 -0.430 0.181 z M 27.070 35.801 c -0.010 -0.024 -0.034 -0.122 -0.054 -0.220 -0.039 -0.215 -0.303 -0.464 -0.728 -0.680 -0.274 -0.142 -0.328 -0.240 -0.122 -0.240 0.210 0.000 0.640 -0.161 0.802 -0.303 0.342 -0.303 0.396 -0.577 0.166 -0.836 -0.186 -0.215 -0.166 -0.225 0.293 -0.196 0.225 0.020 0.445 0.005 0.538 -0.029 0.259 -0.088 0.259 -0.015 -0.010 0.303 -0.342 0.411 -0.499 0.763 -0.464 1.046 0.024 0.249 0.191 0.455 0.357 0.455 0.293 0.000 0.186 0.166 -0.318 0.499 -0.367 0.240 -0.420 0.264 -0.460 0.200 z M 15.009 35.713 c -0.029 -0.039 -0.044 -0.093 -0.029 -0.117 0.020 -0.024 0.010 -0.059 -0.015 -0.073 -0.044 -0.029 -0.005 -0.249 0.068 -0.435 0.020 -0.049 0.078 -0.108 0.132 -0.137 0.059 -0.034 0.083 -0.083 0.064 -0.142 -0.064 -0.196 1.027 -0.924 1.168 -0.782 0.054 0.054 -0.039 0.161 -0.186 0.210 -0.029 0.010 -0.039 0.039 -0.020 0.059 0.024 0.024 0.078 0.005 0.127 -0.039 0.156 -0.142 0.156 -0.034 0.000 0.249 -0.254 0.469 -0.684 0.978 -1.017 1.198 -0.147 0.103 -0.215 0.103 -0.293 0.010 z m 0.900 -0.929 c 0.181 -0.200 0.323 -0.367 0.313 -0.367 -0.005 0.000 -0.269 0.259 -0.577 0.572 -0.308 0.318 -0.450 0.484 -0.313 0.372 0.137 -0.112 0.396 -0.372 0.577 -0.577 z M 32.296 35.684 c -0.332 -0.259 -0.489 -0.709 -0.592 -1.721 -0.068 -0.650 -0.108 -0.900 -0.196 -1.340 -0.024 -0.108 0.230 -0.288 0.323 -0.230 0.083 0.049 0.675 1.320 0.807 1.731 0.171 0.548 0.200 1.388 0.049 1.560 -0.117 0.132 -0.225 0.132 -0.391 0.000 z M 29.143 35.327 c -0.034 -0.039 -0.073 -0.147 -0.088 -0.244 -0.024 -0.171 -0.010 -0.191 0.411 -0.606 0.240 -0.235 0.484 -0.489 0.543 -0.572 0.156 -0.230 0.191 -0.039 0.059 0.332 -0.313 0.875 -0.714 1.344 -0.924 1.090 z M 21.521 35.141 c -0.406 -0.225 -0.645 -0.694 -0.567 -1.105 0.064 -0.323 0.137 -0.269 0.171 0.117 0.049 0.655 0.352 0.914 1.046 0.895 0.416 -0.010 0.499 0.039 0.220 0.137 -0.284 0.098 -0.645 0.078 -0.870 -0.044 z M 16.847 35.068 c -0.068 -0.073 0.171 -1.349 0.269 -1.413 0.093 -0.054 0.093 0.122 -0.005 0.587 -0.054 0.264 -0.098 0.543 -0.098 0.616 0.000 0.137 -0.103 0.269 -0.166 0.210 z M 13.938 34.868 c -0.342 -0.342 -0.582 -1.652 -0.430 -2.381 0.044 -0.225 0.083 -0.460 0.083 -0.528 0.000 -0.122 0.108 -0.254 0.161 -0.196 0.020 0.015 0.064 0.000 0.103 -0.029 0.049 -0.039 0.078 -0.044 0.103 -0.005 0.015 0.029 0.049 0.039 0.073 0.024 0.068 -0.044 0.122 0.083 0.391 0.880 0.308 0.919 0.381 1.545 0.220 1.956 -0.152 0.406 -0.460 0.528 -0.704 0.279 z M 18.113 34.926 c -0.704 -0.210 -0.650 -0.851 0.093 -1.066 0.381 -0.112 1.188 -0.098 1.960 0.034 l 0.631 0.112 0.010 0.152 c 0.005 0.088 0.020 0.191 0.034 0.230 0.044 0.108 -0.039 0.147 -0.601 0.318 -0.997 0.308 -1.618 0.372 -2.127 0.220 z M 27.837 34.936 c -0.601 -0.269 0.103 -1.335 1.486 -2.249 0.856 -0.562 0.821 -0.548 0.963 -0.411 0.112 0.108 0.112 0.117 0.039 0.235 l -0.078 0.122 0.122 -0.108 c 0.127 -0.122 0.210 -0.142 0.259 -0.064 0.049 0.078 -0.489 1.076 -0.748 1.388 -0.640 0.772 -1.604 1.286 -2.044 1.085 z M 12.452 34.765 c -0.513 -0.186 -0.284 -1.692 0.425 -2.787 l 0.220 -0.342 0.147 0.073 c 0.083 0.044 0.152 0.098 0.152 0.122 0.000 0.029 0.020 0.039 0.044 0.020 0.093 -0.054 0.108 0.083 0.039 0.381 -0.044 0.166 -0.088 0.469 -0.108 0.670 -0.098 1.159 -0.518 2.004 -0.919 1.863 z M 33.733 34.750 c -0.372 -0.108 -1.090 -1.022 -1.628 -2.068 -0.176 -0.337 -0.176 -0.342 -0.083 -0.435 0.112 -0.117 0.122 -0.112 0.856 0.523 0.714 0.611 1.305 1.335 1.374 1.677 0.024 0.127 0.005 0.171 -0.103 0.259 -0.147 0.112 -0.166 0.117 -0.416 0.044 z M 24.982 34.520 c -0.308 -0.054 -0.763 -0.127 -1.007 -0.166 -0.528 -0.083 -0.548 -0.088 -0.538 -0.274 0.010 -0.186 0.020 -0.196 0.279 -0.244 l 0.215 -0.044 -0.249 -0.005 c -0.259 -0.005 -0.396 -0.088 -0.347 -0.220 0.015 -0.034 0.005 -0.088 -0.024 -0.117 -0.034 -0.034 0.034 -0.108 0.235 -0.235 0.161 -0.098 0.430 -0.274 0.606 -0.386 0.944 -0.606 1.985 -0.880 2.273 -0.592 0.078 0.078 0.108 0.152 0.088 0.220 -0.049 0.191 -0.528 0.572 -0.929 0.738 -0.210 0.088 -0.386 0.161 -0.391 0.166 -0.010 0.010 0.230 0.000 0.528 -0.010 0.660 -0.029 0.988 0.034 1.232 0.240 0.240 0.196 0.240 0.342 0.000 0.582 -0.386 0.381 -1.041 0.494 -1.970 0.347 z M 11.200 33.948 c -0.259 -0.328 -0.020 -0.743 0.895 -1.574 0.386 -0.352 0.714 -0.626 0.728 -0.611 0.015 0.015 -0.068 0.205 -0.186 0.425 -0.122 0.220 -0.259 0.523 -0.313 0.670 -0.352 1.022 -0.821 1.476 -1.124 1.090 z M 15.248 33.934 c -0.240 -0.073 -0.347 -0.161 -0.420 -0.332 -0.122 -0.293 -0.005 -0.318 0.269 -0.054 0.127 0.122 0.279 0.249 0.342 0.279 0.205 0.108 0.068 0.181 -0.191 0.108 z M 15.415 33.689 c -0.435 -0.342 -0.787 -0.831 -1.027 -1.428 -0.200 -0.489 -0.200 -0.606 -0.020 -0.719 0.235 -0.142 0.318 -0.112 0.557 0.215 0.117 0.161 0.347 0.435 0.508 0.611 0.557 0.601 0.748 0.909 0.748 1.183 0.000 0.376 -0.381 0.445 -0.768 0.137 z M 19.922 33.787 c -1.208 -0.230 -2.004 -0.670 -1.995 -1.105 0.015 -0.474 0.665 -0.601 1.437 -0.288 0.357 0.147 1.608 0.978 1.608 1.071 0.000 0.059 -0.147 0.210 -0.181 0.186 -0.005 -0.010 -0.029 -0.015 -0.049 -0.015 -0.020 0.000 0.005 0.029 0.059 0.064 0.249 0.186 -0.142 0.225 -0.880 0.088 z M 16.363 33.797 c -0.020 -0.015 -0.034 -0.108 -0.034 -0.205 -0.005 -0.098 -0.034 -0.264 -0.073 -0.372 -0.083 -0.225 -0.034 -0.303 0.127 -0.215 0.064 0.034 0.225 0.083 0.362 0.112 0.191 0.044 0.249 0.078 0.259 0.156 0.029 0.215 -0.508 0.655 -0.640 0.523 z M 36.329 33.665 c -0.127 -0.137 -0.196 -0.391 -0.200 -0.738 0.000 -0.474 0.225 -1.071 0.362 -0.958 0.044 0.034 0.078 0.034 0.112 0.000 0.122 -0.122 0.259 0.460 0.259 1.080 0.000 0.587 -0.269 0.900 -0.533 0.616 z M 34.369 33.508 c -0.538 -0.142 -1.071 -0.504 -2.097 -1.423 -0.064 -0.054 -0.059 -0.073 0.015 -0.156 0.049 -0.054 0.093 -0.132 0.098 -0.181 0.024 -0.176 0.142 -0.186 0.621 -0.049 0.728 0.210 1.310 0.484 1.692 0.812 0.508 0.425 0.621 0.724 0.352 0.948 -0.166 0.142 -0.293 0.152 -0.680 0.049 z M 26.644 33.264 c -0.122 -0.034 -0.279 -0.064 -0.352 -0.064 -0.196 -0.005 -0.210 -0.088 -0.034 -0.196 0.264 -0.161 0.460 -0.513 0.411 -0.738 -0.039 -0.176 -0.220 -0.254 -0.606 -0.274 -0.372 -0.015 -0.381 -0.024 -0.254 -0.200 0.254 -0.362 0.230 -0.826 -0.059 -0.973 -0.181 -0.093 -0.611 -0.068 -0.792 0.049 -0.152 0.098 -0.161 0.078 -0.132 -0.303 0.024 -0.396 -0.068 -0.670 -0.259 -0.743 -0.489 -0.186 -1.105 0.166 -1.437 0.821 -0.132 0.259 -0.181 0.235 -0.215 -0.122 -0.083 -0.851 -0.494 -1.325 -0.978 -1.120 -0.200 0.083 -0.347 0.328 -0.430 0.714 -0.064 0.303 -0.108 0.332 -0.235 0.152 -0.059 -0.078 -0.196 -0.181 -0.313 -0.225 -0.401 -0.152 -0.621 0.068 -0.621 0.626 0.000 0.386 -0.020 0.406 -0.240 0.235 -0.386 -0.303 -0.860 -0.367 -1.061 -0.147 -0.210 0.230 -0.093 0.944 0.210 1.276 0.132 0.147 0.020 0.186 -0.303 0.112 -0.499 -0.122 -0.831 -0.064 -1.056 0.176 -0.147 0.156 -0.142 0.156 -0.352 -0.205 -0.156 -0.279 -0.543 -0.636 -0.846 -0.777 -0.308 -0.152 -0.254 -0.205 0.225 -0.215 0.689 -0.020 1.027 -0.225 1.027 -0.621 0.000 -0.313 -0.215 -0.469 -0.846 -0.621 -0.200 -0.044 -0.367 -0.098 -0.381 -0.117 -0.010 -0.015 0.122 -0.103 0.298 -0.196 0.660 -0.337 0.870 -1.046 0.362 -1.212 -0.210 -0.073 -0.670 -0.068 -0.802 0.000 -0.152 0.078 -0.166 -0.029 -0.029 -0.210 0.919 -1.208 -0.249 -1.853 -1.369 -0.758 -0.332 0.323 -0.391 0.313 -0.313 -0.039 0.088 -0.381 0.068 -0.865 -0.039 -1.110 -0.112 -0.259 -0.298 -0.352 -0.626 -0.313 -0.269 0.029 -0.401 0.142 -0.582 0.504 -0.176 0.352 -0.196 0.357 -0.313 0.088 -0.054 -0.122 -0.156 -0.293 -0.230 -0.372 l -0.127 -0.152 0.152 -0.117 c 0.156 -0.122 0.279 -0.440 0.235 -0.606 -0.034 -0.132 0.039 -0.156 0.196 -0.078 0.073 0.039 0.249 0.088 0.391 0.108 0.831 0.112 1.027 -0.596 0.396 -1.428 -0.279 -0.372 -0.264 -0.425 0.108 -0.328 0.489 0.127 0.919 0.064 1.017 -0.156 0.181 -0.386 -0.093 -0.880 -0.660 -1.193 -0.303 -0.166 -0.288 -0.210 0.137 -0.298 0.636 -0.132 0.924 -0.357 0.924 -0.719 0.000 -0.440 -0.665 -0.787 -1.501 -0.792 -0.347 0.000 -0.352 -0.059 -0.039 -0.249 0.337 -0.205 0.474 -0.391 0.504 -0.684 0.020 -0.210 0.010 -0.240 -0.117 -0.318 -0.142 -0.098 -0.548 -0.122 -0.714 -0.049 -0.132 0.059 -0.161 -0.093 -0.049 -0.249 0.132 -0.196 0.205 -0.435 0.205 -0.684 0.000 -0.279 -0.064 -0.391 -0.264 -0.474 l -0.166 -0.068 0.024 -0.288 c 0.029 -0.323 -0.054 -0.562 -0.337 -1.007 -0.137 -0.215 -0.147 -0.259 -0.122 -0.533 0.029 -0.318 0.103 -0.464 0.161 -0.303 0.122 0.323 0.792 1.076 1.305 1.457 l 0.181 0.137 0.000 0.450 c 0.000 0.504 0.132 0.992 0.376 1.374 0.244 0.391 0.587 0.474 0.694 0.166 0.132 -0.376 0.000 -0.831 -0.381 -1.340 -0.254 -0.337 -0.318 -0.464 -0.259 -0.523 0.029 -0.029 0.108 0.005 0.220 0.103 0.401 0.357 1.256 0.592 1.716 0.474 0.249 -0.064 0.108 -0.499 -0.230 -0.704 -0.303 -0.191 -0.587 -0.259 -1.237 -0.303 -0.728 -0.044 -0.914 -0.108 -1.330 -0.440 -0.367 -0.293 -0.274 -0.352 0.235 -0.152 0.508 0.200 0.865 0.264 1.296 0.240 0.680 -0.044 1.168 -0.460 0.846 -0.724 l -0.108 -0.083 0.132 -0.161 c 0.078 -0.088 0.181 -0.244 0.235 -0.347 0.054 -0.108 0.103 -0.191 0.112 -0.191 0.010 0.000 0.093 0.127 0.191 0.288 0.220 0.357 0.376 0.460 0.684 0.464 0.200 0.005 0.254 -0.015 0.352 -0.127 0.132 -0.156 0.235 -0.572 0.191 -0.802 -0.049 -0.254 0.010 -0.279 0.264 -0.098 0.435 0.308 0.856 0.347 1.022 0.093 0.112 -0.166 0.098 -0.548 -0.024 -0.797 -0.103 -0.210 -0.044 -0.328 0.103 -0.205 0.210 0.176 0.900 0.098 1.012 -0.108 0.083 -0.166 0.039 -0.543 -0.093 -0.719 -0.112 -0.152 -0.064 -0.225 0.088 -0.142 0.132 0.068 0.479 0.059 0.709 -0.024 0.254 -0.088 0.279 -0.068 0.196 0.205 -0.103 0.332 -0.088 0.528 0.049 0.684 0.122 0.142 0.254 0.156 0.777 0.103 0.137 -0.015 0.137 -0.010 0.152 0.264 0.015 0.303 0.103 0.455 0.323 0.538 0.147 0.054 0.518 -0.073 0.587 -0.210 0.068 -0.127 0.142 -0.117 0.196 0.029 0.210 0.557 0.909 0.484 1.168 -0.117 0.137 -0.323 0.171 -0.337 0.308 -0.098 0.176 0.313 0.557 0.440 0.807 0.264 0.142 -0.098 0.225 -0.508 0.166 -0.821 -0.059 -0.313 0.000 -0.328 0.264 -0.073 l 0.215 0.210 -0.103 0.108 c -0.068 0.073 -0.103 0.171 -0.103 0.308 0.000 0.269 0.176 0.455 0.640 0.670 0.332 0.156 0.416 0.259 0.205 0.259 -0.313 0.000 -0.968 0.376 -1.100 0.631 -0.117 0.230 -0.098 0.523 0.044 0.616 0.196 0.132 0.675 0.196 0.992 0.137 0.401 -0.073 0.406 -0.044 0.044 0.308 -0.826 0.797 -0.445 1.535 0.606 1.173 0.288 -0.098 0.323 -0.049 0.171 0.269 -0.240 0.518 -0.137 0.904 0.259 0.958 0.308 0.039 0.621 -0.098 0.929 -0.411 0.288 -0.298 0.288 -0.303 0.318 0.279 0.015 0.269 0.059 0.499 0.127 0.650 0.117 0.264 0.108 0.298 -0.093 0.401 -0.357 0.186 -0.284 0.714 0.161 1.183 0.235 0.249 0.269 0.391 0.078 0.332 -0.152 -0.049 -0.601 -0.034 -0.826 0.024 -0.288 0.078 -0.440 0.240 -0.440 0.474 0.000 0.362 0.220 0.577 0.772 0.748 0.142 0.044 0.259 0.103 0.259 0.127 0.005 0.049 0.000 0.049 -0.416 0.249 -0.386 0.186 -0.567 0.396 -0.567 0.665 0.000 0.450 0.342 0.636 1.095 0.611 0.543 -0.015 0.552 -0.005 0.249 0.264 -0.332 0.293 -0.528 0.636 -0.533 0.929 l -0.005 0.249 -0.733 0.005 c -0.724 0.005 -0.738 0.005 -1.051 0.161 -0.518 0.259 -0.684 0.596 -0.352 0.733 0.455 0.191 1.447 -0.010 2.004 -0.411 0.455 -0.323 0.474 -0.293 0.474 0.733 0.000 0.860 -0.024 0.929 -0.230 0.621 -0.328 -0.479 -1.110 -0.567 -1.256 -0.137 -0.068 0.191 -0.068 0.846 -0.005 0.968 0.078 0.147 -0.020 0.156 -0.298 0.024 -0.763 -0.352 -1.266 -0.103 -1.124 0.543 0.068 0.293 0.249 0.538 0.636 0.865 0.288 0.244 0.279 0.279 -0.078 0.279 l -0.274 0.000 -0.332 -0.357 c -0.557 -0.606 -1.755 -1.056 -1.755 -0.655 0.000 0.347 0.381 0.792 0.890 1.046 0.391 0.191 0.396 0.196 0.274 0.401 -0.279 0.484 0.215 0.865 1.198 0.929 0.259 0.015 0.479 0.049 0.489 0.068 0.005 0.020 -0.112 0.088 -0.259 0.147 -0.890 0.362 -1.242 0.797 -1.012 1.247 0.039 0.083 0.059 0.161 0.044 0.176 -0.029 0.034 -0.015 0.034 -0.303 -0.049 z M 20.744 33.098 c -1.320 -0.821 -2.000 -1.775 -1.579 -2.224 0.347 -0.372 1.120 0.186 1.828 1.315 0.215 0.347 0.318 0.552 0.298 0.611 -0.015 0.059 0.000 0.103 0.049 0.122 0.117 0.044 0.088 0.161 -0.068 0.269 -0.181 0.132 -0.166 0.132 -0.528 -0.093 z M 23.149 33.244 c -0.015 -0.024 -0.015 -0.073 0.000 -0.098 0.020 -0.029 0.005 -0.044 -0.029 -0.039 -0.171 0.039 -0.024 -0.171 0.636 -0.924 0.743 -0.841 1.066 -1.120 1.467 -1.261 0.274 -0.093 0.264 -0.098 0.440 0.054 0.122 0.103 0.152 0.166 0.152 0.313 0.000 0.367 -0.337 0.675 -1.398 1.271 -0.259 0.147 -0.636 0.372 -0.836 0.504 -0.396 0.254 -0.386 0.249 -0.430 0.181 z M 27.182 33.161 c -0.660 -0.342 0.284 -1.110 1.824 -1.491 0.675 -0.166 0.831 -0.166 0.856 0.005 0.010 0.068 0.054 0.171 0.093 0.235 0.098 0.152 0.098 0.152 -0.631 0.616 -0.992 0.636 -1.726 0.851 -2.141 0.636 z M 7.045 33.064 c -0.152 -0.132 -0.244 -0.724 -0.142 -0.929 0.049 -0.103 0.059 -0.171 0.029 -0.200 -0.073 -0.073 0.049 -0.528 0.186 -0.689 0.064 -0.078 0.103 -0.176 0.088 -0.230 -0.015 -0.064 0.054 -0.181 0.225 -0.376 0.381 -0.425 0.430 -0.274 0.068 0.210 -0.103 0.132 -0.083 0.122 0.073 -0.044 0.132 -0.142 0.220 -0.200 0.249 -0.171 0.068 0.068 -0.083 0.450 -0.264 0.655 -0.083 0.093 -0.117 0.137 -0.068 0.108 0.108 -0.088 0.142 -0.010 0.088 0.191 -0.029 0.093 -0.049 0.166 -0.049 0.171 0.000 0.000 0.034 0.005 0.073 0.005 0.054 0.000 0.073 -0.059 0.073 -0.210 0.000 -0.215 0.166 -0.728 0.274 -0.846 0.078 -0.088 0.186 0.147 0.152 0.323 -0.010 0.059 0.000 0.132 0.020 0.166 0.020 0.034 0.024 0.088 0.005 0.112 -0.015 0.029 -0.024 0.132 -0.015 0.235 0.015 0.210 -0.161 0.782 -0.269 0.870 -0.039 0.034 -0.068 0.088 -0.068 0.117 0.000 0.137 -0.460 0.616 -0.592 0.616 -0.020 0.000 -0.078 -0.039 -0.137 -0.083 z M 10.096 33.024 c -0.406 -0.401 0.376 -1.266 1.657 -1.828 0.284 -0.127 0.508 -0.196 0.557 -0.176 0.078 0.029 0.078 0.034 0.000 0.093 -0.049 0.034 -0.088 0.083 -0.088 0.103 0.000 0.024 0.044 0.000 0.093 -0.044 0.103 -0.093 0.200 -0.068 0.200 0.049 0.000 0.039 0.020 0.064 0.044 0.049 0.117 -0.073 0.171 0.122 0.078 0.288 -0.122 0.235 -0.924 1.041 -1.261 1.266 -0.518 0.347 -1.051 0.435 -1.281 0.200 z M 16.588 32.951 c -0.768 -0.274 -1.824 -1.315 -1.824 -1.799 0.000 -0.420 0.156 -0.435 1.007 -0.103 0.816 0.318 1.472 0.812 1.726 1.291 0.293 0.552 -0.181 0.870 -0.909 0.611 z M 22.621 32.917 c -0.103 -0.054 -0.122 -0.088 -0.088 -0.152 0.117 -0.225 0.244 -0.699 0.220 -0.826 -0.034 -0.166 0.235 -0.870 0.469 -1.237 0.191 -0.293 0.587 -0.670 0.807 -0.763 0.528 -0.220 0.851 0.411 0.538 1.036 -0.122 0.244 -1.648 1.995 -1.755 2.009 -0.029 0.000 -0.112 -0.024 -0.191 -0.068 z M 21.511 32.873 c -0.029 -0.054 -0.171 -0.288 -0.323 -0.533 -0.508 -0.841 -0.675 -1.227 -0.699 -1.628 -0.015 -0.318 -0.005 -0.372 0.098 -0.479 0.161 -0.171 0.279 -0.147 0.518 0.103 0.367 0.386 0.557 0.934 0.699 2.024 0.059 0.435 0.039 0.567 -0.068 0.528 -0.034 -0.015 -0.088 -0.005 -0.117 0.024 -0.034 0.034 -0.068 0.024 -0.108 -0.039 z M 21.980 32.863 c -0.015 -0.024 -0.039 -0.161 -0.054 -0.308 -0.020 -0.147 -0.088 -0.552 -0.152 -0.909 -0.210 -1.124 -0.166 -1.731 0.137 -2.053 0.215 -0.230 0.528 -0.064 0.724 0.386 0.303 0.699 0.020 2.845 -0.376 2.850 -0.059 0.000 -0.122 0.020 -0.142 0.039 -0.049 0.044 -0.108 0.044 -0.137 -0.005 z M 30.790 32.364 c -0.450 -0.137 -0.782 -0.499 -0.846 -0.909 -0.039 -0.274 0.039 -0.406 0.122 -0.196 0.024 0.073 0.049 0.166 0.049 0.205 0.000 0.093 0.132 0.357 0.240 0.479 0.137 0.152 0.411 0.264 0.714 0.284 0.215 0.015 0.293 0.039 0.293 0.093 0.000 0.078 -0.362 0.112 -0.572 0.044 z M 38.070 32.110 c -0.117 -0.117 -0.298 -0.308 -0.401 -0.430 -0.103 -0.122 -0.152 -0.156 -0.103 -0.083 0.156 0.254 -0.044 0.391 -0.249 0.171 -0.215 -0.240 -0.381 -0.768 -0.264 -0.841 0.034 -0.024 0.015 -0.093 -0.068 -0.210 -0.176 -0.264 -0.093 -0.293 0.161 -0.054 0.127 0.117 0.386 0.337 0.572 0.484 0.660 0.528 0.948 0.924 0.807 1.095 -0.103 0.122 -0.235 0.083 -0.455 -0.132 z M 34.540 32.100 c -0.132 -0.039 -0.572 -0.176 -0.978 -0.313 -0.401 -0.132 -0.812 -0.264 -0.904 -0.288 -0.156 -0.039 -0.171 -0.059 -0.166 -0.210 l 0.000 -0.171 0.904 -0.015 c 1.222 -0.020 1.760 0.103 2.122 0.479 0.362 0.376 -0.264 0.704 -0.978 0.518 z M 13.337 31.582 c -0.538 -0.161 -0.963 -0.777 -0.904 -1.300 0.024 -0.215 0.112 -0.381 0.181 -0.337 0.020 0.015 0.015 0.108 -0.010 0.215 -0.039 0.147 -0.029 0.254 0.029 0.460 0.142 0.489 0.479 0.758 1.017 0.807 0.323 0.029 0.401 0.083 0.210 0.156 -0.152 0.059 -0.337 0.059 -0.523 0.000 z M 9.436 31.528 c -0.171 -0.068 -0.391 -0.288 -0.391 -0.396 0.000 -0.137 0.264 -0.401 0.548 -0.543 0.425 -0.215 0.968 -0.328 1.726 -0.357 0.763 -0.034 0.953 0.005 0.953 0.186 0.000 0.064 0.020 0.147 0.049 0.186 0.029 0.044 0.024 0.093 -0.015 0.142 -0.034 0.039 -0.049 0.083 -0.039 0.098 0.044 0.059 -1.100 0.523 -1.638 0.665 -0.318 0.083 -1.007 0.093 -1.193 0.020 z M 27.339 31.533 c -0.836 -0.152 -1.032 -0.645 -0.386 -0.992 0.332 -0.176 1.481 -0.156 1.990 0.029 0.200 0.078 0.469 0.176 0.596 0.220 0.303 0.112 0.357 0.166 0.288 0.298 -0.039 0.068 -0.108 0.103 -0.215 0.108 -0.127 0.000 -0.137 0.010 -0.059 0.039 0.054 0.024 0.112 0.034 0.132 0.024 0.064 -0.039 0.088 0.068 0.024 0.112 -0.161 0.132 -1.892 0.244 -2.371 0.161 z M 32.658 31.000 c -0.176 -0.024 -0.220 -0.049 -0.220 -0.127 0.000 -0.054 -0.029 -0.122 -0.068 -0.152 -0.132 -0.103 0.127 -0.279 0.792 -0.528 0.973 -0.367 2.068 -0.352 2.303 0.029 0.161 0.264 -0.347 0.626 -1.036 0.753 -0.376 0.064 -1.354 0.078 -1.770 0.024 z M 16.036 30.961 c -0.244 -0.039 -1.002 -0.269 -1.066 -0.318 -0.034 -0.029 -0.054 -0.083 -0.039 -0.117 0.015 -0.034 0.005 -0.078 -0.024 -0.093 -0.024 -0.020 -0.034 -0.054 -0.015 -0.078 0.015 -0.024 0.005 -0.078 -0.029 -0.117 -0.073 -0.088 -0.044 -0.103 0.552 -0.215 1.110 -0.215 2.083 -0.064 2.361 0.367 0.117 0.176 0.015 0.347 -0.298 0.489 -0.240 0.112 -1.007 0.156 -1.442 0.083 z M 29.089 30.541 c -0.733 -0.274 -1.032 -0.440 -1.393 -0.777 -0.352 -0.328 -0.489 -0.592 -0.445 -0.841 0.132 -0.709 1.124 -0.318 2.317 0.924 0.401 0.416 0.538 0.592 0.499 0.631 -0.034 0.034 -0.073 0.034 -0.137 -0.005 -0.068 -0.039 -0.108 -0.034 -0.176 0.010 -0.078 0.064 -0.078 0.068 0.029 0.083 0.152 0.020 0.147 0.156 -0.010 0.171 -0.068 0.005 -0.376 -0.083 -0.684 -0.196 z M 38.598 30.717 c -0.054 -0.015 -0.152 -0.049 -0.220 -0.073 -0.068 -0.024 -0.127 -0.044 -0.132 -0.044 -0.176 0.024 -0.963 -0.489 -1.168 -0.758 -0.147 -0.186 -0.117 -0.308 0.044 -0.200 0.127 0.078 0.279 0.137 0.279 0.108 0.000 -0.054 -0.592 -0.352 -0.851 -0.435 -0.328 -0.098 -0.592 -0.269 -0.523 -0.337 0.024 -0.024 0.122 0.000 0.230 0.054 0.108 0.054 0.445 0.176 0.753 0.274 1.007 0.323 1.687 0.680 1.687 0.880 0.000 0.039 0.064 0.117 0.137 0.176 0.269 0.215 0.117 0.445 -0.235 0.357 z M 32.144 30.414 c -0.073 -0.083 -0.044 -0.117 0.401 -0.523 0.807 -0.738 1.315 -1.095 1.838 -1.291 0.362 -0.137 0.489 -0.127 0.645 0.059 0.200 0.240 0.108 0.479 -0.308 0.812 -0.284 0.220 -1.300 0.596 -1.388 0.508 -0.039 -0.039 -0.098 -0.020 -0.205 0.059 -0.083 0.064 -0.323 0.191 -0.528 0.288 -0.357 0.166 -0.376 0.166 -0.455 0.088 z M 26.278 30.262 c -0.464 -0.225 -0.929 -0.758 -0.797 -0.919 0.098 -0.117 0.328 -0.024 0.670 0.269 0.176 0.152 0.259 0.210 0.186 0.127 -0.088 -0.093 -0.122 -0.161 -0.088 -0.181 0.073 -0.049 0.323 0.093 0.416 0.240 0.049 0.073 0.112 0.117 0.152 0.103 0.083 -0.029 0.191 0.093 0.147 0.166 -0.020 0.029 -0.005 0.083 0.024 0.122 0.117 0.142 -0.005 0.171 -0.176 0.044 -0.156 -0.122 -0.244 -0.098 -0.093 0.029 0.088 0.073 0.054 0.147 -0.064 0.147 -0.044 0.000 -0.215 -0.068 -0.376 -0.147 z M 29.636 29.729 c -0.963 -0.968 -1.256 -1.696 -0.860 -2.117 0.411 -0.425 1.071 0.176 1.506 1.379 0.323 0.895 0.347 1.032 0.220 1.129 -0.259 0.191 -0.313 0.166 -0.865 -0.391 z M 8.037 30.145 c -0.039 -0.103 0.269 -0.543 0.332 -0.479 0.034 0.034 0.010 0.122 -0.078 0.274 -0.152 0.254 -0.215 0.308 -0.254 0.205 z M 9.988 30.096 c -0.293 -0.073 -0.611 -0.264 -0.724 -0.440 -0.259 -0.396 0.640 -0.665 1.486 -0.445 0.352 0.088 1.247 0.381 1.481 0.484 l 0.186 0.078 -0.093 0.161 c -0.088 0.156 -0.088 0.156 -0.572 0.186 -0.782 0.054 -1.491 0.039 -1.765 -0.024 z M 31.704 30.111 c -0.020 -0.029 -0.064 -0.039 -0.103 -0.024 -0.039 0.015 -0.122 0.005 -0.191 -0.020 -0.112 -0.044 -0.117 -0.059 -0.098 -0.401 0.020 -0.416 0.259 -1.388 0.430 -1.770 0.171 -0.372 0.557 -0.763 0.753 -0.763 0.288 0.000 0.543 0.675 0.420 1.100 -0.093 0.313 -0.425 0.934 -0.802 1.496 -0.288 0.430 -0.352 0.484 -0.411 0.381 z M 30.722 29.984 c -0.015 -0.049 -0.068 -0.186 -0.117 -0.308 -0.171 -0.416 -0.391 -1.374 -0.391 -1.687 0.000 -0.812 0.504 -1.296 0.944 -0.904 0.328 0.288 0.357 0.992 0.093 2.298 l -0.137 0.660 -0.181 0.015 c -0.142 0.015 -0.186 -0.005 -0.210 -0.073 z M 32.100 30.028 c -0.015 -0.024 0.122 -0.274 0.308 -0.552 0.181 -0.279 0.420 -0.665 0.533 -0.860 0.240 -0.411 0.357 -0.508 0.557 -0.469 0.122 0.024 0.176 -0.005 0.391 -0.230 0.303 -0.318 0.362 -0.284 0.288 0.171 -0.059 0.386 -0.088 0.420 -0.714 0.934 -0.240 0.196 -0.626 0.513 -0.856 0.704 -0.420 0.347 -0.464 0.376 -0.508 0.303 z M 14.779 29.940 c -0.024 -0.064 0.020 -0.132 0.161 -0.254 0.191 -0.171 0.156 -0.171 -0.093 0.005 -0.166 0.112 -0.293 0.049 -0.176 -0.093 0.269 -0.328 1.384 -0.988 1.882 -1.115 0.816 -0.210 1.232 0.147 0.768 0.660 -0.332 0.367 -0.802 0.567 -1.701 0.728 -0.293 0.054 -0.596 0.112 -0.675 0.127 -0.098 0.020 -0.142 0.005 -0.166 -0.059 z M 6.683 29.744 c -0.024 -0.024 -0.152 -0.049 -0.284 -0.054 -0.137 -0.005 -0.298 -0.044 -0.362 -0.083 -0.064 -0.044 -0.152 -0.078 -0.196 -0.078 -0.161 0.000 -0.611 -0.293 -0.611 -0.396 0.000 -0.176 0.523 -0.557 0.714 -0.518 0.064 0.010 0.117 0.000 0.117 -0.024 0.000 -0.064 0.318 -0.186 0.494 -0.186 0.083 0.000 0.220 0.049 0.303 0.108 0.142 0.098 0.152 0.098 0.068 0.010 -0.293 -0.342 0.684 -0.108 1.134 0.269 0.137 0.117 0.249 0.220 0.249 0.230 0.000 0.039 -0.352 0.166 -0.391 0.142 -0.024 -0.015 -0.059 0.000 -0.078 0.029 -0.059 0.098 0.376 0.000 0.704 -0.161 0.225 -0.108 0.420 -0.259 0.704 -0.557 0.450 -0.460 0.592 -0.499 0.264 -0.073 -0.455 0.587 -0.939 0.909 -1.809 1.203 -0.396 0.132 -0.953 0.210 -1.022 0.142 z M 11.807 29.421 c -0.875 -0.323 -1.188 -0.489 -1.462 -0.768 -0.543 -0.552 -0.215 -1.071 0.464 -0.724 0.249 0.127 1.804 1.442 1.804 1.525 0.000 0.034 -0.039 0.093 -0.083 0.132 -0.078 0.064 -0.152 0.049 -0.724 -0.166 z M 14.295 29.363 l -0.191 -0.166 0.117 -0.210 c 0.660 -1.198 1.432 -1.970 2.034 -2.039 0.181 -0.020 0.215 -0.005 0.332 0.137 0.347 0.406 -0.039 1.002 -1.139 1.760 -0.284 0.196 -0.606 0.430 -0.719 0.518 -0.244 0.200 -0.205 0.200 -0.435 0.000 z M 12.486 29.148 c -0.264 -0.210 -0.655 -0.631 -0.655 -0.709 0.000 -0.024 -0.024 -0.024 -0.064 0.005 -0.049 0.044 -0.147 -0.034 -0.435 -0.347 -0.587 -0.640 -0.768 -1.134 -0.523 -1.423 0.117 -0.132 0.122 -0.132 0.323 -0.064 0.450 0.156 0.851 0.616 1.344 1.550 0.122 0.230 0.293 0.543 0.376 0.704 0.152 0.279 0.166 0.455 0.034 0.406 -0.034 -0.015 -0.088 -0.005 -0.112 0.020 -0.034 0.034 -0.132 -0.020 -0.288 -0.142 z M 13.752 29.079 c -0.112 -0.127 -0.137 -0.249 -0.210 -1.076 -0.098 -1.120 0.254 -1.975 0.797 -1.936 0.636 0.049 0.596 1.242 -0.078 2.591 -0.269 0.538 -0.347 0.596 -0.508 0.420 z M 13.141 29.055 c -0.640 -0.743 -1.110 -2.097 -0.924 -2.664 0.235 -0.709 0.870 -0.328 1.100 0.650 0.088 0.391 0.244 1.882 0.205 1.980 -0.015 0.044 -0.064 0.068 -0.103 0.049 -0.039 -0.015 -0.083 -0.005 -0.098 0.020 -0.044 0.073 -0.098 0.059 -0.181 -0.034 z M 35.278 28.395 c -0.538 -0.557 -0.856 -0.992 -0.777 -1.071 0.029 -0.029 0.161 0.103 0.381 0.381 0.186 0.240 0.489 0.582 0.670 0.768 0.293 0.293 0.362 0.420 0.240 0.420 -0.020 0.000 -0.254 -0.225 -0.513 -0.499 z M 34.305 28.424 c -0.034 -0.039 0.020 -0.616 0.073 -0.714 0.064 -0.132 0.112 -0.108 0.259 0.122 0.073 0.112 0.191 0.264 0.259 0.337 0.108 0.117 0.112 0.137 0.039 0.166 -0.044 0.020 -0.093 0.020 -0.108 0.005 -0.020 -0.015 -0.078 -0.010 -0.137 0.010 -0.181 0.068 -0.357 0.103 -0.386 0.073 z M 36.544 28.326 c -0.499 -0.108 -0.684 -0.186 -0.631 -0.274 0.029 -0.044 0.411 -0.020 0.621 0.039 0.054 0.020 0.078 0.005 0.073 -0.039 -0.024 -0.098 -0.142 -0.132 -0.372 -0.103 -0.210 0.024 -0.381 -0.049 -0.323 -0.142 0.054 -0.083 0.768 -0.391 0.948 -0.411 0.093 -0.005 0.293 -0.034 0.440 -0.059 0.210 -0.039 0.284 -0.034 0.347 0.020 0.059 0.049 0.088 0.054 0.132 0.010 0.064 -0.064 0.768 0.073 0.821 0.161 0.015 0.029 0.083 0.068 0.147 0.093 0.401 0.156 -0.381 0.611 -1.178 0.689 -0.455 0.044 -0.856 0.049 -1.027 0.015 z M 33.244 27.886 c -0.313 -0.284 -0.411 -0.606 -0.416 -1.340 0.000 -0.538 0.015 -0.660 0.137 -1.051 0.078 -0.240 0.196 -0.616 0.264 -0.831 0.156 -0.499 0.244 -0.596 0.435 -0.504 0.137 0.064 0.142 0.083 0.176 0.504 0.020 0.244 0.059 0.484 0.083 0.538 0.068 0.156 0.176 1.232 0.161 1.633 -0.020 0.425 -0.152 0.821 -0.362 1.061 -0.186 0.210 -0.240 0.210 -0.479 -0.010 z M 10.477 27.691 c -0.191 -0.083 -0.191 -0.083 -0.059 -0.293 0.127 -0.205 0.176 -0.210 0.264 -0.005 0.147 0.357 0.093 0.435 -0.205 0.298 z M 9.959 27.686 c -0.044 -0.073 0.411 -0.763 0.469 -0.704 0.024 0.024 0.000 0.117 -0.054 0.230 -0.137 0.264 -0.376 0.538 -0.416 0.474 z M 31.553 27.656 c -0.015 -0.039 -0.029 -0.161 -0.034 -0.279 -0.010 -0.210 -0.005 -0.215 0.147 -0.225 0.259 -0.015 0.572 -0.244 0.782 -0.577 0.152 -0.240 0.220 -0.181 0.200 0.171 -0.015 0.264 -0.015 0.264 -0.166 0.249 -0.171 -0.020 -0.596 0.323 -0.733 0.582 -0.078 0.152 -0.152 0.181 -0.196 0.078 z M 7.451 27.495 c -0.318 -0.078 -0.479 -0.269 -0.293 -0.342 0.039 -0.015 0.064 -0.054 0.049 -0.088 -0.049 -0.122 0.645 -0.587 0.797 -0.533 0.049 0.015 0.073 0.015 0.054 -0.010 -0.073 -0.078 0.073 -0.171 0.259 -0.171 0.103 0.000 0.200 -0.020 0.215 -0.049 0.054 -0.088 0.738 -0.039 1.095 0.078 0.108 0.034 -0.083 0.215 -0.235 0.215 -0.112 0.005 -0.117 0.010 -0.039 0.054 0.044 0.029 0.068 0.078 0.054 0.108 -0.020 0.034 0.054 -0.024 0.166 -0.132 0.171 -0.161 0.303 -0.200 0.303 -0.088 0.000 0.137 -0.680 0.807 -0.831 0.816 -0.049 0.005 -0.122 0.034 -0.161 0.064 -0.181 0.152 -0.978 0.196 -1.432 0.078 z m 1.584 -0.684 c 0.024 0.015 0.083 -0.015 0.132 -0.068 0.083 -0.093 0.083 -0.098 -0.005 -0.098 -0.054 0.000 -0.122 -0.020 -0.156 -0.049 -0.044 -0.034 -0.044 -0.034 -0.010 0.010 0.068 0.078 -0.034 0.186 -0.181 0.186 -0.064 0.000 -0.108 0.020 -0.093 0.044 0.015 0.024 -0.005 0.068 -0.044 0.103 -0.039 0.034 -0.059 0.083 -0.044 0.108 0.020 0.024 0.103 -0.024 0.191 -0.108 0.088 -0.088 0.186 -0.147 0.210 -0.127 z M 34.921 27.334 c -0.567 -0.411 -0.812 -1.051 -0.914 -2.396 l -0.059 -0.748 0.112 -0.073 c 0.064 -0.044 0.132 -0.054 0.171 -0.034 0.034 0.024 0.083 0.044 0.112 0.044 0.078 0.000 1.022 1.931 1.115 2.283 0.122 0.474 0.112 0.733 -0.044 0.914 -0.156 0.186 -0.244 0.191 -0.494 0.010 z M 31.392 26.908 c -0.122 -0.156 -0.137 -0.523 -0.029 -0.782 0.117 -0.288 0.714 -1.007 0.782 -0.948 0.049 0.039 0.142 -0.083 0.376 -0.474 0.176 -0.293 0.337 -0.523 0.362 -0.523 0.024 0.005 0.073 -0.034 0.108 -0.083 0.073 -0.108 0.244 -0.122 0.284 -0.024 0.024 0.068 -0.005 0.186 -0.284 1.056 -0.435 1.354 -1.232 2.244 -1.599 1.780 z M 11.880 26.767 c -0.068 -0.181 -0.142 -1.256 -0.088 -1.315 0.088 -0.103 0.137 0.073 0.196 0.694 0.044 0.484 0.044 0.660 0.000 0.704 -0.039 0.039 -0.068 0.020 -0.108 -0.083 z M 30.492 26.811 c -0.059 -0.064 -0.039 -0.435 0.029 -0.533 0.054 -0.073 0.078 -0.073 0.108 -0.020 0.098 0.156 -0.029 0.660 -0.137 0.552 z M 30.859 26.781 c -0.122 -0.122 -0.073 -0.474 0.088 -0.636 0.147 -0.142 0.284 -0.161 0.254 -0.034 -0.010 0.039 -0.039 0.196 -0.059 0.347 -0.054 0.386 -0.132 0.474 -0.284 0.323 z M 27.612 26.737 c -0.132 -0.073 -0.108 -0.132 0.122 -0.342 0.240 -0.220 0.606 -0.362 0.846 -0.323 0.112 0.020 0.161 0.010 0.152 -0.029 -0.005 -0.039 0.059 -0.054 0.205 -0.044 0.293 0.024 0.460 0.093 0.411 0.166 -0.020 0.034 -0.039 0.098 -0.039 0.137 0.000 0.044 -0.034 0.068 -0.088 0.059 -0.049 -0.010 -0.142 0.020 -0.205 0.059 -0.068 0.044 -0.152 0.078 -0.196 0.078 -0.039 0.000 -0.068 0.024 -0.059 0.059 0.029 0.147 -0.948 0.303 -1.149 0.181 z M 11.420 26.571 c -0.078 -0.117 -0.078 -0.132 0.024 -0.274 0.132 -0.186 0.200 -0.127 0.181 0.152 -0.020 0.249 -0.093 0.293 -0.205 0.122 z M 36.100 26.576 c -0.176 -0.078 -0.538 -0.391 -0.611 -0.528 -0.083 -0.156 0.005 -0.205 0.147 -0.078 0.068 0.059 0.039 0.010 -0.073 -0.108 -0.352 -0.386 -1.144 -1.687 -1.144 -1.877 0.000 -0.093 0.176 -0.191 0.259 -0.147 0.108 0.068 0.684 0.518 1.071 0.836 0.821 0.680 1.276 1.379 1.134 1.750 -0.078 0.196 -0.494 0.279 -0.782 0.152 z M 10.780 26.224 c -0.298 -0.318 -0.455 -1.193 -0.362 -2.004 0.088 -0.821 0.332 -1.633 0.489 -1.633 0.108 0.000 0.288 0.166 0.288 0.264 0.000 0.054 0.088 0.445 0.196 0.860 0.332 1.271 0.323 2.058 -0.034 2.449 -0.210 0.235 -0.401 0.254 -0.577 0.064 z M 12.100 26.048 c -0.049 -0.161 -0.073 -0.435 -0.044 -0.484 0.020 -0.034 0.093 0.010 0.191 0.103 l 0.166 0.161 -0.108 0.137 c -0.108 0.152 -0.171 0.176 -0.205 0.083 z M 30.013 26.014 c -0.538 -0.425 0.313 -1.335 2.048 -2.200 0.396 -0.196 0.508 -0.235 0.523 -0.176 0.015 0.039 0.034 0.108 0.049 0.147 0.010 0.039 -0.049 0.156 -0.132 0.259 -0.147 0.171 -0.142 0.166 0.068 -0.029 0.269 -0.254 0.328 -0.210 0.152 0.117 -0.675 1.271 -2.171 2.312 -2.708 1.882 z M 12.486 25.657 c -0.328 -0.284 -0.636 -0.826 -0.846 -1.472 -0.249 -0.763 -0.411 -1.550 -0.337 -1.638 0.108 -0.127 0.200 -0.024 0.430 0.499 0.303 0.675 0.812 1.428 1.164 1.726 0.181 0.152 0.303 0.381 0.303 0.582 0.000 0.450 -0.367 0.606 -0.714 0.303 z M 9.323 25.535 c -0.269 -0.303 -0.147 -0.699 0.719 -2.322 0.279 -0.533 0.406 -0.724 0.469 -0.724 0.152 0.000 0.161 0.088 0.059 0.479 -0.054 0.205 -0.156 0.665 -0.220 1.012 -0.156 0.826 -0.279 1.139 -0.548 1.418 -0.230 0.235 -0.357 0.269 -0.479 0.137 z M 36.804 25.163 c -0.337 -0.127 -2.024 -1.305 -2.083 -1.452 -0.034 -0.088 0.093 -0.098 0.244 -0.020 l 0.161 0.078 -0.171 -0.147 c -0.181 -0.156 -0.176 -0.254 0.010 -0.372 0.098 -0.059 1.193 0.298 1.643 0.538 1.105 0.596 1.447 1.335 0.645 1.413 -0.166 0.015 -0.337 0.000 -0.450 -0.039 z M 13.616 25.060 c -0.728 -0.342 -1.476 -1.232 -1.882 -2.244 l -0.152 -0.381 0.142 -0.147 0.147 -0.147 0.504 0.328 c 0.978 0.631 1.589 1.164 1.965 1.716 0.484 0.699 0.039 1.237 -0.724 0.875 z M 7.685 25.051 c -0.166 -0.117 -0.264 -0.342 -0.230 -0.523 0.093 -0.420 0.596 -1.105 1.066 -1.442 0.303 -0.215 0.352 -0.112 0.078 0.176 -0.117 0.122 -0.034 0.059 0.186 -0.152 0.606 -0.567 1.173 -0.909 1.261 -0.763 0.020 0.029 0.064 0.039 0.103 0.024 0.205 -0.078 0.000 0.474 -0.494 1.364 -0.269 0.489 -0.895 1.164 -1.208 1.310 -0.220 0.103 -0.616 0.108 -0.763 0.005 z M 29.421 24.317 c -0.386 -0.117 -0.494 -0.416 -0.254 -0.699 0.337 -0.401 1.271 -0.655 2.405 -0.655 0.684 0.000 0.816 0.034 0.694 0.186 -0.059 0.073 -0.054 0.078 0.020 0.064 0.112 -0.020 0.200 0.176 0.112 0.244 -0.034 0.029 -0.269 0.161 -0.523 0.298 -0.919 0.489 -1.946 0.724 -2.454 0.562 z M 33.196 23.877 c -0.479 -0.210 -0.841 -0.865 -0.689 -1.256 0.064 -0.156 0.152 -0.132 0.152 0.044 0.000 0.064 0.015 0.112 0.039 0.108 0.020 -0.010 0.034 0.010 0.034 0.034 0.000 0.029 -0.015 0.044 -0.034 0.039 -0.078 -0.029 -0.034 0.166 0.093 0.420 0.142 0.274 0.406 0.450 0.812 0.538 0.073 0.015 0.142 0.054 0.147 0.078 0.015 0.078 -0.367 0.078 -0.552 -0.005 z M 36.887 23.657 c -0.269 -0.059 -1.692 -0.484 -1.784 -0.528 -0.088 -0.049 -0.117 -0.425 -0.039 -0.474 0.249 -0.152 1.423 -0.254 1.995 -0.171 1.212 0.181 1.780 0.890 0.934 1.173 -0.191 0.064 -0.821 0.064 -1.105 0.000 z M 14.422 23.398 c -0.381 -0.108 -0.831 -0.323 -1.291 -0.611 -0.244 -0.152 -0.504 -0.303 -0.572 -0.342 -0.068 -0.034 -0.220 -0.142 -0.332 -0.240 -0.200 -0.176 -0.205 -0.186 -0.147 -0.328 0.034 -0.078 0.064 -0.181 0.068 -0.220 0.005 -0.112 0.543 -0.068 1.208 0.093 1.178 0.293 2.176 1.032 1.990 1.476 -0.098 0.249 -0.430 0.308 -0.924 0.171 z M 6.844 23.266 c -0.357 -0.142 -0.372 -0.308 -0.064 -0.636 0.396 -0.425 1.090 -0.699 2.141 -0.851 0.298 -0.039 0.587 -0.083 0.650 -0.098 0.171 -0.039 0.235 0.161 0.093 0.288 l -0.108 0.093 0.132 -0.034 c 0.156 -0.034 0.230 0.049 0.127 0.152 -0.088 0.088 -0.513 0.318 -1.325 0.724 -0.763 0.376 -1.305 0.499 -1.648 0.362 z M 30.140 22.826 c -0.865 -0.127 -1.393 -0.587 -1.036 -0.909 0.362 -0.332 1.124 -0.303 2.063 0.073 1.164 0.469 1.320 0.582 1.134 0.831 -0.054 0.068 -1.677 0.073 -2.161 0.005 z M 34.912 22.445 c -0.034 -0.059 -0.044 -0.103 -0.024 -0.103 0.015 0.000 0.005 -0.029 -0.024 -0.068 -0.117 -0.137 1.310 -0.958 1.824 -1.051 0.812 -0.147 1.286 0.044 1.080 0.435 -0.196 0.376 -0.714 0.582 -1.858 0.728 -0.401 0.054 -0.782 0.112 -0.841 0.127 -0.078 0.024 -0.117 0.005 -0.156 -0.068 z M 10.516 22.318 c -0.391 -0.122 -0.763 -0.645 -0.728 -1.017 0.020 -0.230 0.156 -0.205 0.176 0.029 0.020 0.284 0.132 0.523 0.240 0.508 0.049 -0.005 0.088 0.015 0.088 0.039 0.000 0.029 -0.029 0.044 -0.064 0.044 -0.044 -0.010 -0.049 0.005 -0.010 0.054 0.064 0.073 0.582 0.254 0.797 0.279 0.073 0.010 0.142 0.039 0.147 0.064 0.015 0.078 -0.406 0.078 -0.645 0.000 z M 31.900 22.191 c -1.212 -0.445 -2.127 -1.159 -2.127 -1.662 0.000 -0.161 0.288 -0.435 0.455 -0.435 0.176 0.000 0.880 0.362 1.115 0.572 0.117 0.103 0.196 0.161 0.176 0.127 -0.073 -0.122 0.059 -0.103 0.249 0.029 0.220 0.161 0.543 0.557 0.777 0.953 l 0.156 0.269 -0.142 0.088 c -0.078 0.049 -0.142 0.112 -0.142 0.137 0.000 0.088 -0.117 0.068 -0.518 -0.078 z M 34.501 21.912 c -0.064 -0.073 -0.068 -0.103 -0.020 -0.156 0.039 -0.044 0.039 -0.054 0.000 -0.029 -0.347 0.196 0.425 -1.232 0.968 -1.789 0.724 -0.743 1.608 -0.777 1.608 -0.064 0.000 0.372 -0.626 1.154 -1.266 1.579 -0.313 0.210 -0.474 0.230 -0.313 0.044 0.049 -0.059 -0.029 -0.005 -0.171 0.112 -0.489 0.416 -0.655 0.474 -0.807 0.303 z M 32.677 21.746 c -0.147 -0.288 -0.587 -0.797 -1.051 -1.217 -0.665 -0.606 -0.665 -0.601 -0.430 -1.085 0.254 -0.523 0.254 -0.523 0.416 -0.235 0.093 0.171 0.196 0.284 0.332 0.362 0.210 0.112 0.308 0.279 0.885 1.530 l 0.230 0.499 -0.112 0.152 c -0.142 0.191 -0.166 0.191 -0.269 -0.005 z M 13.518 21.682 c -0.323 -0.068 -0.728 -0.152 -0.904 -0.186 -0.176 -0.029 -0.318 -0.078 -0.323 -0.108 0.000 -0.024 -0.020 -0.088 -0.039 -0.132 -0.020 -0.044 -0.024 -0.103 -0.010 -0.132 0.020 -0.024 0.010 -0.064 -0.020 -0.078 -0.064 -0.039 0.029 -0.171 0.117 -0.171 0.034 0.000 0.328 -0.073 0.650 -0.166 1.193 -0.337 2.063 -0.274 2.547 0.181 0.205 0.196 0.210 0.401 0.015 0.592 -0.323 0.313 -1.120 0.391 -2.034 0.200 z M 7.847 21.702 c -1.051 -0.088 -1.828 -0.592 -1.579 -1.017 0.259 -0.445 1.247 -0.460 2.464 -0.034 0.860 0.303 1.012 0.386 0.900 0.499 -0.029 0.029 -0.029 0.103 0.000 0.205 0.039 0.147 0.034 0.166 -0.083 0.210 -0.073 0.024 -0.156 0.039 -0.191 0.024 -0.039 -0.015 -0.078 -0.005 -0.093 0.020 -0.015 0.020 -0.176 0.054 -0.357 0.073 -0.181 0.015 -0.391 0.034 -0.474 0.044 -0.078 0.010 -0.342 0.000 -0.587 -0.024 z M 33.200 21.594 c -0.029 -0.029 -0.054 -0.078 -0.054 -0.103 0.000 -0.137 -0.108 -0.420 -0.147 -0.396 -0.078 0.049 -0.636 -1.144 -0.636 -1.349 0.000 -0.083 0.196 -0.235 0.196 -0.156 0.005 0.200 0.210 -0.464 0.220 -0.709 0.015 -0.367 0.029 -0.386 0.205 -0.264 0.073 0.049 0.196 0.132 0.269 0.176 0.269 0.161 0.455 1.198 0.372 2.044 -0.059 0.631 -0.240 0.944 -0.425 0.758 z M 34.002 21.609 c -0.020 -0.029 -0.049 -0.039 -0.073 -0.024 -0.024 0.015 -0.059 0.005 -0.073 -0.024 -0.024 -0.039 -0.054 -0.034 -0.103 0.005 -0.044 0.034 -0.088 0.039 -0.112 0.015 -0.044 -0.044 0.093 -1.413 0.191 -1.951 0.215 -1.149 1.041 -1.511 1.271 -0.557 0.137 0.567 -0.024 1.085 -0.714 2.283 -0.166 0.293 -0.308 0.381 -0.386 0.254 z M 9.362 20.753 c -1.252 -0.318 -2.122 -0.968 -2.136 -1.594 -0.005 -0.181 0.166 -0.376 0.372 -0.416 0.420 -0.078 1.388 0.538 2.073 1.315 l 0.303 0.352 -0.117 0.103 c -0.068 0.059 -0.108 0.122 -0.093 0.137 0.034 0.029 -0.078 0.181 -0.127 0.171 -0.015 -0.005 -0.137 -0.034 -0.274 -0.068 z M 12.134 20.758 c -0.122 -0.152 -0.093 -0.215 0.200 -0.460 1.105 -0.924 1.868 -1.291 2.210 -1.066 0.313 0.205 -0.020 0.689 -0.689 1.012 -0.474 0.225 -1.672 0.582 -1.721 0.513 z M 11.758 20.338 c -0.049 -0.054 -0.117 -0.098 -0.152 -0.098 -0.127 0.000 -0.112 -0.098 0.068 -0.523 0.401 -0.919 0.973 -1.672 1.437 -1.887 0.274 -0.127 0.631 -0.112 0.772 0.039 0.391 0.416 -0.210 1.330 -1.457 2.215 -0.557 0.391 -0.548 0.391 -0.670 0.254 z M 9.641 19.849 c -0.836 -0.880 -1.090 -1.340 -0.924 -1.692 0.103 -0.210 0.240 -0.249 0.450 -0.117 0.235 0.147 0.347 0.318 0.562 0.875 0.103 0.264 0.269 0.650 0.367 0.860 0.176 0.372 0.191 0.513 0.044 0.543 -0.024 0.005 -0.249 -0.205 -0.499 -0.469 z M 30.824 20.172 c -0.093 -0.068 -0.093 -0.073 -0.010 -0.161 0.088 -0.083 0.093 -0.083 0.161 0.010 0.122 0.166 0.015 0.274 -0.152 0.152 z M 10.374 20.079 c -0.313 -0.396 -0.743 -1.701 -0.743 -2.254 0.000 -1.095 0.699 -1.315 1.080 -0.337 0.137 0.352 0.210 2.537 0.083 2.576 -0.196 0.064 -0.376 0.068 -0.420 0.015 z M 11.088 20.088 c -0.064 -0.034 -0.078 -0.083 -0.054 -0.200 0.020 -0.108 0.010 -0.161 -0.049 -0.196 -0.137 -0.073 -0.117 -1.589 0.020 -2.107 0.293 -1.080 1.007 -0.958 1.105 0.186 0.039 0.479 -0.039 0.856 -0.313 1.476 -0.337 0.768 -0.504 0.963 -0.709 0.841 z M 30.223 19.829 c -0.396 -0.455 -0.323 -1.462 0.225 -2.914 0.191 -0.508 0.259 -0.587 0.425 -0.494 0.029 0.015 0.093 0.029 0.147 0.029 0.117 0.000 0.137 0.137 0.215 1.252 0.073 1.110 -0.054 1.721 -0.440 2.078 -0.254 0.235 -0.396 0.249 -0.572 0.049 z M 31.890 19.350 c -0.186 -0.196 -0.342 -0.538 -0.430 -0.968 -0.103 -0.494 -0.235 -1.511 -0.205 -1.618 0.015 -0.049 0.005 -0.108 -0.020 -0.122 -0.137 -0.083 0.039 -0.337 0.215 -0.308 0.029 0.005 0.098 -0.005 0.147 -0.029 0.122 -0.049 0.132 -0.039 0.484 0.660 0.606 1.193 0.738 1.990 0.401 2.396 -0.176 0.205 -0.386 0.200 -0.592 -0.010 z M 33.660 19.262 c -0.142 -0.225 -0.122 -0.357 0.073 -0.538 0.225 -0.205 0.264 -0.479 0.122 -0.816 -0.044 -0.098 -0.059 -0.196 -0.039 -0.215 0.039 -0.039 0.406 0.049 0.601 0.137 0.039 0.020 0.127 0.034 0.191 0.034 0.259 0.010 0.181 0.127 -0.425 0.680 -0.083 0.073 -0.220 0.274 -0.308 0.450 -0.166 0.342 -0.171 0.342 -0.215 0.269 z M 15.537 18.984 c -0.381 -0.416 -0.675 -1.442 -0.464 -1.623 0.083 -0.064 0.132 -0.024 0.132 0.117 0.000 0.059 0.039 0.215 0.083 0.347 0.068 0.200 0.088 0.220 0.108 0.127 0.044 -0.166 0.108 -0.147 0.284 0.078 0.210 0.274 0.293 0.670 0.191 0.909 -0.088 0.210 -0.166 0.220 -0.332 0.044 z M 28.404 18.886 c -0.215 -0.279 0.059 -0.890 0.704 -1.564 0.367 -0.386 0.596 -0.543 0.489 -0.342 -0.059 0.112 0.186 -0.191 0.347 -0.430 0.235 -0.362 0.288 -0.396 0.440 -0.298 0.147 0.098 0.147 0.064 0.020 0.489 -0.450 1.525 -1.555 2.708 -2.000 2.146 z M 33.293 18.641 c -0.235 -0.083 -0.513 -0.455 -0.807 -1.066 -0.166 -0.347 -0.396 -0.797 -0.508 -0.997 -0.181 -0.323 -0.196 -0.372 -0.132 -0.435 0.064 -0.068 0.161 0.015 0.870 0.694 0.865 0.836 1.066 1.105 1.066 1.432 0.000 0.288 -0.230 0.464 -0.489 0.372 z M 34.731 18.314 c -0.029 -0.083 0.064 -0.264 0.240 -0.455 0.161 -0.181 0.191 -0.073 0.054 0.186 -0.166 0.298 -0.249 0.381 -0.293 0.269 z M 12.300 18.231 c -0.010 -0.039 -0.034 -0.240 -0.044 -0.445 -0.020 -0.264 -0.064 -0.464 -0.152 -0.655 -0.161 -0.347 -0.156 -0.367 0.015 -0.738 0.254 -0.533 0.944 -1.462 1.041 -1.403 0.108 0.068 -0.068 0.880 -0.249 1.134 -0.420 0.592 -0.484 1.300 -0.147 1.574 0.093 0.073 0.083 0.088 -0.171 0.337 -0.186 0.186 -0.279 0.244 -0.293 0.196 z M 36.412 17.898 c -0.083 -0.068 -0.137 -0.083 -0.171 -0.049 -0.039 0.039 -0.064 0.034 -0.083 0.000 -0.020 -0.029 -0.020 -0.054 0.005 -0.054 0.020 0.000 -0.039 -0.039 -0.132 -0.088 -0.093 -0.044 -0.171 -0.103 -0.171 -0.132 0.000 -0.073 0.313 -0.088 0.396 -0.020 0.059 0.049 0.073 0.049 0.059 -0.010 -0.010 -0.044 0.029 -0.068 0.117 -0.068 0.073 -0.005 0.147 -0.020 0.166 -0.039 0.020 -0.020 0.176 -0.034 0.342 -0.034 0.249 0.000 0.303 -0.015 0.284 -0.068 -0.020 -0.054 -0.059 -0.064 -0.152 -0.024 -0.156 0.059 -0.587 0.059 -0.626 -0.005 -0.064 -0.108 0.963 -0.435 1.134 -0.367 0.049 0.020 0.200 0.034 0.337 0.029 0.200 -0.010 0.279 0.010 0.386 0.103 l 0.137 0.117 -0.200 0.171 c -0.303 0.259 -0.699 0.455 -0.880 0.425 -0.083 -0.010 -0.142 -0.005 -0.132 0.015 0.054 0.083 -0.137 0.152 -0.367 0.132 -0.132 -0.015 -0.259 -0.005 -0.284 0.020 -0.024 0.024 -0.093 0.000 -0.166 -0.054 z M 27.358 17.781 c -0.068 -0.068 -0.127 -0.156 -0.127 -0.191 0.005 -0.274 0.513 -0.851 1.100 -1.247 0.230 -0.152 1.369 -0.699 1.467 -0.699 0.044 0.000 0.166 0.313 0.137 0.362 -0.020 0.029 0.005 0.024 0.049 -0.015 0.068 -0.054 0.088 -0.054 0.112 0.015 0.039 0.108 -0.108 0.293 -0.616 0.777 -0.939 0.900 -1.814 1.305 -2.122 0.997 z M 16.329 17.605 c -0.200 -0.078 -0.440 -0.220 -0.709 -0.416 -0.093 -0.068 -0.093 -0.068 -0.005 -0.108 0.049 -0.020 0.156 -0.010 0.230 0.015 0.078 0.029 0.142 0.039 0.142 0.015 0.000 -0.020 -0.034 -0.054 -0.078 -0.068 -0.191 -0.073 0.005 -0.137 0.318 -0.108 0.523 0.054 1.071 0.401 1.022 0.645 -0.024 0.132 -0.611 0.152 -0.919 0.024 z M 34.144 17.629 c -0.474 -0.152 -1.193 -0.670 -1.770 -1.271 -0.171 -0.176 -0.303 -0.347 -0.293 -0.381 0.039 -0.117 0.137 -0.088 0.367 0.112 l 0.235 0.210 -0.240 -0.249 c -0.161 -0.171 -0.230 -0.279 -0.205 -0.332 0.039 -0.103 0.254 -0.078 0.235 0.024 -0.015 0.059 -0.005 0.064 0.044 0.015 0.093 -0.093 0.235 -0.078 0.660 0.064 0.738 0.244 1.076 0.430 1.462 0.807 0.455 0.440 0.582 0.709 0.430 0.914 -0.117 0.156 -0.572 0.200 -0.924 0.088 z M 12.848 17.517 c -0.186 -0.196 -0.264 -0.494 -0.186 -0.719 0.068 -0.210 0.127 -0.254 0.220 -0.176 0.059 0.049 0.073 0.044 0.073 -0.015 0.000 -0.117 0.132 -0.200 0.181 -0.112 0.020 0.039 0.083 0.068 0.137 0.064 0.064 -0.005 0.127 0.054 0.200 0.186 0.215 0.396 0.176 0.777 -0.078 0.787 -0.068 0.000 -0.171 0.029 -0.230 0.059 -0.152 0.083 -0.176 0.078 -0.318 -0.073 z M 7.006 17.111 c -0.196 -0.117 -0.200 -0.098 0.015 -0.420 0.171 -0.254 0.391 -0.460 0.504 -0.460 0.029 0.000 0.054 -0.020 0.054 -0.049 0.000 -0.103 0.445 -0.259 0.577 -0.196 0.108 0.049 0.117 0.044 0.064 -0.020 -0.054 -0.064 -0.049 -0.083 0.024 -0.112 0.108 -0.039 0.812 0.059 0.953 0.132 0.142 0.078 0.039 0.186 -0.205 0.225 -0.108 0.020 -0.186 0.059 -0.181 0.088 0.010 0.029 -0.010 0.054 -0.034 0.054 -0.029 0.000 -0.044 -0.015 -0.039 -0.034 0.024 -0.073 -0.073 -0.039 -0.103 0.034 -0.049 0.137 0.020 0.235 0.112 0.152 0.142 -0.127 0.455 -0.235 0.513 -0.171 0.068 0.064 -0.469 0.567 -0.655 0.616 -0.068 0.015 -0.230 0.083 -0.362 0.152 -0.181 0.088 -0.264 0.108 -0.323 0.068 -0.049 -0.029 -0.108 -0.034 -0.152 -0.005 -0.132 0.083 -0.596 0.049 -0.763 -0.054 z M 14.950 16.896 c -0.264 -0.098 -0.450 -0.225 -0.396 -0.279 0.029 -0.029 0.147 0.000 0.313 0.073 0.147 0.064 0.303 0.127 0.352 0.147 0.093 0.029 0.068 0.127 -0.029 0.127 -0.034 -0.005 -0.142 -0.034 -0.240 -0.068 z M 35.273 16.916 c -0.044 -0.073 0.137 -0.244 0.249 -0.244 0.039 0.000 0.068 -0.034 0.068 -0.073 0.000 -0.039 0.068 -0.108 0.152 -0.147 0.117 -0.064 0.137 -0.093 0.093 -0.147 -0.044 -0.054 -0.088 -0.029 -0.225 0.122 -0.191 0.205 -0.342 0.284 -0.420 0.205 -0.054 -0.054 0.112 -0.318 0.440 -0.689 0.181 -0.210 0.328 -0.244 0.269 -0.064 -0.015 0.044 0.020 0.020 0.073 -0.064 0.137 -0.210 0.337 -0.381 0.396 -0.347 0.029 0.020 0.147 -0.020 0.259 -0.083 0.347 -0.200 0.709 -0.225 0.562 -0.039 -0.054 0.068 -0.049 0.068 0.029 0.010 0.244 -0.191 0.156 0.323 -0.098 0.592 -0.073 0.078 -0.112 0.137 -0.093 0.137 0.147 0.000 -0.533 0.523 -0.924 0.709 -0.328 0.156 -0.772 0.220 -0.831 0.122 z M 11.758 16.705 c -0.068 -0.166 0.787 -1.599 0.909 -1.525 0.024 0.015 -0.034 0.142 -0.127 0.279 -0.098 0.137 -0.284 0.469 -0.420 0.743 -0.279 0.557 -0.323 0.616 -0.362 0.504 z M 11.513 16.612 c -0.049 -0.127 0.425 -0.948 0.518 -0.895 0.039 0.029 -0.264 0.684 -0.411 0.880 -0.068 0.088 -0.078 0.093 -0.108 0.015 z M 34.721 16.451 c -0.176 -0.176 -0.171 -0.269 0.015 -0.269 0.064 0.000 0.176 -0.024 0.249 -0.049 0.205 -0.078 0.244 0.010 0.112 0.249 -0.147 0.264 -0.181 0.269 -0.376 0.068 z M 26.757 16.260 c -0.308 -0.142 -0.288 -0.396 0.059 -0.680 0.445 -0.362 0.948 -0.484 2.053 -0.494 l 0.831 -0.005 0.005 0.215 c 0.005 0.264 -0.059 0.308 -0.900 0.616 -1.032 0.381 -1.721 0.499 -2.048 0.347 z M 15.336 16.202 c -0.161 -0.088 -0.132 -0.166 0.059 -0.166 0.088 0.000 0.137 -0.024 0.137 -0.073 0.000 -0.054 -0.029 -0.068 -0.078 -0.044 -0.156 0.068 -0.288 0.078 -0.318 0.024 -0.020 -0.029 0.005 -0.068 0.054 -0.083 0.049 -0.020 0.186 -0.078 0.308 -0.132 0.401 -0.186 1.129 -0.142 1.320 0.083 0.064 0.078 -0.156 0.284 -0.425 0.396 -0.230 0.098 -0.875 0.093 -1.056 -0.005 z M 30.634 16.207 c -0.396 -0.142 -0.748 -0.621 -0.704 -0.968 0.024 -0.200 0.108 -0.161 0.147 0.068 0.103 0.582 0.645 0.870 1.359 0.728 0.191 -0.039 0.152 0.103 -0.049 0.176 -0.225 0.083 -0.518 0.078 -0.753 -0.005 z M 34.124 16.006 c -0.112 -0.020 -1.203 -0.337 -1.369 -0.396 -0.039 -0.015 -0.137 -0.029 -0.220 -0.034 -0.142 -0.005 -0.147 -0.010 -0.147 -0.249 l 0.000 -0.244 0.220 -0.034 c 0.582 -0.093 1.828 -0.103 2.151 -0.020 0.992 0.254 0.909 0.944 -0.112 0.983 -0.220 0.010 -0.455 0.005 -0.523 -0.005 z M 10.144 15.840 c -0.044 -0.073 0.161 -0.176 0.636 -0.318 0.244 -0.073 0.621 -0.196 0.846 -0.269 0.372 -0.122 0.538 -0.127 0.386 -0.015 -0.103 0.078 -0.557 0.249 -0.953 0.357 -0.205 0.059 -0.489 0.147 -0.631 0.196 -0.147 0.054 -0.269 0.073 -0.284 0.049 z M 14.300 15.816 c -0.460 -0.117 -0.660 -0.401 -0.699 -0.973 -0.024 -0.430 -0.005 -0.455 0.455 -0.474 l 0.342 -0.020 0.024 0.401 c 0.029 0.450 0.108 0.582 0.362 0.631 0.196 0.034 0.636 -0.132 0.826 -0.313 0.171 -0.161 0.264 -0.088 0.288 0.235 0.015 0.191 0.000 0.220 -0.073 0.210 -0.054 0.000 -0.249 0.059 -0.440 0.137 -0.455 0.186 -0.792 0.240 -1.085 0.166 z M 17.776 15.400 c -0.406 -0.357 -0.567 -0.953 -0.567 -2.078 0.000 -0.807 0.020 -0.885 0.196 -0.978 0.127 -0.068 0.142 -0.064 0.215 0.049 0.044 0.064 0.078 0.142 0.078 0.171 0.000 0.024 0.024 0.044 0.049 0.039 0.049 -0.015 0.298 0.562 0.626 1.452 0.171 0.460 0.186 1.115 0.029 1.330 -0.156 0.205 -0.401 0.210 -0.626 0.015 z M 16.089 15.371 c -0.196 -0.249 -0.098 -0.934 0.318 -2.195 0.235 -0.704 0.313 -0.836 0.455 -0.758 0.044 0.020 0.127 0.039 0.176 0.034 0.142 -0.015 0.152 2.107 0.010 2.469 -0.196 0.504 -0.724 0.748 -0.958 0.450 z M 13.386 15.180 c -0.039 -0.088 -0.039 -0.142 -0.005 -0.176 0.078 -0.078 0.161 -0.010 0.161 0.127 0.000 0.166 -0.088 0.196 -0.156 0.049 z M 14.642 15.097 c -0.347 -0.411 0.029 -1.300 0.978 -2.312 0.103 -0.108 0.240 -0.269 0.308 -0.357 0.112 -0.147 0.132 -0.156 0.186 -0.088 0.049 0.073 0.059 0.068 0.083 -0.024 0.029 -0.108 0.186 -0.098 0.313 0.024 0.073 0.068 -0.220 0.909 -0.489 1.423 -0.093 0.176 -0.142 0.298 -0.103 0.264 0.269 -0.225 -0.024 0.572 -0.313 0.851 -0.411 0.391 -0.753 0.469 -0.963 0.220 z M 9.343 15.058 c -0.264 -0.093 -0.416 -0.191 -0.376 -0.235 0.015 -0.010 -0.088 -0.078 -0.230 -0.152 -0.396 -0.200 -1.032 -1.017 -1.027 -1.325 0.000 -0.039 -0.029 -0.117 -0.064 -0.171 -0.093 -0.132 -0.088 -0.484 0.005 -0.562 0.054 -0.044 0.059 -0.078 0.024 -0.122 -0.034 -0.044 -0.029 -0.078 0.024 -0.122 0.093 -0.078 0.313 -0.005 0.557 0.186 0.098 0.073 0.191 0.127 0.210 0.122 0.049 -0.020 0.381 0.372 0.381 0.450 0.000 0.044 0.029 0.059 0.073 0.044 0.054 -0.024 0.108 0.039 0.186 0.220 0.059 0.142 0.122 0.240 0.142 0.225 0.049 -0.049 0.225 0.235 0.406 0.660 0.249 0.601 0.181 0.640 -0.347 0.171 -0.196 -0.176 -0.367 -0.298 -0.386 -0.274 -0.015 0.029 0.034 0.083 0.108 0.122 0.073 0.039 0.235 0.171 0.357 0.298 0.122 0.127 0.284 0.264 0.362 0.303 l 0.142 0.073 -0.117 0.093 c -0.142 0.108 -0.108 0.108 -0.430 -0.005 z M 28.390 14.936 c -0.924 -0.132 -1.501 -0.430 -1.501 -0.787 0.000 -0.152 0.284 -0.367 0.430 -0.328 0.059 0.015 0.205 0.000 0.318 -0.034 0.196 -0.054 0.235 -0.044 0.528 0.088 0.171 0.078 0.601 0.254 0.958 0.396 0.357 0.142 0.670 0.288 0.699 0.323 0.068 0.083 0.024 0.171 -0.083 0.171 -0.059 0.000 -0.064 0.015 -0.020 0.068 0.034 0.039 0.039 0.078 0.020 0.093 -0.108 0.064 -0.919 0.073 -1.349 0.010 z M 32.360 14.931 c -0.005 -0.024 -0.005 -0.064 0.000 -0.083 0.005 -0.020 -0.015 -0.078 -0.039 -0.127 -0.073 -0.137 0.078 -0.249 0.875 -0.636 1.100 -0.533 1.804 -0.650 2.107 -0.352 0.254 0.259 0.034 0.552 -0.596 0.792 -0.489 0.186 -2.332 0.504 -2.347 0.406 z M 19.208 14.667 c -0.323 -0.171 -0.621 -0.567 -0.973 -1.296 -0.464 -0.953 -0.528 -1.144 -0.391 -1.256 0.098 -0.078 0.117 -0.064 0.963 0.777 0.865 0.865 0.992 1.041 1.066 1.447 0.068 0.367 -0.274 0.533 -0.665 0.328 z M 24.273 14.452 c -0.464 -0.494 -0.425 -1.447 0.117 -2.767 0.288 -0.704 0.284 -0.694 0.469 -0.645 0.147 0.039 0.147 0.044 0.161 0.425 0.010 0.264 0.034 0.401 0.083 0.435 0.054 0.039 0.078 0.230 0.103 0.738 0.049 1.032 -0.068 1.555 -0.420 1.853 -0.205 0.171 -0.323 0.161 -0.513 -0.039 z M 11.020 14.491 c -0.284 -0.064 -0.313 -0.318 -0.054 -0.455 0.073 -0.039 0.112 -0.093 0.098 -0.132 -0.049 -0.137 0.313 -0.230 0.763 -0.200 0.494 0.034 0.572 0.088 0.342 0.225 -0.093 0.059 -0.142 0.103 -0.117 0.103 0.029 0.000 0.122 -0.044 0.215 -0.103 0.254 -0.152 0.328 -0.034 0.103 0.161 -0.362 0.313 -0.948 0.489 -1.349 0.401 z M 23.129 14.295 c -0.117 -0.147 -0.137 -0.494 -0.049 -0.670 0.083 -0.156 0.689 -0.728 0.728 -0.684 0.015 0.020 0.020 0.298 0.005 0.611 -0.029 0.548 -0.034 0.577 -0.171 0.719 -0.186 0.191 -0.376 0.200 -0.513 0.024 z M 29.460 14.300 c -0.161 -0.068 -0.318 -0.122 -0.347 -0.122 -0.034 0.000 -0.318 -0.122 -0.631 -0.269 -0.474 -0.225 -0.572 -0.288 -0.543 -0.357 0.073 -0.181 0.083 -0.401 0.024 -0.572 -0.083 -0.254 -0.015 -0.303 0.259 -0.181 0.225 0.098 0.464 0.303 1.271 1.071 0.596 0.562 0.587 0.684 -0.034 0.430 z M 32.086 14.280 l -0.108 -0.137 0.171 -0.254 c 0.264 -0.391 1.124 -1.227 1.472 -1.428 0.166 -0.093 0.425 -0.200 0.572 -0.240 0.264 -0.064 0.279 -0.059 0.396 0.049 0.303 0.284 0.029 0.836 -0.616 1.252 -0.293 0.191 -1.682 0.900 -1.755 0.900 -0.020 0.000 -0.078 -0.064 -0.132 -0.142 z M 25.745 14.217 c -0.274 -0.274 -0.372 -0.631 -0.469 -1.726 -0.049 -0.538 -0.108 -1.066 -0.122 -1.173 -0.024 -0.152 -0.015 -0.215 0.044 -0.264 0.127 -0.108 0.200 -0.034 0.362 0.376 0.083 0.215 0.230 0.552 0.318 0.753 0.469 1.022 0.592 1.833 0.313 2.073 -0.181 0.156 -0.259 0.147 -0.445 -0.039 z M 13.816 14.236 c -0.034 -0.054 0.029 -0.112 0.244 -0.220 0.083 -0.044 0.254 -0.156 0.376 -0.249 0.127 -0.098 0.240 -0.152 0.254 -0.122 0.039 0.059 -0.122 0.323 -0.288 0.479 -0.132 0.122 -0.533 0.200 -0.587 0.112 z M 29.328 13.552 l -0.699 -0.680 0.205 -0.196 c 0.244 -0.235 0.269 -0.416 0.088 -0.763 -0.171 -0.342 -0.059 -0.342 0.259 -0.005 0.347 0.367 0.626 0.836 0.909 1.535 l 0.225 0.548 -0.108 0.117 c -0.059 0.064 -0.127 0.117 -0.147 0.117 -0.020 0.000 -0.347 -0.303 -0.733 -0.675 z M 35.562 14.056 c -0.015 -0.039 -0.015 -0.093 0.000 -0.117 0.020 -0.029 0.005 -0.098 -0.029 -0.152 -0.059 -0.093 -0.049 -0.117 0.078 -0.220 0.078 -0.059 0.122 -0.137 0.108 -0.166 -0.024 -0.034 -0.078 -0.005 -0.147 0.078 -0.103 0.117 -0.127 0.127 -0.244 0.073 -0.166 -0.073 -0.161 -0.112 0.068 -0.425 0.215 -0.288 0.362 -0.401 0.416 -0.313 0.020 0.029 0.093 -0.029 0.176 -0.142 0.166 -0.230 0.269 -0.279 0.332 -0.171 0.039 0.068 0.049 0.068 0.098 -0.020 0.064 -0.127 0.430 -0.308 0.606 -0.308 0.152 0.000 0.220 0.112 0.132 0.220 -0.029 0.039 -0.044 0.093 -0.024 0.122 0.073 0.122 -0.479 0.963 -0.670 1.017 -0.049 0.010 -0.088 0.049 -0.088 0.083 0.000 0.064 -0.655 0.513 -0.743 0.513 -0.024 0.000 -0.054 -0.034 -0.068 -0.073 z M 13.361 13.865 c -0.108 -0.235 -0.034 -0.396 0.372 -0.807 0.636 -0.640 2.156 -1.476 2.156 -1.183 0.000 0.024 -0.059 0.093 -0.127 0.147 -0.073 0.059 -0.108 0.103 -0.083 0.103 0.024 0.000 0.088 -0.044 0.137 -0.098 0.093 -0.103 0.220 -0.059 0.220 0.073 0.000 0.103 -1.115 1.203 -1.476 1.457 -0.719 0.508 -1.056 0.596 -1.198 0.308 z M 31.660 13.968 c -0.122 -0.088 -0.083 -0.279 0.171 -0.900 0.455 -1.095 0.816 -1.613 1.276 -1.843 0.313 -0.156 0.337 -0.156 0.528 0.005 0.142 0.117 0.156 0.152 0.137 0.332 -0.039 0.342 -0.181 0.548 -0.890 1.305 -0.381 0.401 -0.763 0.821 -0.851 0.934 -0.186 0.235 -0.244 0.259 -0.372 0.166 z M 30.340 13.699 c -0.626 -1.247 -0.797 -2.190 -0.494 -2.738 0.186 -0.337 0.269 -0.381 0.504 -0.269 0.313 0.152 0.489 0.523 0.601 1.261 0.064 0.386 0.034 1.814 -0.034 1.882 -0.024 0.024 -0.137 0.054 -0.254 0.068 -0.205 0.024 -0.205 0.024 -0.323 -0.205 z M 31.093 13.816 c -0.039 -0.054 -0.049 -0.328 -0.029 -1.041 0.029 -1.203 0.103 -1.501 0.464 -1.877 0.279 -0.288 0.425 -0.313 0.611 -0.093 0.288 0.342 0.220 0.748 -0.352 2.122 -0.381 0.919 -0.518 1.100 -0.694 0.890 z M 20.279 13.684 c -0.274 -0.064 -0.812 -0.347 -1.095 -0.577 -0.406 -0.332 -1.110 -1.134 -1.051 -1.193 0.034 -0.034 0.083 -0.024 0.161 0.044 0.108 0.088 0.108 0.088 -0.005 -0.039 -0.078 -0.093 -0.103 -0.156 -0.078 -0.220 0.024 -0.049 0.044 -0.108 0.044 -0.137 0.029 -0.254 1.618 0.508 2.200 1.056 0.699 0.655 0.601 1.247 -0.176 1.066 z M 27.080 13.591 c -0.430 -0.225 -1.032 -1.120 -1.384 -2.053 -0.215 -0.567 -0.215 -0.508 0.029 -0.631 l 0.200 -0.098 0.372 0.332 c 0.929 0.841 1.452 1.481 1.520 1.868 0.103 0.548 -0.259 0.836 -0.738 0.582 z M 11.904 13.591 c -0.039 -0.068 0.029 -0.088 0.489 -0.142 0.420 -0.054 0.538 -0.015 0.362 0.112 -0.132 0.088 -0.797 0.112 -0.851 0.029 z M 22.083 13.552 c -0.132 -0.147 -0.108 -0.484 0.059 -0.768 0.176 -0.303 0.816 -1.027 1.261 -1.423 0.709 -0.631 0.699 -0.626 0.763 -0.562 0.039 0.039 -0.005 0.117 -0.186 0.313 l -0.244 0.254 0.244 -0.230 c 0.240 -0.225 0.464 -0.308 0.533 -0.191 0.044 0.064 -0.142 0.562 -0.420 1.129 -0.504 1.036 -1.648 1.877 -2.009 1.476 z M 11.357 12.799 c -0.024 -0.039 -0.142 -0.064 -0.284 -0.064 -0.132 -0.005 -0.318 -0.034 -0.411 -0.073 -0.381 -0.161 -0.567 -0.274 -0.567 -0.328 0.000 -0.034 -0.078 -0.103 -0.171 -0.152 -0.244 -0.132 -0.474 -0.469 -0.391 -0.572 0.044 -0.054 0.078 -0.059 0.122 -0.024 0.049 0.039 0.064 0.029 0.054 -0.034 -0.005 -0.078 0.029 -0.088 0.288 -0.073 0.161 0.010 0.318 0.039 0.347 0.064 0.029 0.024 0.088 0.034 0.132 0.015 0.078 -0.029 0.342 0.088 0.484 0.210 0.044 0.039 0.103 0.059 0.132 0.044 0.112 -0.073 0.684 0.592 0.616 0.709 -0.020 0.024 -0.049 0.034 -0.073 0.020 -0.020 -0.015 -0.049 0.005 -0.064 0.039 -0.015 0.039 0.024 0.068 0.103 0.073 0.156 0.015 0.254 0.093 0.152 0.127 -0.210 0.068 -0.430 0.078 -0.469 0.020 z m 0.029 -0.460 c -0.098 -0.103 -0.112 -0.108 -0.166 -0.034 -0.034 0.044 -0.078 0.064 -0.108 0.049 -0.024 -0.015 -0.049 0.000 -0.049 0.039 0.000 0.044 0.064 0.064 0.215 0.059 l 0.215 0.000 -0.108 -0.112 z M 20.988 12.555 c -0.464 -0.499 0.450 -1.408 2.024 -2.014 0.582 -0.220 0.758 -0.254 0.841 -0.156 0.034 0.039 0.049 0.098 0.029 0.127 -0.020 0.029 -0.005 0.044 0.029 0.039 0.235 -0.054 -0.122 0.328 -0.816 0.870 -0.137 0.108 -0.240 0.220 -0.230 0.244 0.024 0.078 -0.518 0.567 -0.875 0.782 -0.406 0.249 -0.831 0.293 -1.002 0.108 z M 28.092 12.613 c -0.156 -0.049 -0.724 -0.577 -0.684 -0.640 0.010 -0.020 -0.049 -0.088 -0.137 -0.147 -0.352 -0.249 -1.212 -1.090 -1.164 -1.139 0.034 -0.034 0.088 -0.029 0.161 0.015 l 0.108 0.064 -0.103 -0.108 c -0.098 -0.098 -0.098 -0.117 -0.034 -0.249 0.088 -0.176 0.088 -0.176 0.523 0.005 0.694 0.288 1.667 0.992 1.965 1.423 0.196 0.284 0.215 0.587 0.044 0.719 -0.147 0.112 -0.416 0.137 -0.680 0.059 z M 12.711 12.520 c -0.347 -0.186 -0.342 -0.386 0.015 -0.645 0.450 -0.328 0.900 -0.420 2.161 -0.445 l 0.880 -0.015 0.000 0.122 c 0.000 0.078 -0.044 0.142 -0.122 0.181 -1.745 0.856 -2.464 1.056 -2.933 0.802 z M 20.494 12.388 c -0.171 -0.137 -0.166 -0.215 0.020 -0.215 0.078 0.000 0.137 0.039 0.176 0.122 0.088 0.191 -0.010 0.235 -0.196 0.093 z M 16.627 12.212 c -0.416 -0.093 -0.787 -0.587 -0.728 -0.973 0.024 -0.196 0.103 -0.132 0.156 0.137 0.098 0.474 0.533 0.738 1.139 0.689 0.464 -0.039 0.347 0.112 -0.132 0.171 -0.122 0.015 -0.318 0.005 -0.435 -0.024 z M 20.264 12.022 c -0.406 -0.059 -0.997 -0.254 -1.491 -0.499 l -0.416 -0.205 0.000 -0.269 0.000 -0.269 0.807 0.005 c 0.680 0.000 0.870 0.020 1.222 0.112 0.230 0.059 0.577 0.117 0.768 0.122 0.450 0.015 0.460 0.029 0.186 0.254 -0.127 0.103 -0.293 0.284 -0.376 0.401 -0.171 0.249 -0.318 0.406 -0.367 0.396 -0.024 -0.005 -0.171 -0.024 -0.332 -0.049 z M 29.353 11.919 c -0.044 -0.088 -0.137 -0.220 -0.200 -0.293 l -0.122 -0.127 0.161 -0.083 c 0.093 -0.049 0.200 -0.117 0.249 -0.156 0.122 -0.108 0.152 -0.010 0.112 0.406 -0.039 0.420 -0.088 0.479 -0.200 0.254 z M 12.271 11.205 c -0.445 -0.474 -0.895 -1.335 -0.812 -1.560 0.044 -0.112 0.112 -0.034 0.171 0.191 0.068 0.279 0.494 0.988 0.758 1.261 0.303 0.323 0.337 0.376 0.269 0.416 -0.034 0.024 -0.186 -0.098 -0.386 -0.308 z M 13.224 11.318 c -0.401 -0.156 -0.587 -0.484 -0.376 -0.675 0.372 -0.337 1.036 -0.303 2.454 0.127 0.430 0.127 0.504 0.166 0.455 0.244 -0.024 0.034 -0.039 0.103 -0.039 0.156 0.000 0.117 -0.259 0.152 -1.491 0.196 -0.655 0.020 -0.846 0.010 -1.002 -0.049 z M 28.673 11.313 c -0.054 -0.015 -0.147 -0.034 -0.205 -0.049 -0.142 -0.029 -0.464 -0.308 -0.425 -0.367 0.015 -0.024 -0.005 -0.044 -0.034 -0.044 -0.034 0.000 -0.362 -0.142 -0.728 -0.313 -0.362 -0.171 -0.724 -0.328 -0.802 -0.352 -0.137 -0.044 -0.225 -0.225 -0.137 -0.284 0.103 -0.064 2.112 0.117 2.371 0.215 0.362 0.137 0.719 0.508 0.719 0.753 0.000 0.181 -0.220 0.420 -0.381 0.420 -0.044 0.000 -0.127 0.010 -0.181 0.020 -0.054 0.010 -0.142 0.010 -0.196 0.000 z M 8.922 10.858 c -0.078 -0.020 -0.142 -0.059 -0.137 -0.088 0.005 -0.024 -0.039 -0.039 -0.098 -0.029 -0.127 0.020 -0.425 -0.152 -0.425 -0.244 0.000 -0.034 0.059 -0.122 0.137 -0.191 0.117 -0.108 0.200 -0.156 0.567 -0.342 0.181 -0.093 1.056 -0.059 1.398 0.059 0.352 0.117 0.508 0.225 0.386 0.264 -0.068 0.024 -0.733 0.098 -0.777 0.088 -0.015 0.000 -0.068 -0.015 -0.122 -0.034 l -0.098 -0.034 0.098 0.064 c 0.064 0.039 0.235 0.059 0.494 0.049 0.499 -0.015 0.562 0.049 0.210 0.210 -0.435 0.205 -0.875 0.308 -0.944 0.220 -0.044 -0.064 -0.073 -0.064 -0.176 -0.010 -0.132 0.068 -0.279 0.073 -0.513 0.020 z M 20.656 10.829 c -0.474 -0.171 -0.411 -0.435 0.166 -0.704 0.191 -0.088 0.347 -0.166 0.347 -0.171 0.000 -0.010 -0.137 -0.064 -0.298 -0.127 -0.504 -0.181 -0.675 -0.494 -0.416 -0.758 0.308 -0.308 0.880 -0.274 2.102 0.117 0.406 0.132 0.807 0.254 0.895 0.274 0.181 0.034 0.293 0.142 0.210 0.196 -0.039 0.024 -0.039 0.049 0.000 0.098 0.029 0.039 0.049 0.147 0.039 0.249 -0.015 0.181 -0.020 0.181 -0.406 0.313 -0.215 0.078 -0.587 0.205 -0.821 0.293 -0.802 0.288 -1.418 0.362 -1.819 0.220 z M 24.630 10.853 c -0.269 -0.083 -0.670 -0.474 -0.601 -0.587 0.015 -0.024 0.122 0.039 0.235 0.152 0.196 0.186 0.528 0.328 0.836 0.352 0.068 0.005 0.127 0.034 0.127 0.059 0.000 0.064 -0.420 0.078 -0.596 0.024 z M 15.376 10.702 c -1.227 -0.284 -2.205 -0.870 -2.303 -1.388 -0.054 -0.284 0.176 -0.489 0.538 -0.484 0.528 0.015 1.432 0.513 2.132 1.178 l 0.367 0.347 -0.093 0.103 c -0.054 0.059 -0.127 0.093 -0.161 0.083 -0.049 -0.020 -0.054 -0.005 -0.020 0.064 0.088 0.156 -0.059 0.191 -0.460 0.098 z M 19.917 10.653 c -0.039 -0.064 0.117 -0.200 0.200 -0.176 0.024 0.010 0.049 0.059 0.049 0.112 0.000 0.108 -0.191 0.156 -0.249 0.064 z M 18.270 10.575 c -0.020 -0.015 -0.010 -0.059 0.020 -0.093 0.034 -0.039 0.034 -0.068 -0.005 -0.093 -0.039 -0.024 -0.034 -0.059 0.010 -0.112 0.059 -0.073 0.054 -0.078 -0.024 -0.015 -0.064 0.054 -0.103 0.054 -0.142 0.015 -0.073 -0.073 0.059 -0.225 0.269 -0.308 0.088 -0.034 0.249 -0.122 0.362 -0.200 0.323 -0.215 1.203 -0.631 1.310 -0.616 0.073 0.010 0.103 0.064 0.122 0.210 0.034 0.254 0.064 0.293 0.323 0.445 0.117 0.068 0.215 0.132 0.215 0.142 0.000 0.005 -0.147 0.108 -0.328 0.225 -0.259 0.166 -0.440 0.235 -0.821 0.323 -0.464 0.108 -1.237 0.152 -1.310 0.078 z M 30.727 10.316 c -0.039 -0.064 -0.005 -0.112 0.264 -0.430 0.323 -0.376 0.367 -0.240 0.049 0.156 -0.284 0.352 -0.269 0.342 -0.313 0.274 z M 15.356 9.553 c -1.129 -0.900 -1.408 -1.296 -1.212 -1.711 0.186 -0.386 0.582 -0.313 1.090 0.205 0.552 0.557 1.271 2.058 1.051 2.190 -0.024 0.015 -0.440 -0.293 -0.929 -0.684 z M 17.844 9.998 c -0.034 -0.039 -0.088 -0.073 -0.117 -0.073 -0.181 0.000 -0.161 -0.117 0.108 -0.582 0.851 -1.467 1.912 -2.156 2.161 -1.403 0.147 0.450 -0.401 1.208 -1.222 1.692 -0.142 0.083 -0.332 0.205 -0.425 0.269 -0.098 0.064 -0.200 0.103 -0.235 0.093 -0.034 -0.015 -0.078 -0.005 -0.098 0.024 -0.044 0.073 -0.098 0.068 -0.171 -0.020 z M 16.231 9.431 c -0.709 -1.408 -0.777 -2.195 -0.235 -2.601 0.112 -0.083 0.137 -0.088 0.264 -0.020 0.460 0.240 0.636 0.787 0.587 1.828 -0.049 1.056 -0.073 1.222 -0.205 1.310 l -0.117 0.073 -0.293 -0.592 z M 27.344 9.876 c -0.885 -0.064 -1.090 -0.117 -0.948 -0.259 0.034 -0.034 0.029 -0.068 -0.029 -0.112 -0.142 -0.103 0.005 -0.200 0.567 -0.381 1.374 -0.440 2.547 -0.288 2.547 0.328 0.000 0.342 -0.880 0.518 -2.136 0.425 z M 16.891 9.822 c -0.015 -0.020 -0.005 -0.367 0.020 -0.772 0.073 -1.168 0.332 -1.907 0.748 -2.132 l 0.181 -0.098 0.137 0.103 c 0.357 0.264 0.337 1.085 -0.034 1.912 -0.235 0.523 -0.538 0.992 -0.640 1.002 -0.274 0.024 -0.391 0.020 -0.411 -0.015 z M 30.443 9.597 c -0.068 -0.064 -0.034 -0.508 0.049 -0.640 0.073 -0.108 0.073 -0.122 0.010 -0.073 -0.088 0.073 -0.142 0.039 -0.142 -0.093 0.000 -0.049 -0.024 -0.088 -0.054 -0.088 -0.029 0.000 -0.034 0.039 -0.010 0.112 0.054 0.152 0.049 0.714 -0.010 0.728 -0.142 0.024 -0.420 -1.188 -0.303 -1.320 0.039 -0.049 0.073 -0.191 0.073 -0.342 0.005 -0.318 0.323 -1.076 0.440 -1.046 0.034 0.005 0.059 -0.039 0.059 -0.103 0.000 -0.132 0.137 -0.342 0.200 -0.303 0.059 0.039 0.059 0.254 -0.005 0.293 -0.024 0.015 -0.049 0.054 -0.049 0.078 0.000 0.029 0.020 0.039 0.044 0.020 0.083 -0.049 0.171 0.186 0.181 0.508 0.010 0.166 0.024 0.323 0.039 0.337 0.054 0.049 0.029 0.406 -0.039 0.567 -0.049 0.117 -0.054 0.181 -0.020 0.215 0.064 0.064 -0.093 0.567 -0.284 0.953 -0.127 0.244 -0.132 0.249 -0.181 0.196 z M 10.457 9.093 c -0.254 -0.264 -0.435 -0.499 -0.552 -0.738 -0.200 -0.401 -0.210 -0.479 -0.088 -0.631 0.200 -0.249 0.435 0.024 0.895 1.032 0.396 0.875 0.342 0.948 -0.254 0.337 z M 23.271 9.323 c -0.269 -0.073 -1.525 -0.528 -1.687 -0.611 -0.631 -0.318 -0.895 -0.870 -0.557 -1.154 0.430 -0.367 1.442 0.064 2.381 1.007 0.460 0.469 0.494 0.513 0.430 0.601 -0.059 0.083 -0.078 0.088 -0.156 0.024 -0.083 -0.068 -0.088 -0.068 -0.029 0.010 0.132 0.166 -0.034 0.220 -0.381 0.122 z M 31.949 9.294 c -0.015 -0.029 0.049 -0.098 0.142 -0.156 0.098 -0.059 0.166 -0.117 0.152 -0.142 -0.015 -0.020 0.083 -0.137 0.220 -0.264 0.132 -0.122 0.220 -0.235 0.191 -0.249 -0.024 -0.020 -0.044 -0.078 -0.049 -0.137 -0.005 -0.059 -0.024 -0.015 -0.049 0.093 -0.054 0.220 -0.582 0.787 -0.680 0.728 -0.098 -0.059 0.523 -0.983 0.650 -0.973 0.044 0.005 0.083 -0.020 0.083 -0.059 0.000 -0.108 0.640 -0.611 0.709 -0.557 0.034 0.029 0.117 0.000 0.240 -0.083 0.337 -0.240 0.782 -0.127 0.596 0.156 -0.044 0.068 -0.068 0.147 -0.054 0.171 0.044 0.073 -0.103 0.313 -0.308 0.499 -0.108 0.098 -0.186 0.186 -0.176 0.200 0.034 0.034 -0.249 0.259 -0.562 0.440 -0.416 0.244 -1.041 0.430 -1.105 0.332 z M 26.131 9.196 c -0.015 -0.029 -0.015 -0.073 0.000 -0.103 0.015 -0.029 -0.005 -0.034 -0.044 -0.020 -0.166 0.064 -0.147 -0.137 0.024 -0.284 0.914 -0.782 1.467 -1.164 1.936 -1.340 0.381 -0.147 0.416 -0.147 0.582 0.000 0.416 0.352 -0.430 1.090 -1.765 1.545 -0.293 0.103 -0.572 0.200 -0.616 0.220 -0.049 0.015 -0.098 0.010 -0.117 -0.020 z M 9.680 9.059 c -0.504 -0.176 -1.007 -0.616 -0.895 -0.787 0.147 -0.240 0.455 -0.176 0.890 0.186 0.640 0.533 0.640 0.821 0.005 0.601 z M 11.572 9.064 c -0.020 -0.020 -0.039 -0.137 -0.044 -0.259 -0.005 -0.176 -0.010 -0.191 -0.024 -0.068 -0.010 0.083 -0.054 0.181 -0.088 0.210 -0.112 0.093 -0.147 -0.059 -0.147 -0.684 0.000 -0.494 0.015 -0.592 0.117 -0.797 0.352 -0.709 0.802 -0.269 0.621 0.601 -0.117 0.543 -0.347 1.080 -0.435 0.997 z M 23.320 8.306 c -0.812 -0.846 -0.988 -1.115 -1.017 -1.516 -0.020 -0.269 -0.010 -0.308 0.117 -0.440 0.401 -0.420 1.012 0.156 1.701 1.613 0.318 0.680 0.328 0.704 0.240 0.797 -0.073 0.083 -0.313 0.235 -0.367 0.235 -0.010 0.000 -0.313 -0.313 -0.675 -0.689 z M 25.740 8.800 c -0.015 -0.024 -0.015 -0.078 0.005 -0.108 0.029 -0.049 0.020 -0.049 -0.039 0.000 -0.196 0.156 -0.108 -0.078 0.259 -0.680 0.714 -1.173 1.413 -1.760 1.736 -1.457 0.303 0.284 -0.034 0.870 -0.836 1.462 -0.142 0.103 -0.425 0.332 -0.636 0.508 -0.386 0.332 -0.435 0.357 -0.489 0.274 z M 25.241 8.648 c -0.029 -0.029 -0.044 -0.088 -0.029 -0.127 0.015 -0.039 -0.010 -0.093 -0.054 -0.127 -0.068 -0.054 -0.073 -0.137 -0.029 -0.743 0.073 -1.041 0.284 -1.692 0.631 -1.916 0.220 -0.147 0.313 -0.142 0.504 0.029 0.161 0.142 0.161 0.147 0.161 0.577 -0.005 0.489 -0.161 0.919 -0.621 1.726 -0.332 0.572 -0.450 0.694 -0.562 0.582 z M 24.474 8.443 c -0.689 -1.173 -0.865 -2.493 -0.386 -2.865 0.166 -0.132 0.220 -0.127 0.401 0.024 0.362 0.303 0.567 1.085 0.562 2.122 0.000 0.812 -0.029 0.895 -0.284 0.914 -0.156 0.010 -0.186 -0.010 -0.293 -0.196 z M 31.612 8.365 c -0.054 -0.088 0.010 -1.105 0.083 -1.344 0.210 -0.650 0.680 -0.582 0.606 0.088 -0.064 0.592 -0.552 1.481 -0.689 1.256 z"
          fill="none"
          stroke="#000000"
          stroke-width="450.000"
          stroke-linecap="round"
          stroke-linejoin="round"/>
  </g>
  <g id="stamp"/>
</svg>