<?xml version="1.0" encoding="utf-8"?>
<svg xmlns="http://www.w3.org/2000/svg"
     width="90.0mm" height="90.0mm"
     viewBox="0 0 90.0 90.0">
  <rect width="90.0mm" height="90.0mm" fill="white"/>
  <!-- LAYER 1: outer — zewnętrzna sylwetka cuttera -->
  <g id="outer">
    <path id="outer_contour" d="M 45.0,5.0 C 40.0,5.0 35.0,8.0 32.0,14.0 C 29.0,20.0 28.0,22.0 25.0,23.0 C 20.0,24.0 14.0,23.0 10.0,22.0 C 8.0,21.5 6.0,23.0 7.0,26.0 C 9.0,32.0 14.0,38.0 16.0,40.0 C 12.0,43.0 5.0,48.0 4.0,55.0 C 3.0,62.0 6.0,68.0 10.0,72.0 C 14.0,76.0 20.0,78.0 26.0,79.0 C 28.0,79.2 29.0,80.0 29.5,82.0 C 30.0,84.0 31.0,86.0 34.0,86.5 C 37.0,87.0 39.0,85.0 40.0,83.0 C 41.0,81.0 41.5,79.5 43.0,79.0 C 44.0,78.8 46.0,78.8 47.0,79.0 C 48.5,79.5 49.0,81.0 50.0,83.0 C 51.0,85.0 53.0,87.0 56.0,86.5 C 59.0,86.0 60.0,84.0 60.5,82.0 C 61.0,80.0 62.0,79.2 64.0,79.0 C 70.0,78.0 76.0,76.0 80.0,72.0 C 84.0,68.0 87.0,62.0 86.0,55.0 C 85.0,48.0 78.0,43.0 74.0,40.0 C 76.0,38.0 81.0,32.0 83.0,26.0 C 84.0,23.0 82.0,21.5 80.0,22.0 C 76.0,23.0 70.0,24.0 65.0,23.0 C 62.0,22.0 61.0,20.0 58.0,14.0 C 55.0,8.0 50.0,5.0 45.0,5.0 Z" fill="none" stroke="#000000" stroke-width="1.2"/>
  </g>
  <!-- LAYER 2: stamp — wewnętrzne detale embossera -->
  <g id="stamp">
    <path id="stamp_outline" d="M 45.00,58.68 C 52.52,58.68 58.68,52.52 58.68,45.00 C 58.68,35.15 54.58,35.15 49.10,35.15 L 53.21,28.31 L 49.10,35.15 L 40.90,35.15 L 36.79,28.31 L 36.79,35.15 C 35.42,35.15 31.32,35.15 31.32,45.00 C 31.32,52.52 37.48,58.68 45.00,58.68 Z" fill="none" stroke="#666666" stroke-width="0.8"/>
    <circle id="eye_l" cx="36.00" cy="37.80" r="3.60" fill="#333333"/>
    <circle id="eye_r" cx="54.00" cy="37.80" r="3.60" fill="#333333"/>
    <path id="smile" d="M 34.20,49.50 Q 45.00,55.98 55.80,49.50" fill="none" stroke="#333333" stroke-width="1.0"/>
  </g>
</svg>