<?xml version="1.0" encoding="utf-8"?>
<svg xmlns="http://www.w3.org/2000/svg"
     width="75.0mm" height="75.0mm"
     viewBox="0 0 75.0 75.0">
  <rect width="75.0mm" height="75.0mm" fill="white"/>
  <!-- LAYER 1: outer — zewnętrzna sylwetka cuttera -->
  <g id="outer">
    <path id="outer_contour" d="M 37.5,3.5 C 33.0,3.5 30.0,6.0 28.0,9.0 C 26.0,12.0 24.5,15.5 23.0,18.0 C 20.0,17.5 16.0,17.0 12.0,18.5 C 8.0,20.0 5.0,23.0 4.0,27.5 C 3.0,32.0 3.5,37.0 5.5,41.5 C 7.5,46.0 11.0,50.0 15.0,53.0 C 19.0,56.0 23.5,58.0 27.5,59.5 C 29.5,60.2 31.5,60.8 33.5,61.5 C 34.0,63.5 34.5,65.5 35.0,67.0 C 35.5,68.5 36.2,70.0 37.5,71.0 C 38.8,70.0 39.5,68.5 40.0,67.0 C 40.5,65.5 41.0,63.5 41.5,61.5 C 43.5,60.8 45.5,60.2 47.5,59.5 C 51.5,58.0 56.0,56.0 60.0,53.0 C 64.0,50.0 67.5,46.0 69.5,41.5 C 71.5,37.0 72.0,32.0 71.0,27.5 C 70.0,23.0 67.0,20.0 63.0,18.5 C 59.0,17.0 55.0,17.5 52.0,18.0 C 50.5,15.5 49.0,12.0 47.0,9.0 C 45.0,6.0 42.0,3.5 37.5,3.5 Z M 25.0,32.0 C 26.5,30.0 28.5,29.0 30.0,29.5 C 31.5,30.0 32.0,32.0 31.5,34.0 C 31.0,36.0 29.5,37.5 28.0,38.0 C 26.5,38.5 25.0,37.5 24.5,35.5 C 24.0,34.0 24.0,33.0 25.0,32.0 Z M 50.0,32.0 C 48.5,30.0 46.5,29.0 45.0,29.5 C 43.5,30.0 43.0,32.0 43.5,34.0 C 44.0,36.0 45.5,37.5 47.0,38.0 C 48.5,38.5 50.0,37.5 50.5,35.5 C 51.0,34.0 51.0,33.0 50.0,32.0 Z M 37.5,42.0 C 36.0,42.0 34.5,42.5 34.0,43.5 C 33.5,44.5 34.0,45.5 35.0,46.5 C 36.0,47.5 37.0,48.0 37.5,48.0 C 38.0,48.0 39.0,47.5 40.0,46.5 C 41.0,45.5 41.5,44.5 41.0,43.5 C 40.5,42.5 39.0,42.0 37.5,42.0 Z" fill="none" stroke="#000000" stroke-width="1.2"/>
  </g>
  <!-- LAYER 2: stamp — wewnętrzne detale embossera -->
  <g id="stamp">
    <path id="stamp_outline" d="M 37.50,48.90 C 43.77,48.90 48.90,43.77 48.90,37.50 C 48.90,29.29 45.48,29.29 40.92,29.29 L 44.34,23.59 L 40.92,29.29 L 34.08,29.29 L 30.66,23.59 L 30.66,29.29 C 29.52,29.29 26.10,29.29 26.10,37.50 C 26.10,43.77 31.23,48.90 37.50,48.90 Z" fill="none" stroke="#666666" stroke-width="0.8"/>
    <circle id="eye_l" cx="30.00" cy="31.50" r="3.00" fill="#333333"/>
    <circle id="eye_r" cx="45.00" cy="31.50" r="3.00" fill="#333333"/>
    <path id="smile" d="M 28.50,41.25 Q 37.50,46.65 46.50,41.25" fill="none" stroke="#333333" stroke-width="1.0"/>
  </g>
</svg>