<?xml version="1.0" encoding="utf-8"?>
<svg xmlns="http://www.w3.org/2000/svg"
     width="75.0mm" height="75.0mm"
     viewBox="0 0 75.0 75.0">
  <rect width="75.0mm" height="75.0mm" fill="white"/>
  <!-- LAYER 1: outer — zewnętrzna sylwetka cuttera -->
  <g id="outer">
    <path id="outer_contour" d="M 37.5,3.5 C 33.0,3.5 29.5,6.0 27.0,10.0 C 24.5,14.0 24.0,15.5 22.0,17.0 C 18.0,17.5 12.0,16.5 8.0,20.0 C 4.0,24.0 4.5,30.0 6.0,35.0 C 3.5,38.0 2.5,42.0 3.0,46.5 C 3.5,51.0 6.0,54.5 9.5,57.0 C 11.0,61.0 14.0,64.5 18.5,66.5 C 23.0,68.5 27.5,68.5 31.0,67.5 C 33.0,69.5 35.5,71.0 37.5,71.0 C 39.5,71.0 42.0,69.5 44.0,67.5 C 47.5,68.5 52.0,68.5 56.5,66.5 C 61.0,64.5 64.0,61.0 65.5,57.0 C 69.0,54.5 71.5,51.0 72.0,46.5 C 72.5,42.0 71.5,38.0 69.0,35.0 C 70.5,30.0 71.0,24.0 67.0,20.0 C 63.0,16.5 57.0,17.5 53.0,17.0 C 51.0,15.5 50.5,14.0 48.0,10.0 C 45.5,6.0 42.0,3.5 37.5,3.5 Z" fill="none" stroke="#000000" stroke-width="1.2"/>
  </g>
  <!-- LAYER 2: stamp — wewnętrzne detale embossera -->
  <g id="stamp">
    <path id="stamp_outline" d="M 37.50,48.90 C 43.77,48.90 48.90,43.77 48.90,37.50 C 48.90,29.29 45.48,29.29 40.92,29.29 L 44.34,23.59 L 40.92,29.29 L 34.08,29.29 L 30.66,23.59 L 30.66,29.29 C 29.52,29.29 26.10,29.29 26.10,37.50 C 26.10,43.77 31.23,48.90 37.50,48.90 Z" fill="none" stroke="#666666" stroke-width="0.8"/>
    <circle id="eye_l" cx="30.00" cy="31.50" r="3.00" fill="#333333"/>
    <circle id="eye_r" cx="45.00" cy="31.50" r="3.00" fill="#333333"/>
    <path id="smile" d="M 28.50,41.25 Q 37.50,46.65 46.50,41.25" fill="none" stroke="#333333" stroke-width="1.0"/>
  </g>
</svg>