<?xml version="1.0" encoding="utf-8"?>
<svg xmlns="http://www.w3.org/2000/svg"
     width="60.0mm" height="60.0mm"
     viewBox="0 0 60.0 60.0">
  <rect width="60.0mm" height="60.0mm" fill="white"/>
  <!-- LAYER 1: outer — zewnętrzna sylwetka cuttera -->
  <g id="outer">
    <path id="outer_contour" d="M 30.0,4.0 C 27.0,4.0 24.5,6.0 23.0,8.5 C 21.0,4.5 16.0,2.5 13.0,6.0 C 10.0,9.5 11.0,14.0 13.0,17.0 C 8.0,18.5 4.0,22.0 3.5,27.0 C 3.0,32.0 5.0,36.5 8.5,39.5 C 7.0,42.0 6.5,45.5 8.0,48.5 C 10.0,52.5 14.5,54.5 18.5,55.0 C 20.5,56.5 23.5,57.5 27.0,57.5 C 28.5,57.5 29.5,57.0 30.0,56.5 C 30.5,57.0 31.5,57.5 33.0,57.5 C 36.5,57.5 39.5,56.5 41.5,55.0 C 45.5,54.5 50.0,52.5 52.0,48.5 C 53.5,45.5 53.0,42.0 51.5,39.5 C 55.0,36.5 57.0,32.0 56.5,27.0 C 56.0,22.0 52.0,18.5 47.0,17.0 C 49.0,14.0 50.0,9.5 47.0,6.0 C 44.0,2.5 39.0,4.5 37.0,8.5 C 35.5,6.0 33.0,4.0 30.0,4.0 Z" fill="none" stroke="#000000" stroke-width="1.2"/>
  </g>
  <!-- LAYER 2: stamp — wewnętrzne detale embossera -->
  <g id="stamp">
    <path id="stamp_outline" d="M 30.00,39.12 C 35.02,39.12 39.12,35.02 39.12,30.00 C 39.12,23.43 36.38,23.43 32.74,23.43 L 35.47,18.87 L 32.74,23.43 L 27.26,23.43 L 24.53,18.87 L 24.53,23.43 C 23.62,23.43 20.88,23.43 20.88,30.00 C 20.88,35.02 24.98,39.12 30.00,39.12 Z" fill="none" stroke="#666666" stroke-width="0.8"/>
    <circle id="eye_l" cx="24.00" cy="25.20" r="2.50" fill="#333333"/>
    <circle id="eye_r" cx="36.00" cy="25.20" r="2.50" fill="#333333"/>
    <path id="smile" d="M 22.80,33.00 Q 30.00,37.32 37.20,33.00" fill="none" stroke="#333333" stroke-width="1.0"/>
  </g>
</svg>