<?xml version="1.0" encoding="utf-8"?>
<svg xmlns="http://www.w3.org/2000/svg"
     width="110.0mm" height="110.0mm"
     viewBox="0 0 110.0 110.0">
  <rect width="110.0mm" height="110.0mm" fill="white"/>
  <!-- LAYER 1: outer — zewnętrzna sylwetka cuttera -->
  <g id="outer">
    <path id="outer_contour" d="M 55.0,8.0 C 50.0,8.0 46.0,12.0 44.0,18.0 C 42.0,24.0 38.0,20.0 34.0,14.0 C 30.0,8.0 22.0,8.0 16.0,16.0 C 10.0,24.0 12.0,36.0 14.0,42.0 C 16.0,48.0 10.0,52.0 8.0,60.0 C 6.0,68.0 8.0,78.0 14.0,86.0 C 20.0,94.0 30.0,100.0 40.0,102.0 C 45.0,103.0 50.0,103.5 55.0,103.5 C 60.0,103.5 65.0,103.0 70.0,102.0 C 80.0,100.0 90.0,94.0 96.0,86.0 C 102.0,78.0 104.0,68.0 102.0,60.0 C 100.0,52.0 94.0,48.0 96.0,42.0 C 98.0,36.0 100.0,24.0 94.0,16.0 C 88.0,8.0 80.0,8.0 76.0,14.0 C 72.0,20.0 68.0,24.0 66.0,18.0 C 64.0,12.0 60.0,8.0 55.0,8.0 Z" fill="none" stroke="#000000" stroke-width="1.2"/>
  </g>
  <!-- LAYER 2: stamp — wewnętrzne detale embossera -->
  <g id="stamp">
    <path id="stamp_outline" d="M 55.00,71.72 C 64.20,71.72 71.72,64.20 71.72,55.00 C 71.72,42.96 66.70,42.96 60.02,42.96 L 65.03,34.60 L 60.02,42.96 L 49.98,42.96 L 44.97,34.60 L 44.97,42.96 C 43.30,42.96 38.28,42.96 38.28,55.00 C 38.28,64.20 45.80,71.72 55.00,71.72 Z" fill="none" stroke="#666666" stroke-width="0.8"/>
    <circle id="eye_l" cx="44.00" cy="46.20" r="4.40" fill="#333333"/>
    <circle id="eye_r" cx="66.00" cy="46.20" r="4.40" fill="#333333"/>
    <path id="smile" d="M 41.80,60.50 Q 55.00,68.42 68.20,60.50" fill="none" stroke="#333333" stroke-width="1.0"/>
  </g>
</svg>