<?xml version="1.0" encoding="utf-8"?>
<svg xmlns="http://www.w3.org/2000/svg"
     width="50.0mm" height="50.0mm"
     viewBox="0 0 50.0 50.0">
  <rect width="50.0mm" height="50.0mm" fill="white"/>
  <!-- LAYER 1: outer — zewnętrzna sylwetka cuttera -->
  <g id="outer">
    <path id="outer_contour" d="M 25.0,2.5 C 23.0,2.5 21.0,3.5 20.0,5.5 C 18.5,3.0 15.5,2.0 13.5,3.5 C 11.0,5.5 12.0,9.0 13.0,11.0 C 10.0,11.5 7.0,13.0 5.0,16.0 C 3.0,19.5 3.0,23.5 3.5,26.5 C 4.0,30.0 5.5,33.5 8.0,36.0 C 10.0,38.0 12.5,39.5 15.0,40.5 C 15.0,41.5 14.5,43.0 13.5,44.5 C 12.5,46.0 13.5,47.5 15.5,47.5 C 17.5,47.5 19.5,46.5 20.5,45.5 C 21.5,44.5 22.0,43.5 22.5,42.0 C 23.3,42.2 24.1,42.3 25.0,42.3 C 25.9,42.3 26.7,42.2 27.5,42.0 C 28.0,43.5 28.5,44.5 29.5,45.5 C 30.5,46.5 32.5,47.5 34.5,47.5 C 36.5,47.5 37.5,46.0 36.5,44.5 C 35.5,43.0 35.0,41.5 35.0,40.5 C 37.5,39.5 40.0,38.0 42.0,36.0 C 44.5,33.5 46.0,30.0 46.5,26.5 C 47.0,23.5 47.0,19.5 45.0,16.0 C 43.0,13.0 40.0,11.5 37.0,11.0 C 38.0,9.0 39.0,5.5 36.5,3.5 C 34.5,2.0 31.5,3.0 30.0,5.5 C 29.0,3.5 27.0,2.5 25.0,2.5 Z" fill="none" stroke="#000000" stroke-width="1.2"/>
  </g>
  <!-- LAYER 2: stamp — wewnętrzne detale embossera -->
  <g id="stamp">
    <path id="stamp_outline" d="M 25.00,32.60 C 29.18,32.60 32.60,29.18 32.60,25.00 C 32.60,19.53 30.32,19.53 27.28,19.53 L 29.56,15.73 L 27.28,19.53 L 22.72,19.53 L 20.44,15.73 L 20.44,19.53 C 19.68,19.53 17.40,19.53 17.40,25.00 C 17.40,29.18 20.82,32.60 25.00,32.60 Z" fill="none" stroke="#666666" stroke-width="0.8"/>
    <circle id="eye_l" cx="20.00" cy="21.00" r="2.50" fill="#333333"/>
    <circle id="eye_r" cx="30.00" cy="21.00" r="2.50" fill="#333333"/>
    <path id="smile" d="M 19.00,27.50 Q 25.00,31.10 31.00,27.50" fill="none" stroke="#333333" stroke-width="1.0"/>
  </g>
</svg>