<?xml version="1.0" encoding="utf-8"?>
<svg xmlns="http://www.w3.org/2000/svg"
     width="150.0mm" height="150.0mm"
     viewBox="0 0 150.0 150.0">
  <rect width="150.0mm" height="150.0mm" fill="white"/>
  <!-- LAYER 1: outer — zewnętrzna sylwetka cuttera -->
  <g id="outer">
    <path id="outer_contour" d="M 75.0,8.0 C 68.0,8.0 62.0,14.0 60.0,22.0 C 58.0,30.0 54.0,32.0 48.0,28.0 C 40.0,22.0 28.0,18.0 22.0,26.0 C 16.0,34.0 20.0,46.0 26.0,54.0 C 30.0,59.0 30.0,64.0 28.0,70.0 C 22.0,82.0 14.0,92.0 12.0,104.0 C 10.0,116.0 16.0,128.0 28.0,134.0 C 36.0,138.0 46.0,140.0 56.0,140.0 C 62.0,140.0 68.0,139.0 72.0,136.0 C 74.0,134.5 76.0,134.5 78.0,136.0 C 82.0,139.0 88.0,140.0 94.0,140.0 C 104.0,140.0 114.0,138.0 122.0,134.0 C 134.0,128.0 140.0,116.0 138.0,104.0 C 136.0,92.0 128.0,82.0 122.0,70.0 C 120.0,64.0 120.0,59.0 124.0,54.0 C 130.0,46.0 134.0,34.0 128.0,26.0 C 122.0,18.0 110.0,22.0 102.0,28.0 C 96.0,32.0 92.0,30.0 90.0,22.0 C 88.0,14.0 82.0,8.0 75.0,8.0 Z" fill="none" stroke="#000000" stroke-width="1.2"/>
  </g>
  <!-- LAYER 2: stamp — wewnętrzne detale embossera -->
  <g id="stamp">
    <path id="stamp_outline" d="M 75.00,97.80 C 87.54,97.80 97.80,87.54 97.80,75.00 C 97.80,58.58 90.96,58.58 81.84,58.58 L 88.68,47.18 L 81.84,58.58 L 68.16,58.58 L 61.32,47.18 L 61.32,58.58 C 59.04,58.58 52.20,58.58 52.20,75.00 C 52.20,87.54 62.46,97.80 75.00,97.80 Z" fill="none" stroke="#666666" stroke-width="0.8"/>
    <circle id="eye_l" cx="60.00" cy="63.00" r="6.00" fill="#333333"/>
    <circle id="eye_r" cx="90.00" cy="63.00" r="6.00" fill="#333333"/>
    <path id="smile" d="M 57.00,82.50 Q 75.00,93.30 93.00,82.50" fill="none" stroke="#333333" stroke-width="1.0"/>
  </g>
</svg>