<?xml version="1.0" encoding="utf-8" ?>
<svg xmlns="http://www.w3.org/2000/svg" xmlns:ev="http://www.w3.org/2001/xml-events" xmlns:xlink="http://www.w3.org/1999/xlink" baseProfile="full" height="90.0mm" version="1.1" viewBox="0 0 90.0 90.0" width="90.0mm">
  <defs/>
  <rect fill="white" height="90.0mm" width="90.0mm" x="0" y="0"/>
  <path d="M 66.53,45.00 A 6.62,6.62 0 1 1 66.52,45.00 Z M 60.22,60.22 A 6.62,6.62 0 1 1 60.21,60.22 Z M 45.00,66.53 A 6.62,6.62 0 1 1 44.99,66.53 Z M 29.78,60.22 A 6.62,6.62 0 1 1 29.77,60.22 Z M 23.47,45.00 A 6.62,6.62 0 1 1 23.46,45.00 Z M 29.78,29.78 A 6.62,6.62 0 1 1 29.77,29.78 Z M 45.00,23.47 A 6.62,6.62 0 1 1 44.99,23.47 Z M 60.22,29.78 A 6.62,6.62 0 1 1 60.21,29.78 Z M 53.28,45.00 A 8.28,8.28 0 1 1 53.27,45.00 Z" fill="#2d2d2d" stroke="#1a1a1a" stroke-width="1.25mm"/>
  <text fill="#888888" font-family="sans-serif" font-size="3px" text-anchor="middle" x="45.0mm" y="86.39999999999999mm">botanical leaf | STAMP | L</text>
</svg>
