<?xml version="1.0" encoding="utf-8" ?>
<svg xmlns="http://www.w3.org/2000/svg" xmlns:ev="http://www.w3.org/2001/xml-events" xmlns:xlink="http://www.w3.org/1999/xlink" baseProfile="full" height="60.0mm" version="1.1" viewBox="0 0 60.0 60.0" width="60.0mm">
  <defs/>
  <rect fill="white" height="60.0mm" width="60.0mm" x="0" y="0"/>
  <path d="M 44.35,30.00 A 4.42,4.42 0 1 1 44.34,30.00 Z M 40.15,40.15 A 4.42,4.42 0 1 1 40.14,40.15 Z M 30.00,44.35 A 4.42,4.42 0 1 1 29.99,44.35 Z M 19.85,40.15 A 4.42,4.42 0 1 1 19.84,40.15 Z M 15.65,30.00 A 4.42,4.42 0 1 1 15.64,30.00 Z M 19.85,19.85 A 4.42,4.42 0 1 1 19.84,19.85 Z M 30.00,15.65 A 4.42,4.42 0 1 1 29.99,15.65 Z M 40.15,19.85 A 4.42,4.42 0 1 1 40.14,19.85 Z M 35.52,30.00 A 5.52,5.52 0 1 1 35.51,30.00 Z" fill="#2d2d2d" stroke="#1a1a1a" stroke-width="1.25mm"/>
  <text fill="#888888" font-family="sans-serif" font-size="3px" text-anchor="middle" x="30.0mm" y="57.599999999999994mm">botanical leaf | STAMP | S</text>
</svg>
