<?xml version="1.0" encoding="utf-8"?>
<svg xmlns="http://www.w3.org/2000/svg"
     width="90.0mm" height="90.0mm"
     viewBox="0 0 90.0 90.0">
  <rect width="90.0mm" height="90.0mm" fill="white"/>
  <!-- LAYER 1: outer — zewnętrzna sylwetka cuttera -->
  <g id="outer">
    <path id="outer_contour" d="M 45.0,4.0 C 28.0,4.0 8.0,14.0 5.0,28.0 C 2.0,42.0 14.0,48.0 24.0,50.0 C 20.0,50.5 18.0,52.0 18.0,55.0 C 18.0,58.0 20.0,60.0 24.0,60.0 C 24.0,60.0 28.0,60.0 30.0,59.0 C 29.0,62.0 28.0,68.0 28.0,74.0 C 28.0,80.0 32.0,86.0 38.0,87.0 C 42.0,87.5 44.0,87.5 45.0,87.5 C 46.0,87.5 48.0,87.5 52.0,87.0 C 58.0,86.0 62.0,80.0 62.0,74.0 C 62.0,68.0 61.0,62.0 60.0,59.0 C 62.0,60.0 66.0,60.0 66.0,60.0 C 70.0,60.0 72.0,58.0 72.0,55.0 C 72.0,52.0 70.0,50.5 66.0,50.0 C 76.0,48.0 88.0,42.0 85.0,28.0 C 82.0,14.0 62.0,4.0 45.0,4.0 Z" fill="none" stroke="#000000" stroke-width="1.2"/>
  </g>
  <!-- LAYER 2: stamp — wewnętrzne detale embossera -->
  <g id="stamp">
    <path id="stamp_outline" d="M 29.95,38.84 A 15.05,15.05 0 0 1 60.05,38.84 Q 60.05,51.16 52.52,51.16 L 52.52,62.78 L 37.48,62.78 L 37.48,51.16 Q 29.95,51.16 29.95,38.84 Z" fill="none" stroke="#666666" stroke-width="0.8"/>
    <circle id="eye_l" cx="36.00" cy="37.80" r="3.60" fill="#333333"/>
    <circle id="eye_r" cx="54.00" cy="37.80" r="3.60" fill="#333333"/>
    <path id="smile" d="M 34.20,49.50 Q 45.00,55.98 55.80,49.50" fill="none" stroke="#333333" stroke-width="1.0"/>
  </g>
</svg>