<?xml version="1.0" encoding="utf-8"?>
<svg xmlns="http://www.w3.org/2000/svg"
     width="75.0mm" height="75.0mm"
     viewBox="0 0 75.0 75.0">
  <rect width="75.0mm" height="75.0mm" fill="white"/>
  <!-- LAYER 1: outer — zewnętrzna sylwetka cuttera -->
  <g id="outer">
    <path id="outer_contour" d="M 10.0,30.0 C 10.0,18.0 18.0,8.0 37.5,8.0 C 57.0,8.0 65.0,18.0 65.0,30.0 C 65.0,38.0 58.0,44.0 50.0,46.0 C 48.0,46.5 42.0,47.0 37.5,47.0 C 33.0,47.0 27.0,46.5 25.0,46.0 C 17.0,44.0 10.0,38.0 10.0,30.0 Z M 28.0,47.0 C 27.0,47.5 26.0,49.0 25.5,51.0 C 24.5,55.0 24.0,60.0 24.5,63.0 C 25.0,65.5 27.0,67.0 30.0,67.5 C 33.0,68.0 35.5,68.0 37.5,68.0 C 39.5,68.0 42.0,68.0 45.0,67.5 C 48.0,67.0 50.0,65.5 50.5,63.0 C 51.0,60.0 50.5,55.0 49.5,51.0 C 49.0,49.0 48.0,47.5 47.0,47.0 C 44.0,46.0 41.0,47.5 37.5,47.5 C 34.0,47.5 31.0,46.0 28.0,47.0 Z M 22.0,22.0 C 19.0,22.0 16.5,24.0 16.5,27.0 C 16.5,30.0 19.0,32.0 22.0,32.0 C 25.0,32.0 27.5,30.0 27.5,27.0 C 27.5,24.0 25.0,22.0 22.0,22.0 Z M 42.0,14.0 C 39.5,14.0 37.5,15.5 37.5,18.0 C 37.5,20.5 39.5,22.0 42.0,22.0 C 44.5,22.0 46.5,20.5 46.5,18.0 C 46.5,15.5 44.5,14.0 42.0,14.0 Z M 50.0,30.0 C 47.0,30.0 44.5,32.0 44.5,35.0 C 44.5,38.0 47.0,40.0 50.0,40.0 C 53.0,40.0 55.5,38.0 55.5,35.0 C 55.5,32.0 53.0,30.0 50.0,30.0 Z" fill="none" stroke="#000000" stroke-width="1.2"/>
  </g>
  <!-- LAYER 2: stamp — wewnętrzne detale embossera -->
  <g id="stamp">
    <path id="stamp_outline" d="M 24.96,32.37 A 12.54,12.54 0 0 1 50.04,32.37 Q 50.04,42.63 43.77,42.63 L 43.77,52.32 L 31.23,52.32 L 31.23,42.63 Q 24.96,42.63 24.96,32.37 Z" fill="none" stroke="#666666" stroke-width="0.8"/>
    <circle id="eye_l" cx="30.00" cy="31.50" r="3.00" fill="#333333"/>
    <circle id="eye_r" cx="45.00" cy="31.50" r="3.00" fill="#333333"/>
    <path id="smile" d="M 28.50,41.25 Q 37.50,46.65 46.50,41.25" fill="none" stroke="#333333" stroke-width="1.0"/>
  </g>
</svg>