<?xml version="1.0" encoding="utf-8"?>
<svg xmlns="http://www.w3.org/2000/svg"
     width="75.0mm" height="75.0mm"
     viewBox="0 0 75.0 75.0">
  <rect width="75.0mm" height="75.0mm" fill="white"/>
  <!-- LAYER 1: outer — zewnętrzna sylwetka cuttera -->
  <g id="outer">
    <path id="outer_contour" d="M 37.5,4.5 C 24.0,4.5 10.0,12.0 6.5,24.0 C 3.5,34.0 10.0,40.0 16.0,42.5 C 16.5,43.0 16.0,43.5 16.0,44.0 C 15.5,45.0 15.0,46.5 15.5,48.0 C 16.0,49.5 17.5,50.5 19.0,51.0 C 19.5,51.2 20.0,52.0 20.0,53.0 L 20.0,55.0 C 20.0,57.0 20.5,59.0 22.0,61.0 C 23.5,63.0 26.0,64.5 28.0,65.5 C 30.0,66.5 33.0,67.5 35.5,68.0 C 37.0,68.3 38.0,68.3 39.5,68.0 C 42.0,67.5 45.0,66.5 47.0,65.5 C 49.0,64.5 51.5,63.0 53.0,61.0 C 54.5,59.0 55.0,57.0 55.0,55.0 L 55.0,53.0 C 55.0,52.0 55.5,51.2 56.0,51.0 C 57.5,50.5 59.0,49.5 59.5,48.0 C 60.0,46.5 59.5,45.0 59.0,44.0 C 59.0,43.5 58.5,43.0 59.0,42.5 C 65.0,40.0 71.5,34.0 68.5,24.0 C 65.0,12.0 51.0,4.5 37.5,4.5 Z" fill="none" stroke="#000000" stroke-width="1.2"/>
  </g>
  <!-- LAYER 2: stamp — wewnętrzne detale embossera -->
  <g id="stamp">
    <path id="stamp_outline" d="M 24.96,32.37 A 12.54,12.54 0 0 1 50.04,32.37 Q 50.04,42.63 43.77,42.63 L 43.77,52.32 L 31.23,52.32 L 31.23,42.63 Q 24.96,42.63 24.96,32.37 Z" fill="none" stroke="#666666" stroke-width="0.8"/>
    <circle id="eye_l" cx="30.00" cy="31.50" r="3.00" fill="#333333"/>
    <circle id="eye_r" cx="45.00" cy="31.50" r="3.00" fill="#333333"/>
    <path id="smile" d="M 28.50,41.25 Q 37.50,46.65 46.50,41.25" fill="none" stroke="#333333" stroke-width="1.0"/>
  </g>
</svg>