<?xml version="1.0" encoding="utf-8"?>
<svg xmlns="http://www.w3.org/2000/svg"
     width="60.0mm" height="60.0mm"
     viewBox="0 0 60.0 60.0">
  <rect width="60.0mm" height="60.0mm" fill="white"/>
  <!-- LAYER 1: outer — zewnętrzna sylwetka cuttera -->
  <g id="outer">
    <path id="outer_contour" d="M 30.0,4.0 C 22.0,4.0 14.0,7.5 8.5,13.0 C 3.0,18.5 2.0,26.0 6.0,31.0 C 8.5,34.0 12.0,35.5 16.0,36.0 C 15.5,37.5 15.0,39.5 15.0,41.0 C 14.8,43.5 15.5,46.0 16.5,48.0 C 17.5,50.0 19.0,52.0 21.0,53.5 C 23.0,55.0 25.5,56.0 28.0,56.0 C 29.0,56.0 30.0,55.8 31.0,55.8 C 32.0,56.0 33.0,56.0 34.0,55.8 C 36.5,55.5 39.0,54.5 40.5,52.5 C 42.0,50.5 43.0,48.0 43.5,45.5 C 44.0,43.0 44.0,40.5 43.5,38.5 C 43.2,37.5 43.0,36.8 42.5,36.0 C 46.5,35.8 50.5,34.5 53.0,31.5 C 56.5,27.0 56.0,20.0 51.5,14.5 C 47.0,9.0 40.0,5.5 34.0,4.5 C 32.7,4.2 31.3,4.0 30.0,4.0 Z" fill="none" stroke="#000000" stroke-width="1.2"/>
  </g>
  <!-- LAYER 2: stamp — wewnętrzne detale embossera -->
  <g id="stamp">
    <path id="stamp_outline" d="M 19.97,25.90 A 10.03,10.03 0 0 1 40.03,25.90 Q 40.03,34.10 35.02,34.10 L 35.02,41.86 L 24.98,41.86 L 24.98,34.10 Q 19.97,34.10 19.97,25.90 Z" fill="none" stroke="#666666" stroke-width="0.8"/>
    <circle id="eye_l" cx="24.00" cy="25.20" r="2.50" fill="#333333"/>
    <circle id="eye_r" cx="36.00" cy="25.20" r="2.50" fill="#333333"/>
    <path id="smile" d="M 22.80,33.00 Q 30.00,37.32 37.20,33.00" fill="none" stroke="#333333" stroke-width="1.0"/>
  </g>
</svg>