<?xml version="1.0" encoding="utf-8"?>
<svg xmlns="http://www.w3.org/2000/svg"
     width="110.0mm" height="110.0mm"
     viewBox="0 0 110.0 110.0">
  <rect width="110.0mm" height="110.0mm" fill="white"/>
  <!-- LAYER 1: outer — zewnętrzna sylwetka cuttera -->
  <g id="outer">
    <path id="outer_contour" d="M 55.0,8.0 C 35.0,8.0 18.0,18.0 12.0,32.0 C 6.0,46.0 10.0,54.0 18.0,58.0 C 22.0,60.0 28.0,60.5 33.0,59.0 C 33.0,59.5 33.0,60.0 33.0,61.0 C 31.0,62.0 28.0,64.0 27.0,67.0 C 25.5,71.0 27.0,75.0 29.0,78.0 C 24.0,79.0 18.0,82.0 16.0,88.0 C 14.0,94.0 18.0,99.0 24.0,101.0 C 28.0,102.5 33.0,102.0 37.0,100.0 C 38.0,101.0 40.0,102.0 43.0,102.0 C 46.0,102.0 48.0,101.0 49.0,99.5 C 50.0,100.5 52.0,101.5 55.0,101.5 C 58.0,101.5 60.0,100.5 61.0,99.5 C 62.0,101.0 64.0,102.0 67.0,102.0 C 70.0,102.0 72.0,101.0 73.0,100.0 C 77.0,102.0 82.0,102.5 86.0,101.0 C 92.0,99.0 96.0,94.0 94.0,88.0 C 92.0,82.0 86.0,79.0 81.0,78.0 C 83.0,75.0 84.5,71.0 83.0,67.0 C 82.0,64.0 79.0,62.0 77.0,61.0 C 77.0,60.0 77.0,59.5 77.0,59.0 C 82.0,60.5 88.0,60.0 92.0,58.0 C 100.0,54.0 104.0,46.0 98.0,32.0 C 92.0,18.0 75.0,8.0 55.0,8.0 Z" fill="none" stroke="#000000" stroke-width="1.2"/>
  </g>
  <!-- LAYER 2: stamp — wewnętrzne detale embossera -->
  <g id="stamp">
    <path id="stamp_outline" d="M 36.61,47.48 A 18.39,18.39 0 0 1 73.39,47.48 Q 73.39,62.52 64.20,62.52 L 64.20,76.74 L 45.80,76.74 L 45.80,62.52 Q 36.61,62.52 36.61,47.48 Z" fill="none" stroke="#666666" stroke-width="0.8"/>
    <circle id="eye_l" cx="44.00" cy="46.20" r="4.40" fill="#333333"/>
    <circle id="eye_r" cx="66.00" cy="46.20" r="4.40" fill="#333333"/>
    <path id="smile" d="M 41.80,60.50 Q 55.00,68.42 68.20,60.50" fill="none" stroke="#333333" stroke-width="1.0"/>
  </g>
</svg>