<?xml version="1.0" encoding="utf-8"?>
<svg xmlns="http://www.w3.org/2000/svg"
     width="50.0mm" height="50.0mm"
     viewBox="0 0 50.0 50.0">
  <rect width="50.0mm" height="50.0mm" fill="white"/>
  <!-- LAYER 1: outer — zewnętrzna sylwetka cuttera -->
  <g id="outer">
    <path id="outer_contour" d="M 25.0,3.5 C 18.0,3.5 10.0,6.0 6.0,12.0 C 3.0,16.5 3.5,22.0 7.0,25.5 C 9.5,28.0 13.0,29.5 16.5,30.0 C 16.0,31.5 15.5,33.5 15.5,35.0 C 15.5,36.5 15.8,38.0 16.0,39.5 C 15.0,40.0 13.5,41.0 13.0,42.5 C 12.5,44.0 13.5,46.0 15.5,46.5 C 17.0,47.0 19.5,46.5 21.0,46.0 C 22.5,45.5 23.5,44.5 24.0,43.5 C 24.5,44.0 25.5,44.0 26.0,43.5 C 26.5,44.5 27.5,45.5 29.0,46.0 C 30.5,46.5 33.0,47.0 34.5,46.5 C 36.5,46.0 37.5,44.0 37.0,42.5 C 36.5,41.0 35.0,40.0 34.0,39.5 C 34.2,38.0 34.5,36.5 34.5,35.0 C 34.5,33.5 34.0,31.5 33.5,30.0 C 37.0,29.5 40.5,28.0 43.0,25.5 C 46.5,22.0 47.0,16.5 44.0,12.0 C 40.0,6.0 32.0,3.5 25.0,3.5 Z" fill="none" stroke="#000000" stroke-width="1.2"/>
  </g>
  <!-- LAYER 2: stamp — wewnętrzne detale embossera -->
  <g id="stamp">
    <path id="stamp_outline" d="M 16.64,21.58 A 8.36,8.36 0 0 1 33.36,21.58 Q 33.36,28.42 29.18,28.42 L 29.18,34.88 L 20.82,34.88 L 20.82,28.42 Q 16.64,28.42 16.64,21.58 Z" fill="none" stroke="#666666" stroke-width="0.8"/>
    <circle id="eye_l" cx="20.00" cy="21.00" r="2.50" fill="#333333"/>
    <circle id="eye_r" cx="30.00" cy="21.00" r="2.50" fill="#333333"/>
    <path id="smile" d="M 19.00,27.50 Q 25.00,31.10 31.00,27.50" fill="none" stroke="#333333" stroke-width="1.0"/>
  </g>
</svg>