<?xml version="1.0" encoding="utf-8"?>
<svg xmlns="http://www.w3.org/2000/svg"
     width="150.0mm" height="150.0mm"
     viewBox="0 0 150.0 150.0">
  <rect width="150.0mm" height="150.0mm" fill="white"/>
  <!-- LAYER 1: outer — zewnętrzna sylwetka cuttera -->
  <g id="outer">
    <path id="outer_contour" d="M 75.0,8.0 C 95.0,8.0 120.0,14.0 135.0,30.0 C 148.0,44.0 148.0,58.0 140.0,68.0 C 134.0,75.0 124.0,78.0 114.0,78.0 C 110.0,78.0 106.0,77.5 102.0,76.5 C 103.0,80.0 104.0,84.0 104.0,88.0 C 104.0,90.0 103.5,92.0 103.0,94.0 L 108.0,94.0 C 116.0,94.0 122.0,98.0 124.0,104.0 C 126.0,110.0 124.0,118.0 118.0,124.0 C 114.0,128.0 108.0,132.0 100.0,135.0 C 94.0,137.0 87.0,138.0 80.0,138.0 C 72.0,138.0 64.0,137.0 57.0,134.0 C 48.0,130.0 42.0,124.0 38.0,118.0 C 34.0,112.0 32.0,106.0 34.0,100.0 C 36.0,96.0 40.0,94.0 46.0,94.0 L 49.0,94.0 C 48.5,92.0 48.0,90.0 48.0,88.0 C 48.0,84.0 49.0,80.0 50.0,76.5 C 46.0,77.5 42.0,78.0 38.0,78.0 C 28.0,78.0 18.0,75.0 12.0,68.0 C 4.0,58.0 4.0,44.0 17.0,30.0 C 32.0,14.0 55.0,8.0 75.0,8.0 Z" fill="none" stroke="#000000" stroke-width="1.2"/>
  </g>
  <!-- LAYER 2: stamp — wewnętrzne detale embossera -->
  <g id="stamp">
    <path id="stamp_outline" d="M 49.92,64.74 A 25.08,25.08 0 0 1 100.08,64.74 Q 100.08,85.26 87.54,85.26 L 87.54,104.64 L 62.46,104.64 L 62.46,85.26 Q 49.92,85.26 49.92,64.74 Z" fill="none" stroke="#666666" stroke-width="0.8"/>
    <circle id="eye_l" cx="60.00" cy="63.00" r="6.00" fill="#333333"/>
    <circle id="eye_r" cx="90.00" cy="63.00" r="6.00" fill="#333333"/>
    <path id="smile" d="M 57.00,82.50 Q 75.00,93.30 93.00,82.50" fill="none" stroke="#333333" stroke-width="1.0"/>
  </g>
</svg>