<?xml version="1.0" encoding="utf-8"?>
<svg xmlns="http://www.w3.org/2000/svg"
     width="90.0mm" height="90.0mm"
     viewBox="0 0 90.0 90.0">
  <rect width="90.0mm" height="90.0mm" fill="white"/>
  <!-- LAYER 1: outer — zewnętrzna sylwetka cuttera -->
  <g id="outer">
    <path id="outer_contour" d="M 45.0,6.0 C 52.0,5.5 56.0,10.0 57.5,14.0 C 60.0,10.0 66.0,7.0 72.0,10.5 C 78.0,14.0 77.0,20.0 75.5,23.0 C 80.0,20.5 86.0,21.0 88.0,27.0 C 90.0,33.0 86.0,37.0 82.5,38.5 C 87.0,40.0 89.0,45.0 87.5,50.0 C 86.0,55.0 81.0,57.0 77.5,56.5 C 80.0,60.0 79.5,65.5 75.0,69.0 C 70.5,72.5 65.0,71.5 62.0,69.5 C 63.0,73.5 61.5,78.5 56.5,81.0 C 51.5,83.5 46.5,82.0 44.0,79.5 C 43.0,82.5 39.5,85.0 34.0,84.0 C 28.5,83.0 25.5,78.5 25.5,75.0 C 22.5,78.0 17.5,79.0 13.0,75.5 C 8.5,72.0 8.0,66.5 9.5,63.0 C 6.0,64.5 2.5,63.0 2.0,57.5 C 1.5,52.0 4.5,48.5 7.5,47.0 C 4.0,45.0 2.0,40.5 3.5,35.5 C 5.0,30.5 9.5,28.0 13.0,28.0 C 10.5,24.5 10.0,19.5 14.0,15.5 C 18.0,11.5 23.5,12.0 26.5,13.5 C 26.0,10.0 27.5,5.5 33.0,4.0 C 38.5,2.5 42.5,4.5 45.0,6.0 Z" fill="none" stroke="#000000" stroke-width="1.2"/>
  </g>
  <!-- LAYER 2: stamp — wewnętrzne detale embossera -->
  <g id="stamp">
    <path id="stamp_outline" d="M 43.17,32.71 Q 45.00,29.27 46.83,32.71 Q 48.66,36.15 52.39,35.01 Q 56.12,33.88 54.99,37.61 Q 53.85,41.34 57.29,43.17 Q 60.73,45.00 57.29,46.83 Q 53.85,48.66 54.99,52.39 Q 56.12,56.12 52.39,54.99 Q 48.66,53.85 46.83,57.29 Q 45.00,60.73 43.17,57.29 Q 41.34,53.85 37.61,54.99 Q 33.88,56.12 35.01,52.39 Q 36.15,48.66 32.71,46.83 Q 29.27,45.00 32.71,43.17 Q 36.15,41.34 35.01,37.61 Q 33.88,33.88 37.61,35.01 Q 41.34,36.15 43.17,32.71 Z" fill="none" stroke="#666666" stroke-width="0.8"/>
    <circle cx="34.20" cy="45.00" r="2.25" fill="#999999"/>
    <circle cx="45.00" cy="45.00" r="2.25" fill="#999999"/>
    <circle cx="55.80" cy="45.00" r="2.25" fill="#999999"/>
  </g>
</svg>