<?xml version="1.0" encoding="utf-8"?>
<svg xmlns="http://www.w3.org/2000/svg" xmlns:xlink="http://www.w3.org/1999/xlink" width="60.0mm" height="60.0mm" viewBox="0 0 60.0 60.0">
  <!-- DALL-E 3 preview -->
  <image href="floral-wreath-cutter-m-S_dalle_raw.png" x="0" y="0" width="60.0" height="60.0" opacity="0.35"/>
  <!-- vector outline for 3D model -->
  <path d="M 44.35,30.00 A 4.42,4.42 0 1 1 44.34,30.00 Z M 40.15,40.15 A 4.42,4.42 0 1 1 40.14,40.15 Z M 30.00,44.35 A 4.42,4.42 0 1 1 29.99,44.35 Z M 19.85,40.15 A 4.42,4.42 0 1 1 19.84,40.15 Z M 15.65,30.00 A 4.42,4.42 0 1 1 15.64,30.00 Z M 19.85,19.85 A 4.42,4.42 0 1 1 19.84,19.85 Z M 30.00,15.65 A 4.42,4.42 0 1 1 29.99,15.65 Z M 40.15,19.85 A 4.42,4.42 0 1 1 40.14,19.85 Z M 35.52,30.00 A 5.52,5.52 0 1 1 35.51,30.00 Z" fill="none" stroke="#1a1a1a" stroke-width="2.5mm" stroke-linejoin="round" stroke-linecap="round"/>
  <text x="30.0" y="58.199999999999996" text-anchor="middle" font-size="3px" fill="#888">floral wreath | DALL-E 3 | S</text>
</svg>
