<?xml version="1.0" encoding="utf-8"?>
<svg xmlns="http://www.w3.org/2000/svg"
     width="75.0mm" height="75.0mm"
     viewBox="0 0 75.0 75.0">
  <rect width="75.0mm" height="75.0mm" fill="white"/>
  <!-- LAYER 1: outer — zewnętrzna sylwetka cuttera -->
  <g id="outer">
    <path id="outer_contour" d="M 37.5,8.5 C 44.2,8.5 50.5,10.2 55.8,13.2 C 61.1,16.2 65.2,20.4 68.0,25.5 C 70.8,30.6 72.0,36.0 71.5,41.5 C 71.0,47.0 69.0,52.0 65.8,56.2 C 62.6,60.4 58.2,63.6 53.0,65.5 C 47.8,67.4 42.5,67.8 37.5,67.0 C 32.5,67.8 27.2,67.4 22.0,65.5 C 16.8,63.6 12.4,60.4 9.2,56.2 C 6.0,52.0 4.0,47.0 3.5,41.5 C 3.0,36.0 4.2,30.6 7.0,25.5 C 9.8,20.4 13.9,16.2 19.2,13.2 C 24.5,10.2 30.8,8.5 37.5,8.5 Z M 37.5,14.0 C 31.8,14.0 26.5,15.5 22.0,18.0 C 17.5,20.5 14.0,24.0 11.8,28.2 C 9.6,32.4 8.8,37.0 9.2,41.5 C 9.6,46.0 11.2,50.0 14.0,53.4 C 16.8,56.8 20.4,59.4 24.8,61.0 C 29.2,62.6 33.5,63.0 37.5,62.2 C 41.5,63.0 45.8,62.6 50.2,61.0 C 54.6,59.4 58.2,56.8 61.0,53.4 C 63.8,50.0 65.4,46.0 65.8,41.5 C 66.2,37.0 65.4,32.4 63.2,28.2 C 61.0,24.0 57.5,20.5 53.0,18.0 C 48.5,15.5 43.2,14.0 37.5,14.0 Z M 37.5,5.5 C 35.0,5.8 33.8,8.0 34.2,10.5 C 34.6,13.0 36.0,14.8 37.5,15.5 C 39.0,14.8 40.4,13.0 40.8,10.5 C 41.2,8.0 40.0,5.8 37.5,5.5 Z M 57.8,10.0 C 55.5,9.2 53.2,10.5 52.5,12.8 C 51.8,15.1 52.5,17.4 54.0,18.8 C 55.8,18.2 57.6,16.5 58.6,14.2 C 59.6,11.9 59.5,10.0 57.8,10.0 Z M 68.5,28.0 C 67.0,26.0 64.5,25.8 62.8,27.2 C 61.1,28.6 60.6,31.0 61.2,33.0 C 63.0,33.2 65.2,32.4 67.0,30.8 C 68.8,29.2 69.5,28.0 68.5,28.0 Z M 63.5,51.5 C 63.0,49.0 60.8,47.8 58.8,48.5 C 56.8,49.2 55.6,51.2 55.8,53.2 C 57.4,54.0 59.6,54.0 61.6,53.0 C 63.6,52.0 64.0,51.5 63.5,51.5 Z M 45.0,65.0 C 44.0,62.8 41.6,62.0 39.8,63.0 C 38.0,64.0 37.2,66.2 37.8,68.2 C 39.6,68.8 41.8,68.4 43.6,67.0 C 45.4,65.6 45.5,65.0 45.0,65.0 Z M 30.0,65.0 C 31.0,62.8 33.4,62.0 35.2,63.0 C 37.0,64.0 37.8,66.2 37.2,68.2 C 35.4,68.8 33.2,68.4 31.4,67.0 C 29.6,65.6 29.5,65.0 30.0,65.0 Z M 11.5,51.5 C 12.0,49.0 14.2,47.8 16.2,48.5 C 18.2,49.2 19.4,51.2 19.2,53.2 C 17.6,54.0 15.4,54.0 13.4,53.0 C 11.4,52.0 11.0,51.5 11.5,51.5 Z M 6.5,28.0 C 8.0,26.0 10.5,25.8 12.2,27.2 C 13.9,28.6 14.4,31.0 13.8,33.0 C 12.0,33.2 9.8,32.4 8.0,30.8 C 6.2,29.2 5.5,28.0 6.5,28.0 Z M 17.2,10.0 C 19.5,9.2 21.8,10.5 22.5,12.8 C 23.2,15.1 22.5,17.4 21.0,18.8 C 19.2,18.2 17.4,16.5 16.4,14.2 C 15.4,11.9 15.5,10.0 17.2,10.0 Z" fill="none" stroke="#000000" stroke-width="1.2"/>
  </g>
  <!-- LAYER 2: stamp — wewnętrzne detale embossera -->
  <g id="stamp">
    <path id="stamp_outline" d="M 35.97,27.26 Q 37.50,24.39 39.03,27.26 Q 40.55,30.13 43.66,29.18 Q 46.77,28.23 45.82,31.34 Q 44.87,34.45 47.74,35.97 Q 50.61,37.50 47.74,39.03 Q 44.87,40.55 45.82,43.66 Q 46.77,46.77 43.66,45.82 Q 40.55,44.87 39.03,47.74 Q 37.50,50.61 35.97,47.74 Q 34.45,44.87 31.34,45.82 Q 28.23,46.77 29.18,43.66 Q 30.13,40.55 27.26,39.03 Q 24.39,37.50 27.26,35.97 Q 30.13,34.45 29.18,31.34 Q 28.23,28.23 31.34,29.18 Q 34.45,30.13 35.97,27.26 Z" fill="none" stroke="#666666" stroke-width="0.8"/>
    <circle cx="28.50" cy="37.50" r="1.88" fill="#999999"/>
    <circle cx="37.50" cy="37.50" r="1.88" fill="#999999"/>
    <circle cx="46.50" cy="37.50" r="1.88" fill="#999999"/>
  </g>
</svg>