<?xml version="1.0" encoding="utf-8"?>
<svg xmlns="http://www.w3.org/2000/svg"
     width="75.0mm" height="75.0mm"
     viewBox="0 0 75.0 75.0">
  <rect width="75.0mm" height="75.0mm" fill="white"/>
  <!-- LAYER 1: outer — zewnętrzna sylwetka cuttera -->
  <g id="outer">
    <path id="outer_contour" d="M 37.5,5.0 C 42.0,5.5 45.0,8.0 46.5,12.0 C 50.0,7.5 55.0,6.0 59.0,9.0 C 63.0,12.0 62.5,17.0 60.0,20.5 C 64.5,18.0 69.5,18.5 71.5,23.0 C 73.5,27.5 70.5,32.0 66.5,34.0 C 71.0,36.0 73.0,40.5 71.0,45.0 C 69.0,49.5 64.5,50.5 60.5,49.5 C 63.0,53.0 63.0,58.0 59.0,61.0 C 55.0,64.0 50.0,62.5 47.0,59.0 C 47.5,63.5 45.5,67.5 41.0,69.0 C 36.5,70.5 32.5,68.5 30.5,64.5 C 28.0,68.0 24.0,70.0 20.0,68.0 C 16.0,66.0 14.5,61.5 15.5,57.5 C 12.0,60.5 7.5,60.5 5.5,56.5 C 3.5,52.5 5.5,48.0 9.0,45.5 C 4.5,44.5 2.0,40.5 3.0,36.0 C 4.0,31.5 8.0,29.0 12.0,29.5 C 8.5,26.0 7.5,21.0 11.0,17.5 C 14.5,14.0 19.5,14.5 22.5,17.5 C 21.5,13.0 23.0,8.5 27.5,7.0 C 32.0,5.5 35.5,7.0 37.5,10.5 C 37.5,10.5 36.0,7.0 37.5,5.0 Z" fill="none" stroke="#000000" stroke-width="1.2"/>
  </g>
  <!-- LAYER 2: stamp — wewnętrzne detale embossera -->
  <g id="stamp">
    <path id="stamp_outline" d="M 35.97,27.26 Q 37.50,24.39 39.03,27.26 Q 40.55,30.13 43.66,29.18 Q 46.77,28.23 45.82,31.34 Q 44.87,34.45 47.74,35.97 Q 50.61,37.50 47.74,39.03 Q 44.87,40.55 45.82,43.66 Q 46.77,46.77 43.66,45.82 Q 40.55,44.87 39.03,47.74 Q 37.50,50.61 35.97,47.74 Q 34.45,44.87 31.34,45.82 Q 28.23,46.77 29.18,43.66 Q 30.13,40.55 27.26,39.03 Q 24.39,37.50 27.26,35.97 Q 30.13,34.45 29.18,31.34 Q 28.23,28.23 31.34,29.18 Q 34.45,30.13 35.97,27.26 Z" fill="none" stroke="#666666" stroke-width="0.8"/>
    <circle cx="28.50" cy="37.50" r="1.88" fill="#999999"/>
    <circle cx="37.50" cy="37.50" r="1.88" fill="#999999"/>
    <circle cx="46.50" cy="37.50" r="1.88" fill="#999999"/>
  </g>
</svg>