<?xml version="1.0" encoding="utf-8"?>
<svg xmlns="http://www.w3.org/2000/svg"
     width="60.0mm" height="60.0mm"
     viewBox="0 0 60.0 60.0">
  <rect width="60.0mm" height="60.0mm" fill="white"/>
  <!-- LAYER 1: outer — zewnętrzna sylwetka cuttera -->
  <g id="outer">
    <path id="outer_contour" d="M 30.0,3.5 C 35.5,3.0 38.0,6.5 39.5,10.0 C 42.0,7.0 46.5,5.5 50.0,8.5 C 53.5,11.5 53.0,16.0 50.5,19.0 C 54.5,18.5 57.5,21.5 57.0,25.5 C 56.5,29.5 53.5,31.5 50.5,32.0 C 54.0,34.5 55.5,38.5 53.0,42.0 C 50.5,45.5 46.5,45.5 43.5,44.0 C 44.0,47.5 42.5,51.5 38.5,52.5 C 34.5,53.5 31.5,51.5 30.0,49.0 C 28.5,51.5 25.5,53.5 21.5,52.5 C 17.5,51.5 16.0,47.5 16.5,44.0 C 13.5,45.5 9.5,45.5 7.0,42.0 C 4.5,38.5 6.0,34.5 9.5,32.0 C 6.5,31.5 3.5,29.5 3.0,25.5 C 2.5,21.5 5.5,18.5 9.5,19.0 C 7.0,16.0 6.5,11.5 10.0,8.5 C 13.5,5.5 18.0,7.0 20.5,10.0 C 22.0,6.5 24.5,3.0 30.0,3.5 C 30.0,3.5 30.0,14.0 27.0,16.0 C 23.0,18.5 16.0,16.5 13.5,19.5 C 11.0,22.5 14.0,26.0 12.5,29.0 C 11.0,32.0 7.5,33.0 9.0,36.5 C 10.5,40.0 14.0,39.5 16.5,41.5 C 19.0,43.5 18.5,47.0 21.5,48.0 C 24.5,49.0 26.5,46.5 29.0,45.0 C 30.0,44.3 30.0,44.3 31.0,45.0 C 33.5,46.5 35.5,49.0 38.5,48.0 C 41.5,47.0 41.0,43.5 43.5,41.5 C 46.0,39.5 49.5,40.0 51.0,36.5 C 52.5,33.0 49.0,32.0 47.5,29.0 C 46.0,26.0 49.0,22.5 46.5,19.5 C 44.0,16.5 37.0,18.5 33.0,16.0 C 30.0,14.0 30.0,3.5 30.0,3.5 Z" fill="none" stroke="#000000" stroke-width="1.2"/>
  </g>
  <!-- LAYER 2: stamp — wewnętrzne detale embossera -->
  <g id="stamp">
    <path id="stamp_outline" d="M 28.78,21.81 Q 30.00,19.51 31.22,21.81 Q 32.44,24.10 34.93,23.34 Q 37.42,22.58 36.66,25.07 Q 35.90,27.56 38.19,28.78 Q 40.49,30.00 38.19,31.22 Q 35.90,32.44 36.66,34.93 Q 37.42,37.42 34.93,36.66 Q 32.44,35.90 31.22,38.19 Q 30.00,40.49 28.78,38.19 Q 27.56,35.90 25.07,36.66 Q 22.58,37.42 23.34,34.93 Q 24.10,32.44 21.81,31.22 Q 19.51,30.00 21.81,28.78 Q 24.10,27.56 23.34,25.07 Q 22.58,22.58 25.07,23.34 Q 27.56,24.10 28.78,21.81 Z" fill="none" stroke="#666666" stroke-width="0.8"/>
    <circle cx="22.80" cy="30.00" r="1.50" fill="#999999"/>
    <circle cx="30.00" cy="30.00" r="1.50" fill="#999999"/>
    <circle cx="37.20" cy="30.00" r="1.50" fill="#999999"/>
  </g>
</svg>