<?xml version="1.0" encoding="utf-8"?>
<svg xmlns="http://www.w3.org/2000/svg"
     width="110.0mm" height="110.0mm"
     viewBox="0 0 110.0 110.0">
  <rect width="110.0mm" height="110.0mm" fill="white"/>
  <!-- LAYER 1: outer — zewnętrzna sylwetka cuttera -->
  <g id="outer">
    <path id="outer_contour" d="M 55.0,7.0 C 62.0,5.0 70.0,10.0 72.0,16.0 C 74.0,12.0 80.0,8.0 87.0,10.0 C 94.0,12.0 97.0,20.0 95.0,26.0 C 100.0,22.0 107.0,24.0 108.0,31.0 C 109.0,38.0 104.0,43.0 100.0,45.0 C 106.0,48.0 108.0,55.0 105.0,61.0 C 102.0,67.0 96.0,69.0 92.0,68.0 C 96.0,73.0 95.0,80.0 90.0,84.0 C 85.0,88.0 78.0,87.0 75.0,84.0 C 76.0,89.0 73.0,95.0 67.0,97.0 C 61.0,99.0 55.0,96.0 52.0,92.0 C 51.0,97.0 46.0,102.0 40.0,102.0 C 34.0,102.0 29.0,97.0 28.0,92.0 C 25.0,96.0 19.0,99.0 13.0,97.0 C 7.0,95.0 4.0,89.0 5.0,84.0 C 2.0,87.0 -1.0,88.0 -1.0,84.0 C 15.0,88.0 10.0,80.0 14.0,75.0 C 8.0,77.0 4.0,73.0 3.0,67.0 C 2.0,61.0 5.0,55.0 9.0,52.0 C 4.0,50.0 2.0,44.0 3.0,38.0 C 4.0,32.0 9.0,27.0 14.0,26.0 C 10.0,22.0 9.0,15.0 13.0,10.0 C 17.0,5.0 25.0,4.0 30.0,8.0 C 30.0,4.0 34.0,2.0 39.0,2.0 C 45.0,2.0 50.0,5.0 51.0,9.0 C 52.0,7.0 53.0,7.0 55.0,7.0 Z" fill="none" stroke="#000000" stroke-width="1.2"/>
  </g>
  <!-- LAYER 2: stamp — wewnętrzne detale embossera -->
  <g id="stamp">
    <path id="stamp_outline" d="M 52.76,39.98 Q 55.00,35.77 57.24,39.98 Q 59.48,44.19 64.04,42.80 Q 68.60,41.40 67.20,45.96 Q 65.81,50.52 70.02,52.76 Q 74.23,55.00 70.02,57.24 Q 65.81,59.48 67.20,64.04 Q 68.60,68.60 64.04,67.20 Q 59.48,65.81 57.24,70.02 Q 55.00,74.23 52.76,70.02 Q 50.52,65.81 45.96,67.20 Q 41.40,68.60 42.80,64.04 Q 44.19,59.48 39.98,57.24 Q 35.77,55.00 39.98,52.76 Q 44.19,50.52 42.80,45.96 Q 41.40,41.40 45.96,42.80 Q 50.52,44.19 52.76,39.98 Z" fill="none" stroke="#666666" stroke-width="0.8"/>
    <circle cx="41.80" cy="55.00" r="2.75" fill="#999999"/>
    <circle cx="55.00" cy="55.00" r="2.75" fill="#999999"/>
    <circle cx="68.20" cy="55.00" r="2.75" fill="#999999"/>
  </g>
</svg>