<?xml version="1.0" encoding="utf-8"?>
<svg xmlns="http://www.w3.org/2000/svg"
     width="50.0mm" height="50.0mm"
     viewBox="0 0 50.0 50.0">
  <rect width="50.0mm" height="50.0mm" fill="white"/>
  <!-- LAYER 1: outer — zewnętrzna sylwetka cuttera -->
  <g id="outer">
    <path id="outer_contour" d="M 25.0,3.5 C 29.5,2.8 33.0,5.5 34.0,8.5 C 36.5,5.0 41.0,4.5 44.0,7.5 C 47.0,10.5 46.5,14.5 44.0,17.0 C 47.5,18.5 48.0,23.0 46.5,26.0 C 48.0,29.5 47.0,33.5 44.0,35.5 C 45.0,39.0 43.0,42.5 39.5,43.5 C 38.5,46.5 35.0,48.0 31.5,47.0 C 29.0,48.5 25.5,48.5 23.0,47.0 C 19.5,48.5 16.0,47.5 14.0,44.5 C 10.5,45.0 7.5,43.0 6.5,39.5 C 3.5,38.0 2.5,34.5 3.5,31.5 C 2.0,29.0 2.0,25.5 4.0,23.0 C 2.5,20.0 3.5,16.5 6.5,14.5 C 5.5,11.5 7.0,8.0 10.5,7.0 C 12.0,4.0 16.0,3.0 19.0,4.5 C 21.0,3.0 23.0,2.8 25.0,3.5 C 23.5,8.0 20.0,11.0 17.0,13.0 C 14.0,14.5 11.0,16.5 9.5,20.0 C 8.0,23.5 8.5,27.0 9.5,30.0 C 10.5,33.0 12.0,36.0 15.0,38.0 C 18.0,40.0 21.0,40.5 24.0,40.5 C 27.0,40.5 30.5,40.5 33.5,38.5 C 36.5,36.5 38.5,33.5 39.5,30.5 C 40.5,27.5 41.0,24.0 40.0,20.5 C 39.0,17.0 36.5,14.5 34.0,13.0 C 31.5,11.5 28.5,9.0 27.0,6.5 C 26.0,4.8 25.3,4.0 25.0,3.5 Z" fill="none" stroke="#000000" stroke-width="1.2"/>
  </g>
  <!-- LAYER 2: stamp — wewnętrzne detale embossera -->
  <g id="stamp">
    <path id="stamp_outline" d="M 23.98,18.17 Q 25.00,16.26 26.02,18.17 Q 27.04,20.08 29.11,19.45 Q 31.18,18.82 30.55,20.89 Q 29.92,22.96 31.83,23.98 Q 33.74,25.00 31.83,26.02 Q 29.92,27.04 30.55,29.11 Q 31.18,31.18 29.11,30.55 Q 27.04,29.92 26.02,31.83 Q 25.00,33.74 23.98,31.83 Q 22.96,29.92 20.89,30.55 Q 18.82,31.18 19.45,29.11 Q 20.08,27.04 18.17,26.02 Q 16.26,25.00 18.17,23.98 Q 20.08,22.96 19.45,20.89 Q 18.82,18.82 20.89,19.45 Q 22.96,20.08 23.98,18.17 Z" fill="none" stroke="#666666" stroke-width="0.8"/>
    <circle cx="19.00" cy="25.00" r="1.50" fill="#999999"/>
    <circle cx="25.00" cy="25.00" r="1.50" fill="#999999"/>
    <circle cx="31.00" cy="25.00" r="1.50" fill="#999999"/>
  </g>
</svg>