<?xml version="1.0" encoding="utf-8"?>
<svg xmlns="http://www.w3.org/2000/svg"
     width="150.0mm" height="150.0mm"
     viewBox="0 0 150.0 150.0">
  <rect width="150.0mm" height="150.0mm" fill="white"/>
  <!-- LAYER 1: outer — zewnętrzna sylwetka cuttera -->
  <g id="outer">
    <path id="outer_contour" d="M 75.0,9.0 C 88.0,9.0 98.0,16.0 104.0,24.0 C 110.0,18.0 120.0,14.0 130.0,18.0 C 140.0,22.0 146.0,34.0 142.0,46.0 C 148.0,52.0 148.0,64.0 142.0,74.0 C 148.0,82.0 148.0,94.0 140.0,102.0 C 144.0,112.0 140.0,124.0 130.0,130.0 C 122.0,136.0 112.0,136.0 104.0,132.0 C 98.0,140.0 88.0,146.0 76.0,146.0 C 64.0,146.0 54.0,140.0 48.0,132.0 C 40.0,136.0 30.0,136.0 22.0,130.0 C 12.0,124.0 8.0,112.0 12.0,102.0 C 4.0,94.0 2.0,82.0 8.0,74.0 C 4.0,64.0 4.0,52.0 10.0,46.0 C 6.0,34.0 12.0,22.0 22.0,18.0 C 32.0,14.0 42.0,18.0 48.0,24.0 C 54.0,16.0 64.0,9.0 75.0,9.0 Z" fill="none" stroke="#000000" stroke-width="1.2"/>
  </g>
  <!-- LAYER 2: stamp — wewnętrzne detale embossera -->
  <g id="stamp">
    <path id="stamp_outline" d="M 71.95,54.52 Q 75.00,48.78 78.05,54.52 Q 81.11,60.25 87.32,58.36 Q 93.54,56.46 91.64,62.68 Q 89.75,68.89 95.48,71.95 Q 101.22,75.00 95.48,78.05 Q 89.75,81.11 91.64,87.32 Q 93.54,93.54 87.32,91.64 Q 81.11,89.75 78.05,95.48 Q 75.00,101.22 71.95,95.48 Q 68.89,89.75 62.68,91.64 Q 56.46,93.54 58.36,87.32 Q 60.25,81.11 54.52,78.05 Q 48.78,75.00 54.52,71.95 Q 60.25,68.89 58.36,62.68 Q 56.46,56.46 62.68,58.36 Q 68.89,60.25 71.95,54.52 Z" fill="none" stroke="#666666" stroke-width="0.8"/>
    <circle cx="57.00" cy="75.00" r="3.75" fill="#999999"/>
    <circle cx="75.00" cy="75.00" r="3.75" fill="#999999"/>
    <circle cx="93.00" cy="75.00" r="3.75" fill="#999999"/>
  </g>
</svg>